<?xml version="1.0" encoding="UTF-8" standalone="no"?>
<!DOCTYPE svg PUBLIC "-//W3C//DTD SVG 1.1//EN" "http://www.w3.org/Graphics/SVG/1.1/DTD/svg11.dtd">
<svg width="800px" height="82px" version="1.1" xmlns="http://www.w3.org/2000/svg" xmlns:xlink="http://www.w3.org/1999/xlink" xml:space="preserve" xmlns:serif="http://www.serif.com/" style="fill-rule:evenodd;clip-rule:evenodd;stroke-linejoin:round;stroke-miterlimit:2;">
    <g id="Lag-1" serif:id="Lag 1">
        <g>
            <path d="M586.653,38.856C586.653,34.798 589.941,31.509 593.998,31.509C598.061,31.509 601.348,34.798 601.348,38.856C601.348,42.914 598.061,46.206 593.998,46.206C589.941,46.206 586.653,42.914 586.653,38.856" style="fill:rgb(237,28,36);fill-rule:nonzero;"/>
        </g>
        <g>
            <path d="M34.244,11.049L34.244,3.261L0,3.261L0,78.539L8.386,78.539L8.386,41.2L33.445,41.2L33.445,33.412L8.386,33.412L8.386,11.049L34.244,11.049Z" style="fill:rgb(0,90,170);fill-rule:nonzero;"/>
        </g>
        <g>
            <path d="M65.116,3.261L56.73,3.261L56.73,78.539L85.883,78.539L85.883,70.751L65.116,70.751L65.116,3.261Z" style="fill:rgb(0,90,170);fill-rule:nonzero;"/>
        </g>
        <g>
            <path d="M103.201,78.539L142.238,78.539L142.238,70.751L111.587,70.751L111.587,41.2L141.339,41.2L141.339,33.412L111.587,33.412L111.587,11.049L142.238,11.049L142.238,3.261L103.201,3.261L103.201,78.539Z" style="fill:rgb(0,90,170);fill-rule:nonzero;"/>
        </g>
        <g>
            <path d="M166.008,78.539L174.394,78.539L174.394,20.533L233.098,81.933L233.098,3.261L224.712,3.261L224.712,61.567L166.008,0.067L166.008,78.539Z" style="fill:rgb(0,90,170);fill-rule:nonzero;"/>
        </g>
        <g>
            <path d="M298.649,13.644C294.656,6.257 287.566,1.963 279.18,1.963C267.998,1.963 258.114,9.451 258.114,21.133C258.114,31.915 265.702,36.407 274.488,40.401L279.081,42.397C286.07,45.593 292.958,48.589 292.958,57.374C292.958,65.859 285.571,72.049 277.484,72.049C269.396,72.049 263.506,65.76 262.407,58.073L254.221,60.37C256.618,72.049 265.603,79.837 277.682,79.837C290.762,79.837 301.344,69.754 301.344,56.575C301.344,44.594 293.057,39.702 283.273,35.41L278.282,33.212C273.19,30.916 266.502,27.922 266.502,21.432C266.502,14.544 272.292,9.751 278.98,9.751C285.371,9.751 288.965,12.745 291.96,17.938L298.649,13.644Z" style="fill:rgb(0,90,170);fill-rule:nonzero;"/>
        </g>
        <g>
            <path d="M331.006,11.049L334.302,11.049C344.584,11.049 351.773,12.247 351.773,23.628C351.773,35.309 343.686,36.407 334.201,36.407L331.006,36.407L331.006,11.049ZM322.619,78.539L340.092,78.539C354.968,78.539 367.047,72.55 367.047,57.574C367.047,48.588 361.756,40.501 352.77,38.303C357.863,34.91 360.159,29.719 360.159,23.628C360.159,8.253 348.678,3.261 334.999,3.261L322.619,3.261L322.619,78.539ZM331.006,43.597L338.295,43.597C347.479,43.597 358.661,45.291 358.661,56.975C358.661,68.455 348.777,70.751 339.393,70.751L331.006,70.751L331.006,43.597Z" style="fill:rgb(0,90,170);"/>
        </g>
        <g>
            <path d="M396.51,3.261L388.122,3.261L388.122,50.385C388.122,58.969 388.922,65.858 395.511,72.15C400.603,77.142 407.89,79.837 414.98,79.837C422.566,79.837 430.056,76.841 435.246,71.251C441.238,65.06 441.836,58.571 441.836,50.385L441.836,3.261L433.45,3.261L433.45,48.088C433.45,53.979 433.748,60.57 429.755,65.361C426.261,69.554 420.372,72.049 414.98,72.049C409.489,72.049 403.099,69.452 399.805,64.86C396.31,60.069 396.51,53.681 396.51,48.088L396.51,3.261Z" style="fill:rgb(0,90,170);fill-rule:nonzero;"/>
        </g>
        <g>
            <path d="M474.114,45.494L476.211,45.494L498.972,78.539L509.256,78.539L485.295,44.794C496.875,43.796 504.164,35.608 504.164,24.028C504.164,7.056 490.887,3.261 476.609,3.261L465.728,3.261L465.728,78.539L474.114,78.539L474.114,45.494ZM474.114,11.049L476.609,11.049C486.693,11.049 495.777,12.247 495.777,24.626C495.777,36.308 486.194,38.105 476.709,38.105L474.114,38.105L474.114,11.049Z" style="fill:rgb(0,90,170);"/>
        </g>
        <g>
            <path d="M594.221,47.209C595.224,53.006 598.243,57.594 602.759,62.188C608.25,67.678 616.238,71.772 624.123,71.772C637.203,71.772 650.685,61.677 651.829,47.928L651.899,47.215L652.433,47.212C653.683,53.937 657.38,58.808 660.946,62.188C666.58,67.531 674.424,71.772 682.311,71.772C695.391,71.772 708.41,62.244 709.905,48.209L710.029,47.215L710.55,47.215C711.402,51.736 714.29,57.329 719.066,62.188C724.554,67.678 732.541,71.772 740.43,71.772C753.507,71.772 766.848,61.893 767.992,48.144L768.122,47.212L768.83,47.226C769.942,51.914 772.345,57.293 777.154,62.188C782.645,67.678 790.63,71.772 798.519,71.772C798.904,71.772 799.596,71.682 799.98,71.665L800,79.538L798.718,79.559C787.024,79.559 776.53,74.195 769.437,65.826C769.133,66.21 768.815,66.596 768.483,66.98C761.595,74.968 751.112,79.559 740.63,79.559C728.927,79.559 718.427,74.189 711.334,65.809C711.025,66.199 710.701,66.59 710.367,66.98C703.476,74.968 692.994,79.559 682.51,79.559C670.788,79.559 660.274,74.169 653.181,65.766C652.86,66.171 652.526,66.576 652.177,66.98C645.289,74.968 634.806,79.559 624.323,79.559C611.992,79.559 600.997,73.596 593.914,64.432C586.793,73.621 575.669,79.559 563.148,79.559C541.669,79.559 524.255,62.147 524.255,40.666C524.255,19.184 541.669,1.772 563.148,1.772C574.034,1.772 583.938,6.161 590.998,13.286L585.253,18.84C579.621,13.136 571.796,9.601 563.148,9.601C545.991,9.601 532.085,23.51 532.085,40.666C532.085,57.821 545.991,71.73 563.148,71.73C578.08,71.73 590.657,61.259 593.645,47.218L594.221,47.209Z" style="fill:rgb(0,90,170);fill-rule:nonzero;"/>
        </g>
    </g>
</svg>
