<?xml version="1.0" encoding="UTF-8" standalone="no"?>
<svg
   version="1.1"
   width="710.66113"
   height="502.81284"
   id="svg3046"
   xmlns="http://www.w3.org/2000/svg"
   xmlns:svg="http://www.w3.org/2000/svg">
  <defs
     id="defs3048" />
  <g
     transform="translate(-47.526573,-283.81291)"
     id="layer1">
    <path
       d="m 618.31842,778.38055 z m 0.0142,0.0784 z m -0.0198,0.0195 z m 0,-0.13707 z m 89.82762,-162.59093 c 0,-11.14409 -8.11125,-19.96927 -10.9585,-22.45442 l -2.05468,0.46969 c 3.03374,3.70806 8.38526,9.91122 8.38526,18.12006 0,16.1631 -17.09281,30.2229 -36.59277,30.4869 0.14699,1.66328 0.13736,3.13099 0.13736,4.38326 0,2.30913 -0.14699,4.57899 -0.42099,6.77063 22.13153,-0.40124 41.50404,-18.39401 41.50404,-37.77612 v 0 z m -30.51679,133.87483 c -9.45126,0 -11.49603,-0.98824 -13.99125,-0.98824 -1.59433,0 -3.11077,0.15661 -3.11077,2.41668 0,1.57528 1.76085,3.86469 3.35589,5.07784 2.22064,-2.21118 5.27364,-2.69047 10.20431,-2.69047 2.29924,0 5.44017,0.44995 6.82917,0.6359 -0.19541,1.35999 -0.46913,3.12123 -0.46913,5.58663 0,1.31111 0.0481,2.82771 0.0481,4.43217 0,5.56725 -0.82216,8.53167 -2.76908,10.76242 0.42099,0.26434 1.5459,0.48923 2.21116,0.48923 3.6204,0 4.54013,-1.83927 4.54013,-11.23191 0,-2.8375 0.23435,-5.46948 0.23435,-6.14451 5.04878,3.85492 10.20503,10.7331 10.20503,15.71315 1.65351,-0.84141 3.59109,-3.33632 3.59109,-5.21473 0,-3.38539 -5.66546,-8.43391 -11.67276,-14.51956 0.83151,-0.20552 3.0724,-0.84142 4.90179,-0.84142 4.71586,0 8.54174,0.78258 10.76238,3.395 0.87073,-0.94915 1.60452,-3.82556 1.60452,-5.44974 0,-2.82753 -1.62392,-2.72976 -2.80802,-2.72976 -5.01889,0 -11.2318,0.77298 -15.67393,1.51662 -1.62449,-2.1623 -11.91689,-16.09483 -14.58797,-23.5209 -0.77331,-0.27397 -1.37003,-0.49886 -2.63215,-0.49886 -2.47497,0 -3.12083,1.73172 -3.76669,4.09952 5.68458,6.89757 11.14429,14.38249 12.99308,19.70494 v 0 z m -56.39476,-19.70494 c -0.63623,-2.3678 -1.27204,-4.09952 -3.74785,-4.09952 -1.28139,0 -1.87825,0.22489 -2.6221,0.49886 -2.69063,7.42607 -12.98302,21.3586 -14.60751,23.5209 -4.43194,-0.74364 -10.65419,-1.51662 -15.67351,-1.51662 -1.1841,0 -2.80816,-0.0978 -2.80816,2.72976 0,1.62418 0.72374,4.50059 1.61457,5.44974 2.21073,-2.61242 6.03647,-3.395 10.75233,-3.395 1.8393,0 4.06051,0.6359 4.8923,0.84142 -6.0073,6.08565 -11.67262,11.13418 -11.67262,14.51956 0,1.87841 1.95684,4.37331 3.6003,5.21473 0,-4.98005 5.15611,-11.85824 10.20502,-15.71316 0,0.67503 0.23493,3.30701 0.23493,6.14451 0,9.39265 0.92921,11.23192 4.53942,11.23192 0.66526,0 1.78096,-0.22489 2.2113,-0.48923 -1.94679,-2.23075 -2.76852,-5.19517 -2.76852,-10.76242 0,-1.60446 0.068,-3.12106 0.068,-4.43217 0,-2.4654 -0.29411,-4.22664 -0.48004,-5.58663 1.37017,-0.18595 4.52059,-0.6359 6.82988,-0.6359 4.91127,0 7.9637,0.47929 10.1944,2.69047 1.59504,-1.21315 3.3658,-3.50256 3.3658,-5.07784 0,-2.26007 -1.51644,-2.41668 -3.12082,-2.41668 -2.50456,0 -4.53985,0.98824 -13.99125,0.98824 1.85884,-5.32245 7.3085,-12.80737 12.98359,-19.70494 v 0 z M 582.36656,611.88587 c 0,-8.20884 5.35152,-14.412 8.37521,-18.12006 l -2.03543,-0.46969 c -2.87656,2.48515 -10.9677,11.31033 -10.9677,22.45442 0,19.51916 19.63631,37.63905 41.98323,37.78589 -0.24427,-2.12319 -0.38134,-4.3637 -0.38134,-6.7804 0,-1.50666 0.0581,-2.98415 0.19527,-4.36353 -19.74422,0 -37.16924,-14.18692 -37.16924,-30.50663 z m 60.01503,-15.02835 c 1.01771,-2.3383 2.38717,-5.11694 2.38717,-8.17932 0,-8.46323 -7.02444,-12.49432 -16.41736,-12.49432 -4.82334,0 -7.25951,1.55572 -7.25951,3.12105 0,1.5655 1.59433,5.00956 2.21074,6.06609 1.73182,-0.77279 4.87275,-1.68283 6.68274,-1.68283 6.45718,0 11.27103,7.22058 12.39622,13.16933 z m 4.61787,-10.82109 c 5.4893,1.06649 9.23644,-5.94875 4.0118,-7.20102 0.72417,2.31875 -2.78862,3.9527 -2.78862,3.9527 0,0 -1.34057,-3.1015 0.40131,-4.87251 -3.19942,-1.55554 -4.00147,0.34257 -4.07,2.30914 1.26212,1.68284 2.07436,3.63962 2.44551,5.81169 z m 17.77804,48.06901 c 0.87072,0.0585 1.71186,0.10762 2.59264,0.10762 15.44864,0 30.7908,-9.9994 30.7908,-22.81638 0,-6.82928 -3.07268,-11.60383 -6.86896,-16.89713 -2.2307,0.37191 -4.26556,0.57742 -5.86059,0.57742 -6.99556,0 -10.80189,-3.74735 -11.07561,-7.43587 0,-3.31694 2.70054,-5.83141 6.88807,-5.83141 6.50631,0 18.35494,6.08581 30.30156,6.08581 -1.17433,0.89032 -3.13102,1.82951 -5.48945,2.71003 7.00589,6.30094 11.68281,14.74462 13.46307,23.7753 l 18.30566,29.29332 c 3.07268,4.90184 9.5695,14.50977 19.36302,22.01407 -11.839,0 -19.69537,0.27396 -29.70427,-15.55652 l -9.37352,-15.00878 c -0.69401,1.93723 -1.55539,3.83535 -2.55356,5.69435 l 18.64877,29.86079 c 3.11148,4.94094 9.52971,14.48043 19.37237,22.02385 -11.83914,0 -19.67583,0.28374 -29.6945,-15.55651 l -16.06547,-25.71255 c -1.19359,1.27199 -2.46577,2.52443 -3.80634,3.7278 l 22.66992,36.26927 c 3.12082,4.97045 9.5198,14.46088 19.37251,22.01424 -11.84849,0 -19.69537,0.28375 -29.71447,-15.55668 l -22.08268,-35.35941 c -1.46759,0.91964 -2.94509,1.80016 -4.48094,2.65136 l 26.95488,43.14762 c 3.11148,4.9605 9.51031,14.4607 19.37251,22.01408 -11.83858,0 -19.69537,0.28372 -29.69436,-15.55671 L 678.6413,670.34544 c -1.64389,0.63591 -3.3168,1.2327 -5.00926,1.77101 l 31.37747,50.23112 c 3.05228,4.87234 9.61778,14.51955 19.35296,22.0043 -11.82908,0 -19.68588,0.27395 -29.68515,-15.56647 l -33.4415,-53.51857 -1.0279,0.17617 c -0.90004,2.89598 -1.53585,5.59641 -1.53585,8.29683 0,16.80895 11.03624,31.66113 24.2937,43.12789 -0.86124,0.37191 -2.33804,0.5088 -3.69829,0.5088 -2.73,0 -4.50091,-0.15661 -5.74349,-0.37174 3.08189,6.97597 9.66679,15.97732 12.99365,20.64432 4.344,-0.77298 10.6549,-1.38933 14.77361,-1.38933 4.32503,0 4.80436,2.53403 4.80436,4.7941 0,3.92335 -1.8393,7.06413 -3.96266,8.81541 -0.80205,-2.03501 -2.41663,-4.7061 -10.40058,-4.7061 l -0.80233,0.0293 c 2.33832,2.61242 9.63747,8.51212 9.63747,13.27708 0,3.14061 -3.45402,7.86627 -8.01341,7.86627 0.28378,-1.01759 0.23478,-1.9568 0.23478,-2.65154 0,-3.84513 -3.40474,-8.35551 -6.29135,-11.50607 0.0793,0.93936 0.0396,0.84141 0.0396,1.93742 0,9.09913 -0.81225,13.28667 -6.60444,13.28667 -2.83748,0 -4.79417,-1.55573 -5.46892,-2.01546 3.75663,-3.47339 3.96196,-6.18359 3.96196,-11.29093 l -0.0382,-4.43217 c -0.0142,-1.16426 0.0142,-2.70026 0.18592,-3.82558 -2.07422,-0.28373 -2.89595,-0.27378 -4.49099,-0.27378 0,-0.01 -8.22822,-0.65563 -10.20431,3.62007 -2.2215,-2.03519 -5.4498,-4.92139 -5.4498,-8.13062 0,-2.10345 0.98826,-4.48103 5.20468,-4.48103 1.61443,0 6.65329,0.98825 10.87042,0.98825 -1.12519,-2.52441 -6.18345,-9.90145 -10.53751,-15.26318 -0.66526,2.0743 -1.70237,4.33438 -4.0016,6.16388 -0.31352,-3.45368 -2.32869,-14.32382 -7.70995,-20.68326 -0.62632,4.2951 -1.47751,8.70768 -1.47751,18.01233 0,22.63043 5.4498,39.3514 17.00488,42.55067 -1.50653,2.63198 -4.67692,4.97028 -7.98395,4.97028 -4.22648,0 -6.52571,-4.78433 -8.87394,-9.2947 -1.22304,3.33633 -4.59833,11.48633 -7.99387,11.48633 -3.3852,0 -6.76063,-8.15 -7.97361,-11.48633 -2.34823,4.51037 -4.65752,9.2947 -8.89405,9.2947 -3.28735,0 -6.47671,-2.3383 -7.96371,-4.97028 11.54503,-3.19927 16.99455,-19.92024 16.99455,-42.55067 0,-9.30465 -0.84099,-13.71723 -1.47737,-18.01233 -5.38126,6.35944 -7.40663,17.22958 -7.70994,20.68326 -2.2991,-1.8295 -3.33649,-4.08958 -4.00175,-6.16388 -4.35392,5.36173 -9.40213,12.73877 -10.54672,15.26318 4.23653,0 9.26534,-0.98825 10.87977,-0.98825 4.22662,0 5.22479,2.37758 5.22479,4.48103 0,3.20923 -3.24841,6.09543 -5.46976,8.13062 -1.98587,-4.2757 -10.19441,-3.62007 -10.19441,-3.62007 -1.60494,0 -2.42668,-0.01 -4.50118,0.27378 0.17672,1.12532 0.21566,2.66132 0.18592,3.82558 l -0.0297,4.43217 c 0,5.10734 0.19612,7.81754 3.95332,11.29093 -0.66583,0.45973 -2.63215,2.01546 -5.46977,2.01546 -5.78186,0 -6.61364,-4.18754 -6.61364,-13.28667 0,-1.09601 -0.0297,-0.99806 0.0496,-1.93742 -2.88661,3.15056 -6.2915,7.66094 -6.2915,11.50607 0,0.69474 -0.0496,1.63395 0.22501,2.65154 -4.53942,0 -8.00335,-4.72566 -8.00335,-7.86627 0,-4.76496 7.30921,-10.66466 9.63719,-13.27708 l -0.80205,-0.0293 c -7.98381,0 -9.60774,2.67109 -10.40044,4.7061 -2.13285,-1.75128 -3.96224,-4.89206 -3.96224,-8.81541 0,-2.26007 0.47933,-4.7941 4.80394,-4.7941 4.13854,0 10.43938,0.61635 14.7739,1.38933 3.31638,-4.667 9.91105,-13.66835 12.99307,-20.64432 -1.24258,0.21513 -3.00414,0.37174 -5.73357,0.37174 -1.37002,0 -2.85701,-0.13693 -3.6888,-0.5088 13.23819,-11.46676 24.26495,-26.31894 24.26495,-43.12789 0,-2.70042 -0.61697,-5.40085 -1.53655,-8.29683 l -1.00766,-0.17617 -33.4415,53.51857 c -10.00918,15.84042 -17.86612,15.56647 -29.6945,15.56647 9.74467,-7.48475 16.28978,-17.13196 19.35226,-22.0043 l 31.38738,-50.23112 c -1.70237,-0.53831 -3.3658,-1.1351 -5.01932,-1.77101 l -27.75706,44.43898 c -10.0089,15.84043 -17.87532,15.55671 -29.69478,15.55671 9.85257,-7.55338 16.24149,-17.05358 19.35283,-22.01408 l 26.97498,-43.14762 c -1.54618,-0.8512 -3.03303,-1.73172 -4.49099,-2.65136 l -22.0926,35.35941 c -10.00904,15.84042 -17.85592,15.55668 -29.69449,15.55668 9.84265,-7.55336 16.25168,-17.04379 19.36245,-22.01424 l 22.65967,-36.26927 c -1.33052,-1.20337 -2.60241,-2.45581 -3.796,-3.7278 l -16.05556,25.71255 c -10.01867,15.84026 -17.86555,15.55651 -29.70455,15.55651 9.83317,-7.54342 16.2616,-17.0829 19.37251,-22.02384 l 18.64877,-29.8608 c -0.98826,-1.85899 -1.8495,-3.75711 -2.54436,-5.69434 l -9.38272,15.00878 c -10.00918,15.83048 -17.86527,15.55651 -29.69436,15.55651 9.79352,-7.5043 16.28043,-17.11223 19.36232,-22.01407 l 18.29631,-29.29332 c 1.78096,-9.03068 6.45731,-17.47436 13.46292,-23.7753 -2.34823,-0.88052 -4.30492,-1.81971 -5.48916,-2.71003 11.94648,0 23.79482,-6.07604 30.29193,-6.07604 4.20693,0 6.88736,2.5047 6.88736,5.82164 -0.26381,3.68852 -4.07,7.43588 -11.07504,7.43588 -1.58498,0 -3.62026,-0.20552 -5.8511,-0.57743 -3.78609,5.2933 -6.85877,10.06786 -6.85877,16.89713 0,12.81698 15.32191,22.81638 30.80015,22.81638 0.86124,0 1.70237,-0.049 2.57367,-0.10762 3.06191,-10.3809 9.58819,-17.19063 14.80292,-23.85352 -6.25184,-2.26985 -13.21794,-8.19905 -13.21794,-10.88971 0.79213,-0.45972 12.75801,3.30701 14.00073,3.63979 0.25447,0.0684 0.50879,0.0783 0.80219,0 1.45811,-0.44033 2.67109,-2.5733 2.67109,-2.78859 -1.28152,-0.20533 -8.786,-1.1838 -13.92285,-3.05259 -3.89342,-1.41866 -5.87051,-4.01137 -5.87051,-4.98985 1.25264,-0.20551 5.99795,2.28941 12.97425,2.28941 2.5731,0 3.08202,-0.10762 5.63558,-0.42062 -1.8005,-4.28548 -5.17579,-7.90555 -8.98198,-7.90555 -1.5265,0 -4.87234,0.95893 -7.67101,2.35803 -1.94664,-3.02327 -3.65921,-7.00545 -3.65921,-9.18731 0,-2.56336 2.53416,-5.57684 9.69624,-5.57684 2.00583,0 3.87473,0.17617 5.61618,0.49901 1.39891,0.26418 2.57296,0.57724 3.83494,1.07625 -0.0977,-0.17617 -0.15619,-0.55768 -0.15619,-0.90986 0,-0.98825 0.90004,-2.03517 4.26612,-2.03517 5.88991,0 11.93628,1.93723 19.34277,1.93723 1.92724,0 3.21882,-0.0684 4.33396,-0.52835 -0.47933,1.46756 -2.56319,3.64956 -4.47089,5.41062 1.17405,1.60462 4.24602,5.48885 4.24602,11.76045 0,10.08724 -6.64324,18.40361 -6.64324,28.59857 0,6.04653 4.65681,11.38871 6.05643,14.5686 v 0 z"
       id="path9790"
       style="fill:#000000;fill-rule:evenodd;stroke:none" />
    <path
       d="M 581.07541,284.81291 318.14869,785.62575 h 71.99195 L 581.07541,284.81291"
       id="path4127"
       style="fill:#ffcc00;fill-opacity:1;fill-rule:evenodd;stroke:none" />
    <path
       d="M 581.07541,284.81291 243.02685,785.62575 h 75.12184 L 581.07541,284.81291"
       id="path4129"
       style="fill:#ff0000;fill-opacity:1;fill-rule:evenodd;stroke:none" />
    <path
       d="M 581.07541,284.81291 171.0349,785.62575 h 71.99195 L 581.07541,284.81291"
       id="path4131"
       style="fill:#000000;fill-opacity:1;fill-rule:evenodd;stroke:none" />
    <path
       d="m 48.526573,296.78125 v 116.37501 h 23.375 v -35.18751 l 18.9375,-19.4375 31.812497,54.62501 h 30.25 l -45.96875,-71.06251 43.59375,-45.3125 h -31.4375 L 71.901573,348.4375 v -51.65625 z m 118.687497,0 v 116.37501 h 39.375 c 14.89496,-0.10585 24.29261,-0.38915 28.1875,-0.8125 6.21056,-0.68796 11.45048,-2.51001 15.6875,-5.5 4.23683,-2.98998 7.58372,-6.99902 10.03125,-12 2.44731,-5.00093 3.65614,-10.14546 3.65625,-15.43751 -1.1e-4,-6.72083 -1.89806,-12.55671 -5.6875,-17.53125 -3.78965,-4.97443 -9.19733,-8.49855 -16.25,-10.5625 5,-2.2755 8.95379,-5.6988 11.875,-10.25 2.92101,-4.55106 4.3749,-9.54914 4.375,-15 -10e-5,-5.02732 -1.16288,-9.57651 -3.53125,-13.625 -2.36856,-4.04829 -5.35365,-7.28431 -8.90625,-9.71875 -3.55279,-2.43421 -7.5625,-4.01379 -12.0625,-4.78125 -4.50017,-0.76723 -11.342,-1.15613 -20.5,-1.15625 z m 152.15625,0 -45.09375,116.37501 h 24.8125 l 9.53125,-26.4375 h 46.28125 l 10.09375,26.4375 h 25.4375 L 344.08907,296.78125 Z m -128.78125,19.375 h 13.40625 c 11.00016,10e-5 17.65285,0.1105 19.96875,0.375 3.89474,0.47638 6.8387,1.84474 8.8125,4.09375 1.97365,2.2492 2.96867,5.18277 2.96875,8.78125 -8e-5,3.75741 -1.14806,6.7918 -3.4375,9.09375 -2.2896,2.3021 -5.4375,3.68004 -9.4375,4.15625 -2.21063,0.26467 -7.86337,0.40632 -16.96875,0.40625 h -15.3125 z m 140.84375,7.78125 15.96875,43.15625 h -31.59375 z m -140.84375,38.5 h 18.84375 c 10.63172,5e-5 17.56565,0.54497 20.75,1.65625 3.18419,1.11137 5.59692,2.87821 7.28125,5.3125 1.68416,2.43437 2.53117,5.41356 2.53125,8.90625 -8e-5,4.12781 -1.09709,7.41425 -3.28125,9.87501 -2.18434,2.46082 -4.99508,3.98997 -8.46875,4.625 -2.26328,0.4763 -7.6101,0.71877 -16.03125,0.71875 h -21.625 z"
       id="path3024"
       style="font-style:normal;font-variant:normal;font-weight:bold;font-stretch:normal;font-size:162.128px;font-family:Arial;-inkscape-font-specification:'Arial Bold';writing-mode:lr-tb;fill:#000000;fill-opacity:1;fill-rule:nonzero;stroke:none" />
  </g>
</svg>
