<svg width="100%" height="100%" viewBox="0 0 1138 465" version="1.1" xmlns="http://www.w3.org/2000/svg" xmlns:xlink="http://www.w3.org/1999/xlink" xml:space="preserve" style="fill-rule:evenodd;clip-rule:evenodd;stroke-linejoin:round;stroke-miterlimit:2;">
    <g id="path3009" transform="matrix(1.84035,0,0,-1.84035,31.6069,492.952)">
        <path d="M558,141.898C558,141.897 558,141.897 558,141.896C558,141.897 558,141.897 558,141.898ZM201.287,137.598C199.204,90.988 160.773,53.853 113.646,53.853C65.184,53.853 25.886,93.12 25.886,141.582C25.886,190.044 65.184,229.342 113.646,229.342C160.763,229.342 199.187,192.195 201.285,145.598L243.599,145.598L243.599,228.598L387.605,145.598L406.465,145.598L406.8,229.498C406.8,229.498 557.771,142.43 558,141.898C557.747,142.094 406.097,53.697 406.097,53.697L406.433,137.598L386.947,137.598L243.599,54.598L243.599,137.598L201.287,137.598ZM179.479,145.598C177.406,180.167 148.737,207.566 113.646,207.566C77.206,207.566 47.662,178.021 47.665,141.582C47.665,105.142 77.208,75.629 113.646,75.629C148.748,75.629 177.423,103.015 179.481,137.598L126.636,137.598C124.906,131.583 119.363,127.182 112.791,127.18C104.831,127.177 98.376,133.627 98.373,141.587L98.373,141.598C98.37,149.557 104.817,156.012 112.777,156.016C119.353,156.018 124.902,151.617 126.634,145.598L179.479,145.598ZM344.603,145.598L264.8,191.598C264.76,191.749 264.712,169.275 264.674,145.598L281.285,145.598C283.016,151.613 288.559,156.014 295.131,156.015C301.706,156.019 307.255,151.616 308.987,145.598L344.603,145.598ZM429.128,137.598L428.899,92.797L512.697,141.197L429.399,190.597L429.169,145.598L444.982,145.598C446.713,151.613 452.254,156.013 458.825,156.016C466.785,156.019 473.24,149.569 473.243,141.609L473.243,141.598C473.246,133.639 466.799,127.183 458.839,127.18C452.263,127.177 446.715,131.579 444.983,137.598L429.128,137.598ZM264.661,137.598C264.625,114 264.599,91.598 264.599,91.598L343.954,137.598L308.987,137.598C307.256,131.584 301.713,127.183 295.142,127.18C288.566,127.178 283.017,131.579 281.285,137.598L264.661,137.598Z" style="fill:rgb(235,235,235);"/>
    </g>
</svg>
