<?xml version="1.0" encoding="UTF-8" standalone="no"?><!DOCTYPE svg PUBLIC "-//W3C//DTD SVG 1.1//EN" "http://www.w3.org/Graphics/SVG/1.1/DTD/svg11.dtd"><svg width="100%" height="100%" viewBox="0 0 1004 650" version="1.1" xmlns="http://www.w3.org/2000/svg" xmlns:xlink="http://www.w3.org/1999/xlink" xml:space="preserve" xmlns:serif="http://www.serif.com/" style="fill-rule:evenodd;clip-rule:evenodd;stroke-linejoin:round;stroke-miterlimit:2;"><path d="M373.86,399.15l-252.706,0l-0,-100.737l228.667,-0l0,-115.169l304.295,-0l-0,115.169l228.667,-0l0,100.737l-252.706,0l0,50.231l-256.217,-0l-0,-50.231Z"/><path id="path3009" d="M457.347,251.004c-1.025,22.941 -19.94,41.219 -43.136,41.219c-23.853,-0 -43.195,-19.328 -43.195,-43.181c-0,-23.852 19.342,-43.195 43.195,-43.195c23.19,0 42.103,18.284 43.136,41.219l21.007,0l0.166,-41.296c-0,0 57.381,33.094 71.372,41.296l8.444,0l0.165,-41.296c-0,0 74.307,42.855 74.42,43.118c-0.124,-0.097 -74.766,43.411 -74.766,43.411l0.165,-41.295l-9.113,-0c-15.123,8.705 -71.033,41.295 -71.033,41.295l0.165,-41.295l-20.992,-0Zm119.947,-0l-7.803,-0l-0.113,22.05l41.245,-23.822l-40.999,-24.315l-0.113,22.149l7.783,0c0.852,-2.96 3.579,-5.126 6.814,-5.128c3.917,-0.001 7.095,3.174 7.096,7.091l0,0.006c0.002,3.917 -3.172,7.095 -7.09,7.096c-3.236,0.002 -5.967,-2.165 -6.82,-5.127Zm-50.304,-3.938l-37.347,-22.149l-0.113,22.149l7.192,0c0.852,-2.961 3.581,-5.127 6.815,-5.127c3.237,-0.002 5.968,2.165 6.82,5.127l16.633,0Zm-37.481,3.938l-0.112,22.05l38.178,-22.05l-17.218,-0c-0.852,2.96 -3.58,5.126 -6.814,5.127c-3.237,0.001 -5.968,-2.165 -6.821,-5.127l-7.213,-0Zm-42.895,-3.938c-1.021,-17.015 -15.131,-30.501 -32.403,-30.501c-17.936,0 -32.477,14.542 -32.476,32.477c0,17.936 14.541,32.462 32.476,32.462c17.277,0 31.391,-13.479 32.404,-30.5l-26.011,-0c-0.851,2.96 -3.579,5.126 -6.814,5.127c-3.918,0.002 -7.095,-3.173 -7.096,-7.091l-0,-0.005c-0.002,-3.918 3.171,-7.095 7.089,-7.097c3.237,-0.001 5.968,2.166 6.821,5.128l26.01,0Z" style="fill:#fff;"/><g><path d="M155.4,376.97c11.96,-0 21.898,-6.596 21.898,-18.469c-0,-8.266 -4.925,-13.719 -11.785,-15.302c4.749,-1.935 8.531,-6.772 8.531,-13.28c-0,-10.201 -8.795,-16.006 -18.644,-16.006c-10.554,0 -18.909,6.596 -18.909,17.501l7.388,0.528c0.088,-6.86 4.837,-10.817 11.784,-10.817c5.981,-0 10.818,3.078 10.818,9.762c-0,6.683 -5.189,9.937 -13.984,9.937l0,6.157c7.476,-0 17.238,1.055 17.238,10.729c-0,7.915 -6.244,12.048 -14.16,12.048c-8.53,0 -14.598,-4.661 -14.598,-12.752l-7.476,0.44c0,12.752 9.674,19.524 21.899,19.524Z" style="fill:#fff;fill-rule:nonzero;"/><rect x="189.171" y="365.801" width="8.795" height="10.29" style="fill:#fff;fill-rule:nonzero;"/><path d="M256.537,377.146c17.061,-0 28.494,-12.664 28.494,-31.66c-0,-19.085 -11.433,-31.749 -28.494,-31.749c-16.974,0 -28.407,12.664 -28.407,31.749c0,18.996 11.433,31.66 28.407,31.66Zm-0,-7.476c-12.577,0 -20.58,-9.41 -20.58,-24.184c0,-14.863 8.003,-24.273 20.58,-24.273c12.576,-0 20.667,9.41 20.667,24.273c-0,14.774 -8.091,24.184 -20.667,24.184Z" style="fill:#fff;fill-rule:nonzero;"/><path d="M297.255,376.09l7.827,0l0,-26.295l10.554,-0c13.104,-0 20.403,-6.244 20.403,-17.677c-0,-11.257 -7.124,-17.325 -20.403,-17.325l-18.381,-0l0,61.297Zm7.827,-33.507l0,-20.579l9.762,0c8.971,0 13.368,3.342 13.368,10.202c-0,6.947 -4.397,10.377 -13.368,10.377l-9.762,0Z" style="fill:#fff;fill-rule:nonzero;"/><path d="M347.648,376.09l40.455,0l-0,-7.211l-32.628,-0l-0,-20.491l29.637,-0l0,-7.212l-29.637,0l-0,-19.172l32.628,0l-0,-7.211l-40.455,-0l-0,61.297Z" style="fill:#fff;fill-rule:nonzero;"/><path d="M437.616,314.793l-0,47.754l-28.758,-47.754l-8.355,-0l-0,61.297l7.827,0l-0,-47.93l28.67,47.93l8.443,0l-0,-61.297l-7.827,-0Z" style="fill:#fff;fill-rule:nonzero;"/><path d="M482.819,376.09l16.974,0c20.403,0 31.572,-10.641 31.572,-30.165c0,-19.787 -11.433,-31.132 -31.484,-31.132l-17.062,-0l0,61.297Zm7.828,-7.211l-0,-46.875l9.058,0c15.918,0 23.745,7.827 23.745,23.569c0,15.831 -7.827,23.306 -24.361,23.306l-8.442,-0Z" style="fill:#fff;fill-rule:nonzero;"/><path d="M578.504,376.09l8.618,0l-23.481,-61.297l-6.156,-0l-23.481,61.297l8.618,0l5.453,-15.214l24.976,-0l5.453,15.214Zm-27.879,-22.162l9.938,-27.79l9.938,27.79l-19.876,0Z" style="fill:#fff;fill-rule:nonzero;"/><path d="M604.184,376.09l7.915,0l-0,-54.086l20.579,0l0,-7.211l-49.073,-0l-0,7.211l20.579,0l-0,54.086Z" style="fill:#fff;fill-rule:nonzero;"/><path d="M673.66,376.09l8.619,0l-23.481,-61.297l-6.156,-0l-23.482,61.297l8.619,0l5.452,-15.214l24.977,-0l5.452,15.214Zm-27.878,-22.162l9.938,-27.79l9.937,27.79l-19.875,0Z" style="fill:#fff;fill-rule:nonzero;"/><path d="M712.62,376.09l16.974,0c20.403,0 31.572,-10.641 31.572,-30.165c-0,-19.787 -11.433,-31.132 -31.484,-31.132l-17.062,-0l0,61.297Zm7.827,-7.211l0,-46.875l9.059,0c15.918,0 23.745,7.827 23.745,23.569c-0,15.831 -7.827,23.306 -24.361,23.306l-8.443,-0Z" style="fill:#fff;fill-rule:nonzero;"/><path d="M808.305,376.09l8.618,0l-23.481,-61.297l-6.156,-0l-23.482,61.297l8.619,0l5.453,-15.214l24.976,-0l5.453,15.214Zm-27.879,-22.162l9.938,-27.79l9.938,27.79l-19.876,0Z" style="fill:#fff;fill-rule:nonzero;"/><path d="M834.688,376.09l7.827,0l0,-23.657l23.306,-37.64l-9.323,-0l-18.028,30.077l-17.941,-30.077l-9.234,-0l23.393,37.64l0,23.657Z" style="fill:#fff;fill-rule:nonzero;"/></g><g><path d="M189.543,487.586c-3.781,0 -8.091,1.056 -11.96,4.309l3.078,-17.061l26.295,0l0,-7.211l-32.539,-0l-5.717,31.836l7.476,1.935c2.726,-4.046 6.771,-6.772 12.488,-6.772c8.443,-0 13.104,6.068 13.104,13.367c-0,7.564 -5.101,14.423 -13.72,14.423c-7.739,0 -12.664,-5.364 -13.807,-11.96l-7.388,1.231c1.671,10.026 9.938,18.029 21.283,18.029c12.488,-0 21.635,-10.114 21.635,-21.723c-0,-11.257 -8.443,-20.403 -20.228,-20.403Z" style="fill-rule:nonzero;"/><rect x="221.643" y="518.631" width="8.795" height="10.29" style="fill-rule:nonzero;"/><path d="M283.733,524.083l6.332,0l-0,-19.172l19.084,0l-0,-6.332l-19.084,0l-0,-19.172l-6.332,0l-0,19.172l-19.172,0l-0,6.332l19.172,0l-0,19.172Z" style="fill-rule:nonzero;"/><path d="M336.324,467.623l-0,7.211l34.562,0l-28.23,54.086l8.618,0l29.022,-56.9l0,-4.397l-43.972,-0Z" style="fill-rule:nonzero;"/><rect x="391.641" y="518.631" width="8.795" height="10.29" style="fill-rule:nonzero;"/><path d="M487.414,467.623l-18.645,47.138l-18.644,-47.138l-11.345,-0l-0,61.297l7.827,0l0,-50.832l18.381,45.644l7.651,-0l18.204,-45.468l0,50.656l7.916,0l-0,-61.297l-11.345,-0Z" style="fill-rule:nonzero;"/><path d="M524.263,467.623l-7.652,-0l0,9.234l7.652,-0l-0,-9.234Zm16.269,-0l-7.651,-0l0,9.234l7.651,-0l0,-9.234Zm-11.96,17.149c-7.563,-0 -13.456,2.902 -18.293,9.058l5.453,4.573c3.43,-4.573 7.563,-6.947 12.664,-6.947c6.596,-0 10.29,3.693 10.29,10.377l-0,1.759l-9.586,0c-7.3,0 -11.609,0.704 -14.863,2.463c-3.518,1.934 -5.453,5.452 -5.453,10.025c0,8.355 5.893,13.632 15.215,13.632c6.508,-0 11.696,-2.638 14.775,-7.3l0.527,6.508l6.948,0l-0,-27.087c-0,-10.729 -6.596,-17.061 -17.677,-17.061Zm-2.814,38.608c-5.805,-0 -9.41,-2.726 -9.41,-6.948c-0,-2.198 0.791,-3.869 2.198,-5.013c1.847,-1.407 4.837,-1.934 11.433,-1.934l8.707,-0l-0,0.439c-0,8.003 -5.277,13.456 -12.928,13.456Z" style="fill-rule:nonzero;"/><path d="M577.733,484.772c-4.573,-0 -9.762,2.023 -12.488,7.563l0,-6.772l-7.563,0l-0,43.357l7.563,0l0,-23.393c0,-8.97 4.309,-13.632 10.905,-13.632c1.935,0 3.782,0.44 5.629,1.32l3.693,-6.332c-2.55,-1.495 -5.012,-2.111 -7.739,-2.111Z" style="fill-rule:nonzero;"/><path d="M623.289,485.563l-34.387,0l0,6.42l25.065,0l-26.472,31.661l0,5.276l35.706,0l-0,-6.42l-25.768,0l25.856,-31.22l-0,-5.717Z" style="fill-rule:nonzero;"/><path d="M662.161,521.797c13.895,-8.619 27.087,-21.371 27.087,-36.321c-0,-11.697 -7.651,-18.733 -18.645,-18.733c-13.016,0 -20.139,9.85 -20.139,21.635l7.475,0.527c0.176,-8.179 3.782,-14.862 12.576,-14.862c7.3,-0 11.082,4.661 11.082,11.608c-0,15.655 -18.997,28.407 -32.188,36.586l-0,6.683l42.565,0l0,-7.123l-29.813,-0Z" style="fill-rule:nonzero;"/><path d="M719.413,529.8c14.863,-0 19.524,-15.127 19.524,-31.397c-0,-16.269 -4.837,-31.66 -20.14,-31.66c-16.797,0 -19.524,17.501 -19.524,31.572c0,14.072 2.903,31.485 20.14,31.485Zm-0.176,-7.212c-10.729,0 -12.224,-12.312 -12.224,-24.273c-0,-12.224 1.495,-24.36 11.784,-24.36c10.114,-0 11.961,11.433 11.961,24.36c-0,12.489 -1.759,24.273 -11.521,24.273Z" style="fill-rule:nonzero;"/><path d="M758.724,521.797c13.896,-8.619 27.088,-21.371 27.088,-36.321c-0,-11.697 -7.652,-18.733 -18.645,-18.733c-13.016,0 -20.139,9.85 -20.139,21.635l7.475,0.527c0.176,-8.179 3.782,-14.862 12.576,-14.862c7.3,-0 11.081,4.661 11.081,11.608c0,15.655 -18.996,28.407 -32.188,36.586l0,6.683l42.566,0l-0,-7.123l-29.814,-0Z" style="fill-rule:nonzero;"/><path d="M819.055,488.817c-2.726,-0.351 -5.541,-0.088 -8.091,0.616l13.631,-21.81l-8.618,-0l-18.381,30.341c-2.023,3.254 -3.254,7.211 -3.254,11.081c0,11.609 9.586,20.667 21.371,20.667c11.697,-0 21.283,-9.058 21.283,-20.755c-0,-10.554 -7.564,-18.996 -17.941,-20.14Zm-3.342,33.595c-7.651,0 -13.72,-5.804 -13.72,-13.455c0,-7.651 6.157,-13.456 13.72,-13.456c7.475,0 13.631,5.805 13.631,13.456c0,7.651 -6.156,13.455 -13.631,13.455Z" style="fill-rule:nonzero;"/></g><g><path d="M142.039,107.716l-9.716,24.566l-9.717,-24.566l-5.912,-0l-0,31.946l4.079,-0l-0,-26.492l9.579,23.787l3.987,0l9.488,-23.695l-0,26.4l4.125,-0l-0,-31.946l-5.913,-0Z" style="fill-rule:nonzero;"/><path d="M155.285,112.528l4.4,0l0,-4.812l-4.4,-0l0,4.812Zm0.229,27.134l3.942,-0l0,-22.596l-3.942,-0l0,22.596Z" style="fill-rule:nonzero;"/><path d="M176.323,120.274l-0,-3.208l-5.546,-0l-0,-8.296l-3.942,2.933l0,5.363l-3.712,-0l-0,3.208l3.712,0l0,13.75c0,4.263 2.567,6.05 5.821,6.05c1.192,0 2.429,-0.229 3.667,-0.642l-0,-3.345c-1.009,0.32 -1.925,0.504 -2.704,0.504c-1.788,-0 -2.842,-0.917 -2.842,-2.979l-0,-13.338l5.546,0Z" style="fill-rule:nonzero;"/><path d="M200.752,140.074c6.646,0 11.046,-5.179 11.046,-11.733c-0,-6.6 -4.446,-11.688 -11.046,-11.688c-6.646,0 -10.954,5.088 -10.954,11.688c-0,6.6 4.308,11.733 10.954,11.733Zm-0,-3.483c-4.583,-0 -7.013,-3.621 -7.013,-8.25c0,-4.629 2.384,-8.204 7.013,-8.204c4.629,-0 7.104,3.529 7.104,8.204c0,4.583 -2.475,8.25 -7.104,8.25Z" style="fill-rule:nonzero;"/><path d="M216.977,139.662l3.942,-0l-0,-19.388l8.479,0l-0,19.388l3.896,-0l-0,-19.388l6.554,0l-0,-3.208l-6.554,-0l-0,-2.934c-0,-2.291 1.237,-3.3 3.345,-3.3c0.688,0 1.375,0.23 2.063,0.596l1.283,-3.208c-1.146,-0.55 -2.337,-0.917 -3.666,-0.917c-1.834,0 -3.53,0.55 -4.767,1.513c-1.696,-1.054 -3.758,-1.513 -5.683,-1.513c-4.859,0 -8.892,3.025 -8.892,7.838l-0,1.925l-3.85,-0l-0,3.208l3.85,0l-0,19.388Zm3.942,-22.596l-0,-1.834c-0,-2.795 1.787,-4.675 5.133,-4.675c1.421,0 2.796,0.321 3.85,0.871c-0.321,0.688 -0.504,1.421 -0.504,2.292l-0,3.346l-8.479,-0Z" style="fill-rule:nonzero;"/><path d="M261.435,127.516c0,-5.5 -3.071,-10.863 -9.991,-10.863c-6.875,0 -10.267,5.592 -10.267,11.825c-0,6.279 3.437,11.596 10.633,11.596c3.575,0 6.325,-1.146 8.892,-3.896l-2.704,-2.429c-1.925,2.063 -3.85,2.704 -6.142,2.704c-4.171,0 -6.6,-2.612 -6.737,-6.921l16.179,0c0.091,-0.595 0.137,-1.375 0.137,-2.016Zm-16.316,-1.192c0.275,-3.392 2.429,-6.371 6.279,-6.371c3.804,0 6.096,2.475 6.233,5.959c0,0.183 0,0.32 0.046,0.412l-12.558,0Z" style="fill-rule:nonzero;"/><path d="M277.294,116.653c-3.071,0 -5.73,1.284 -7.242,3.484l-0,-3.071l-3.942,-0l0,22.596l3.942,-0l-0,-9.763c-0,-5.592 1.65,-9.762 6.187,-9.762c3.667,-0 4.721,2.658 4.721,6.416l0,13.109l3.942,-0l-0,-14.071c-0,-5.821 -2.658,-8.938 -7.608,-8.938Z" style="fill-rule:nonzero;"/><path d="M309.377,127.516c-0,-5.5 -3.071,-10.863 -9.992,-10.863c-6.875,0 -10.266,5.592 -10.266,11.825c-0,6.279 3.437,11.596 10.633,11.596c3.575,0 6.325,-1.146 8.892,-3.896l-2.705,-2.429c-1.925,2.063 -3.85,2.704 -6.141,2.704c-4.171,0 -6.6,-2.612 -6.738,-6.921l16.179,0c0.092,-0.595 0.138,-1.375 0.138,-2.016Zm-16.317,-1.192c0.275,-3.392 2.429,-6.371 6.279,-6.371c3.805,0 6.096,2.475 6.234,5.959c-0,0.183 -0,0.32 0.046,0.412l-12.559,0Z" style="fill-rule:nonzero;"/><path d="M325.235,116.653c-3.071,0 -5.729,1.284 -7.241,3.484l-0,-3.071l-3.942,-0l-0,22.596l3.942,-0l-0,-9.763c-0,-5.592 1.65,-9.762 6.187,-9.762c3.667,-0 4.721,2.658 4.721,6.416l-0,13.109l3.942,-0l-0,-14.071c-0,-5.821 -2.659,-8.938 -7.609,-8.938Z" style="fill-rule:nonzero;"/><path d="M377.256,139.662l-12.1,-20.121l11.55,-11.825l-5.362,-0l-16.455,17.096l0,-17.096l-4.079,-0l0,31.946l4.079,-0l0,-9.671l7.471,-7.654l10.175,17.325l4.721,-0Z" style="fill-rule:nonzero;"/><path d="M388.623,116.653c-3.942,0 -7.013,1.513 -9.534,4.721l2.842,2.383c1.788,-2.383 3.942,-3.62 6.6,-3.62c3.438,-0 5.363,1.925 5.363,5.408l-0,0.917l-4.996,-0c-3.804,-0 -6.05,0.366 -7.746,1.283c-1.833,1.008 -2.842,2.842 -2.842,5.225c0,4.354 3.071,7.104 7.929,7.104c3.392,0 6.096,-1.375 7.7,-3.804l0.275,3.392l3.621,-0l0,-14.117c0,-5.592 -3.437,-8.892 -9.212,-8.892Zm-1.467,20.121c-3.025,0 -4.904,-1.421 -4.904,-3.621c-0,-1.146 0.412,-2.016 1.146,-2.612c0.962,-0.734 2.521,-1.009 5.958,-1.009l4.538,0l-0,0.23c-0,4.17 -2.75,7.012 -6.738,7.012Z" style="fill-rule:nonzero;"/><path d="M414.244,116.653c-2.384,0 -5.088,1.054 -6.509,3.942l0,-3.529l-3.941,-0l-0,22.596l3.941,-0l0,-12.192c0,-4.675 2.246,-7.104 5.684,-7.104c1.008,-0 1.97,0.229 2.933,0.687l1.925,-3.3c-1.329,-0.779 -2.613,-1.1 -4.033,-1.1Z" style="fill-rule:nonzero;"/><path d="M432.531,120.274l0,-3.208l-5.546,-0l0,-8.296l-3.941,2.933l-0,5.363l-3.713,-0l0,3.208l3.713,0l-0,13.75c-0,4.263 2.566,6.05 5.82,6.05c1.192,0 2.43,-0.229 3.667,-0.642l0,-3.345c-1.008,0.32 -1.925,0.504 -2.704,0.504c-1.788,-0 -2.842,-0.917 -2.842,-2.979l0,-13.338l5.546,0Z" style="fill-rule:nonzero;"/><path d="M455.264,127.516c0,-5.5 -3.07,-10.863 -9.991,-10.863c-6.875,0 -10.267,5.592 -10.267,11.825c0,6.279 3.438,11.596 10.633,11.596c3.575,0 6.325,-1.146 8.892,-3.896l-2.704,-2.429c-1.925,2.063 -3.85,2.704 -6.142,2.704c-4.171,0 -6.6,-2.612 -6.737,-6.921l16.179,0c0.092,-0.595 0.137,-1.375 0.137,-2.016Zm-16.316,-1.192c0.275,-3.392 2.429,-6.371 6.279,-6.371c3.804,0 6.096,2.475 6.233,5.959c0,0.183 0,0.32 0.046,0.412l-12.558,0Z" style="fill-rule:nonzero;"/><path d="M471.123,116.653c-3.071,0 -5.729,1.284 -7.242,3.484l0,-3.071l-3.942,-0l0,22.596l3.942,-0l0,-9.763c0,-5.592 1.65,-9.762 6.188,-9.762c3.666,-0 4.72,2.658 4.72,6.416l0,13.109l3.942,-0l0,-14.071c0,-5.821 -2.658,-8.938 -7.608,-8.938Z" style="fill-rule:nonzero;"/><path d="M491.885,149.332l3.667,0l16.546,-41.616l-3.759,-0l-16.454,41.616Z" style="fill-rule:nonzero;"/><path d="M552.064,107.716l-9.716,24.566l-9.717,-24.566l-5.912,-0l-0,31.946l4.079,-0l-0,-26.492l9.579,23.787l3.987,0l9.488,-23.695l-0,26.4l4.125,-0l-0,-31.946l-5.913,-0Z" style="fill-rule:nonzero;"/><path d="M565.31,112.528l4.4,0l0,-4.812l-4.4,-0l0,4.812Zm0.229,27.134l3.942,-0l0,-22.596l-3.942,-0l0,22.596Z" style="fill-rule:nonzero;"/><path d="M586.348,120.274l-0,-3.208l-5.546,-0l-0,-8.296l-3.942,2.933l0,5.363l-3.712,-0l-0,3.208l3.712,0l0,13.75c0,4.263 2.567,6.05 5.821,6.05c1.192,0 2.429,-0.229 3.667,-0.642l-0,-3.345c-1.009,0.32 -1.925,0.504 -2.704,0.504c-1.788,-0 -2.842,-0.917 -2.842,-2.979l-0,-13.338l5.546,0Z" style="fill-rule:nonzero;"/><path d="M610.777,140.074c6.646,0 11.046,-5.179 11.046,-11.733c-0,-6.6 -4.446,-11.688 -11.046,-11.688c-6.646,0 -10.954,5.088 -10.954,11.688c-0,6.6 4.308,11.733 10.954,11.733Zm-0,-3.483c-4.583,-0 -7.013,-3.621 -7.013,-8.25c0,-4.629 2.384,-8.204 7.013,-8.204c4.629,-0 7.104,3.529 7.104,8.204c0,4.583 -2.475,8.25 -7.104,8.25Z" style="fill-rule:nonzero;"/><path d="M627.002,139.662l3.942,-0l-0,-19.388l8.479,0l-0,19.388l3.896,-0l-0,-19.388l6.554,0l-0,-3.208l-6.554,-0l-0,-2.934c-0,-2.291 1.237,-3.3 3.345,-3.3c0.688,0 1.375,0.23 2.063,0.596l1.283,-3.208c-1.146,-0.55 -2.337,-0.917 -3.666,-0.917c-1.834,0 -3.53,0.55 -4.767,1.513c-1.696,-1.054 -3.758,-1.513 -5.683,-1.513c-4.859,0 -8.892,3.025 -8.892,7.838l-0,1.925l-3.85,-0l-0,3.208l3.85,0l-0,19.388Zm3.942,-22.596l-0,-1.834c-0,-2.795 1.787,-4.675 5.133,-4.675c1.421,0 2.796,0.321 3.85,0.871c-0.321,0.688 -0.504,1.421 -0.504,2.292l-0,3.346l-8.479,-0Z" style="fill-rule:nonzero;"/><path d="M671.46,127.516c0,-5.5 -3.071,-10.863 -9.991,-10.863c-6.875,0 -10.267,5.592 -10.267,11.825c-0,6.279 3.437,11.596 10.633,11.596c3.575,0 6.325,-1.146 8.892,-3.896l-2.704,-2.429c-1.925,2.063 -3.85,2.704 -6.142,2.704c-4.171,0 -6.6,-2.612 -6.737,-6.921l16.179,0c0.091,-0.595 0.137,-1.375 0.137,-2.016Zm-16.316,-1.192c0.275,-3.392 2.429,-6.371 6.279,-6.371c3.804,0 6.096,2.475 6.233,5.959c0,0.183 0,0.32 0.046,0.412l-12.558,0Z" style="fill-rule:nonzero;"/><path d="M687.319,116.653c-3.071,0 -5.73,1.284 -7.242,3.484l-0,-3.071l-3.942,-0l0,22.596l3.942,-0l-0,-9.763c-0,-5.592 1.65,-9.762 6.187,-9.762c3.667,-0 4.721,2.658 4.721,6.416l0,13.109l3.942,-0l-0,-14.071c-0,-5.821 -2.658,-8.938 -7.608,-8.938Z" style="fill-rule:nonzero;"/><path d="M719.402,127.516c-0,-5.5 -3.071,-10.863 -9.992,-10.863c-6.875,0 -10.266,5.592 -10.266,11.825c-0,6.279 3.437,11.596 10.633,11.596c3.575,0 6.325,-1.146 8.892,-3.896l-2.705,-2.429c-1.925,2.063 -3.85,2.704 -6.141,2.704c-4.171,0 -6.6,-2.612 -6.738,-6.921l16.179,0c0.092,-0.595 0.138,-1.375 0.138,-2.016Zm-16.317,-1.192c0.275,-3.392 2.429,-6.371 6.279,-6.371c3.805,0 6.096,2.475 6.234,5.959c-0,0.183 -0,0.32 0.046,0.412l-12.559,0Z" style="fill-rule:nonzero;"/><path d="M735.26,116.653c-3.071,0 -5.729,1.284 -7.241,3.484l-0,-3.071l-3.942,-0l-0,22.596l3.942,-0l-0,-9.763c-0,-5.592 1.65,-9.762 6.187,-9.762c3.667,-0 4.721,2.658 4.721,6.416l-0,13.109l3.942,-0l-0,-14.071c-0,-5.821 -2.659,-8.938 -7.609,-8.938Z" style="fill-rule:nonzero;"/><path d="M787.281,139.662l-12.1,-20.121l11.55,-11.825l-5.362,-0l-16.455,17.096l0,-17.096l-4.079,-0l0,31.946l4.079,-0l0,-9.671l7.471,-7.654l10.175,17.325l4.721,-0Z" style="fill-rule:nonzero;"/><path d="M798.648,116.653c-3.942,0 -7.013,1.513 -9.534,4.721l2.842,2.383c1.788,-2.383 3.942,-3.62 6.6,-3.62c3.438,-0 5.363,1.925 5.363,5.408l-0,0.917l-4.996,-0c-3.804,-0 -6.05,0.366 -7.746,1.283c-1.833,1.008 -2.842,2.842 -2.842,5.225c0,4.354 3.071,7.104 7.929,7.104c3.392,0 6.096,-1.375 7.7,-3.804l0.275,3.392l3.621,-0l0,-14.117c0,-5.592 -3.437,-8.892 -9.212,-8.892Zm-1.467,20.121c-3.025,0 -4.904,-1.421 -4.904,-3.621c-0,-1.146 0.412,-2.016 1.146,-2.612c0.962,-0.734 2.521,-1.009 5.958,-1.009l4.538,0l-0,0.23c-0,4.17 -2.75,7.012 -6.738,7.012Z" style="fill-rule:nonzero;"/><path d="M824.269,116.653c-2.384,0 -5.088,1.054 -6.509,3.942l0,-3.529l-3.941,-0l-0,22.596l3.941,-0l0,-12.192c0,-4.675 2.246,-7.104 5.684,-7.104c1.008,-0 1.97,0.229 2.933,0.687l1.925,-3.3c-1.329,-0.779 -2.613,-1.1 -4.033,-1.1Z" style="fill-rule:nonzero;"/><path d="M842.556,120.274l0,-3.208l-5.546,-0l0,-8.296l-3.941,2.933l-0,5.363l-3.713,-0l0,3.208l3.713,0l-0,13.75c-0,4.263 2.566,6.05 5.82,6.05c1.192,0 2.43,-0.229 3.667,-0.642l0,-3.345c-1.008,0.32 -1.925,0.504 -2.704,0.504c-1.788,-0 -2.842,-0.917 -2.842,-2.979l0,-13.338l5.546,0Z" style="fill-rule:nonzero;"/><path d="M865.289,127.516c0,-5.5 -3.07,-10.863 -9.991,-10.863c-6.875,0 -10.267,5.592 -10.267,11.825c0,6.279 3.438,11.596 10.633,11.596c3.575,0 6.325,-1.146 8.892,-3.896l-2.704,-2.429c-1.925,2.063 -3.85,2.704 -6.142,2.704c-4.171,0 -6.6,-2.612 -6.737,-6.921l16.179,0c0.092,-0.595 0.137,-1.375 0.137,-2.016Zm-16.316,-1.192c0.275,-3.392 2.429,-6.371 6.279,-6.371c3.804,0 6.096,2.475 6.233,5.959c0,0.183 0,0.32 0.046,0.412l-12.558,0Z" style="fill-rule:nonzero;"/><path d="M881.148,116.653c-3.071,0 -5.729,1.284 -7.242,3.484l0,-3.071l-3.942,-0l0,22.596l3.942,-0l0,-9.763c0,-5.592 1.65,-9.762 6.188,-9.762c3.666,-0 4.72,2.658 4.72,6.416l0,13.109l3.942,-0l0,-14.071c0,-5.821 -2.658,-8.938 -7.608,-8.938Z" style="fill-rule:nonzero;"/></g><g><path d="M396.144,434.825l3.502,0l0,-12.396l13.499,-0l-0,-3.228l-13.499,0l0,-8.579l15.388,0l-0,-3.227l-18.89,0l-0,27.43Z" style="fill:#fff;fill-rule:nonzero;"/><path d="M419.599,434.825l15.781,0l0,-3.227l-12.278,0l-0,-24.203l-3.503,0l-0,27.43Z" style="fill:#fff;fill-rule:nonzero;"/><path d="M439.552,434.825l18.103,0l0,-3.227l-14.601,0l0,-9.169l13.263,-0l-0,-3.228l-13.263,0l0,-8.579l14.601,0l0,-3.227l-18.103,0l-0,27.43Z" style="fill:#fff;fill-rule:nonzero;"/><path d="M479.812,407.395l-0,21.37l-12.869,-21.37l-3.739,0l0,27.43l3.503,0l-0,-21.448l12.829,21.448l3.778,0l0,-27.43l-3.502,0Z" style="fill:#fff;fill-rule:nonzero;"/><path d="M497.994,435.258c5.667,0 9.091,-3.109 9.091,-7.871c-0,-3.857 -1.811,-6.021 -7.832,-8.304c-4.25,-1.653 -5.982,-2.873 -5.982,-5.155c0,-2.125 1.889,-3.857 4.447,-3.857c2.204,0 4.054,1.22 5.156,3.306l2.951,-1.81c-1.692,-3.031 -4.447,-4.644 -7.989,-4.644c-4.801,-0 -8.068,2.873 -8.068,7.123c0,3.699 1.968,5.706 7.596,7.871c4.565,1.771 6.179,3.188 6.179,5.785c-0,2.558 -1.929,4.408 -5.51,4.408c-3.503,-0 -6.021,-2.086 -6.494,-5.549l-3.463,0.866c0.748,4.722 4.723,7.831 9.918,7.831Z" style="fill:#fff;fill-rule:nonzero;"/><path d="M512.083,434.825l9.76,0c5.627,0 8.854,-2.833 8.854,-7.792c0,-3.581 -1.692,-5.982 -4.88,-6.887c2.204,-1.023 3.424,-3.148 3.424,-5.864c0,-4.329 -3.069,-6.887 -8.343,-6.887l-8.815,0l-0,27.43Zm3.502,-15.82l0,-8.383l5.313,0c3.07,0 4.841,1.574 4.841,4.25c-0,2.598 -1.614,4.133 -4.487,4.133l-5.667,-0Zm0,12.593l0,-9.445l6.494,0c3.266,0 5.076,1.653 5.076,4.605c0,3.069 -2.007,4.84 -5.549,4.84l-6.021,0Z" style="fill:#fff;fill-rule:nonzero;"/><path d="M545.613,435.298c6.572,-0 10.075,-3.621 10.075,-10.587l-0,-17.316l-3.503,0l0,17.08c0,5.116 -2.007,7.399 -6.572,7.399c-4.526,-0 -6.533,-2.244 -6.533,-7.32l-0,-17.159l-3.503,0l0,17.513c0,6.808 3.503,10.39 10.036,10.39Z" style="fill:#fff;fill-rule:nonzero;"/><path d="M581.819,434.825l-7.438,-12.357c3.542,-0.984 5.431,-3.463 5.431,-7.359c0,-4.959 -3.03,-7.714 -9.13,-7.714l-8.225,0l-0,27.43l3.502,0l0,-11.885l4.92,0l6.887,11.885l4.053,0Zm-15.86,-15.151l0,-9.052l4.369,0c3.935,0 5.982,1.417 5.982,4.526c-0,3.109 -2.047,4.526 -5.982,4.526l-4.369,-0Z" style="fill:#fff;fill-rule:nonzero;"/><path d="M598.939,420.421l-0,3.031l6.454,-0l-0,0.708c-0,5.392 -3.621,7.792 -8.225,7.792c-6.415,0 -9.446,-4.565 -9.446,-10.98c0,-6.532 3.228,-10.704 9.367,-10.704c4.29,-0 7.044,1.968 8.343,5.588l3.267,-1.259c-1.89,-4.88 -5.864,-7.674 -11.571,-7.674c-8.343,-0 -12.908,5.982 -12.908,14.128c-0,8.343 4.801,14.247 12.711,14.247c3.936,-0 7.124,-1.496 8.698,-4.211l0.472,3.738l2.676,0l0,-14.404l-9.838,0Z" style="fill:#fff;fill-rule:nonzero;"/></g></svg>