<svg width="100%" height="100%" viewBox="0 0 413 476" version="1.1" xmlns="http://www.w3.org/2000/svg" xmlns:xlink="http://www.w3.org/1999/xlink" xml:space="preserve" style="fill-rule:evenodd;clip-rule:evenodd;stroke-linejoin:round;stroke-miterlimit:2;">
    <path d="M205.818,0.474l206.387,118.877l-0,237.757l-206.387,118.876l-206.383,-118.876l0,-237.757l206.383,-118.877Zm106.214,313.566c-0.102,-0.891 -0.039,-1.806 -0.142,-2.701c-0.165,-1.397 -0.406,-2.787 -0.617,-4.184l-0.423,0c-0.234,1.453 -0.495,2.899 -0.69,4.359c-0.178,1.46 -0.396,1.694 -1.806,1.242c-3.55,-1.15 -7.077,-1.156 -10.626,-0.024c-1.503,0.476 -1.665,0.314 -1.883,-1.307c-0.062,-0.439 -0.092,-0.892 -0.171,-1.334c-0.182,-1.024 -0.383,-2.041 -0.572,-3.061c-0.095,-0 -0.188,-0 -0.274,0.006c-0.125,0.522 -0.287,1.04 -0.35,1.559c-0.171,1.44 -0.327,2.889 -0.455,4.332c-0.208,2.315 0.122,2.857 2.268,3.738c0.463,0.189 0.945,0.344 1.437,0.436c3.53,0.707 7.076,0.74 10.59,-0.033c0.957,-0.208 1.849,-0.726 2.74,-1.172c0.72,-0.373 1.08,-0.974 0.974,-1.856Zm-42.297,40.002l7.504,0c0.377,-1.241 0.906,-2.463 1.571,-3.669c0.868,-1.578 1.766,-3.143 2.638,-4.728c1.285,-2.338 1.962,-4.838 1.75,-7.509c-0.125,-1.549 -0.333,-3.098 -0.677,-4.613c-1.383,-6.195 -2.354,-12.423 -1.327,-18.789c0.092,-0.611 -0.106,-1.054 -0.522,-1.483c-1.364,-1.397 -2.714,-2.82 -4.081,-4.214c-0.264,-0.274 -0.588,-0.498 -0.968,-0.809c-4.213,6.39 -6.214,13.229 -5.376,20.767c0.278,2.477 0.938,4.921 1.496,7.358c0.968,4.226 1.265,8.44 -0.148,12.62c-0.575,1.705 -1.205,3.393 -1.86,5.069Zm-84.035,-250.04c-0.43,0.534 -0.8,1.126 -1.334,1.878c2.053,0.364 3.83,0.634 5.59,1.004c6.04,1.275 10.838,4.323 13.909,9.811c0.366,0.654 0.716,1.321 1.083,1.978c0.171,0.317 0.363,0.624 0.624,1.063c0.267,-0.525 0.518,-0.855 0.617,-1.228c0.433,-1.592 0.961,-3.174 1.202,-4.792c0.535,-3.493 1.305,-6.871 2.982,-10.028c0.651,-1.225 1.037,-2.602 1.433,-3.94c0.241,-0.835 0.281,-1.73 0.423,-2.684c-0.482,-0.037 -0.783,-0.093 -1.067,-0.076c-4.649,0.287 -9.318,0.446 -13.951,0.918c-4.603,0.465 -8.549,2.417 -11.511,6.096Zm74.753,169.429c-0.878,1.674 -0.406,3.282 0.717,4.834c0.772,-1.724 1.496,-3.362 2.249,-4.993c0.208,-0.449 0.445,-0.911 0.752,-1.288c0.476,-0.604 1.259,-0.72 1.899,-0.363c0.651,0.37 0.885,0.958 0.717,1.658c-0.103,0.429 -0.357,0.819 -0.545,1.231l-0.763,1.675c0.093,0.046 0.188,0.089 0.274,0.125c1.156,-1.919 2.302,-3.837 3.375,-5.63c-0.925,-1.919 -1.777,-3.662 -2.754,-5.68c-1.037,1.222 -2.067,2.265 -2.883,3.448c-1.109,1.598 -2.146,3.256 -3.038,4.983Zm-56.344,-32.972c0.396,-2.348 0.532,-4.696 -0.33,-6.984c-0.601,-1.602 -1.235,-3.18 -1.849,-4.772c-1.242,-3.223 -1.975,-6.535 -1.49,-9.999c0.297,-2.08 0.664,-4.16 1.173,-6.198c1.003,-4.025 1.528,-8.067 1.023,-12.218c-0.621,-5.131 -2.433,-9.794 -5.465,-14.344c-1.796,1.885 -3.467,3.603 -5.088,5.366c-0.235,0.257 -0.321,0.716 -0.341,1.086c-0.023,0.496 0.07,1.001 0.129,1.496c0.344,3.005 0.433,6.02 -0.026,9.005c-0.492,3.22 -1.08,6.426 -1.737,9.616c-0.885,4.316 -0.439,8.374 1.971,12.142c0.621,0.971 1.149,2.001 1.724,3.005c2.427,4.24 3.289,8.694 1.77,13.449c-0.218,0.677 -0.076,1.229 0.178,1.863c1.215,3.018 2.378,6.059 3.557,9.097c0.132,0.34 0.267,0.68 0.416,1.053c0.155,-0.148 0.257,-0.201 0.3,-0.287c1.876,-3.952 3.345,-8.047 4.085,-12.376Zm51.332,67.509c1.261,-6.116 4.85,-10.088 10.91,-11.74c-0.505,-1.109 -0.971,-2.053 -1.354,-3.028c-0.37,-0.934 -0.71,-1.879 -0.964,-2.846c-0.261,-1.017 -0.472,-2.054 -0.572,-3.097c-0.105,-0.994 -0.095,-2.008 -0.042,-3.005c0.042,-0.988 0.198,-1.968 0.31,-2.949c-0.076,-0.013 -0.155,-0.027 -0.231,-0.04c-0.628,1.879 -1.248,3.745 -1.972,5.911c-0.865,-1.935 -1.591,-3.576 -2.334,-5.244c-0.661,0.562 -1.225,1.057 -1.79,1.532c-1.116,0.935 -2.278,1.813 -3.345,2.794c-4.838,4.455 -6.997,14.513 0.898,21.52c0.096,0.086 0.251,0.106 0.486,0.192Zm-91.889,-110.206c-2.364,-0.581 -4.382,-1.832 -5.613,-3.999c-1.457,-2.569 -2.886,-5.171 -3.514,-8.106c-0.647,-3.042 -1.301,-6.076 -1.945,-9.118c-2.057,-9.747 -7.436,-17.643 -14.011,-25.165c-0.825,1.387 -1.552,2.582 -2.255,3.784c-2.926,5.023 -3.025,10.144 -0.657,15.418c2.024,4.504 4.765,8.476 8.357,11.851c4.544,4.273 8.659,8.926 12.416,13.905c0.968,1.275 2.044,2.477 3.151,3.633c1.908,1.988 4.279,3.147 7,3.5c1.437,0.185 2.896,0.248 4.349,0.248c4.587,-0.004 8.394,-1.688 11.257,-5.353c0.961,-1.225 1.975,-2.404 2.916,-3.642c2.952,-3.884 6.181,-7.513 9.718,-10.878c0.905,-0.868 1.786,-1.76 2.662,-2.654c3.467,-3.524 6.016,-7.632 7.763,-12.241c1.595,-4.211 1.426,-8.358 -0.604,-12.387c-0.694,-1.387 -1.51,-2.717 -2.286,-4.061c-0.158,-0.278 -0.412,-0.509 -0.683,-0.833c-2.533,2.939 -4.848,5.891 -6.935,9.032c-3.533,5.333 -5.914,11.121 -7.139,17.415c-0.944,4.861 -1.786,9.732 -4.256,14.19c-1.536,2.78 -3.527,4.748 -6.581,5.488c-4.359,1.046 -8.758,1.05 -13.11,-0.027Zm11.3,-31.241c2.034,-1.239 4.045,-0.535 6.287,0.558c-0.267,-0.509 -0.356,-0.73 -0.495,-0.918c-0.72,-1.014 -1.704,-1.694 -2.853,-2.12c-2.569,-0.958 -5.148,-1.886 -7.582,-2.771c-2.206,0.766 -4.296,1.447 -6.353,2.236c-1.063,0.406 -2.094,0.944 -3.078,1.535c-0.69,0.42 -1.231,1.057 -1.542,2.021c3.474,-1.479 4.069,-1.532 6.423,-0.584c2.519,-2.444 6.191,-2.678 9.193,0.043Zm123.034,153.754c-2.972,-0.502 -5.617,-1.718 -7.175,-4.448c-1.467,-2.563 -2.863,-5.181 -3.478,-8.12c-0.389,-1.869 -0.901,-3.712 -1.188,-5.588c-1.704,-11.075 -7.199,-20.182 -14.748,-28.553c-0.779,1.284 -1.466,2.437 -2.156,3.589c-3.031,5.096 -3.16,10.306 -0.697,15.676c1.902,4.154 4.336,7.925 7.645,11.078c4.956,4.712 9.5,9.784 13.621,15.24c0.994,1.314 2.166,2.503 3.358,3.645c1.529,1.453 3.411,2.279 5.465,2.695c2.328,0.465 4.696,0.449 7.047,0.241c3.398,-0.298 6.258,-1.724 8.506,-4.303c1.285,-1.469 2.533,-2.979 3.725,-4.534c2.962,-3.863 6.178,-7.509 9.708,-10.877c0.839,-0.793 1.648,-1.618 2.461,-2.43c3.341,-3.352 5.831,-7.252 7.664,-11.607c2.014,-4.792 1.865,-9.468 -0.638,-14.041c-0.577,-1.057 -1.195,-2.087 -1.812,-3.117c-0.192,-0.327 -0.453,-0.614 -0.75,-1.011c-2.51,2.843 -4.752,5.729 -6.792,8.764c-3.649,5.439 -6.106,11.363 -7.344,17.812c-0.922,4.758 -1.777,9.52 -4.148,13.902c-1.684,3.124 -3.943,5.102 -7.357,5.831c-3.632,0.773 -7.278,0.773 -10.917,0.156Zm-137.768,-91.975c0.759,-0.729 1.578,-1.396 2.381,-2.08c1.958,-1.654 2.523,-3.665 1.588,-6.069c-0.528,-1.354 -1.037,-2.718 -1.615,-4.049c-1.106,-2.565 -1.42,-5.21 -0.825,-7.945c0.165,-0.779 0.383,-1.548 0.631,-2.532c-5.01,-1.922 -7.665,-6.311 -10.99,-10.072c-0.175,1.037 -0.221,2.018 -0.238,2.995c-0.079,4.204 0.79,8.285 1.744,12.334c1.354,5.702 0.733,11.042 -2.523,16.008c-0.766,1.169 -1.387,2.441 -2.018,3.692c-1.486,2.946 -1.73,5.984 -0.937,9.21c1.007,4.084 1.816,8.219 2.684,12.337c0.334,1.585 0.608,3.186 0.908,4.771c0.367,-0.251 0.473,-0.505 0.525,-0.773c0.552,-2.843 0.459,-5.699 0.096,-8.542c-0.726,-5.71 0.789,-10.749 4.471,-15.114c1.258,-1.489 2.718,-2.81 4.118,-4.171Zm-39.54,21.95c0.809,0.657 1.658,1.271 2.596,1.991c1.34,-1.427 2.599,-2.771 3.919,-4.177c-1.938,-2.622 -3.424,-5.284 -4.434,-8.196c-1.949,-5.634 -2.018,-11.204 0.554,-16.693c0.552,-1.185 1.047,-2.39 1.559,-3.589c1.232,-2.906 1.948,-5.944 1.628,-9.094c-0.294,-2.932 -0.875,-5.838 -1.304,-8.764c-0.136,-0.934 -0.641,-1.446 -1.467,-1.892c-4.728,-2.543 -9.427,-5.125 -14.113,-7.74c-8.262,-4.61 -16.038,-9.92 -23.24,-16.065c-2.477,-2.113 -4.551,-4.544 -5.789,-7.585c-1.846,-4.521 -1.486,-8.82 1.453,-12.816c0.535,-0.726 1.126,-1.429 1.559,-2.215c0.769,-1.4 1.618,-2.797 2.11,-4.303c1.182,-3.629 -0.469,-6.832 -4.141,-7.905c-5.739,-1.678 -10.798,-0.344 -15.078,3.847c-0.307,0.303 -0.551,0.67 -0.885,1.079c1.873,0.727 2.626,2.124 2.873,3.874c0.079,0.545 0.159,1.09 0.215,1.638c0.766,7.284 1.529,14.565 2.285,21.85c0.033,0.307 0.007,0.624 0.007,0.954c-0.222,-0.053 -0.331,-0.056 -0.41,-0.102c-5.61,-3.276 -9.662,-7.919 -12.092,-13.945c-0.694,-1.72 -1.199,-3.514 -1.873,-5.241c-0.472,-1.208 -1.017,-2.4 -1.651,-3.533c-0.611,-1.093 -1.647,-1.605 -2.909,-1.509c-4.804,0.36 -9.087,1.978 -12.591,5.379c-0.627,0.611 -1.123,1.364 -1.826,2.229c0.766,0.093 1.248,0.152 1.73,0.208c4.828,0.542 9.051,4.24 10.237,8.959c0.462,1.843 -0.327,3.342 -2.163,3.85c-0.802,0.218 -1.681,0.248 -2.523,0.225c-2.43,-0.056 -4.814,0.152 -7.116,0.964c-1.245,0.439 -2.401,1.043 -3.196,2.15c-1.186,1.644 -2.084,3.427 -2.52,5.418c-0.726,3.339 0.703,6.658 3.725,8.576c0.102,-0.396 0.228,-0.766 0.291,-1.146c0.234,-1.453 0.703,-2.813 1.479,-4.071c0.472,-0.763 1.03,-1.083 1.981,-0.931c3.368,0.531 6.753,0.944 10.124,1.469c4.059,0.634 8.114,1.331 12.017,2.685c1.856,0.637 3.652,1.406 5.194,2.664c1.489,1.216 2.265,2.735 2.156,4.719c-0.161,3.071 -0.614,6.086 -1.429,9.045c-1.192,4.329 -2.962,8.324 -6.657,11.164c-0.066,0.05 -0.073,0.179 -0.133,0.327c2.606,1.757 5.492,2.655 8.622,2.658c4.442,0.004 7.991,-1.974 10.897,-5.29c0.496,0.373 0.895,0.667 1.285,0.971c10.359,8.097 19.677,17.274 28.243,27.226c3.312,3.85 6.862,7.47 10.801,10.683Zm73.799,133.132l0,-12.086c0,-3.404 -1.909,-5.346 -5.039,-5.346c-2.387,-0 -4.428,1.225 -5.69,3.437l0,-3.166l-2.862,-0l-0,17.161l2.862,-0l0,-7.186c0,-4.765 2.352,-7.66 4.904,-7.66c1.909,-0 2.965,1.159 2.965,3.506l0,11.34l2.86,-0Zm14.731,-14.813c-1.192,-1.704 -2.863,-2.619 -4.973,-2.619c-3.101,-0 -5.043,2.077 -5.043,4.735c0,5.577 7.902,4.488 7.902,7.694c0,1.806 -1.02,2.688 -2.757,2.688c-1.909,0 -3.236,-1.535 -3.986,-3.371l-2.42,1.327c0.888,2.315 2.896,4.63 6.406,4.63c3.474,-0 5.686,-2.005 5.686,-5.449c0,-5.036 -7.971,-4.392 -7.971,-7.489c-0,-1.39 0.921,-2.179 2.08,-2.179c1.192,-0 2.011,0.478 3.134,1.703l1.942,-1.67Zm-29.914,-176.414c-0.221,-2.14 -0.419,-4.286 -0.647,-6.426c-0.026,-0.241 -0.195,-0.469 -0.297,-0.7c-0.479,1.46 -0.74,2.88 -0.911,4.309c-0.185,1.516 -0.347,1.721 -1.757,1.259c-3.606,-1.169 -7.186,-1.176 -10.795,-0.004c-1.459,0.473 -1.549,0.354 -1.78,-1.241c-0.214,-1.48 -0.449,-2.959 -0.677,-4.442c-0.112,-0.016 -0.224,-0.029 -0.34,-0.046c-0.654,2.48 -0.802,5.026 -0.852,7.579c-0.006,0.359 0.35,0.812 0.664,1.083c1.053,0.901 2.341,1.353 3.692,1.571c3.094,0.489 6.198,0.492 9.289,0c1.35,-0.214 2.618,-0.677 3.715,-1.542c0.462,-0.363 0.762,-0.769 0.696,-1.4Zm27.983,-48.809c-0.113,-0.145 -0.311,-0.224 -0.469,-0.333c-0.941,1.932 -1.859,3.811 -2.8,5.716c1.126,1.935 2.304,3.857 3.368,5.841c1.664,3.111 2.499,6.436 2.248,9.989c-0.208,2.791 -1.046,5.399 -2.238,7.912c-0.241,0.519 -0.473,1.044 -0.74,1.638c6.274,1.707 9.718,5.805 10.966,11.977c0.261,-0.155 0.439,-0.221 0.575,-0.347c2.074,-1.889 3.705,-4.091 4.563,-6.786c0.998,-3.094 0.866,-6.092 -0.693,-9.024c-1.813,-3.412 -4.134,-6.393 -7.004,-8.959c-0.32,-0.291 -0.683,-0.532 -1.123,-0.869c-0.713,1.599 -1.38,3.088 -2.179,4.888c-0.281,-0.737 -0.449,-1.13 -0.571,-1.536c-1.255,-4.022 -2.556,-8.024 -4.534,-11.765c-0.073,-0.132 -0.142,-0.268 -0.182,-0.413c-0.221,-0.73 0.066,-1.45 0.707,-1.8c0.621,-0.343 1.42,-0.218 1.905,0.357c0.255,0.304 0.453,0.664 0.621,1.023c0.67,1.457 1.311,2.926 1.975,4.389c0.129,0.281 0.297,0.545 0.452,0.819c1.433,-1.843 1.377,-3.685 0.38,-5.577c-0.195,-0.354 -0.337,-0.743 -0.571,-1.057c-1.542,-2.037 -3.094,-4.062 -4.656,-6.083Zm58.14,91.01c0.291,1.876 0.733,3.729 1.196,5.568c0.175,0.713 0.604,1.367 1.007,2.252c0.482,-0.938 0.822,-1.602 1.162,-2.265c2.942,-5.769 7.612,-9.316 13.895,-10.736c1.899,-0.426 3.824,-0.726 6.004,-1.136c-0.496,-0.723 -0.852,-1.314 -1.281,-1.849c-2.847,-3.533 -6.592,-5.577 -11.043,-6.039c-4.831,-0.502 -9.692,-0.667 -14.536,-0.968c-0.284,-0.016 -0.574,0.076 -0.931,0.129c0.04,0.452 0.053,0.845 0.106,1.238c0.274,2.008 0.944,3.893 1.879,5.677c1.334,2.562 2.1,5.283 2.542,8.129Zm90.284,66.36c0.872,-2.965 0.67,-5.825 -0.793,-8.599c-1.826,-3.464 -4.174,-6.492 -7.113,-9.071c-0.287,-0.261 -0.617,-0.482 -1.02,-0.795c-0.71,1.578 -1.383,3.074 -2.047,4.563c-0.112,-0.01 -0.221,-0.023 -0.327,-0.036c-0.469,-1.47 -0.869,-2.972 -1.427,-4.409c-1.109,-2.843 -2.298,-5.663 -3.477,-8.479c-0.452,-1.067 -0.264,-1.886 0.588,-2.302c0.812,-0.393 1.611,-0.145 2.113,0.839c0.76,1.463 1.404,2.991 2.101,4.494c0.188,0.432 0.383,0.868 0.594,1.344c1.595,-1.991 1.459,-3.966 0.284,-5.871c-1.1,-1.787 -2.341,-3.491 -3.58,-5.185c-0.551,-0.756 -1.241,-1.416 -1.902,-2.149c-0.99,2.017 -1.912,3.893 -2.849,5.818c1.106,1.912 2.285,3.83 3.355,5.818c1.664,3.111 2.499,6.433 2.252,9.996c-0.185,2.582 -0.918,5.016 -1.978,7.36c-0.324,0.71 -0.638,1.417 -0.984,2.206c2.935,0.803 5.432,2.123 7.393,4.336c1.925,2.169 2.965,4.778 3.59,7.783c2.545,-2.222 4.339,-4.636 5.227,-7.661Zm-75.088,53.326l8.682,0l0,0.2c1.256,-1.396 2.663,-2.671 3.996,-4.001c0.604,-0.604 1.268,-1.142 1.935,-1.677c2.265,-1.813 2.773,-4.052 1.657,-6.703c-0.521,-1.249 -1.017,-2.51 -1.539,-3.758c-1.013,-2.427 -1.353,-4.917 -0.812,-7.506c0.188,-0.921 0.416,-1.829 0.644,-2.837c-4.993,-1.925 -7.644,-6.32 -10.834,-10.137c-0.142,0.056 -0.278,0.109 -0.423,0.168c0.093,2.295 0.036,4.61 0.31,6.892c0.337,2.731 0.816,5.462 1.46,8.133c1.403,5.805 0.806,11.231 -2.516,16.296c-0.846,1.291 -1.519,2.714 -2.196,4.101c-0.132,0.276 -0.254,0.552 -0.364,0.829Zm-103.648,21.369l-0,-1.328c-0,-4.25 -2.692,-8.133 -7.767,-8.133c-5.211,-0 -7.763,4.256 -7.763,8.85c-0,4.596 2.552,8.853 7.763,8.853c3.543,-0 5.69,-1.424 7.291,-4.765l-2.523,-1.09c-0.954,2.117 -2.249,3.269 -4.768,3.269c-3.097,0 -4.666,-2.483 -4.834,-5.656l12.601,-0Zm-12.433,-2.579c0.512,-2.49 2.011,-4.296 4.666,-4.296c2.761,-0 4.26,1.839 4.768,4.296l-9.434,-0Zm57.236,10.821c5.042,-0 7.631,-3.709 7.631,-8.857c0,-5.138 -2.589,-8.846 -7.631,-8.846c-2.18,-0 -4.425,1.327 -5.006,2.315l-0,-8.999l-2.863,0l-0,24.116l2.863,-0l-0,-2.11c0.819,1.258 2.929,2.381 5.006,2.381Zm-0.271,-15.117c3.031,-0 4.973,2.592 4.973,6.26c0,3.686 -1.942,6.271 -4.973,6.271c-3.134,0 -4.973,-2.585 -4.973,-6.271c0,-3.668 1.839,-6.26 4.973,-6.26Zm11.79,-2.315l-0,12.086c-0,3.404 1.908,5.346 5.042,5.346c2.381,-0 4.425,-1.225 5.69,-3.438l-0,3.167l2.856,-0l-0,-17.161l-2.856,-0l-0,7.185c-0,4.765 -2.355,7.661 -4.907,7.661c-1.909,0 -2.962,-1.156 -2.962,-3.507l-0,-11.339l-2.863,-0Zm28.345,2.793l0.581,-2.552c-0.511,-0.271 -1.4,-0.512 -2.354,-0.512c-1.902,-0 -4.019,1.291 -5.039,3.2l-0,-2.929l-2.863,-0l-0,17.164l2.863,0l-0,-6.502c-0,-5.587 2.453,-8.347 4.801,-8.347c0.713,-0 1.397,0.175 2.011,0.478Zm8.92,-3.064c-3.372,-0 -5.99,2.242 -5.99,5.792c-0,1.529 0.469,2.784 1.255,3.741c-1.255,0.644 -2.077,1.701 -2.077,3.167c-0,1.225 0.439,2.113 1.155,2.727c-0.914,0.78 -1.598,2.005 -1.598,3.573c0,3.58 2.926,5.657 7.288,5.657c3.92,-0 7.255,-1.704 7.255,-5.927c-0,-3.137 -2.18,-4.736 -5.379,-4.736l-4.055,0c-1.259,0 -1.942,-0.508 -1.942,-1.433c-0,-0.746 0.34,-1.294 1.129,-1.667c0.849,0.412 1.869,0.611 2.959,0.611c3.371,-0 5.997,-2.14 5.997,-5.713c-0,-1.195 -0.308,-2.252 -0.849,-3.104l2.315,-1.295l-1.298,-2.347l-3.064,1.733c-0.922,-0.475 -1.978,-0.779 -3.101,-0.779Zm-2.011,16.445l3.474,-0c1.671,-0 2.896,0.647 2.896,2.555c-0,1.774 -1.328,3.134 -4.326,3.134c-2.929,0 -4.425,-1.327 -4.425,-3.239c0,-1.017 0.304,-1.869 1.123,-2.513c0.373,0.033 0.819,0.063 1.258,0.063Zm2.011,-7.391c-1.734,0 -3.2,-1.122 -3.2,-3.262c0,-2.15 1.466,-3.342 3.2,-3.342c1.734,0 3.2,1.192 3.2,3.342c-0,2.14 -1.466,3.262 -3.2,3.262Zm47.848,-148.583c-0.37,0.483 -0.651,1.05 -1.014,1.645c1.691,0.281 3.174,0.515 4.659,0.779c7.265,1.298 12.618,5.148 15.788,11.891c0.162,0.34 0.373,0.664 0.621,1.113c0.951,-1.39 1.36,-2.84 1.578,-4.309c0.651,-4.491 1.631,-8.86 3.798,-12.912c0.852,-1.585 1.235,-3.384 1.268,-5.352c-0.337,-0.047 -0.529,-0.106 -0.72,-0.093c-5.01,0.311 -10.029,0.462 -15.015,1.007c-4.455,0.489 -8.16,2.655 -10.963,6.231Zm-190.695,-75.116c-0.881,1.694 -0.373,3.279 0.737,4.84c0.723,-1.651 1.39,-3.203 2.09,-4.741c0.251,-0.545 0.535,-1.09 0.891,-1.562c0.446,-0.588 1.295,-0.723 1.906,-0.38c0.647,0.367 0.905,0.961 0.726,1.661c-0.119,0.475 -0.396,0.911 -0.601,1.367c-0.3,0.667 -0.7,1.308 -0.667,2.097c1.225,-2.061 2.45,-4.118 3.609,-6.066c-0.947,-1.938 -1.819,-3.718 -2.773,-5.673c-1.1,1.317 -2.183,2.44 -3.061,3.705c-1.051,1.519 -2.008,3.117 -2.857,4.752Zm65.31,87.641c0.63,-2.351 0.419,-4.689 -0.519,-6.927c-0.558,-1.338 -1.228,-2.632 -1.902,-3.92c-0.627,-1.199 -1.347,-2.348 -1.974,-3.547c-1.371,-2.628 -2.157,-5.432 -1.883,-8.404c0.228,-2.436 0.621,-4.867 1.093,-7.271c0.776,-3.946 1.49,-7.889 1.292,-11.934c-0.017,-0.459 -0.086,-0.921 -0.169,-1.747c-3.404,4.188 -6.119,8.523 -11.049,10.439c0.07,0.35 0.083,0.548 0.145,0.729c1.209,3.606 0.918,7.093 -0.676,10.534c-0.631,1.354 -1.09,2.797 -1.556,4.224c-0.528,1.631 -0.099,3.087 1.07,4.296c0.766,0.792 1.592,1.528 2.431,2.242c2.291,1.968 4.504,4.012 6.174,6.551c2.537,3.854 3.795,8.041 3.171,12.697c-0.182,1.34 -0.251,2.698 -0.324,4.055c-0.106,2.06 0.096,4.098 0.687,6.469c0.211,-0.747 0.363,-1.149 0.439,-1.565c0.977,-5.683 2.054,-11.347 3.55,-16.921Zm42.783,115.096l18.365,0c0.004,-2.913 0.625,-5.808 1.962,-8.678c0.611,-1.317 1.166,-2.665 1.724,-4.005c1.119,-2.678 1.608,-5.465 1.535,-8.371c-0.079,-3.032 -0.716,-5.964 -1.301,-8.923c-0.195,-1.01 -0.683,-1.631 -1.605,-2.139c-5.983,-3.273 -11.97,-6.545 -17.881,-9.946c-6.802,-3.904 -13.126,-8.52 -19.129,-13.572c-2.523,-2.13 -4.669,-4.557 -5.967,-7.631c-1.948,-4.627 -1.595,-9.002 1.437,-13.09c0.719,-0.961 1.433,-1.942 2.027,-2.979c0.591,-1.04 1.156,-2.129 1.529,-3.259c1.248,-3.767 -0.403,-6.974 -4.184,-8.153c-3.444,-1.079 -6.848,-0.825 -10.151,0.562c-2.248,0.934 -4.137,2.364 -5.742,4.421c2.351,0.865 2.823,2.797 3.058,4.858c0.02,0.201 0.02,0.406 0.046,0.604c0.756,7.232 1.516,14.467 2.265,21.698c0.037,0.367 0.007,0.733 0.007,1.219c-0.304,-0.149 -0.486,-0.225 -0.654,-0.324c-3.619,-2.1 -6.541,-4.95 -8.942,-8.358c-1.876,-2.661 -3.022,-5.643 -4.078,-8.684c-0.588,-1.704 -1.248,-3.391 -2.015,-5.019c-0.769,-1.638 -2.146,-2.269 -3.969,-2.002c-2.248,0.321 -4.434,0.843 -6.508,1.774c-2.457,1.099 -4.663,2.556 -6.32,4.725c-0.258,0.34 -0.446,0.73 -0.704,1.159c0.317,0.053 0.459,0.093 0.604,0.099c5.36,0.261 9.613,3.609 11.158,8.79c0.641,2.147 -0.363,3.808 -2.589,4.207c-0.634,0.109 -1.297,0.109 -1.944,0.086c-2.53,-0.092 -5.006,0.175 -7.397,1.05c-1.149,0.416 -2.206,0.998 -2.946,2.005c-1.261,1.714 -2.199,3.596 -2.618,5.693c-0.648,3.259 1.007,6.891 3.817,8.311c0.102,-0.502 0.165,-0.997 0.31,-1.469c0.311,-1.001 0.575,-2.031 1.021,-2.972c0.786,-1.658 1.126,-1.807 2.929,-1.549c4.068,0.584 8.146,1.139 12.201,1.803c3.56,0.588 7.123,1.268 10.468,2.675c1.456,0.62 2.879,1.42 4.17,2.338c1.516,1.079 2.272,2.658 2.074,4.583c-0.211,1.991 -0.31,4.012 -0.7,5.967c-1.106,5.481 -2.727,10.735 -7.519,14.371c0.132,0.221 0.165,0.337 0.238,0.379c5.422,3.471 12.862,3.692 18.119,-1.561c0.409,-0.403 0.838,-0.796 1.357,-1.295c3.953,3.382 7.816,6.575 11.567,9.903c3.818,3.379 7.406,6.982 10.875,10.699Zm21.452,0l7.515,0c0.786,-1.318 1.659,-2.59 2.634,-3.807c0.98,-1.222 1.588,-2.536 1.826,-4.035c0.198,-1.285 0.426,-2.609 0.307,-3.88c-0.208,-2.183 -0.667,-4.346 -1.047,-6.512c-0.429,-2.467 -1.08,-4.91 -1.298,-7.387c-0.664,-7.783 1.404,-14.889 5.63,-21.411c0.238,-0.363 0.436,-0.75 0.585,-1.007c-1.843,-2.302 -3.596,-4.488 -5.426,-6.77c-3.807,0.291 -8.133,3.336 -9.249,8.804c-0.528,2.576 -0.079,5.092 0.489,7.595c0.875,3.903 1.862,7.789 2.651,11.719c0.734,3.606 1.018,7.288 0.123,10.894c-0.611,2.466 -1.645,4.824 -2.513,7.225c-0.522,1.407 -1.225,2.76 -1.615,4.2c-0.41,1.481 -0.602,2.937 -0.612,4.372Zm-112.717,-113.124c-1.423,-4.554 -0.628,-8.817 1.638,-12.895c0.825,-1.493 1.684,-2.965 2.506,-4.458c1.004,-1.826 1.786,-3.758 1.74,-5.855c-0.046,-2.044 -0.168,-4.121 -0.597,-6.112c-1.354,-6.307 -2.411,-12.614 -1.384,-19.089c0.059,-0.38 -0.099,-0.932 -0.36,-1.212c-1.621,-1.77 -3.302,-3.484 -5.098,-5.36c-4.376,6.631 -6.35,13.585 -5.426,21.226c0.287,2.381 0.918,4.722 1.453,7.06c0.75,3.309 1.113,6.621 0.515,9.993c-0.495,2.793 -1.548,5.395 -2.661,7.968c-1.143,2.645 -1.258,5.333 -0.823,8.106c0.671,4.244 2.13,8.236 3.894,12.129c0.105,0.241 0.313,0.429 0.568,0.763c1.119,-3.728 2.338,-7.232 4.065,-10.527c0.32,-0.621 0.145,-1.186 -0.03,-1.737Zm-92.232,85.924c0.743,-1.452 1.42,-2.777 2.123,-4.147c-0.997,-0.826 -2.07,-0.783 -3.341,-0.307c-0.017,1.638 0.577,2.975 1.218,4.454Zm273.552,34.22c0.426,-1.614 0.558,-3.292 0.056,-4.91c-0.472,-1.522 -1.034,-3.031 -1.714,-4.461c-0.776,-1.631 -1.763,-3.15 -2.615,-4.745c-1.341,-2.516 -2.087,-5.184 -2.067,-8.064c0.02,-2.635 0.551,-5.181 1.106,-7.724c0.892,-4.131 1.572,-8.278 1.314,-12.525c-0.016,-0.317 -0.112,-0.627 -0.211,-1.178c-3.335,4.015 -6.007,8.387 -10.877,10.282c-0.02,0.235 -0.05,0.34 -0.037,0.433c0.017,0.149 0.05,0.297 0.099,0.439c1.186,3.553 0.889,6.991 -0.68,10.379c-0.631,1.357 -1.083,2.8 -1.562,4.226c-0.564,1.688 -0.109,3.184 1.12,4.415c0.911,0.922 1.955,1.724 2.873,2.645c1.67,1.658 3.46,3.233 4.897,5.079c3.143,4.029 4.596,8.609 3.939,13.783c-0.231,1.787 -0.258,3.599 -0.337,5.399c-0.026,0.552 0.07,1.096 0.119,1.651c0.043,0.499 0.069,1.007 0.155,1.499c0.086,0.489 0.235,0.961 0.36,1.437c0.297,-0.344 0.426,-0.667 0.486,-1.001c0.994,-5.729 2.073,-11.432 3.576,-17.059Zm-18.063,-72.425c2.021,-1.113 4.006,-0.568 6.208,0.571c-0.241,-0.505 -0.31,-0.73 -0.432,-0.908c-0.75,-1.07 -1.81,-1.743 -2.992,-2.193c-2.523,-0.937 -5.066,-1.832 -7.46,-2.688c-2.288,0.81 -4.481,1.516 -6.624,2.355c-1.053,0.416 -2.067,0.997 -3.024,1.618c-0.582,0.373 -1.047,0.944 -1.282,1.918c2.196,-1.228 4.201,-1.918 6.367,-0.643c3.262,-2.659 5.61,-2.645 9.239,-0.03Zm29.188,74.344c0.445,-2.483 0.644,-4.976 -0.288,-7.426c-0.61,-1.589 -1.241,-3.174 -1.852,-4.762c-1.182,-3.081 -1.919,-6.251 -1.496,-9.557c0.32,-2.43 0.753,-4.857 1.364,-7.231c2.206,-8.622 0.964,-16.702 -3.576,-24.317c-0.274,-0.459 -0.591,-0.902 -0.928,-1.423c-1.556,1.515 -2.916,2.925 -4.376,4.22c-1.046,0.948 -1.274,1.991 -1.073,3.348c0.453,3.141 0.476,6.314 0,9.448c-0.492,3.173 -1.08,6.326 -1.727,9.473c-0.875,4.263 -0.409,8.269 1.955,11.997c0.647,1.014 1.195,2.094 1.796,3.137c2.404,4.197 3.223,8.612 1.747,13.311c-0.241,0.74 -0.079,1.314 0.202,1.998c1.192,2.919 2.314,5.868 3.457,8.81c0.162,0.409 0.281,0.832 0.462,1.354c0.192,-0.248 0.34,-0.387 0.423,-0.558c1.737,-3.795 3.177,-7.701 3.91,-11.822Zm-39.395,-132.26c-4.306,0.023 -8.612,0.32 -12.875,1.113c-6.574,1.225 -11.224,4.801 -13.895,10.959c-1.41,3.243 -2.308,6.618 -2.556,10.154c-0.492,7.06 1.258,13.414 5.835,18.908c1.377,1.658 2.761,3.322 4.075,5.026c4.25,5.531 7.707,11.495 9.559,18.284c0.05,0.205 0.212,0.38 0.324,0.565c0.201,-1.314 0.116,-2.576 0.221,-3.817c0.33,-4.168 2.289,-7.196 6.301,-8.725c1.261,-0.482 2.542,-0.924 3.814,-1.37c0.663,-0.238 1.34,-0.423 2.004,-0.66c0.604,-0.222 1.06,-0.618 1.073,-1.308c0.02,-1.592 0.007,-3.183 0.007,-4.788c-2.724,-0.651 -4.91,-2.054 -6.964,-3.689c-1.12,-0.885 -2.028,-1.941 -2.457,-3.341c-0.396,-1.282 -0.102,-2.375 0.845,-3.299c1.374,-1.357 3.329,-1.658 4.957,-0.552c0.928,0.631 1.727,1.519 2.42,2.421c1.007,1.297 1.863,2.711 2.837,4.167c0.32,-0.469 0.568,-0.832 0.809,-1.202c0.819,-1.199 1.608,-2.427 2.463,-3.599c0.816,-1.11 1.833,-2.001 3.23,-2.332c1.644,-0.389 2.965,0.222 4.018,1.45c0.968,1.136 0.935,2.463 0.222,3.649c-0.608,1.007 -1.397,1.975 -2.295,2.727c-2.001,1.688 -4.247,3.005 -6.869,3.633c0,1.304 -0.03,2.5 0.007,3.692c0.063,2.027 0.138,2.06 2.087,2.721c1.756,0.587 3.52,1.172 5.237,1.869c3.361,1.363 5.247,3.929 5.746,7.495c0.208,1.529 0.267,3.081 0.389,4.63c0.053,0.013 0.099,0.026 0.155,0.033c0.106,-0.327 0.232,-0.637 0.327,-0.964c1.344,-4.613 3.312,-8.952 6.05,-12.892c2.311,-3.332 4.824,-6.528 7.344,-9.715c1.859,-2.341 3.477,-4.798 4.421,-7.641c2.857,-8.605 1.85,-16.814 -2.75,-24.587c-2.048,-3.468 -5.086,-5.743 -8.909,-7.004c-3.316,-1.103 -6.737,-1.618 -10.194,-1.74c-5.67,-0.202 -11.343,-0.304 -17.013,-0.271Zm12.592,25.274c-1.559,-0.102 -2.15,-1.202 -1.331,-2.503c3.044,-4.811 7.354,-7.717 13.076,-8.314c0.928,-0.103 1.919,0.039 2.827,0.27c1.899,0.483 3.18,1.681 3.507,3.682c0.317,1.939 -0.664,4.085 -2.421,4.953c-1.149,0.572 -2.423,1.021 -3.681,1.226c-2.566,0.426 -5.168,0.643 -7.754,0.947c0,-0.079 -0.006,-0.162 -0.013,-0.241c-1.404,0 -2.817,0.073 -4.21,-0.02Zm13.522,-7.618c-0.509,-0.059 -1.03,-0.013 -1.529,-0.013c0.076,1.288 0.135,2.424 0.211,3.847c0.763,-0.304 1.387,-0.479 1.932,-0.792c0.644,-0.377 0.971,-1.041 0.865,-1.787c-0.115,-0.806 -0.726,-1.165 -1.479,-1.255Zm-3.943,0.466c-2.434,0.476 -5.462,2.434 -6.383,4.233c2.183,-0.115 4.26,-0.234 6.383,-0.35l0,-3.883Zm-37.958,-3.452c1.757,-0.452 3.491,-0.274 5.195,0.189c4.349,1.172 7.743,3.662 10.259,7.38c0.136,0.211 0.281,0.422 0.39,0.647c0.608,1.215 0.112,2.278 -1.242,2.371c-1.495,0.099 -3.005,0.016 -4.507,0.016c-0.007,0.113 -0.016,0.228 -0.03,0.331c-2.912,-0.416 -5.844,-0.793 -8.75,-1.278c-0.865,-0.146 -1.731,-0.522 -2.52,-0.938c-1.681,-0.905 -2.694,-2.979 -2.45,-4.805c0.261,-1.974 1.582,-3.374 3.655,-3.913Zm4.538,3.203l-0,3.837c2.314,0.618 5.607,0.74 6.723,0.228c-1.866,-1.951 -4.045,-3.312 -6.723,-4.065Zm-2.659,3.329c0.083,-1.179 0.162,-2.345 0.251,-3.52c-1.694,-0.152 -2.519,0.238 -2.651,1.222c-0.162,1.195 0.637,1.968 2.4,2.298Zm-110.803,-10.751c2.116,-2.853 2.991,-6.076 3.147,-9.556c0.069,-1.595 -0.149,-2.995 -1.43,-4.227c-2.011,-1.929 -2.516,-4.405 -1.73,-7.073c0.468,-1.579 1.086,-3.114 1.641,-4.666c0.31,-0.849 0.72,-1.668 0.921,-2.539c0.509,-2.246 0.327,-4.439 -0.568,-6.407l-9.457,0c-1.05,2.583 -1.186,5.231 -0.08,7.929c0.684,1.671 1.331,3.355 1.926,5.055c1.086,3.101 0.432,5.839 -1.919,8.124c-0.746,0.723 -1.076,1.558 -1.1,2.532c-0.066,2.843 0.278,5.66 1.609,8.176c1.245,2.365 2.816,4.551 4.273,6.872c0.96,-1.469 1.786,-2.906 2.767,-4.22Zm-12.347,-132.422c-3.193,0.092 -6.396,0.578 -9.543,1.182c-5.858,1.12 -10.058,4.498 -12.627,9.91c-1.585,3.342 -2.589,6.832 -2.9,10.524c-0.62,7.334 1.196,13.912 6,19.588c1.394,1.644 2.758,3.322 4.065,5.036c4.144,5.422 7.496,11.27 9.335,17.901c0.06,0.214 0.195,0.412 0.291,0.617c0.281,-1.275 0.198,-2.513 0.294,-3.738c0.327,-4.167 2.275,-7.202 6.297,-8.721c1.126,-0.423 2.252,-0.835 3.388,-1.235c0.753,-0.267 1.519,-0.522 2.285,-0.756c0.819,-0.254 1.255,-0.776 1.252,-1.648c-0.004,-1.453 -0.004,-2.902 -0.004,-4.365c-0.271,-0.126 -0.482,-0.261 -0.72,-0.324c-2.519,-0.713 -4.623,-2.156 -6.614,-3.784c-0.981,-0.809 -1.73,-1.81 -2.107,-3.055c-0.389,-1.274 -0.102,-2.367 0.846,-3.298c1.35,-1.325 3.381,-1.635 4.966,-0.542c0.928,0.641 1.727,1.522 2.421,2.424c1,1.294 1.855,2.708 2.843,4.177c0.538,-0.832 0.987,-1.545 1.459,-2.245c0.496,-0.753 1.004,-1.503 1.526,-2.239c0.71,-0.991 1.535,-1.859 2.665,-2.378c1.605,-0.739 3.46,-0.363 4.679,0.948c1.083,1.162 1.225,2.714 0.172,4.293c-0.628,0.938 -1.46,1.793 -2.338,2.506c-1.959,1.588 -4.131,2.83 -6.621,3.424c-0,1.424 -0.033,2.725 0.01,4.019c0.056,1.569 0.238,1.75 1.704,2.259c1.799,0.617 3.616,1.202 5.389,1.892c3.609,1.403 5.59,4.104 6.043,7.928c0.165,1.414 0.231,2.84 0.343,4.26c0.053,0.013 0.109,0.023 0.165,0.036c0.103,-0.313 0.228,-0.617 0.32,-0.934c1.437,-4.963 3.653,-9.566 6.618,-13.773c2.163,-3.071 4.524,-6.014 6.872,-8.949c1.836,-2.295 3.388,-4.735 4.325,-7.526c2.745,-8.159 1.883,-16.012 -2.143,-23.557c-2.347,-4.415 -6.019,-7.146 -10.827,-8.43c-3.514,-0.942 -7.103,-1.387 -10.716,-1.45c-6.469,-0.112 -12.944,-0.155 -19.413,0.023Zm16.782,25.132c-1.533,-0.138 -2.117,-1.268 -1.288,-2.559c3.107,-4.834 7.433,-7.79 13.258,-8.255c0.924,-0.073 1.915,0.053 2.816,0.297c1.909,0.525 3.151,1.8 3.336,3.811c0.191,2.004 -0.572,3.685 -2.335,4.708c-0.938,0.542 -2.021,0.899 -3.081,1.15c-3.035,0.716 -6.135,0.928 -9.252,0.868c-1.153,0 -2.315,0.083 -3.454,-0.02Zm9.701,-7.225c-2.493,0.492 -5.471,2.427 -6.416,4.098c1.79,0.278 5.32,-0.026 6.393,-0.561c-0.046,-0.529 -0.129,-1.07 -0.125,-1.612c0.003,-0.591 0.085,-1.182 0.148,-1.925Zm3.926,-0.439c-0.511,-0.096 -1.056,-0.016 -1.598,-0.016c0.07,1.241 0.139,2.413 0.218,3.84c0.72,-0.277 1.344,-0.439 1.892,-0.746c0.674,-0.37 1.027,-1.255 0.879,-1.902c-0.165,-0.743 -0.743,-1.05 -1.391,-1.176Zm-45.621,0.837c0.337,-2.143 1.972,-3.639 4.333,-3.933c1.766,-0.218 3.497,-0.02 5.197,0.512c4.026,1.261 7.196,3.662 9.553,7.146c0.086,0.125 0.169,0.251 0.245,0.379c0.905,1.536 0.337,2.639 -1.48,2.748c-1.096,0.069 -2.202,0.013 -3.305,0.013c-0.01,0.092 -0.017,0.185 -0.026,0.274c-2.979,-0.37 -5.957,-0.7 -8.926,-1.136c-0.925,-0.135 -1.846,-0.482 -2.705,-0.868c-2.004,-0.905 -3.209,-3.114 -2.886,-5.135Zm5.531,2.727c0.086,-1.235 0.169,-2.397 0.245,-3.556c-1.711,-0.109 -2.549,0.31 -2.662,1.288c-0.128,1.132 0.624,1.879 2.417,2.268Zm2.645,-3.325l0,4.035c2.272,0.162 4.478,0.317 6.684,0.469c0.04,-0.132 0.083,-0.261 0.122,-0.393c-1.885,-1.948 -4.085,-3.388 -6.806,-4.111Zm-25.609,114.666c1.608,-5.069 3.936,-9.755 7.318,-13.886c0.28,-0.34 0.508,-0.753 0.65,-1.166c0.829,-2.513 1.169,-5.088 0.74,-7.71c-0.271,-1.631 -0.657,-3.239 -0.974,-4.861c-0.42,-2.113 -0.988,-4.21 -1.205,-6.343c-0.809,-7.919 1.076,-15.22 5.339,-21.926c0.297,-0.466 0.585,-0.932 0.845,-1.348c-1.842,-2.298 -3.652,-4.553 -5.461,-6.809c-4.594,0.506 -8.325,4.105 -9.243,8.814c-0.505,2.585 -0.073,5.092 0.485,7.591c0.872,3.913 1.866,7.8 2.655,11.726c1.173,5.805 0.776,11.472 -1.849,16.884c-0.568,1.172 -1.073,2.378 -1.549,3.589c-2.278,5.812 -1.119,11.294 1.701,16.921c0.248,-0.671 0.416,-1.067 0.548,-1.476Zm4.897,0.901c0.152,-0.168 0.311,-0.436 0.294,-0.644c-0.112,-1.116 -0.277,-2.222 -0.423,-3.332c-1.248,2.018 -1.902,4.164 -2.456,6.357c0.086,0.043 0.178,0.089 0.267,0.129c0.773,-0.839 1.559,-1.658 2.318,-2.51Zm65.366,29.699c-2.312,0.951 -4.326,1.783 -6.4,2.632c1.876,5.64 3.425,11.29 8.18,15.484c-0.595,-6.093 -1.179,-11.964 -1.78,-18.116Zm-75.5,-85.71c1.324,-6.231 4.831,-10.279 11.026,-11.934c-2.728,-5.134 -3.953,-10.329 -2.582,-15.946c-0.737,2.209 -1.47,4.419 -2.299,6.905c-0.865,-1.948 -1.611,-3.629 -2.341,-5.27c-0.677,0.578 -1.308,1.136 -1.958,1.667c-0.657,0.539 -1.344,1.044 -2.001,1.589c-4.237,3.526 -5.947,8.083 -5.3,13.499c0.452,3.804 2.447,6.799 5.455,9.49Zm90.739,9.53c0.469,-2.252 0.964,-4.517 1.143,-6.802c0.261,-3.302 -0.855,-6.228 -3.19,-8.615c-1.73,-1.77 -3.864,-2.778 -6.165,-3.095c-1.899,2.365 -3.682,4.584 -5.505,6.856c0.271,0.429 0.568,0.888 0.855,1.35c3.874,6.152 5.825,12.832 5.489,20.13c-0.142,3.074 -0.799,6.053 -1.595,9.012c-0.677,2.536 -1.064,5.108 -0.819,7.74c0.204,2.262 0.776,4.329 2.258,6.228c1.592,2.04 2.9,4.335 4.062,6.657c1.166,2.318 1.991,4.801 2.985,7.248c0.079,-0.04 0.142,-0.043 0.162,-0.076c2.354,-4.266 3.454,-8.817 2.381,-13.608c-0.552,-2.464 -1.658,-4.825 -2.672,-7.156c-2.126,-4.838 -2.704,-9.847 -1.737,-15.001c0.684,-3.643 1.612,-7.235 2.348,-10.868Zm92.615,167.346c2.104,-2.939 2.787,-6.278 2.866,-9.791c0.033,-1.285 -0.287,-2.391 -1.294,-3.372c-2.133,-2.06 -2.678,-4.619 -1.853,-7.463c0.238,-0.818 0.506,-1.624 0.8,-2.42c0.429,-1.123 0.934,-2.216 1.357,-3.342c0.984,-2.605 0.832,-5.171 -0.175,-7.648l-9.474,0c-1.057,2.662 -1.149,5.32 -0.043,8.015c0.68,1.664 1.341,3.348 1.925,5.049c1.04,3.048 0.396,5.749 -1.902,7.994c-0.779,0.766 -1.149,1.641 -1.156,2.665c-0.013,3.196 0.456,6.307 2.134,9.101c1.182,1.964 2.489,3.85 3.771,5.825c1.02,-1.552 1.974,-3.118 3.044,-4.613Zm-154.349,-3.352l-13.863,0l0,23.845l2.996,-0l-0,-10.996l8.823,-0l-0,-2.866l-8.823,-0l-0,-7.12l10.867,0l-0,-2.863Zm3.072,-0.271l0,24.116l2.863,-0l0,-24.116l-2.863,0Zm191.19,-40.332c0.604,-2.632 1.228,-5.297 1.443,-7.971c0.439,-5.396 -2.919,-10.052 -7.998,-11.502c-0.508,-0.142 -1.056,-0.181 -1.39,-0.234c-1.912,2.387 -3.688,4.6 -5.462,6.815c0.37,0.591 0.723,1.136 1.067,1.691c3.824,6.188 5.663,12.892 5.254,20.183c-0.175,2.975 -0.839,5.848 -1.605,8.711c-0.69,2.589 -1.067,5.22 -0.77,7.892c0.195,1.724 0.354,3.52 1.516,4.953c3.296,4.058 5.594,8.648 7.189,13.611c0.152,0.449 0.297,0.905 0.446,1.358c0.109,0.019 0.204,0.039 0.31,0.049c0.485,-1.123 1.027,-2.222 1.45,-3.378c1.779,-4.917 1.842,-9.797 -0.43,-14.609c-0.683,-1.449 -1.311,-2.929 -1.892,-4.428c-1.37,-3.51 -1.839,-7.146 -1.492,-10.91c0.379,-4.167 1.439,-8.186 2.364,-12.231Zm-213.304,-206.614c0.346,2.067 0.914,4.094 1.433,6.132c0.119,0.478 0.442,0.908 0.743,1.499c0.723,-1.321 1.297,-2.431 1.925,-3.51c2.585,-4.465 6.37,-7.447 11.303,-8.886c1.965,-0.572 4.009,-0.882 6.02,-1.308c0.548,-0.116 1.106,-0.215 1.842,-0.353c-0.518,-0.743 -0.852,-1.301 -1.258,-1.797c-2.595,-3.216 -5.95,-5.21 -10.002,-5.934c-5.254,-0.937 -10.583,-0.967 -15.896,-1.172c-0.189,-0.006 -0.38,0.079 -0.677,0.149c0.053,0.525 0.089,1.017 0.158,1.499c0.297,1.955 0.974,3.791 1.879,5.531c1.341,2.569 2.057,5.306 2.53,8.15Zm-11.37,29.904c-0.062,-0.34 -0.099,-0.687 -0.194,-1.014c-0.796,-2.724 0.066,-5.026 1.773,-7.133c1.948,-2.4 4.359,-4.283 6.858,-6.062c0.776,-0.552 1.565,-1.093 2.381,-1.582c0.647,-0.386 0.991,-0.878 1.176,-1.628c0.185,-0.746 0.128,-1.285 -0.294,-1.952c-0.875,-1.396 -1.602,-2.879 -2.457,-4.451c-2.407,1.281 -4.808,2.695 -6.631,4.894c-1.023,1.232 -1.142,1.885 -0.795,3.54c0.822,-0.879 1.588,-1.721 2.384,-2.533c0.346,-0.357 0.716,-0.717 1.142,-0.967c0.637,-0.384 1.272,-0.235 1.777,0.287c0.512,0.522 0.581,1.149 0.234,1.799c-0.092,0.172 -0.234,0.327 -0.376,0.466c-2.936,2.847 -5.254,6.192 -7.641,9.48c-0.175,0.238 -0.357,0.473 -0.697,0.925c-0.089,-0.538 -0.182,-0.832 -0.182,-1.129c-0.013,-2.909 0.03,-5.822 -0.02,-8.731c-0.036,-2.127 0.691,-3.916 2.091,-5.482c1.588,-1.783 3.53,-3.114 5.557,-4.332c0.812,-0.489 1.641,-0.944 2.543,-1.456c-0.403,-3.15 -0.842,-6.264 -2.328,-9.127c-1.093,-2.097 -2.008,-4.28 -2.348,-6.634c-0.175,-1.229 -0.198,-2.503 -0.112,-3.745c0.086,-1.228 0.677,-1.747 1.842,-1.737c6.076,0.056 12.149,0.192 18.155,1.205c4.62,0.776 8.51,2.959 11.528,6.555c0.987,1.179 1.754,2.536 2.658,3.864l21.963,-0c2.526,-5.168 6.687,-8.47 12.241,-10.003c1.73,-0.478 3.536,-0.802 5.329,-0.924c4.703,-0.314 9.415,-0.505 14.134,-0.694c1.766,-0.069 2.275,0.476 2.42,2.289c0.178,2.196 -0.281,4.303 -1.037,6.337c-0.472,1.268 -1.037,2.503 -1.634,3.715c-1.361,2.75 -1.793,5.715 -2.203,8.806c0.489,0.278 0.958,0.552 1.427,0.809c2.12,1.169 4.14,2.457 5.924,4.108c2.011,1.866 3.16,4.049 3.005,6.912c-0.146,2.602 -0.027,5.217 -0.033,7.829c-0,0.426 -0.037,0.858 -0.066,1.605c-0.516,-0.657 -0.852,-1.064 -1.163,-1.49c-2.232,-3.09 -4.451,-6.198 -7.189,-8.886c-0.819,-0.809 -0.855,-1.727 -0.191,-2.374c0.637,-0.617 1.469,-0.611 2.278,0.122c0.7,0.644 1.334,1.364 1.992,2.054c0.336,0.354 0.663,0.71 1.099,1.179c0.383,-1.304 0.106,-2.348 -0.591,-3.213c-0.716,-0.888 -1.516,-1.757 -2.42,-2.443c-1.47,-1.107 -3.068,-2.051 -4.584,-3.048c-0.987,1.773 -1.898,3.375 -2.774,4.996c-0.379,0.707 0.261,2.48 1.037,3.031c1.764,1.245 3.59,2.411 5.254,3.771c1.469,1.199 2.85,2.543 4.105,3.966c0.772,0.882 1.334,1.998 1.832,3.081c0.416,0.911 0.469,1.912 0.278,2.945c-0.585,3.052 -1.097,6.116 -1.635,9.174c-0.043,0.228 -0.125,0.446 -0.254,0.875c-0.347,-0.489 -0.595,-0.779 -0.786,-1.103c-2.179,-3.665 -4.385,-7.318 -7.205,-10.554c-0.694,-0.799 -0.631,-1.694 0.019,-2.275c0.651,-0.574 1.605,-0.551 2.269,0.238c1.189,1.417 2.288,2.919 3.424,4.382c0.152,0.198 0.307,0.393 0.575,0.743c0.545,-1.334 0.806,-2.536 0.241,-3.781c-0.241,-0.545 -0.561,-1.07 -0.925,-1.539c-1.895,-2.447 -4.362,-4.23 -7.073,-6.158c0,0.587 0.013,0.908 -0.006,1.228c-0.129,2.298 -0.222,4.603 -0.443,6.892c-0.073,0.822 0.069,1.383 0.631,2.017c1.684,1.915 3.375,3.85 4.884,5.908c0.944,1.278 1.657,2.747 2.308,4.203c0.858,1.912 0.908,3.89 -0.066,5.815c-0.129,0.268 -0.221,0.558 -0.396,1.004c4.114,3.23 7.449,7.186 10.131,11.894c0.175,-0.802 0.402,-1.598 0.525,-2.41c0.597,-3.966 -0.189,-7.793 -1.315,-11.567c-1.079,-3.616 -2.589,-7.057 -4.491,-10.323c-0.151,-0.261 -0.34,-0.505 -0.455,-0.779c-0.357,-0.822 -0.162,-1.585 0.475,-2.005c0.71,-0.465 1.542,-0.31 2.13,0.413c0.192,0.235 0.334,0.502 0.492,0.763c3.223,5.623 5.594,11.561 6.324,18.043c0.416,3.695 0.35,6.865 -1.833,11.366c0.32,0.122 0.624,0.284 0.941,0.343c7.407,1.318 14.787,2.787 22.22,3.887c7.295,1.076 14.629,1.905 21.966,2.612c11.399,1.096 22.837,1.406 34.289,0.947c2.104,-0.082 4.204,-0.297 6.304,-0.452c0.403,-0.026 0.806,-0.076 1.202,-0.066c0.977,0.017 1.602,0.545 1.677,1.37c0.08,0.806 -0.492,1.493 -1.41,1.648c-0.637,0.109 -1.291,0.178 -1.941,0.221c-6.713,0.456 -13.43,0.684 -20.16,0.529c-8.886,-0.212 -17.749,-0.78 -26.585,-1.724c-12.67,-1.357 -25.271,-3.196 -37.75,-5.851c-0.426,-0.089 -0.872,-0.129 -1.308,-0.192c-0.089,0.215 -0.168,0.347 -0.188,0.482c-0.588,5.363 -3.315,9.504 -7.43,12.786c-1.007,0.799 -1.509,1.621 -1.75,2.916c-0.67,3.543 -1.611,7.033 -2.404,10.553c-0.736,3.286 -1.301,6.592 -1.172,9.986c0.099,2.546 0.743,4.947 1.717,7.278c0.505,1.202 1.02,2.404 1.565,3.586c2.292,4.924 2.427,9.973 0.938,15.124c-0.885,3.061 -2.302,5.874 -4.108,8.5c-0.168,0.247 -0.343,0.501 -0.555,0.706c-0.868,0.842 -2.123,0.595 -2.555,-0.541c-0.232,-0.601 -0.284,-1.265 -0.473,-1.892c-0.62,-2.061 -1.254,-4.121 -1.912,-6.172c-0.125,-0.396 -0.373,-0.763 -0.733,-1.473c-0.313,4.138 -1.165,7.78 -2.526,11.284c-0.981,2.519 -2.143,4.966 -3.249,7.436c-0.241,0.555 -0.571,1.063 -0.869,1.582c-0.429,0.766 -0.904,1.502 -1.948,1.347c-1.043,-0.159 -1.212,-1.011 -1.459,-1.859c-0.856,-2.985 -1.777,-5.957 -2.675,-8.923c-0.102,-0.33 -0.261,-0.647 -0.502,-1.208c-0.191,0.498 -0.347,0.773 -0.403,1.066c-0.706,3.593 -1.367,7.192 -2.11,10.775c-0.224,1.077 -0.644,2.107 -1.014,3.144c-0.294,0.819 -0.637,1.638 -1.7,1.664c-1.057,0.023 -1.43,-0.759 -1.773,-1.572c-1.846,-4.289 -2.474,-8.76 -2.035,-13.4c0.129,-1.344 0.268,-2.691 0.321,-4.045c0.119,-3.117 -0.842,-5.937 -2.49,-8.536c-1.047,-1.651 -2.295,-3.137 -3.969,-4.53c-0.146,1.053 -0.255,1.931 -0.387,2.807c-0.465,3.024 -1.631,5.752 -3.381,8.278c-1.083,1.552 -2.034,3.229 -2.82,4.947c-0.753,1.647 -1.037,3.447 -0.901,5.293c0.042,0.545 0.062,1.103 0.016,1.651c-0.083,0.948 -0.647,1.436 -1.582,1.456c-0.908,0.013 -1.565,-0.475 -1.694,-1.364c-0.076,-0.488 -0.059,-1 -0.013,-1.502c0.268,-2.919 -0.568,-5.558 -2.008,-8.037c-0.452,-0.78 -0.947,-1.543 -1.492,-2.256c-2.328,-3.054 -3.415,-6.551 -3.778,-10.319c-0.023,-0.201 -0.049,-0.396 -0.079,-0.594c-0.01,-0.043 -0.05,-0.076 -0.142,-0.218c-0.261,0.195 -0.548,0.363 -0.776,0.587c-2.787,2.741 -4.848,5.905 -5.432,9.834c-0.205,1.374 -0.155,2.8 -0.066,4.191c0.178,2.75 0.515,5.491 0.185,8.262c-0.327,2.717 -1.08,5.299 -2.15,7.799c-0.32,0.75 -0.789,1.305 -1.671,1.268c-0.809,-0.036 -1.218,-0.584 -1.512,-1.274c-1.172,-2.748 -1.714,-5.654 -2.232,-8.573c-0.393,-2.212 -0.793,-4.415 -1.46,-6.644c-0.198,0.44 -0.452,0.869 -0.594,1.331c-0.849,2.774 -1.671,5.561 -2.5,8.341c-0.106,0.344 -0.165,0.69 -0.261,1.027c-0.191,0.624 -0.598,1.034 -1.261,1.133c-0.664,0.096 -1.192,-0.159 -1.546,-0.71c-0.383,-0.591 -0.746,-1.195 -1.076,-1.813c-1.721,-3.243 -3.124,-6.621 -4.233,-10.118c-0.106,-0.333 -0.228,-0.657 -0.393,-1.129c-0.347,0.297 -0.644,0.518 -0.892,0.779c-2.226,2.381 -4.458,4.765 -6.654,7.182c-0.34,0.38 -0.597,0.899 -0.723,1.401c-0.165,0.653 -0.482,1.202 -1.113,1.268c-0.872,0.095 -1.301,0.683 -1.813,1.215c-10.117,10.6 -20.215,21.223 -30.369,31.796c-1.909,1.981 -3.986,3.821 -6.063,5.63c-1.783,1.552 -3.768,2.827 -5.967,3.751c-1.311,0.545 -2.652,0.902 -4.088,0.856c-2.543,-0.063 -4.299,-1.311 -5.188,-3.639c-0.455,-1.202 -0.637,-2.517 -0.891,-3.791c-0.519,-2.569 -1.163,-5.099 -2.424,-7.407c-0.518,-0.954 -1.202,-1.852 -1.945,-2.645c-0.717,-0.763 -1.687,-1.119 -2.754,-0.72c-4.828,1.793 -8.275,4.986 -9.969,9.933c-0.06,0.168 -0.027,0.367 -0.046,0.651c0.571,-0.129 1.037,-0.255 1.509,-0.354c2.166,-0.459 3.916,0.472 4.672,2.51c0.667,1.8 1.11,3.642 1.083,5.58c-0.049,3.309 -1.515,5.033 -4.722,5.855c-2.42,0.614 -4.847,1.291 -7.169,2.209c-1.654,0.661 -3.239,1.618 -4.659,2.698c-2.13,1.625 -2.47,3.197 -1.552,5.716c0.67,1.833 1.347,3.672 2.13,5.465c0.67,1.519 1.783,2.635 3.662,3.038c-0.033,-0.502 -0.066,-0.918 -0.086,-1.334c-0.109,-2.133 0.869,-3.395 2.909,-3.946c2.289,-0.624 4.26,0.007 6.053,1.403c0.74,0.582 1.413,1.255 2.308,2.048c-0.508,0.373 -0.819,0.548 -1.066,0.795c-2.903,2.86 -3.818,6.281 -2.731,10.201c0.667,2.407 1.915,4.527 3.622,6.346c2.1,2.233 4.557,2.536 7.394,0.948c-0.284,-0.409 -0.618,-0.786 -0.829,-1.228c-0.363,-0.76 -0.76,-1.532 -0.948,-2.348c-0.195,-0.875 0.116,-1.618 0.955,-2.173c3.467,-2.278 6.465,-5.102 9.071,-8.308c2.486,-3.061 5.336,-5.729 8.46,-8.1c5.973,-4.531 12.25,-8.576 19.218,-11.429c2.919,-1.205 5.898,-2.341 9.061,-2.665c1.978,-0.198 3.996,-0.036 6.129,-0.036c-0.248,0.228 -0.443,0.469 -0.697,0.624c-2.12,1.341 -4.253,2.665 -6.376,3.992c-0.169,0.106 -0.321,0.245 -0.483,0.36c-1.627,1.255 -1.687,1.391 -1.215,2.801c0.548,1.654 1.645,2.565 3.16,2.529c0.592,-0.02 1.202,-0.122 1.767,-0.317c3.788,-1.314 6.819,-3.603 8.823,-7.109c1.305,-2.286 1.909,-4.739 1.367,-7.384c-0.046,-0.234 -0.026,-0.489 -0.046,-0.845c0.519,-0.195 1.017,-0.42 1.529,-0.588c7.182,-2.398 14.361,-4.792 21.543,-7.169c6.205,-2.051 12.188,-4.61 17.934,-7.717c0.842,-0.456 1.4,-0.978 1.621,-1.978c0.658,-2.995 2.328,-5.416 4.66,-7.367c3.695,-3.094 8.024,-4.676 12.756,-5.247c2.453,-0.291 4.593,0.287 6.205,2.427c0.918,-0.383 1.829,-0.664 2.635,-1.126c0.485,-0.281 0.885,-0.799 1.185,-1.288c1.374,-2.255 2.975,-4.303 5.099,-5.871c5.375,-3.976 11.217,-4.881 17.491,-2.497c0.786,0.298 1.417,0.215 2.16,-0.026c7.04,-2.335 14.139,-4.491 21.361,-6.208c2.391,-0.565 4.795,-1.08 7.189,-1.602c0.33,-0.069 0.683,-0.043 1.106,-0.069c0.155,0.944 0.297,1.82 0.472,2.873c-9.682,1.958 -19.109,4.61 -28.484,7.757c0.109,0.287 0.182,0.521 0.304,0.719c1.595,2.507 1.737,5.172 0.885,7.955c-0.793,2.576 -2.232,4.811 -3.834,6.938c-0.882,1.182 -1.628,2.411 -1.998,3.85c-0.617,2.342 -0.237,4.577 0.75,6.737c1.129,2.476 2.899,4.425 4.946,6.178c7.509,6.419 15.695,11.835 24.331,16.59c3.212,1.76 6.422,3.517 9.635,5.27c0.344,0.185 0.71,0.334 1.229,0.575c-0.39,-2.114 -0.71,-4.072 -1.14,-6.007c-0.082,-0.366 -0.538,-0.683 -0.881,-0.958c-1.737,-1.383 -3.303,-2.925 -4.594,-4.735c-2.136,-3.001 -3.186,-6.333 -3.236,-10.009c-0.013,-0.577 -0.049,-1.241 -0.333,-1.713c-1.889,-3.141 -2.384,-6.558 -2.203,-10.141c0.175,-3.791 1.027,-7.46 2.431,-10.963c1.159,-2.873 2.575,-5.65 3.899,-8.46c0.185,-0.403 0.44,-0.803 0.737,-1.123c0.522,-0.585 1.288,-0.657 1.912,-0.268c0.73,0.45 0.944,1.123 0.584,1.942c-0.162,0.367 -0.396,0.697 -0.588,1.044c-2.882,5.121 -4.963,10.517 -5.725,16.372c-0.284,2.195 -0.278,4.401 0.307,6.858c0.297,-0.502 0.515,-0.786 0.657,-1.109c1.707,-3.897 4.837,-6.466 8.212,-8.794c0.436,-0.297 1.12,-0.248 1.826,-0.376c-0.228,-0.552 -0.436,-1.156 -0.726,-1.714c-0.974,-1.876 -0.971,-3.801 -0.139,-5.667c0.69,-1.548 1.456,-3.107 2.454,-4.464c1.509,-2.064 3.222,-3.969 4.893,-5.904c0.459,-0.529 0.631,-0.984 0.552,-1.731c-0.278,-2.628 -0.41,-5.28 -0.608,-8.011c-0.185,0.086 -0.508,0.172 -0.749,0.364c-1.496,1.178 -2.989,2.367 -4.448,3.596c-0.532,0.449 -0.975,1.007 -1.443,1.528c-1.463,1.619 -1.985,3.428 -1.027,5.637c0.254,-0.274 0.482,-0.498 0.683,-0.746c1.007,-1.308 1.998,-2.638 3.015,-3.943c0.248,-0.304 0.548,-0.607 0.892,-0.792c0.624,-0.357 1.268,-0.274 1.793,0.247c0.515,0.509 0.614,1.13 0.261,1.787c-0.096,0.175 -0.218,0.333 -0.351,0.485c-2.717,3.124 -4.854,6.631 -6.95,10.174c-0.255,0.423 -0.535,0.832 -0.945,1.473c-0.162,-0.545 -0.29,-0.882 -0.36,-1.235c-0.528,-2.913 -1.05,-5.825 -1.565,-8.738c-0.261,-1.489 -0.056,-2.939 0.769,-4.193c0.826,-1.249 1.724,-2.47 2.758,-3.553c2.229,-2.342 4.883,-4.158 7.581,-5.918c1.582,-1.043 1.793,-2.278 0.813,-3.896c-0.793,-1.325 -1.463,-2.718 -2.269,-4.22c-2.47,1.38 -4.94,2.777 -6.749,5.075c-0.866,1.093 -0.955,1.595 -0.786,3.398c0.343,-0.321 0.627,-0.562 0.881,-0.822c0.77,-0.793 1.49,-1.638 2.305,-2.378c0.76,-0.69 1.714,-0.624 2.282,0.02c0.571,0.65 0.545,1.39 -0.142,2.159c-0.835,0.938 -1.777,1.787 -2.549,2.771c-1.655,2.08 -3.23,4.223 -4.831,6.337c-0.294,0.386 -0.598,0.753 -1.073,1.36c-0.053,-0.736 -0.106,-1.165 -0.106,-1.601c-0.007,-2.764 0.046,-5.525 -0.02,-8.282c-0.056,-2.259 0.783,-4.098 2.292,-5.703c1.664,-1.78 3.662,-3.107 5.745,-4.329c0.691,-0.406 1.381,-0.789 2.134,-1.215c-0.393,-3.14 -0.819,-6.208 -2.279,-9.025c-1.129,-2.192 -2.074,-4.464 -2.437,-6.921c-0.155,-1.083 -0.181,-2.206 -0.115,-3.296c0.105,-1.532 0.677,-2.037 2.229,-2.021c2.555,0.03 5.121,0.04 7.674,0.238c3.543,0.271 7.099,0.542 10.609,1.116c4.749,0.776 8.583,3.286 11.568,7.031c0.805,1.01 1.39,2.186 2.08,3.292l21.996,-0c3.49,-6.928 9.394,-10.191 16.86,-10.877c4.646,-0.426 9.322,-0.535 13.978,-0.783c0.403,-0.023 0.799,-0.03 1.202,-0.013c1.361,0.049 1.889,0.505 2.067,1.882c0.208,1.664 0.093,3.328 -0.439,4.914c-0.601,1.799 -1.281,3.582 -2.074,5.309c-1.205,2.619 -2.139,6.146 -2.225,9.088c0.429,0.247 0.914,0.492 1.364,0.796c1.793,1.192 3.642,2.324 5.339,3.639c0.968,0.759 1.793,1.766 2.477,2.793c0.508,0.77 0.951,1.744 0.974,2.639c0.105,3.655 0.043,7.31 0.043,11.303c-0.446,-0.522 -0.737,-0.813 -0.981,-1.139c-2.328,-3.217 -4.62,-6.443 -7.463,-9.246c-0.763,-0.76 -0.782,-1.625 -0.168,-2.262c0.604,-0.625 1.522,-0.638 2.291,0.059c0.7,0.644 1.338,1.364 1.995,2.047c0.34,0.354 0.67,0.71 1.106,1.176c0.377,-1.176 0.172,-2.12 -0.416,-2.939c-0.548,-0.766 -1.175,-1.502 -1.885,-2.13c-1.612,-1.436 -3.454,-2.542 -5.314,-3.507c-0.967,1.714 -1.885,3.316 -2.757,4.944c-0.37,0.686 0.33,2.47 1.1,3.008c1.558,1.093 3.209,2.08 4.656,3.305c1.753,1.483 3.447,3.081 4.966,4.798c1.628,1.853 2.236,4.042 1.678,6.581c-0.657,2.926 -1.093,5.898 -1.632,8.926c-0.65,-0.099 -0.746,-0.664 -0.987,-1.04c-1.816,-2.764 -3.596,-5.558 -5.429,-8.315c-0.528,-0.789 -1.215,-1.469 -1.789,-2.219c-0.585,-0.779 -0.525,-1.605 0.095,-2.163c0.628,-0.574 1.516,-0.601 2.15,0.109c1.096,1.242 2.084,2.573 3.111,3.87c0.333,0.423 0.644,0.856 1.043,1.39c0.799,-1.964 0.651,-3.629 -0.584,-5.207c-1.952,-2.473 -4.429,-4.319 -7.202,-6.284c-0,0.565 0.016,0.882 -0,1.199c-0.142,2.348 -0.258,4.699 -0.459,7.04c-0.063,0.71 0.049,1.199 0.525,1.75c1.763,2.047 3.54,4.105 5.148,6.281c0.888,1.188 1.552,2.575 2.156,3.946c0.849,1.912 0.921,3.886 -0.053,5.818c-0.115,0.221 -0.201,0.456 -0.277,0.697c-0.03,0.086 -0.007,0.195 -0.007,0.436c4.035,3.166 7.318,7.099 9.979,11.768c0.185,-0.746 0.413,-1.482 0.532,-2.242c0.611,-3.701 -0.06,-7.297 -1.047,-10.847c-1.086,-3.93 -2.684,-7.661 -4.738,-11.194c-0.182,-0.298 -0.393,-0.588 -0.509,-0.912c-0.307,-0.819 -0.033,-1.558 0.67,-1.945c0.651,-0.35 1.351,-0.228 1.893,0.373c0.208,0.225 0.356,0.486 0.508,0.747c3.302,5.702 5.686,11.742 6.433,18.326c0.416,3.689 0.132,7.321 -1.658,10.699c-0.089,0.169 -0.122,0.364 -0.225,0.667c11.841,2.541 23.749,4.414 35.748,5.759l0,-171.647l-189.876,-109.366l-189.869,109.366l0,218.671l189.869,109.36l189.876,-109.36l0,-43.928c-12.19,-1.351 -24.276,-3.277 -36.286,-5.79c-0.076,0.185 -0.165,0.317 -0.178,0.459c-0.542,5.306 -3.193,9.441 -7.255,12.713c-1.119,0.908 -1.71,1.826 -1.978,3.279c-0.637,3.5 -1.572,6.941 -2.368,10.412c-0.7,3.084 -1.215,6.198 -1.178,9.378c0.036,2.711 0.67,5.267 1.707,7.743c0.502,1.205 1.014,2.404 1.565,3.583c2.387,5.128 2.47,10.362 0.812,15.695c-0.901,2.899 -2.265,5.564 -3.992,8.057c-0.142,0.208 -0.277,0.423 -0.446,0.604c-0.918,0.945 -2.179,0.714 -2.638,-0.528c-0.225,-0.607 -0.274,-1.271 -0.466,-1.892c-0.621,-2.061 -1.261,-4.121 -1.918,-6.172c-0.119,-0.366 -0.331,-0.7 -0.667,-1.383c-0.159,1.192 -0.261,2.047 -0.397,2.899c-0.967,6.225 -3.282,11.964 -6.346,17.425c-0.146,0.261 -0.294,0.535 -0.502,0.75c-0.836,0.898 -2.067,0.703 -2.576,-0.41c-0.148,-0.313 -0.185,-0.676 -0.284,-1.007c-0.825,-2.79 -1.638,-5.577 -2.476,-8.361c-0.162,-0.521 -0.423,-1.004 -0.925,-1.515c-0.268,1.403 -0.532,2.813 -0.806,4.226c-0.495,2.556 -0.967,5.122 -1.529,7.658c-0.244,1.073 -0.683,2.1 -1.056,3.137c-0.288,0.789 -0.69,1.466 -1.684,1.46c-0.991,-0.014 -1.341,-0.747 -1.661,-1.503c-1.853,-4.276 -2.53,-8.744 -2.074,-13.38c0.135,-1.404 0.37,-2.814 0.307,-4.204c-0.066,-1.532 -0.284,-3.097 -0.697,-4.58c-0.914,-3.335 -3.001,-5.944 -5.676,-8.42c-0.136,0.697 -0.274,1.198 -0.324,1.71c-0.353,3.468 -1.496,6.628 -3.596,9.441c-0.594,0.799 -1.142,1.651 -1.651,2.516c-1.41,2.444 -2.166,5.059 -1.978,7.909c0.033,0.495 0.053,1.004 -0.006,1.499c-0.103,0.832 -0.697,1.347 -1.516,1.4c-0.786,0.037 -1.536,-0.436 -1.697,-1.205c-0.109,-0.528 -0.116,-1.1 -0.063,-1.645c0.281,-2.806 -0.489,-5.359 -1.829,-7.779c-0.44,-0.783 -0.915,-1.559 -1.467,-2.272c-2.447,-3.16 -3.642,-6.77 -3.999,-10.702c-0.016,-0.202 -0.052,-0.397 -0.105,-0.747c-0.334,0.222 -0.631,0.364 -0.855,0.591c-1.498,1.463 -2.782,3.051 -3.745,4.811l0,34.168l-166.747,-0l-0,-39.626l108.968,0c-5.142,-5.315 -10.555,-10.352 -16.344,-15.008c-0.542,-0.439 -1.086,-0.875 -1.72,-1.38c-3.993,3.437 -8.586,4.745 -13.727,4.078c-4.234,-0.562 -8.299,-2.757 -11.723,-6.334c0.466,-0.224 0.875,-0.449 1.308,-0.627c2.81,-1.162 4.86,-3.131 6.231,-5.832c1.634,-3.216 2.483,-6.66 2.955,-10.213c0.132,-0.994 0.175,-1.991 0.297,-2.992c0.149,-1.248 -0.376,-2.183 -1.396,-2.787c-1.031,-0.604 -2.11,-1.166 -3.233,-1.575c-3.784,-1.39 -7.747,-2.051 -11.706,-2.698c-2.622,-0.432 -5.257,-0.779 -7.889,-1.159c-0.588,-0.082 -1.185,-0.112 -1.859,-0.175c-1.281,2.744 -0.997,5.587 -0.766,8.632c-3.385,-1.721 -6.38,-3.49 -8.43,-6.489c-2.048,-2.992 -2.305,-6.244 -1.321,-9.649c0.574,-1.991 1.548,-3.804 2.773,-5.475c1.173,-1.594 2.82,-2.532 4.653,-3.18c2.539,-0.884 5.171,-1.185 7.843,-1.172l1.803,0c-0.413,-2.833 -3.19,-5.93 -5.805,-6.617c-0.747,-0.195 -1.371,-0.007 -2.005,0.34c-2.562,1.383 -5.115,2.774 -7.691,4.128c-6.871,3.596 -14.162,6.115 -21.533,8.443c-4.54,1.43 -9.044,2.972 -13.562,4.478c-0.472,0.155 -0.924,0.353 -1.406,0.541c-0.096,1.041 -0.119,2.048 -0.291,3.022c-0.611,3.434 -2.311,6.284 -4.788,8.688c-2.087,2.017 -4.504,3.526 -7.268,4.411c-0.944,0.298 -1.951,0.506 -2.939,0.542c-2.559,0.092 -4.425,-1.123 -5.597,-3.358c-0.806,-1.542 -1.179,-3.187 -0.687,-5.185c-0.67,0.218 -1.169,0.354 -1.651,0.542c-4.844,1.872 -9.318,4.461 -13.582,7.393c-2.971,2.041 -5.838,4.25 -8.635,6.529c-1.469,1.195 -2.773,2.621 -3.995,4.081c-2.82,3.358 -5.865,6.462 -9.424,9.045c-0.159,0.118 -0.301,0.26 -0.512,0.455c0.921,1.744 2.585,2.767 4.035,4.207c-2.771,1.579 -5.439,3.16 -8.645,3.302c-2.15,0.106 -4.108,-0.611 -5.63,-2.113c-3.89,-3.827 -6.251,-8.315 -5.644,-13.978c0.01,-0.092 -0.033,-0.191 -0.072,-0.423c-0.317,-0.079 -0.687,-0.175 -1.06,-0.254c-1.417,-0.31 -2.86,-0.528 -4.247,-0.944c-2.222,-0.671 -3.939,-2.074 -4.867,-4.204c-1.06,-2.427 -2.018,-4.917 -2.853,-7.433c-0.756,-2.262 -0.106,-4.362 1.324,-6.211c1.189,-1.539 2.751,-2.626 4.438,-3.553c3.107,-1.694 6.466,-2.702 9.887,-3.52c0.337,-0.086 0.68,-0.162 1.023,-0.242c1.024,-0.231 1.513,-0.941 1.635,-1.918c0.231,-1.849 -0.261,-3.586 -0.905,-5.29c-0.257,-0.684 -0.915,-0.664 -1.397,-0.403c-0.729,0.41 -1.42,0.931 -2.034,1.503c-0.723,0.67 -1.347,1.452 -2.103,2.285c-1.258,-3.372 -1.493,-6.591 -0.043,-9.778c2.229,-4.907 5.96,-8.245 10.953,-10.171c2.384,-0.921 4.626,-0.445 6.376,1.367c1.093,1.133 2.015,2.507 2.748,3.91c1.479,2.82 2.156,5.918 2.688,9.045c0.072,0.449 0.145,0.895 0.271,1.324c0.544,1.892 1.723,2.688 3.625,2.179c1.341,-0.36 2.649,-0.937 3.867,-1.608c2.427,-1.347 4.507,-3.183 6.449,-5.154c4.943,-4.993 9.883,-9.989 14.744,-15.065c5.901,-6.162 11.716,-12.406 17.571,-18.614c0.34,-0.366 0.67,-0.743 1.04,-1.146c-0.215,-0.201 -0.377,-0.396 -0.571,-0.538c-4.544,-3.441 -8.566,-7.433 -12.307,-11.709c-5.984,-6.842 -12.122,-13.536 -18.951,-19.559c-2.784,-2.453 -5.634,-4.828 -8.536,-7.311c-4.23,3.524 -8.972,4.967 -14.341,4.016c-4.402,-0.776 -8.051,-2.946 -11.254,-6.245c0.525,-0.241 0.957,-0.465 1.407,-0.647c2.77,-1.126 4.788,-3.071 6.145,-5.713c1.7,-3.302 2.559,-6.842 3.025,-10.497c0.122,-0.944 0.171,-1.899 0.28,-2.846c0.136,-1.12 -0.307,-2.005 -1.208,-2.579c-0.968,-0.611 -1.988,-1.173 -3.051,-1.592c-3.428,-1.351 -7.041,-1.995 -10.647,-2.605c-3.463,-0.585 -6.944,-1.037 -10.418,-1.543c-0.241,-0.033 -0.492,-0.003 -0.786,-0.003c-1.245,2.691 -0.961,5.505 -0.795,8.457c-0.45,-0.172 -0.786,-0.231 -1.051,-0.406c-1.789,-1.192 -3.721,-2.236 -5.309,-3.652c-3.903,-3.487 -4.835,-7.859 -3.048,-12.73c0.581,-1.582 1.476,-3.071 2.381,-4.508c1,-1.578 2.575,-2.496 4.286,-3.17c2.711,-1.066 5.541,-1.337 8.423,-1.301c0.45,0.004 0.902,0.01 1.351,-0.003c0.093,0 0.182,-0.076 0.274,-0.116c-0.132,-2.235 -2.546,-5.263 -4.993,-6.26c-2.721,-1.113 -5.405,-0.271 -8.192,0.297c0.548,-3.897 2.182,-7.001 5.042,-9.441c2.886,-2.467 6.258,-3.959 9.92,-4.818c1.122,-0.261 2.272,-0.426 3.417,-0.535c2.385,-0.228 4.399,0.575 5.736,2.579c0.826,1.239 1.466,2.622 2.038,4.002c0.686,1.668 1.205,3.402 1.812,5.106c1.041,2.919 2.665,5.491 4.696,7.826c0.32,0.373 0.578,0.799 0.869,1.202c0.125,-0.08 0.254,-0.162 0.383,-0.245c-0.099,-1.007 -0.199,-2.014 -0.291,-3.021c-0.383,-4.045 -0.759,-8.09 -1.152,-12.136c-0.063,-0.696 -0.142,-1.396 -0.281,-2.087c-0.192,-0.951 -0.449,-1.182 -1.423,-1.201c-0.849,-0.02 -1.704,0.062 -2.553,0.102c-0.436,0.023 -0.868,0.046 -1.479,0.079c1.582,-3.127 3.437,-5.831 6.096,-7.892c4.906,-3.804 10.398,-4.851 16.332,-3.127c5.534,1.605 8.031,6.555 6.274,12.063c-0.839,2.625 -2.331,4.88 -3.976,7.043c-1.486,1.955 -2.259,4.128 -2.06,6.594c0.135,1.727 0.713,3.326 1.568,4.825c1.212,2.126 2.903,3.82 4.758,5.389c6.73,5.683 13.962,10.643 21.639,14.945c4.026,2.259 8.081,4.462 12.126,6.687c0.3,0.169 0.621,0.304 1.07,0.522c-0.38,-2.071 -0.704,-4.029 -1.123,-5.96c-0.083,-0.377 -0.528,-0.684 -0.839,-0.991c-1.354,-1.337 -2.84,-2.563 -4.048,-4.015c-2.589,-3.121 -3.824,-6.773 -3.847,-10.841c-0.007,-0.618 -0.142,-1.311 -0.449,-1.836c-1.783,-3.065 -2.285,-6.387 -2.117,-9.861c0.195,-3.998 1.123,-7.855 2.622,-11.54c1.133,-2.781 2.483,-5.479 3.854,-8.15c0.881,-1.721 1.373,-1.77 3.057,-0.806c0.089,0.05 0.255,-0.036 0.383,-0.059Zm0.01,0.043c-0.099,1.003 -0.502,1.872 -1.004,2.74c-2.034,3.534 -3.576,7.278 -4.649,11.211c-0.826,3.018 -1.331,6.073 -1.113,9.206c0.056,0.806 0.235,1.605 0.367,2.484c0.261,-0.172 0.383,-0.205 0.416,-0.278c1.436,-3.642 4.104,-6.237 7.162,-8.513c0.941,-0.7 1.82,-1.515 3.256,-1.132c-0.334,-0.786 -0.558,-1.4 -0.849,-1.978c-0.861,-1.721 -0.957,-3.507 -0.211,-5.237c0.687,-1.602 1.436,-3.227 2.45,-4.63c1.546,-2.143 3.335,-4.124 5.056,-6.139c0.422,-0.488 0.578,-0.904 0.518,-1.591c-0.221,-2.388 -0.297,-4.795 -0.432,-7.189c-0.02,-0.314 -0.063,-0.627 -0.116,-1.143c-2.668,1.896 -5.105,3.715 -7.04,6.126c-1.268,1.582 -1.569,3.262 -0.647,5.28c0.343,-0.452 0.624,-0.835 0.921,-1.209c1.017,-1.301 2.001,-2.635 3.081,-3.883c0.697,-0.809 1.591,-0.845 2.259,-0.261c0.683,0.598 0.749,1.447 0.039,2.266c-2.873,3.315 -5.115,7.053 -7.344,10.801c-0.165,0.277 -0.396,0.512 -0.743,0.954c-0.485,-2.78 -0.931,-5.336 -1.377,-7.885Zm-0.01,-0.043c0.004,0.006 0.004,0.01 0.004,0.016c0.003,0.01 0.003,0.017 0.006,0.027c0,-0.017 0.007,-0.03 0.01,-0.05c-0.006,0.003 -0.013,0.007 -0.02,0.007Zm85.516,-66.259c3.051,0 4.917,2.397 4.917,5.148c-0,2.754 -1.866,5.151 -4.917,5.151c-3.045,0 -4.907,-2.397 -4.907,-5.151c-0,-2.751 1.862,-5.148 4.907,-5.148Zm-0,8.794c2.047,-0 3.213,-1.724 3.213,-3.646c-0,-1.918 -1.166,-3.642 -3.213,-3.642c-2.038,-0 -3.206,1.724 -3.206,3.642c-0,1.922 1.168,3.646 3.206,3.646Zm1.343,-41.883l-0.001,-0l-0,-2.342c-0,-0.181 0.053,-0.333 0.241,-0.333l2.094,-0l0,-0.001c0.045,-0 0.09,-0 0.134,0.001l0.202,-0l0,0.007c4.856,0.251 8.574,5.916 8.574,12.847c-0,6.927 -3.717,12.595 -8.573,12.846l0,0.022l-2.437,-0c-0.181,-0 -0.234,-0.165 -0.234,-0.347l-0,-22.7Zm2.671,20.35c3.492,-0.27 5.908,-4.728 5.908,-10.171c-0,-5.441 -2.413,-9.901 -5.908,-10.171l0,20.342Zm-28.063,-5.528c-0,-0 -0.033,-0.987 -0.059,-1.308c-0.083,-1.099 -1.193,-1.836 -2.064,-1.823l-0.961,0c-0.185,0 -0.258,-0.158 -0.258,-0.34l0,-2.004c0,-0.185 0.073,-0.327 0.258,-0.327l1.053,-0c0.684,0.01 1.793,-0.766 1.915,-1.668c0.05,-0.343 0.116,-1.344 0.116,-1.344l-0,-5.418c-0,-1.955 1.284,-3.263 3.302,-3.263l3.966,0c0.182,0 0.413,0.149 0.413,0.334l-0,2.004c-0,0.182 -0.155,0.334 -0.245,0.334l-3.675,-0c-0.891,-0 -1.083,0.29 -1.083,1.261l-0,5.762c-0,2.011 -0.822,2.754 -1.819,3.117c0.997,0.364 1.819,1.107 1.819,3.121l-0,5.762c-0,0.987 0.225,1.354 1.083,1.354l3.507,0c0.182,0 0.413,0.139 0.413,0.32l-0,2.005c-0,0.181 -0.155,0.35 -0.245,0.35l-4.134,-0c-2.018,-0 -3.302,-1.364 -3.302,-3.362l-0,-4.867Zm16.045,16.429c-0.614,-0.397 -1.07,-0.535 -1.605,-0.535c-0.948,-0 -1.466,0.594 -1.466,1.882l-0,0.651l3.883,-0l0,1.509l-3.883,-0l-0,8.473l-1.665,-0l0,-8.473l-2.81,-0l0,-1.509l2.81,-0l0,-0.611c0,-2.418 1.169,-3.428 3.071,-3.428c0.909,0 1.529,0.238 2.084,0.575l-0.419,1.466Zm-5.016,-31.251l-0.01,-0l0,-2.342c0,-0.181 0.066,-0.333 0.255,-0.333l2.004,-0l0.419,-0l7.925,-0c0.182,-0 0.426,0.148 0.426,0.333l0,25.043c0,0.182 -0.244,0.347 -0.426,0.347l-8.344,0c-0.01,0 -0.019,-0 -0.029,-0.001l-1.976,-0c-0.185,-0 -0.244,-0.165 -0.244,-0.347l-0,-22.7Zm2.671,20.373l5.251,0c0.181,0 0.426,-0.161 0.426,-0.346l-0,-19.697c-0,-0.185 -0.245,-0.331 -0.426,-0.331l-5.251,0l0,20.374Zm26.242,-8.68l-0.958,-0c-0.185,-0 -0.228,-0.162 -0.228,-0.344l0,-2.004c0,-0.185 0.04,-0.327 0.228,-0.327l5.253,-0l0.001,-0.002l-4.198,0.001c1.024,-0.334 1.605,-0.793 1.862,-1.668c0.129,-0.436 0.195,-1.344 0.195,-1.344l0,-5.415c0,-1.955 1.248,-3.266 3.276,-3.266l3.966,-0c0.181,-0 0.439,0.152 0.439,0.333l-0,2.005c-0,0.185 -0.182,0.336 -0.277,0.336l-3.676,0c-0.891,0 -1.063,0.288 -1.063,1.262l0,5.759c0,0.885 -0.261,1.33 -0.518,1.997l5.089,0c0.178,0 0.443,0.142 0.443,0.327l-0,2.004c-0,0.185 -0.265,0.341 -0.443,0.341l-4.91,-0c-0.003,-0.004 -0.005,-0.008 -0.008,-0.012c0.003,0.006 0.005,0.011 0.007,0.016l0.002,-0c0.152,0.333 0.34,0.921 0.34,1.568l0,5.763c0,0.987 0.195,1.353 1.063,1.353l3.51,0c0.182,0 0.44,0.139 0.44,0.321l-0,2.004c-0,0.182 -0.185,0.35 -0.278,0.35l-4.127,0c-2.025,0 -3.276,-1.364 -3.276,-3.361l-0,-4.868c-0,0 -0.013,-0.753 -0.149,-1.284c-0.247,-1.069 -0.775,-1.512 -2.005,-1.845Zm-1.329,24.725c-0.142,-1.149 -0.74,-1.823 -1.922,-1.823c-1.74,0 -3.385,1.645 -3.385,5.033l0,3.602l-1.664,0l0,-9.979l1.664,0l0,1.84c0.773,-1.209 2.018,-1.998 3.682,-1.998c1.978,-0 3.167,1.189 3.289,3.325l-1.664,0Z" style="fill:#0069f6;"/>
</svg>
