<svg width="100%" height="100%" viewBox="0 0 967 325" version="1.1" xmlns="http://www.w3.org/2000/svg" xmlns:xlink="http://www.w3.org/1999/xlink" xml:space="preserve" style="fill-rule:evenodd;clip-rule:evenodd;stroke-linejoin:round;stroke-miterlimit:2;">
    <g transform="matrix(4.16667,0,0,4.16667,0,0)">
        <rect x="65.059" y="0.835" width="0.526" height="77.165" style="fill:rgb(128,130,133);fill-rule:nonzero;"/>
    </g>
    <g transform="matrix(4.16667,0,0,4.16667,0,0)">
        <path d="M53.471,60.98C53.471,66.153 48.298,66.153 48.298,66.153L5.173,66.153C0,66.153 0,60.98 0,60.98L0,18.061C0,12.681 5.379,12.681 5.379,12.681L48.091,12.681C53.471,12.681 53.471,18.061 53.471,18.061L53.471,60.98ZM18.576,37.873C18.576,32.923 20.631,28.686 26.882,28.686C32.545,28.686 34.013,32.294 34.6,34.433L45.717,34.433C43.535,24.072 35.985,21.974 26.84,21.974C13.836,21.974 8.005,27.847 8.005,37.873C8.005,48.192 14.171,53.771 26.84,53.771C41.019,53.771 44.584,47.773 45.801,41.313L34.726,41.313C34.055,44.794 31.37,47.06 26.882,47.06C20.422,47.06 18.576,42.823 18.576,37.873ZM7.816,58.928L7.816,59.92L45.653,59.92L45.653,58.928L7.816,58.928ZM94.906,32.775L102.235,32.775C101.43,37.05 99.07,41.02 89.687,41.02C81.303,41.02 77.222,37.328 77.222,30.499C77.222,23.864 81.081,19.977 89.687,19.977C95.739,19.977 100.736,21.365 102.179,28.222L94.823,28.222C94.434,26.806 93.462,24.419 89.715,24.419C85.578,24.419 84.218,27.223 84.218,30.499C84.218,33.774 85.44,36.578 89.715,36.578C92.685,36.578 94.462,35.079 94.906,32.775ZM103.734,32.886C103.734,27.556 107.482,24.752 114.283,24.752C121.084,24.752 124.832,27.556 124.832,32.886C124.832,38.216 121.084,41.02 114.283,41.02C107.482,41.02 103.734,38.216 103.734,32.886ZM114.283,28.639C111.618,28.639 109.952,30.054 109.952,32.886C109.952,35.718 111.618,37.133 114.283,37.133C116.948,37.133 118.614,35.718 118.614,32.886C118.614,30.054 116.948,28.639 114.283,28.639ZM127.136,40.409L127.136,25.363L132.855,25.363L132.855,27.556L132.91,27.556C134.326,26.168 136.103,24.974 138.962,24.974C141.044,24.974 142.96,25.529 144.292,27.556C145.875,26.001 147.624,24.974 150.622,24.974C153.759,24.974 156.451,26.334 156.451,30.082L156.451,40.409L150.566,40.409L150.566,31.637C150.566,30.193 149.622,29.416 148.04,29.416C145.875,29.416 144.736,30.471 144.736,31.998L144.736,40.409L138.851,40.409L138.851,31.637C138.851,30.193 137.907,29.416 136.325,29.416C134.16,29.416 133.021,30.471 133.021,31.998L133.021,40.409L127.136,40.409ZM160.005,40.409L160.005,20.588L166.612,20.588L166.612,35.801L178.688,35.801L178.688,40.409L160.005,40.409ZM180.77,40.409L180.77,25.363L186.655,25.363L186.655,40.409L180.77,40.409ZM180.77,23.642L180.77,20.089L186.655,20.089L186.655,23.642L180.77,23.642ZM189.875,40.409L189.875,25.363L195.594,25.363L195.594,27.528L195.649,27.528C196.843,26.057 199.008,24.974 201.979,24.974C205.671,24.974 208.364,26.751 208.364,30.499L208.364,40.409L202.478,40.409L202.478,32.275C202.478,30.36 201.396,29.416 199.425,29.416C197.343,29.416 195.76,30.554 195.76,33.025L195.76,40.409L189.875,40.409ZM225.131,35.94L231.349,35.94C230.628,38.438 227.768,41.02 221.356,41.02C214.582,41.02 210.806,38.438 210.806,32.858C210.806,27.528 214.943,24.752 221.189,24.752C227.63,24.752 231.627,27.556 231.627,33.83L231.627,34.274L216.858,34.274C217.164,36.217 218.552,37.633 221.578,37.633C223.465,37.633 224.437,36.828 225.131,35.94ZM216.858,31.22L225.575,31.22C225.242,29.555 223.993,28.139 221.217,28.139C218.441,28.139 217.191,29.555 216.858,31.22ZM85.014,59.734C84.526,59.909 83.564,60.197 82.427,60.197C81.152,60.197 80.102,59.872 79.277,59.084C78.553,58.384 78.103,57.259 78.103,55.948C78.115,53.435 79.84,51.598 82.664,51.598C83.639,51.598 84.401,51.811 84.764,51.986L84.501,52.873C84.051,52.673 83.489,52.511 82.639,52.511C80.59,52.511 79.252,53.786 79.252,55.897C79.252,58.035 80.54,59.296 82.502,59.296C83.214,59.296 83.701,59.197 83.951,59.072L83.951,56.56L82.239,56.56L82.239,55.685L85.014,55.685L85.014,59.734ZM86.64,55.948C86.64,55.235 86.628,54.623 86.59,54.06L87.553,54.06L87.59,55.248L87.64,55.248C87.915,54.435 88.577,53.923 89.314,53.923C89.439,53.923 89.527,53.935 89.627,53.96L89.627,54.998C89.515,54.972 89.402,54.96 89.252,54.96C88.478,54.96 87.927,55.547 87.777,56.373C87.752,56.522 87.728,56.697 87.728,56.884L87.728,60.109L86.64,60.109L86.64,55.948ZM96.076,57.035C96.076,59.272 94.527,60.247 93.064,60.247C91.428,60.247 90.166,59.046 90.166,57.134C90.166,55.11 91.49,53.923 93.165,53.923C94.902,53.923 96.076,55.185 96.076,57.035ZM91.277,57.097C91.277,58.421 92.04,59.421 93.115,59.421C94.165,59.421 94.952,58.434 94.952,57.072C94.952,56.047 94.439,54.748 93.14,54.748C91.84,54.748 91.277,55.948 91.277,57.097ZM97.465,60.109L97.465,54.46C97.465,53.036 97.802,52.236 98.352,51.736C98.827,51.311 99.427,51.098 100.19,51.098C101.377,51.098 102.414,51.848 102.414,53.21C102.414,53.648 102.264,54.036 102.127,54.235C101.564,54.473 101.227,54.823 101.227,55.248C101.227,55.672 101.477,55.935 101.864,56.334C102.364,56.834 102.876,57.36 102.876,58.259C102.876,59.434 102.027,60.247 100.64,60.247C100.177,60.247 99.677,60.171 99.314,59.984L99.515,59.147C99.839,59.309 100.19,59.397 100.565,59.397C101.365,59.397 101.79,58.921 101.79,58.347C101.79,57.822 101.564,57.472 101.115,57.06C100.59,56.56 100.14,56.097 100.14,55.398C100.14,54.76 100.54,54.21 101.252,53.861C101.314,53.71 101.365,53.536 101.365,53.323C101.365,52.46 100.84,51.96 100.065,51.96C99.102,51.96 98.565,52.635 98.565,54.411L98.565,60.109L97.465,60.109ZM104.315,51.236L105.416,51.236L105.416,55.01L105.44,55.01C105.615,54.698 105.89,54.422 106.228,54.235C106.553,54.048 106.94,53.923 107.353,53.923C108.165,53.923 109.464,54.422 109.464,56.509L109.464,60.109L108.365,60.109L108.365,56.634C108.365,55.66 108.002,54.835 106.965,54.835C106.252,54.835 105.69,55.335 105.49,55.935C105.428,56.084 105.416,56.248 105.416,56.459L105.416,60.109L104.315,60.109L104.315,51.236ZM114.602,60.109L114.515,59.346L114.478,59.346C114.14,59.822 113.49,60.247 112.628,60.247C111.403,60.247 110.778,59.384 110.778,58.509C110.778,57.047 112.078,56.248 114.415,56.26L114.415,56.135C114.415,55.635 114.277,54.735 113.04,54.735C112.478,54.735 111.891,54.91 111.465,55.185L111.216,54.46C111.715,54.135 112.44,53.923 113.203,53.923C115.052,53.923 115.502,55.185 115.502,56.397L115.502,58.66C115.502,59.184 115.527,59.697 115.602,60.109L114.602,60.109ZM114.44,57.022C113.24,56.998 111.878,57.209 111.878,58.384C111.878,59.096 112.353,59.434 112.915,59.434C113.703,59.434 114.202,58.934 114.377,58.421C114.415,58.309 114.44,58.184 114.44,58.072L114.44,57.022ZM117.277,55.698C117.277,55.073 117.266,54.56 117.228,54.06L118.203,54.06L118.266,55.06L118.29,55.06C118.59,54.485 119.29,53.923 120.29,53.923C121.127,53.923 122.427,54.422 122.427,56.498L122.427,60.109L121.327,60.109L121.327,56.623C121.327,55.648 120.965,54.835 119.928,54.835C119.202,54.835 118.641,55.347 118.453,55.959C118.402,56.097 118.378,56.285 118.378,56.472L118.378,60.109L117.277,60.109L117.277,55.698ZM129.438,51.236L129.438,58.546C129.438,59.084 129.451,59.697 129.488,60.109L128.502,60.109L128.451,59.059L128.427,59.059C128.089,59.734 127.352,60.247 126.364,60.247C124.902,60.247 123.777,59.009 123.777,57.172C123.765,55.16 125.015,53.923 126.489,53.923C127.414,53.923 128.039,54.36 128.313,54.848L128.339,54.848L128.339,51.236L129.438,51.236ZM128.339,56.522C128.339,56.385 128.326,56.198 128.289,56.06C128.127,55.36 127.526,54.786 126.702,54.786C125.564,54.786 124.89,55.785 124.89,57.123C124.89,58.347 125.489,59.359 126.677,59.359C127.414,59.359 128.089,58.872 128.289,58.047C128.326,57.897 128.339,57.747 128.339,57.572L128.339,56.522ZM131.877,57.285C131.902,58.772 132.852,59.384 133.951,59.384C134.739,59.384 135.214,59.247 135.626,59.072L135.813,59.859C135.427,60.034 134.764,60.234 133.802,60.234C131.939,60.234 130.826,59.009 130.826,57.185C130.826,55.36 131.902,53.923 133.664,53.923C135.639,53.923 136.164,55.66 136.164,56.772C136.164,56.998 136.139,57.172 136.126,57.285L131.877,57.285ZM135.102,56.498C135.114,55.797 134.813,54.71 133.577,54.71C132.465,54.71 131.978,55.735 131.89,56.498L135.102,56.498ZM137.527,51.236L138.627,51.236L138.627,60.109L137.527,60.109L137.527,51.236ZM143.239,60.109L143.239,54.898L142.39,54.898L142.39,54.06L143.239,54.06L143.239,53.773C143.239,52.923 143.427,52.148 143.939,51.661C144.352,51.261 144.901,51.098 145.414,51.098C145.802,51.098 146.139,51.186 146.352,51.274L146.201,52.123C146.039,52.048 145.814,51.986 145.502,51.986C144.564,51.986 144.327,52.811 144.327,53.736L144.327,54.06L145.789,54.06L145.789,54.898L144.327,54.898L144.327,60.109L143.239,60.109ZM149.877,52.348C149.877,51.998 150.151,51.71 150.502,51.71C150.852,51.71 151.114,51.986 151.114,52.348C151.114,52.686 150.864,52.986 150.502,52.986C150.127,52.986 149.877,52.686 149.877,52.348ZM147.553,52.348C147.553,51.998 147.84,51.71 148.189,51.71C148.54,51.71 148.802,51.986 148.802,52.348C148.802,52.686 148.552,52.986 148.189,52.986C147.814,52.986 147.553,52.686 147.553,52.348ZM151.839,58.459C151.839,59.084 151.852,59.634 151.889,60.109L150.914,60.109L150.852,59.122L150.826,59.122C150.539,59.609 149.901,60.247 148.827,60.247C147.877,60.247 146.74,59.721 146.74,57.597L146.74,54.06L147.84,54.06L147.84,57.41C147.84,58.559 148.189,59.334 149.189,59.334C149.927,59.334 150.439,58.822 150.639,58.334C150.701,58.171 150.739,57.972 150.739,57.772L150.739,54.06L151.839,54.06L151.839,58.459ZM153.665,55.948C153.665,55.235 153.652,54.623 153.615,54.06L154.577,54.06L154.615,55.248L154.665,55.248C154.939,54.435 155.603,53.923 156.34,53.923C156.465,53.923 156.552,53.935 156.652,53.96L156.652,54.998C156.539,54.972 156.427,54.96 156.277,54.96C155.502,54.96 154.952,55.547 154.803,56.373C154.777,56.522 154.752,56.697 154.752,56.884L154.752,60.109L153.665,60.109L153.665,55.948ZM161.527,51.686L161.527,60.109L160.44,60.109L160.44,51.686L161.527,51.686ZM165.027,52.611L162.465,52.611L162.465,51.686L168.701,51.686L168.701,52.611L166.127,52.611L166.127,60.109L165.027,60.109L165.027,52.611ZM171.515,56.323L171.515,57.134L168.428,57.134L168.428,56.323L171.515,56.323ZM172.84,51.786C173.364,51.699 174.052,51.623 174.927,51.623C176.001,51.623 176.788,51.873 177.288,52.324C177.751,52.723 178.025,53.335 178.025,54.085C178.025,54.848 177.801,55.448 177.376,55.885C176.801,56.498 175.863,56.81 174.802,56.81C174.477,56.81 174.177,56.797 173.927,56.735L173.927,60.109L172.84,60.109L172.84,51.786ZM173.927,55.847C174.164,55.91 174.464,55.935 174.826,55.935C176.139,55.935 176.938,55.297 176.938,54.135C176.938,53.023 176.151,52.486 174.951,52.486C174.477,52.486 174.114,52.523 173.927,52.573L173.927,55.847ZM179.253,55.948C179.253,55.235 179.24,54.623 179.203,54.06L180.165,54.06L180.203,55.248L180.253,55.248C180.527,54.435 181.19,53.923 181.928,53.923C182.053,53.923 182.14,53.935 182.24,53.96L182.24,54.998C182.127,54.972 182.015,54.96 181.865,54.96C181.09,54.96 180.54,55.547 180.391,56.373C180.365,56.522 180.34,56.697 180.34,56.884L180.34,60.109L179.253,60.109L179.253,55.948ZM188.689,57.035C188.689,59.272 187.14,60.247 185.678,60.247C184.041,60.247 182.778,59.046 182.778,57.134C182.778,55.11 184.104,53.923 185.778,53.923C187.515,53.923 188.689,55.185 188.689,57.035ZM183.891,57.097C183.891,58.421 184.653,59.421 185.728,59.421C186.777,59.421 187.564,58.434 187.564,57.072C187.564,56.047 187.053,54.748 185.753,54.748C184.453,54.748 183.891,55.948 183.891,57.097ZM195.302,51.236L195.302,58.546C195.302,59.084 195.314,59.697 195.352,60.109L194.365,60.109L194.314,59.059L194.29,59.059C193.952,59.734 193.215,60.247 192.228,60.247C190.766,60.247 189.641,59.009 189.641,57.172C189.628,55.16 190.878,53.923 192.353,53.923C193.277,53.923 193.902,54.36 194.178,54.848L194.202,54.848L194.202,51.236L195.302,51.236ZM194.202,56.522C194.202,56.385 194.189,56.198 194.152,56.06C193.99,55.36 193.39,54.786 192.565,54.786C191.428,54.786 190.753,55.785 190.753,57.123C190.753,58.347 191.353,59.359 192.54,59.359C193.277,59.359 193.952,58.872 194.152,58.047C194.189,57.897 194.202,57.747 194.202,57.572L194.202,56.522ZM202.189,58.459C202.189,59.084 202.202,59.634 202.239,60.109L201.265,60.109L201.202,59.122L201.177,59.122C200.89,59.609 200.252,60.247 199.178,60.247C198.228,60.247 197.091,59.721 197.091,57.597L197.091,54.06L198.19,54.06L198.19,57.41C198.19,58.559 198.54,59.334 199.54,59.334C200.277,59.334 200.79,58.822 200.989,58.334C201.052,58.171 201.09,57.972 201.09,57.772L201.09,54.06L202.189,54.06L202.189,58.459ZM205.104,56.834L205.128,56.834C205.278,56.623 205.49,56.36 205.665,56.147L207.44,54.06L208.765,54.06L206.428,56.547L209.09,60.109L207.752,60.109L205.665,57.209L205.104,57.834L205.104,60.109L204.016,60.109L204.016,51.236L205.104,51.236L205.104,56.834ZM211.203,52.324L211.203,54.06L212.777,54.06L212.777,54.898L211.203,54.898L211.203,58.16C211.203,58.91 211.415,59.334 212.027,59.334C212.315,59.334 212.527,59.296 212.665,59.259L212.715,60.083C212.503,60.171 212.165,60.234 211.74,60.234C211.228,60.234 210.815,60.072 210.553,59.771C210.24,59.447 210.128,58.91 210.128,58.197L210.128,54.898L209.19,54.898L209.19,54.06L210.128,54.06L210.128,52.611L211.203,52.324ZM214.553,57.285C214.578,58.772 215.527,59.384 216.627,59.384C217.415,59.384 217.89,59.247 218.302,59.072L218.489,59.859C218.103,60.034 217.439,60.234 216.478,60.234C214.615,60.234 213.503,59.009 213.503,57.185C213.503,55.36 214.578,53.923 216.34,53.923C218.314,53.923 218.84,55.66 218.84,56.772C218.84,56.998 218.814,57.172 218.802,57.285L214.553,57.285ZM217.777,56.498C217.79,55.797 217.489,54.71 216.253,54.71C215.141,54.71 214.653,55.735 214.565,56.498L217.777,56.498Z" style="fill:rgb(61,136,200);"/>
    </g>
</svg>
