<svg width="100%" height="100%" viewBox="0 0 381 122" version="1.1" xmlns="http://www.w3.org/2000/svg" xmlns:xlink="http://www.w3.org/1999/xlink" xml:space="preserve" style="fill-rule:evenodd;clip-rule:evenodd;stroke-linejoin:round;stroke-miterlimit:2;">
    <path d="M84.963,113.462l-3.881,-0l0,6.311l2.666,0.978l0,0.777l-8.235,0l-0,-0.777l2.532,-0.978l-0,-13.432l-2.532,-1.013l-0,-0.742l12.588,-0l0,3.678l-1.046,0l-1.08,-2.532l-4.893,0l0,6.549l3.881,0l0.945,-2.161l1.046,0l-0,5.536l-1.046,0l-0.945,-2.194Zm14.478,8.403c-4.961,-0 -8.201,-3.308 -8.201,-8.37c0,-5.5 3.51,-9.28 8.673,-9.28c5.029,-0 8.269,3.307 8.269,8.402c-0,5.501 -3.544,9.248 -8.741,9.248Zm0.168,-16.133c-3.172,0 -5.028,2.667 -5.028,7.189c0,4.557 1.992,7.426 5.163,7.426c3.105,-0 5.097,-2.802 5.097,-7.223c-0,-4.556 -1.992,-7.392 -5.232,-7.392Zm18.832,7.73l-0.978,-0l-0,6.311l2.496,0.978l0,0.777l-8.065,0l0,-0.777l2.531,-0.978l0,-13.432l-2.531,-1.013l0,-0.742l8.032,-0c2.295,-0 3.105,0.168 4.084,0.878c1.013,0.708 1.586,1.821 1.586,3.138c0,2.126 -1.282,3.577 -3.982,4.488l4.995,6.683l1.991,0.978l-0,0.777l-4.252,0l-5.907,-8.066Zm-0.978,-7.73l-0,6.549l1.856,0c1.923,0 3.071,-1.25 3.071,-3.376c-0,-2.126 -0.978,-3.173 -3.037,-3.173l-1.89,0Zm23.421,15.356l-0.337,-0.066l-0,-4.018l1.046,0l1.316,3.039c1.046,0.236 1.553,0.304 2.261,0.304c2.228,-0 3.443,-0.946 3.443,-2.7c-0,-1.215 -0.439,-1.755 -2.193,-2.869l-2.599,-1.621c-2.397,-1.485 -3.105,-2.463 -3.105,-4.321c-0,-2.8 2.125,-4.621 5.501,-4.621c1.181,-0 2.902,0.135 4.488,0.539l0.405,0.101l-0,3.916l-1.046,0l-1.249,-2.903c-0.945,-0.102 -1.417,-0.136 -1.99,-0.136c-2.262,0 -3.409,0.811 -3.409,2.329c-0,1.013 0.337,1.419 2.058,2.498l2.835,1.789c2.835,1.788 3.476,2.666 3.476,4.724c-0,2.904 -2.362,4.793 -6.007,4.793c-1.114,-0 -2.835,-0.372 -4.894,-0.777Zm25.515,0.44l-8.741,0l-0,-0.742l2.835,-0.844l0,-6.211l-4.996,-7.593l-2.058,-0.845l-0,-0.707l7.391,-0l0,0.707l-1.857,0.879l3.713,5.636l3.814,-5.67l-1.789,-0.845l-0,-0.707l5.703,-0l0,0.707l-1.957,0.845l-4.927,6.952l-0,6.886l2.869,0.843l-0,0.709Zm13.533,0l-8.168,0l-0,-0.777l2.531,-0.978l0,-13.432l-2.531,-1.013l-0,-0.742l8.573,-0c3.712,-0 5.23,0.472 6.919,2.261c1.45,1.552 2.159,3.443 2.159,5.805c0,3.105 -1.214,5.703 -3.375,7.256c-1.552,1.114 -3.442,1.62 -6.108,1.62Zm-2.599,-15.458l0,13.939l2.363,-0c2.126,-0 3.239,-0.405 4.455,-1.654c1.315,-1.351 1.889,-3.037 1.889,-5.4c0,-2.059 -0.439,-3.611 -1.35,-4.826c-1.08,-1.485 -2.396,-2.059 -4.657,-2.059l-2.7,0Zm16.806,15.018l-0.336,-0.066l0,-4.018l1.046,0l1.316,3.039c1.045,0.236 1.551,0.304 2.26,0.304c2.229,-0 3.444,-0.946 3.444,-2.7c-0,-1.215 -0.439,-1.755 -2.195,-2.869l-2.598,-1.621c-2.396,-1.485 -3.105,-2.463 -3.105,-4.321c-0,-2.8 2.127,-4.621 5.502,-4.621c1.181,-0 2.902,0.135 4.487,0.539l0.404,0.101l0,3.916l-1.044,0l-1.249,-2.903c-0.944,-0.102 -1.417,-0.136 -1.991,-0.136c-2.261,0 -3.408,0.811 -3.408,2.329c0,1.013 0.338,1.419 2.058,2.498l2.834,1.789c2.835,1.788 3.476,2.666 3.476,4.724c0,2.904 -2.361,4.793 -6.006,4.793c-1.114,-0 -2.836,-0.372 -4.895,-0.777Zm27,0.44l-12.25,0l0,-0.777l2.53,-0.978l0,-13.432l-2.53,-1.013l0,-0.742l8.065,-0l-0,0.742l-2.498,1.013l0,13.836l4.421,0l1.655,-3.173l1.047,0l-0.44,4.524Zm13.06,-8.066l-4.42,-0l-0,6.715l5.602,0l1.586,-2.497l1.047,0l-0.438,3.848l-13.365,0l0,-0.777l2.53,-0.978l0,-13.432l-2.53,-1.013l0,-0.742l13.263,-0l0,3.847l-1.045,-0l-1.217,-2.701l-5.433,0l-0,6.549l4.42,0l0.911,-2.161l1.046,0l0,5.536l-1.046,0l-0.911,-2.194Zm8.572,7.626l-0.338,-0.066l0,-4.018l1.048,0l1.315,3.039c1.046,0.236 1.553,0.304 2.263,0.304c2.226,-0 3.441,-0.946 3.441,-2.7c-0,-1.215 -0.439,-1.755 -2.193,-2.869l-2.6,-1.621c-2.395,-1.485 -3.103,-2.463 -3.103,-4.321c-0,-2.8 2.126,-4.621 5.5,-4.621c1.181,-0 2.902,0.135 4.488,0.539l0.406,0.101l-0,3.916l-1.047,0l-1.248,-2.903c-0.945,-0.102 -1.418,-0.136 -1.992,-0.136c-2.262,0 -3.409,0.811 -3.409,2.329c0,1.013 0.338,1.419 2.059,2.498l2.835,1.789c2.835,1.788 3.476,2.666 3.476,4.724c0,2.904 -2.362,4.793 -6.007,4.793c-1.114,-0 -2.835,-0.372 -4.894,-0.777Zm22.242,0.608l-1.621,0l-5.939,-15.355l-2.127,-1.013l-0,-0.742l7.392,-0l-0,0.742l-2.094,1.013l3.543,9.99c0.17,0.473 0.306,0.877 0.609,1.855l4.724,-11.845l-2.059,-1.013l0,-0.742l6.041,-0l0,0.742l-2.192,1.013l-6.277,15.355Zm18.021,-0.168l-8.067,0l-0,-0.777l2.531,-0.978l0,-13.432l-2.531,-1.013l-0,-0.742l8.067,-0l0,0.742l-2.497,1.013l0,13.432l2.497,0.978l0,0.777Zm20.824,-6.278l-2.195,0.98l-0,4.589c-2.024,0.574 -4.083,0.877 -6.04,0.877c-3.039,0 -5.063,-0.708 -6.616,-2.295c-1.518,-1.518 -2.262,-3.542 -2.262,-6.075c0,-4.32 2.364,-7.695 6.11,-8.638c1.249,-0.338 2.362,-0.441 3.88,-0.441c1.992,0 3.78,0.204 4.928,0.574l-0,3.95l-1.012,0l-1.182,-2.937c-0.877,-0.068 -1.247,-0.102 -1.889,-0.102c-2.735,0 -4.286,0.507 -5.535,1.79c-1.316,1.383 -1.957,3.24 -1.957,5.704c-0,4.454 2.328,6.951 6.377,6.951c0.845,0 1.284,-0.034 2.364,-0.269l0,-3.678l-2.532,-0.98l0,-0.777l7.561,0l-0,0.777Zm-295.673,-23.722l-8.168,0l0,-0.775l2.532,-0.98l-0,-13.432l-2.532,-1.012l0,-0.742l8.573,-0c3.712,-0 5.231,0.471 6.919,2.261c1.451,1.552 2.159,3.442 2.159,5.804c-0,3.105 -1.215,5.704 -3.375,7.256c-1.552,1.114 -3.442,1.62 -6.108,1.62Zm-2.599,-15.457l-0,13.939l2.363,0c2.126,0 3.24,-0.406 4.455,-1.654c1.316,-1.35 1.889,-3.037 1.889,-5.4c0,-2.059 -0.438,-3.611 -1.349,-4.826c-1.081,-1.484 -2.397,-2.059 -4.658,-2.059l-2.7,0Zm25.48,8.741l-5.399,0l-1.857,4.961l2.059,0.98l-0,0.775l-6.209,0l-0,-0.775l2.261,-0.98l6.412,-15.355l1.991,-0l5.771,15.355l2.295,0.98l0,0.775l-7.661,0l0,-0.775l2.093,-0.98l-1.756,-4.961Zm-2.497,-7.222l-2.396,6.041l4.556,0l-1.417,-3.983l-0.405,-1.18l-0.338,-0.878Zm18.225,13.938l-6.716,0l-0,-0.775l2.53,-0.98l0,-13.432l-2.53,-1.012l-0,-0.742l5.096,-0l9.348,12.115l0,-10.361l-2.497,-1.012l-0,-0.742l6.715,-0l0,0.742l-2.53,1.012l-0,15.357l-1.35,0l-10.564,-13.838l0,11.913l2.498,0.98l-0,0.775Zm16.401,-0.439l-0.337,-0.067l-0,-4.016l1.046,0l1.316,3.038c1.047,0.235 1.552,0.303 2.262,0.303c2.227,0 3.442,-0.945 3.442,-2.7c-0,-1.214 -0.439,-1.754 -2.194,-2.869l-2.598,-1.62c-2.397,-1.485 -3.105,-2.463 -3.105,-4.319c0,-2.802 2.125,-4.624 5.501,-4.624c1.181,0 2.903,0.136 4.489,0.541l0.405,0.1l-0,3.916l-1.047,-0l-1.248,-2.903c-0.945,-0.102 -1.418,-0.135 -1.992,-0.135c-2.261,-0 -3.408,0.81 -3.408,2.327c-0,1.013 0.337,1.419 2.059,2.499l2.834,1.789c2.835,1.787 3.476,2.666 3.476,4.724c0,2.903 -2.362,4.793 -6.007,4.793c-1.114,-0 -2.835,-0.372 -4.894,-0.777Zm22.815,0.439l-8.066,0l0,-0.775l2.531,-0.98l-0,-13.432l-2.531,-1.012l0,-0.742l8.066,-0l0,0.742l-2.497,1.012l-0,13.432l2.497,0.98l0,0.775Zm6.58,-15.187l-5.534,5.164l6.143,8.268l2.227,0.98l-0,0.775l-4.556,0l-6.683,-9.045l6.007,-6.142l-1.653,-1.012l-0,-0.742l6.378,-0l0,0.742l-2.329,1.012Zm23.49,13.837c0.945,0 1.35,-0.033 2.497,-0.27l1.655,-2.902l1.046,0l-0.338,3.881c-1.721,0.506 -3.78,0.811 -5.534,0.811c-3.342,0 -5.266,-0.642 -6.851,-2.229c-1.52,-1.484 -2.229,-3.441 -2.229,-5.973c0,-5.805 3.645,-9.247 9.89,-9.247c1.754,0 3.475,0.169 4.859,0.541l-0,3.982l-1.216,-0l-1.046,-2.97c-0.911,-0.035 -1.282,-0.068 -1.855,-0.068c-2.565,-0 -4.219,0.574 -5.401,1.823c-1.282,1.349 -1.889,3.172 -1.889,5.601c-0,4.624 2.227,7.02 6.412,7.02Zm18.494,-6.715l-4.42,-0l-0,6.715l5.602,0l1.586,-2.497l1.046,0l-0.439,3.847l-13.364,0l-0,-0.775l2.531,-0.98l-0,-13.432l-2.531,-1.012l-0,-0.742l13.263,-0l-0,3.847l-1.047,-0l-1.214,-2.7l-5.433,-0l-0,6.547l4.42,0l0.911,-2.161l1.046,0l0,5.537l-1.046,0l-0.911,-2.194Zm14.074,8.065l-6.717,0l0,-0.775l2.531,-0.98l0,-13.432l-2.531,-1.012l0,-0.742l5.097,-0l9.348,12.115l-0,-10.361l-2.498,-1.012l0,-0.742l6.717,-0l-0,0.742l-2.532,1.012l-0,15.357l-1.349,0l-10.564,-13.838l0,11.913l2.498,0.98l-0,0.775Zm17.549,-0.775l2.665,-0.98l0,-13.87l-3.645,-0l-1.315,2.869l-1.081,-0l0,-4.185l15.12,-0l0,4.185l-1.012,-0l-1.148,-2.869l-3.881,-0l0,13.87l2.7,0.98l0,0.775l-8.403,0l-0,-0.775Zm20.687,-7.29l-0.978,-0l0,6.31l2.497,0.98l-0,0.775l-8.066,0l0,-0.775l2.531,-0.98l0,-13.432l-2.531,-1.012l0,-0.742l8.033,-0c2.295,-0 3.104,0.169 4.083,0.877c1.013,0.708 1.586,1.822 1.586,3.138c-0,2.127 -1.281,3.577 -3.982,4.489l4.995,6.682l1.99,0.98l0,0.775l-4.251,0l-5.907,-8.065Zm-0.978,-7.729l0,6.547l1.856,0c1.923,0 3.07,-1.249 3.07,-3.375c0,-2.125 -0.978,-3.172 -3.037,-3.172l-1.889,-0Zm22.983,9.078l-5.4,0l-1.857,4.961l2.058,0.98l0,0.775l-6.209,0l-0,-0.775l2.262,-0.98l6.412,-15.355l1.991,-0l5.772,15.355l2.295,0.98l0,0.775l-7.661,0l0,-0.775l2.092,-0.98l-1.755,-4.961Zm-2.498,-7.222l-2.395,6.041l4.556,0l-1.417,-3.983l-0.406,-1.18l-0.338,-0.878Zm23.928,13.938l-12.251,0l-0,-0.775l2.531,-0.98l-0,-13.432l-2.531,-1.012l-0,-0.742l8.066,-0l0,0.742l-2.497,1.012l0,13.837l4.421,0l1.654,-3.172l1.045,0l-0.438,4.522Zm11.272,0l-8.201,0l-0,-0.775l2.531,-0.98l0,-13.432l-2.531,-1.012l-0,-0.742l7.931,-0c2.025,-0 3.138,0.236 4.084,0.877c1.012,0.675 1.586,1.822 1.586,3.071c-0,1.992 -1.046,3.206 -3.645,4.117c3.106,0.878 4.32,2.126 4.32,4.421c-0,2.802 -2.228,4.455 -6.075,4.455Zm-2.632,-8.065l-0,6.884l1.956,0c2.229,0 3.578,-1.282 3.578,-3.409c0,-2.16 -1.486,-3.475 -3.847,-3.475l-1.687,-0Zm-0,-7.729l-0,6.547l1.687,0c1.889,0 3.173,-1.316 3.173,-3.341c0,-2.059 -1.113,-3.206 -3.139,-3.206l-1.721,-0Zm20.586,15.794l-8.065,0l-0,-0.775l2.532,-0.98l-0,-13.432l-2.532,-1.012l-0,-0.742l8.065,-0l0,0.742l-2.498,1.012l0,13.432l2.498,0.98l0,0.775Zm11.779,0l-8.201,0l-0,-0.775l2.531,-0.98l0,-13.432l-2.531,-1.012l-0,-0.742l7.931,-0c2.024,-0 3.137,0.236 4.082,0.877c1.014,0.675 1.587,1.822 1.587,3.071c-0,1.992 -1.046,3.206 -3.645,4.117c3.105,0.878 4.32,2.126 4.32,4.421c-0,2.802 -2.227,4.455 -6.074,4.455Zm-2.633,-15.794l-0,6.547l1.688,0c1.889,0 3.172,-1.316 3.172,-3.341c0,-2.059 -1.113,-3.206 -3.139,-3.206l-1.721,-0Zm-0,7.729l-0,6.884l1.956,0c2.229,0 3.578,-1.282 3.578,-3.409c0,-2.16 -1.484,-3.475 -3.846,-3.475l-1.688,-0Zm24.772,8.065l-12.251,0l0,-0.775l2.531,-0.98l0,-13.432l-2.531,-1.012l0,-0.742l8.066,-0l0,0.742l-2.497,1.012l-0,13.837l4.42,0l1.655,-3.172l1.045,0l-0.438,4.522Zm11.137,0l-8.066,0l0,-0.775l2.531,-0.98l0,-13.432l-2.531,-1.012l0,-0.742l8.066,-0l-0,0.742l-2.497,1.012l-0,13.432l2.497,0.98l-0,0.775Zm11.913,0.338c-4.961,-0 -8.201,-3.308 -8.201,-8.37c0,-5.501 3.51,-9.281 8.674,-9.281c5.028,0 8.267,3.307 8.267,8.403c-0,5.501 -3.544,9.248 -8.74,9.248Zm0.168,-16.132c-3.173,-0 -5.028,2.666 -5.028,7.188c-0,4.556 1.991,7.425 5.164,7.425c3.104,0 5.096,-2.801 5.096,-7.222c0,-4.556 -1.992,-7.391 -5.232,-7.391Zm14.479,15.019l2.665,-0.98l0,-13.87l-3.644,-0l-1.317,2.869l-1.08,-0l-0,-4.185l15.121,-0l0,4.185l-1.013,-0l-1.148,-2.869l-3.88,-0l0,13.87l2.699,0.98l-0,0.775l-8.403,0l0,-0.775Zm24.13,-7.29l-4.421,-0l-0,6.715l5.601,0l1.587,-2.497l1.045,0l-0.437,3.847l-13.365,0l0,-0.775l2.531,-0.98l0,-13.432l-2.531,-1.012l0,-0.742l13.264,-0l-0,3.847l-1.047,-0l-1.215,-2.7l-5.433,-0l-0,6.547l4.421,0l0.911,-2.161l1.046,0l-0,5.537l-1.046,0l-0.911,-2.194Zm15.591,8.065l-8.064,0l-0,-0.775l2.53,-0.98l0,-13.432l-2.53,-1.012l-0,-0.742l8.064,-0l0,0.742l-2.497,1.012l-0,13.432l2.497,0.98l0,0.775Zm6.581,-15.187l-5.535,5.164l6.143,8.268l2.228,0.98l-0,0.775l-4.556,0l-6.683,-9.045l6.008,-6.142l-1.654,-1.012l-0,-0.742l6.379,-0l-0,0.742l-2.33,1.012Zm-322.274,-29.329l-0,-47.183l18.873,0l9.437,47.183l-28.31,0Zm47.183,0l-9.437,-47.183l9.437,0l18.873,47.183l-18.873,0Zm28.309,0l-0,-47.183l9.437,0l9.437,47.183l-18.874,0Zm79.285,0l9.437,-47.183l9.437,0l9.436,47.183l-28.31,0Zm47.183,0l-9.437,-47.183l28.31,0l-9.437,47.183l-9.436,0Zm37.746,0l-9.436,-47.183l28.309,0l0,47.183l-18.873,0Zm-94.366,-27.984l-2.186,8.745l-4.372,0l-0,19.239l-17.49,0c-13.118,0 -17.491,-3.497 -17.491,-13.992c-0,-3.804 1.654,-7.092 4.409,-9.524c-2.755,-2.386 -4.409,-5.689 -4.409,-9.714c-0,-10.495 4.373,-13.993 17.491,-13.993l-0,8.745c-4.373,-0 -6.559,1.749 -6.559,5.248c0,3.497 2.186,5.246 6.559,5.246l6.559,0l-0,-5.246l10.931,-0l-0,5.246l6.558,0Zm-17.489,8.745l-6.559,0c-4.373,0 -6.559,1.749 -6.559,5.247c0,3.499 2.186,5.248 6.559,5.248l6.559,-0l-0,-10.495Z" style="fill:#006c68;"/>
</svg>
