<svg width="100%" height="100%" viewBox="0 0 1063 276" version="1.1" xmlns="http://www.w3.org/2000/svg" xmlns:xlink="http://www.w3.org/1999/xlink" xml:space="preserve" style="fill-rule:evenodd;clip-rule:evenodd;stroke-linejoin:round;stroke-miterlimit:2;">
    <path d="M1062.99,172.792C1062.99,103.978 1018,75.62 974.894,75.62C919.313,75.62 881.503,117.212 881.503,175.439C881.503,230.264 914.776,275.258 975.651,275.258C1025.18,275.258 1051.65,242.741 1059.59,206.822L1022.16,206.822C1015.35,229.13 1002.5,241.985 976.407,241.985C941.243,241.985 920.069,217.03 917.423,186.026L1061.86,186.026C1062.61,181.867 1062.99,178.086 1062.99,172.792ZM1026.69,155.778L919.313,155.778C924.607,129.689 940.487,107.381 976.785,107.381C1006.28,107.381 1024.43,127.42 1026.69,155.778ZM805.509,272.233L841.806,272.233L841.806,157.29C841.806,100.575 814.583,75.62 769.967,75.62C735.182,75.62 710.605,102.844 703.043,121.749C702.287,123.261 701.153,125.908 698.884,125.151C695.859,124.395 697.372,120.615 698.506,117.212C701.909,107.381 702.665,99.441 702.665,91.501L702.665,78.645L666.367,78.645L666.367,272.233L702.665,272.233L702.665,181.867C702.665,135.738 732.913,107.381 760.893,107.381C786.226,107.381 805.509,119.858 805.509,164.852L805.509,272.233ZM575.243,272.233L611.541,272.233L611.541,78.645L575.243,78.645L575.243,272.233ZM575.243,38.278L611.541,38.278L611.541,0.002L575.243,0.002L575.243,38.278ZM491.469,110.406L532.518,110.406L532.518,78.645L491.469,78.645L491.469,60.496C491.469,38.566 496.006,31.761 517.18,31.761L532.518,31.761L532.518,-0L514.155,-0C474.076,-0 455.171,14.746 455.171,56.715L455.171,78.645L430.747,78.645L430.747,110.406L455.171,110.406L455.171,272.233L491.469,272.233L491.469,110.406ZM407.596,186.026C408.352,181.867 408.73,178.086 408.73,172.792C408.73,103.978 363.736,75.62 320.632,75.62C265.051,75.62 227.241,117.212 227.241,175.439C227.241,230.264 260.514,275.258 321.388,275.258C370.92,275.258 397.387,242.741 405.327,206.822L367.895,206.822C361.089,229.13 348.234,241.985 322.145,241.985C286.981,241.985 265.807,217.03 263.161,186.026L407.596,186.026ZM372.432,155.778L265.051,155.778C270.345,129.689 286.225,107.381 322.523,107.381C352.015,107.381 370.164,127.42 372.432,155.778ZM151.241,272.233L187.539,272.233L187.539,-0L151.241,-0L151.241,93.769C151.241,100.953 151.997,106.625 155.022,114.565C156.156,117.59 158.425,121.37 155.022,122.505C151.997,123.639 150.863,119.858 150.485,118.724C141.788,92.635 116.455,75.62 85.451,75.62C35.164,75.62 -0,117.968 -0,175.439C-0,232.911 35.164,275.258 85.451,275.258C115.699,275.258 141.41,258.621 150.485,231.398C150.863,230.264 151.997,227.239 154.266,227.995C158.047,229.13 156.156,232.533 155.022,235.557C151.997,243.875 151.241,249.169 151.241,255.974L151.241,272.233ZM151.241,175.439C151.241,211.359 127.42,241.985 93.013,241.985C55.203,241.985 36.298,211.359 36.298,175.439C36.298,139.519 55.203,108.893 93.013,108.893C127.42,108.893 151.241,139.519 151.241,175.439Z" style="fill:rgb(245,75,75);fill-rule:nonzero;"/>
</svg>
