<svg width="100%" height="100%" viewBox="0 0 1170 241" version="1.1" xmlns="http://www.w3.org/2000/svg" xmlns:xlink="http://www.w3.org/1999/xlink" xml:space="preserve" style="fill-rule:evenodd;clip-rule:evenodd;stroke-linejoin:round;stroke-miterlimit:2;">
    <path d="M480.447,173.153c-0.057,-0.661 -0.114,-1.599 -0.114,-2.129l-0.063,0c-0.658,1.379 -2.4,2.517 -4.316,2.517c-3.388,-0 -4.917,-2.429 -4.917,-5.367l0,-8.187l2.608,-0l0,7.287c0,2.158 0.567,4.05 2.996,4.05c2.1,0 3.542,-1.742 3.542,-4.35l-0,-7.017l2.608,0l0,10.346c0,0.688 0,1.979 0.117,2.85l-2.461,0Zm0,0l0.003,0.029l-0.03,-0.029l0.027,0Zm31.396,0c-0.058,-0.661 -0.118,-1.599 -0.118,-2.129l-0.059,0c-0.658,1.379 -2.4,2.517 -4.316,2.517c-3.392,-0 -4.921,-2.429 -4.921,-5.367l-0,-8.187l2.608,-0l0,7.287c0,2.158 0.571,4.05 3,4.05c2.1,0 3.538,-1.742 3.538,-4.35l-0,-7.017l2.608,0l-0,10.346c-0,0.688 -0,1.979 0.121,2.85l-2.461,0Zm-0,0l0.002,0.029l-0.029,-0.029l0.027,0Zm218.107,-58.354l4.154,-3.783c6.675,7.096 13.9,10.233 23.2,10.496c13.016,0.362 22.604,-7.434 22.6,-17.705c-0.004,-12.708 -11.688,-16.908 -22.542,-21.212c-9.383,-3.729 -24.492,-8.479 -24.496,-25.867c-0.004,-14.212 12.009,-22.85 26.725,-22.533c7.68,0.167 15.888,3.2 23.854,10.2l-3.591,4.129c-6.563,-5.437 -13.321,-8.717 -20.104,-8.871c-11.809,-0.271 -21.034,6.692 -21.03,17.071c0.005,13.754 13.713,18.017 21.73,21.1c12.545,4.817 25.408,9.667 25.412,25.979c0.004,15.609 -14.733,23.538 -27.908,23.263c-12.242,-0.254 -21.234,-5.009 -28.004,-12.267Zm127.333,10.092l-0,-43.075l-46.346,-0l0,43.075l-5.783,-0l-0,-88.55l5.783,-0l0,40.029l46.346,-0l-0,-40.029l5.783,-0l0,88.55l-5.783,-0Zm113.029,-8.688c1.533,1.792 2.333,4.888 2.333,4.888l-3.433,-1.079l-0.875,1.966l-6.708,-5.137l2.033,5.025c0,-0 -0.175,4.391 -3.179,5.379l-0.496,-3.896l-1.6,0.175l-1.1,-5.167l-2.754,2.121l-0.579,-0.746l-2.292,1.746c0,0 -0.858,-2.012 0.729,-3.712l1.721,-1.609c0,0 -16.05,-8.825 -15.642,-9.983c0,0 2.605,-2.017 2.83,-3.85c0.333,-2.717 -1.992,-5.725 -4.575,-7.729c-0,-0 6.783,-5.829 7.621,-5.829c0.82,-0 8.47,4.154 9.316,5.204c3.467,4.292 -2.771,10.321 -2.771,10.321c0,-0 7.796,7.571 8.729,7.962l6.917,-3.529c3.121,-0.246 5.529,2.983 5.529,2.983l-3.741,0.1l0.258,1.371l-5.429,1.242l7.158,1.783Zm46.688,-61.158c1.8,0.45 3.716,1.358 4.116,4.737l-4.308,-0.612l-0.721,1.254l-3.954,-0.271l0.575,4.85l3.379,1.246c0,0 -1.033,2.858 -3.229,2.967l-3.837,-2.442l-13.509,21.163l-1.112,-5.1l-0.08,-0.367c-0.304,-1.408 -0.833,-3.763 -2.899,-6.629c-0,-0.009 -0.005,-0.013 -0.03,-0.042l13.621,-17.371l-3.05,-5.512c0.35,-4.967 3.396,-6.384 3.396,-6.384l0.383,3.892c0.242,-0.021 1.604,0.038 1.767,-0.025l-0.025,6.304l3.346,-8.125c1.896,-2.937 5.787,-2.558 5.787,-2.558l-2.241,3.192l1.666,1.708l-4.095,4.825l5.054,-0.7Zm0.825,60.812c1.537,1.4 1.695,5.58 1.695,5.58l-4.129,-1.967l-1.746,1.625l-4.716,-4.217l0.05,4.559c-0,-0 -1.413,4.695 -3.713,5.67l-0.104,-6.066l-1.671,-0.217l0.546,-4.85l-3.629,2.904l-1.029,-1.433l-4.454,2.458c-0,0 0.733,-3.616 1.937,-4.379l3.517,-2.092c-0,0 -28.025,-10.741 -28.946,-12.604c-0.367,-0.587 0.096,-3.191 0.096,-3.191c-0,-0 -3.55,0.408 -5.784,0.079c-2.925,-0.429 -19.308,-11.234 -21.445,-10.954c-2.055,0.266 -6.134,3.6 -10.692,7.479l-19.317,18.233l8.196,3.179c1.288,1.009 2.338,5.446 2.338,5.446l-4.925,-1.933c-0.13,0.191 -0.913,0.85 -0.959,1.004l-4.987,-3.575c-0,-0 2.962,3.487 3.875,4.575c-0,-0 -0.05,3.267 -0.279,4.121c-0.305,1.108 -1.15,1.816 -1.15,1.816l-2.805,-4.57c-1.07,-0.1 -1.07,-0.109 -1.391,-0.138l-2.142,-5.362l-0.237,5.808c-0,-0 -1.896,3.954 -4.38,4.187l0.53,-4.637l-1.58,-1.638l2.467,-5.691l-2.987,0.896l-1.234,-1.088l-2.783,0.975c-0,0 0.008,-1.033 0.533,-2.096c0.388,-0.779 2.104,-2.541 2.892,-2.854l4.846,-0.196c-0,0 7.275,-17.662 8.237,-18.112c0.688,-0.325 3.663,0.125 3.663,0.125l6.941,-15.517c0,0 -8.337,-1.033 -8.591,-1.087c-6.446,-0.796 -12.775,-4.15 -12.775,-11.046c-0,-8.621 9.046,-10.188 13.466,-10.188c1.638,-2.4 6.517,-10.821 9.092,-10.821c3.033,0 4.742,-0.029 4.742,-0.029l-3.442,2.65c-1.008,1.513 -2.296,6.292 -2.808,8.2l4.416,0c1.338,-1.987 5.005,-7.704 7.021,-7.704l3.688,0l-2.675,2.179c-0.809,1.188 -1.667,4.025 -2.079,5.525l12.421,0c5.091,0 7.587,-2.325 7.587,-7.704c-0,-6.979 -4.371,-9.767 -7.021,-9.767l-12.512,0c-3.571,-1.658 -5.95,-8.279 -5.95,-8.279c-0,0 2.7,0.938 5.508,1.754l14.35,0c3.429,0 6.587,4.317 8.096,9.313l0.008,-0c1.509,-4.996 5.029,-9.313 8.092,-9.313l14.35,0c2.812,-0.816 5.508,-1.754 5.508,-1.754c0,0 -2.375,6.621 -5.954,8.279l-12.504,0c-2.563,0 -6.7,2.788 -7.021,9.767c-0.375,8.213 -4.375,12.417 -12.575,12.417l-30.154,0.021c-4.217,-0 -8.817,0.729 -8.817,5.404c0,4.996 5.854,5.941 8.496,6.191c-0,0 36.979,4.371 39.929,4.371c3.271,0 3.571,-2.771 3.571,-2.771l0.904,-3.07c-1.812,0.179 -3.621,0.179 -4.204,-0.392l-1.733,-1.763l2.316,0.121c1.321,-0.258 4.709,-2.254 4.859,-2.354l0.445,-1.487c-1.875,0.179 -3.745,0.195 -4.362,-0.388l-1.683,-1.708l2.229,0.071c1.412,-0.267 5.066,-2.259 5.066,-2.259l1.917,-6.729l-1.242,-7.471l3.113,1.071c2.1,0.725 2.954,3.513 2.954,3.513c0,-0 1.938,-1.409 3.1,-1.409l7.613,0c1.383,0 3.841,1.046 5.521,2.071c1.67,1.042 4.779,1.817 5.55,2.067c0.775,0.266 1.049,0.396 1.049,1.041c0,0.63 -0.779,5.067 -0.779,5.067c0,0 -0.866,2.746 -2.558,2.779c-3.683,0.142 -6.663,0.142 -9.437,0.142c-1.509,0.012 -2.971,0.517 -3.351,1.8c-0.083,0.212 -0.099,0.029 -0.154,0.392l12.392,-0c1.4,-0 2.525,-0.392 3.325,-1.196c1.408,-1.4 1.775,-3.342 1.775,-3.346c-0.004,-0.7 0.521,-1.25 1.212,-1.279c0.676,-0 1.234,0.525 1.234,1.221c-0,0.116 -0.308,2.941 -2.446,5.129c-1.275,1.3 -2.983,1.954 -5.1,1.954l-12.462,-0c-0,1.537 0.054,2.308 0.054,2.308l12.508,0c-0,0 -0.208,3.042 -4.104,3.875l-2.967,0.409l2.579,2.029c0,-0 1.909,1.921 2.217,2.45c1.958,2.691 2.267,4.741 2.579,6.066l1.225,5.65c0.546,3 2.467,5.246 2.467,5.246c-2.271,1 -6.217,1.704 -6.217,1.704l17.925,13.971l7.092,-2.65c2.816,-0.308 6.262,2.8 6.262,2.8l-4.779,0.492c0.017,0.237 -0.604,2.029 -0.546,2.187l-4.216,0.309l6.25,2.616Zm-40.142,-58.675c0.358,0.221 0.85,0.092 1.012,-0.233c0.275,-0.417 0.567,-0.837 0.888,-1.258c0.325,1.204 1.4,2.062 2.687,2.062c1.546,0 2.792,-1.262 2.792,-2.812c0,-0.259 -0.033,-0.517 -0.108,-0.767c0.125,0.063 0.254,0.129 0.396,0.204l1.287,0.646c0.354,0.192 0.846,0.029 0.996,-0.321c0.192,-0.379 0.05,-0.825 -0.317,-1.025l-1.3,-0.633c-1.116,-0.563 -2.229,-1.067 -3.6,-1.067c-0.325,0 -0.658,0.029 -1,0.088c-1.4,0.262 -3.241,2.941 -3.975,4.096c-0.204,0.37 -0.104,0.808 0.242,1.02Zm4.608,-0.858c-0.771,0 -1.412,-0.621 -1.412,-1.4c-0,-0.767 0.641,-1.4 1.412,-1.4c0.767,0 1.4,0.633 1.4,1.4c0,0.779 -0.633,1.4 -1.4,1.4Zm-715.396,54.158l-24.229,0c0.329,4.5 4.438,7.825 9.088,7.825c3.987,0 6.625,-1.587 8.425,-4.108l5.308,4.229c-3.121,4.229 -7.617,6.359 -13.646,6.359c-9.804,-0 -17.091,-6.296 -17.091,-16.642c-0,-10.346 7.229,-17.033 16.825,-17.033c8.875,-0 15.379,5.758 15.379,17.241c-0,0.721 -0,1.379 -0.059,2.129Zm-7.945,-5.695c-0,-4.109 -2.309,-7.68 -7.496,-7.68c-4.709,0 -8.488,3.242 -8.817,7.68l16.313,-0Zm36.791,-3.9c-1.258,-1.8 -3.987,-3.117 -6.566,-3.117c-5.817,-0 -8.759,5.246 -8.759,10.196c0,4.946 2.971,10.191 8.996,10.191c2.463,0 5.158,-0.987 6.688,-2.845l4.979,5.037c-2.638,2.846 -7.017,4.438 -11.725,4.438c-9.417,-0 -17.213,-6.238 -17.213,-16.821c0,-10.588 7.679,-16.825 17.034,-16.825c4.645,-0 9.475,1.862 11.991,4.979l-5.425,4.767Zm40.213,3.12l-0,19.88l-7.95,-0l-0,-17.484c-0,-3.775 -0.809,-8.425 -5.904,-8.425c-5.1,0 -7.5,4.317 -7.5,8.546l-0,17.363l-7.946,-0l-0,-50.105l7.946,0l-0,22.73l0.12,-0c1.259,-2.642 4.767,-5.371 9.475,-5.371c8.28,-0 11.73,6.358 11.73,12.866l0.029,0Zm4.737,-5.579l0,-6.358l5.575,-0l0,-9.204l7.829,-0l0,9.204l7.946,-0l0,6.358l-7.946,0l0,14.784c0,2.85 0.659,4.887 4.167,4.887c1.05,0 2.458,-0.208 3.388,-0.658l0.27,6.233c-1.379,0.542 -3.508,0.871 -5.308,0.871c-8.425,-0 -10.346,-5.158 -10.346,-11.275l0,-14.842l-5.575,0Zm-95.925,71.217l0.059,-0l5.937,-16.133l2.971,-0l-7.738,19.7l-2.55,-0l-7.675,-19.7l3.059,-0l5.937,16.133Zm22.517,-2.279l-10.492,-0c0.088,2.246 1.979,4.016 4.288,4.016c1.766,0 3.087,-0.9 3.837,-2.008l1.829,1.467c-1.408,1.829 -3.329,2.7 -5.666,2.7c-4.021,-0 -6.959,-2.788 -6.959,-6.925c0,-4.138 2.938,-6.988 6.809,-6.988c3.866,0 6.354,2.638 6.354,6.838l-0,0.9Zm-2.638,-1.95c-0.058,-2.1 -1.287,-3.717 -3.687,-3.717c-2.25,0 -3.988,1.679 -4.138,3.717l7.825,-0Zm6.446,-5.396l2.463,-0c0.058,0.658 0.116,1.679 0.116,2.217l0.092,-0c0.721,-1.53 2.25,-2.58 4.046,-2.58c0.362,0 0.721,0 1.021,0.121l-0.121,2.429c-0.329,-0.091 -0.779,-0.15 -1.2,-0.15c-2.488,0 -3.688,2.038 -3.688,4.23l0,6.925l-2.608,-0l0,-10.346c0,-0.688 0,-1.979 -0.121,-2.846Zm13.046,-0c0.058,0.658 0.121,1.617 0.121,2.158l0.087,0c0.63,-1.412 2.4,-2.521 4.288,-2.521c3.392,0 4.921,2.43 4.921,5.367l-0,8.188l-2.613,-0l0,-7.317c0,-2.129 -0.566,-4.046 -2.996,-4.046c-2.07,0 -3.537,1.738 -3.537,4.346l-0,7.017l-2.608,-0l-0,-10.346c-0,-0.688 -0,-1.979 -0.121,-2.846l2.458,-0Zm26.417,7.346l-10.496,-0c0.092,2.246 1.979,4.016 4.287,4.016c1.771,0 3.088,-0.9 3.838,-2.008l1.829,1.467c-1.408,1.829 -3.325,2.7 -5.667,2.7c-4.016,-0 -6.954,-2.788 -6.954,-6.925c0,-4.138 2.938,-6.988 6.804,-6.988c3.871,0 6.359,2.638 6.359,6.838l-0,0.9Zm-2.638,-1.95c-0.062,-2.1 -1.291,-3.717 -3.691,-3.717c-2.246,0 -3.988,1.679 -4.138,3.717l7.829,-0Zm13.25,-3.267l-3.508,0l-0,6.867c-0,1.587 0.571,2.216 1.862,2.216c0.48,0 1.08,-0.12 1.53,-0.329l0.087,2.129c-0.6,0.209 -1.408,0.359 -2.217,0.359c-2.491,-0 -3.837,-1.379 -3.837,-4.109l-0,-7.133l-2.521,0l0,-2.129l2.521,-0l-0,-3.779l2.575,-0l-0,3.779l3.508,-0l0,2.129Zm13.109,0l-7.5,8.842l7.829,-0l-0,2.191l-11.038,0l0,-2.129l7.471,-8.904l-7.108,0l-0,-2.129l10.375,-0l-0,2.129l-0.029,0Zm10.912,0l-3.508,0l-0,6.867c-0,1.587 0.571,2.216 1.858,2.216c0.483,0 1.083,-0.12 1.529,-0.329l0.092,2.129c-0.6,0.209 -1.408,0.359 -2.217,0.359c-2.491,-0 -3.841,-1.379 -3.841,-4.109l-0,-7.133l-2.517,0l-0,-2.129l2.517,-0l-0,-3.779l2.579,-0l-0,3.779l3.508,-0l0,2.129Zm16.463,-2.521c1.725,0.009 3.242,0.79 4.05,2.638c0.895,-1.709 2.608,-2.638 4.466,-2.638c3.388,0 4.917,2.429 4.917,5.367l-0,8.187l-2.608,0l-0,-7.316c-0,-2.129 -0.63,-4.05 -2.909,-4.05c-2.279,-0 -3.329,2.158 -3.329,4.229l0,7.137l-2.608,0l-0,-7.858c-0,-2.067 -0.688,-3.508 -2.788,-3.508c-1.921,-0 -3.358,1.741 -3.358,4.35l-0,7.016l-2.608,0l-0,-10.345c-0,-0.688 -0,-1.98 -0.121,-2.85l2.487,-0c0.063,0.662 0.121,1.62 0.121,2.162l0.092,0c0.655,-1.377 2.173,-2.51 4.166,-2.521c0.01,0 0.02,0 0.03,0Zm20.75,13.584l-2.609,-0l0,-13.192l2.609,-0l-0,13.192Zm-1.321,-16.284c-0.959,0 -1.738,-0.75 -1.738,-1.679c0,-0.929 0.779,-1.708 1.738,-1.708c0.962,-0 1.741,0.721 1.741,1.708c0,0.992 -0.812,1.679 -1.741,1.679Zm12.804,5.221l-3.508,0l-0,6.867c-0,1.587 0.57,2.216 1.858,2.216c0.483,0 1.083,-0.12 1.529,-0.329l0.092,2.129c-0.6,0.209 -1.409,0.359 -2.217,0.359c-2.492,-0 -3.842,-1.379 -3.842,-4.109l0,-7.133l-2.516,0l-0,-2.129l2.516,-0l0,-3.779l2.58,-0l-0,3.779l3.508,-0l-0,2.129Zm15.412,11.392c-4.045,-0 -6.654,-3.117 -6.654,-6.988c0,-3.866 2.667,-6.925 6.625,-6.925c2.129,0 3.779,1.05 4.709,2.338l0.058,-0l-0,-9.804l2.608,-0l0,21.02l-2.516,0l-0,-2.1l-0.063,0c-0.987,1.588 -2.875,2.459 -4.767,2.459Zm0.45,-2.188c2.671,0 4.438,-2.221 4.438,-4.766c-0,-2.55 -1.767,-4.8 -4.438,-4.8c-2.879,-0 -4.379,2.279 -4.379,4.766c0,2.492 1.5,4.8 4.379,4.8Zm24.017,-3.987l-10.492,-0c0.088,2.246 1.98,4.016 4.288,4.016c1.767,0 3.087,-0.9 3.837,-2.008l1.83,1.467c-1.409,1.829 -3.33,2.7 -5.667,2.7c-4.017,-0 -6.958,-2.788 -6.958,-6.925c-0,-4.138 2.941,-6.988 6.808,-6.988c3.867,0 6.354,2.638 6.354,6.838l0,0.9Zm-2.637,-1.95c-0.059,-2.1 -1.288,-3.717 -3.688,-3.717c-2.25,0 -3.987,1.679 -4.137,3.717l7.825,-0Zm6.445,-5.396l2.463,-0c0.058,0.658 0.117,1.679 0.117,2.217l0.091,-0c0.721,-1.53 2.25,-2.58 4.046,-2.58c0.363,0 0.721,0 1.017,0.121l-0.117,2.429c-0.333,-0.091 -0.779,-0.15 -1.2,-0.15c-2.487,0 -3.687,2.038 -3.687,4.23l-0,6.925l-2.609,-0l0,-10.346c0,-0.688 0,-1.979 -0.121,-2.846Zm30.259,-4.108l-11.129,14.812l11.308,0l-0,2.458l-14.633,0l-0,-2.429l11.095,-14.841l-10.887,-0l-0,-2.43l14.246,0l-0,2.43Zm22.366,9.833l0.092,-0l5.546,-5.725l3.508,-0l-6.175,5.967l6.717,7.195l-3.629,0l-5.967,-6.837l-0.092,-0l0,6.837l-2.608,0l0,-21.02l2.608,-0l0,13.583Zm31.126,-5.725c0.058,0.658 0.12,1.617 0.12,2.158l0.088,0c0.633,-1.412 2.4,-2.521 4.291,-2.521c3.388,0 4.917,2.43 4.917,5.367l0,8.188l-2.608,-0l-0,-7.317c-0,-2.129 -0.571,-4.046 -3,-4.046c-2.071,0 -3.538,1.738 -3.538,4.346l0,7.017l-2.608,-0l-0,-10.346c-0,-0.688 -0,-1.979 -0.121,-2.846l2.459,-0Zm20.391,2.129l-3.058,0l-0,11.033l-2.609,0l0,-11.033l-2.612,0l-0,-2.129l2.612,-0l0,-2.763c0,-3.087 1.346,-5.425 4.917,-5.425c0.629,0 1.138,0.059 1.65,0.18l-0.3,2.25c-0.391,-0.121 -0.812,-0.18 -1.321,-0.18c-1.979,0 -2.337,1.559 -2.337,3.175l-0,2.763l3.058,-0l0,2.129Zm10.404,0l-3.508,0l-0,6.867c-0,1.587 0.571,2.216 1.858,2.216c0.48,0 1.079,-0.12 1.53,-0.329l0.091,2.129c-0.6,0.209 -1.412,0.359 -2.221,0.359c-2.487,-0 -3.837,-1.379 -3.837,-4.109l-0,-7.133l-2.521,0l-0,-2.129l2.521,-0l-0,-3.779l2.579,-0l-0,3.779l3.508,-0l0,2.129Zm-394.512,-88.417c-27.867,0 -50.459,22.588 -50.459,50.459c0,27.8 22.488,50.341 50.263,50.446l-106.896,-0c-27.75,-0 -50.454,-22.705 -50.454,-50.455c-0,-27.745 22.704,-50.45 50.454,-50.45l107.092,0Zm758.167,86.342c-0.801,-1.029 -2.376,-1.804 -3.855,-1.804c-1.725,-0 -3.708,0.829 -3.708,2.879c-0,1.929 1.629,2.496 4.004,3.229c2.704,0.829 6.138,2.025 6.138,6.138c-0,4.508 -3.53,6.708 -7.659,6.708c-2.729,0 -5.554,-1.046 -7.208,-3l2.675,-2.5c1.046,1.429 2.933,2.313 4.604,2.313c1.75,-0 3.8,-0.859 3.8,-3.113c0,-2.254 -2.2,-2.808 -4.833,-3.65c-2.554,-0.804 -5.308,-2.054 -5.308,-5.962c-0.017,-4.263 3.87,-6.15 7.67,-6.15c2.104,-0 4.509,0.745 6.113,2.254l-2.433,2.675l-0,-0.017Zm16.187,6.329c-0.571,-0.8 -1.779,-1.4 -2.933,-1.4c-2.609,0 -3.925,2.35 -3.925,4.579c-0,2.225 1.329,4.575 4.033,4.575c1.1,0 2.308,-0.45 3,-1.279l2.229,2.254c-1.183,1.28 -3.15,1.984 -5.258,1.984c-4.209,-0 -7.713,-2.784 -7.713,-7.534c0,-4.754 3.438,-7.537 7.634,-7.537c2.079,-0 4.25,0.829 5.375,2.225l-2.429,2.133l-0.013,0Zm18.329,1.4l0,8.909l-3.554,-0l-0,-7.838c-0,-1.696 -0.354,-3.775 -2.65,-3.775c-2.296,0 -3.354,1.929 -3.354,3.829l-0,7.784l-3.558,-0l-0,-22.45l3.558,-0l-0,10.187l0.054,0c0.571,-1.183 2.133,-2.404 4.25,-2.404c3.708,-0 5.254,2.85 5.254,5.758Zm4.538,-13.541l3.558,-0l-0,22.433l-3.558,-0l-0,-22.433Zm21.808,16.445l-10.85,0c0.15,2.025 1.983,3.505 4.075,3.505c1.775,-0 2.958,-0.721 3.775,-1.834l2.375,1.9c-1.4,1.9 -3.408,2.854 -6.113,2.854c-4.4,0 -7.658,-2.825 -7.658,-7.458c0,-4.629 3.233,-7.629 7.538,-7.629c3.979,-0 6.883,2.579 6.883,7.712c-0,0.325 -0,0.625 -0.025,0.95Zm-3.546,-2.554c0,-1.833 -1.046,-3.433 -3.354,-3.433c-2.104,-0 -3.8,1.454 -3.95,3.433l7.304,0Zm15.221,-1.9c-0.625,-0.829 -1.808,-1.546 -3.108,-1.546c-1.125,0 -2.28,0.421 -2.28,1.546c0,1.129 1.101,1.4 3.076,1.875c2.112,0.5 4.608,1.454 4.608,4.25c-0,3.475 -2.813,4.754 -5.938,4.754c-2.196,0 -4.475,-0.829 -5.837,-2.35l2.354,-2.2c0.771,1.005 2.1,1.78 3.646,1.78c1.05,-0 2.283,-0.421 2.283,-1.7c0,-1.192 -1.096,-1.546 -3.254,-2.05c-2.108,-0.5 -4.213,-1.371 -4.213,-4.034c0,-3.175 2.851,-4.533 5.663,-4.533c2.05,-0 4.183,0.721 5.338,2.171l-2.313,2.05l-0.025,-0.013Zm4.138,-3.8l3.887,0l2.962,10.209l0.055,-0l3.054,-10.209l3.804,0l3.083,10.209l0.055,-0l3.024,-10.209l3.709,0l-4.929,14.242l-3.625,-0l-3.234,-9.967l-0.054,0l-3.208,9.967l-3.621,-0l-4.962,-14.242Zm26.429,0.013l3.558,-0l-0,14.246l-3.558,-0l-0,-14.246Zm1.754,-6.979c1.304,-0 2.308,0.92 2.308,2.129c0,1.208 -1.004,2.133 -2.308,2.133c-1.304,0 -2.254,-1.004 -2.254,-2.133c-0,-1.125 0.95,-2.129 2.254,-2.129Zm20.854,6.966l-0,12.967c-0,5.133 -2.496,8.404 -8.05,8.404c-2.308,0 -5.229,-0.829 -7.062,-2.35l2.049,-2.754c1.375,1.304 3.205,2.021 4.984,2.021c3.45,-0 4.508,-2.075 4.508,-4.9l0,-1.034l-0.054,0c-1.046,1.4 -2.7,2.134 -4.654,2.134c-4.279,-0 -7.038,-3.384 -7.038,-7.429c0,-4.046 2.675,-7.48 6.979,-7.48c1.984,0 3.859,0.825 4.905,2.55l0.054,0l-0,-2.129l3.379,0Zm-11.688,7.034c0,2.254 1.521,4.508 4.071,4.508c2.554,-0 4.25,-2.133 4.25,-4.508c0,-2.38 -1.629,-4.538 -4.208,-4.538c-2.579,0 -4.1,2.025 -4.1,4.538l-0.013,-0Zm22.825,1.425l-7.129,-0l0,-3.03l7.129,0l0,3.03Zm4.371,-15.221l3.734,-0l-0,8.487l9.82,0l0,-8.487l3.746,-0l0,21.021l-3.746,-0l0,-9.317l-9.82,-0l-0,9.317l-3.734,-0l0,-21.021Zm29.088,6.354c4.304,-0 7.754,3 7.754,7.483c-0,4.479 -3.437,7.604 -7.754,7.604c-4.321,0 -7.742,-3.112 -7.742,-7.604c0,-4.496 3.438,-7.483 7.742,-7.483Zm-0,12.112c2.825,0 4.129,-2.404 4.129,-4.629c-0,-2.229 -1.304,-4.579 -4.129,-4.579c-2.825,0 -4.129,2.35 -4.129,4.579c-0,2.225 1.304,4.629 4.129,4.629Zm11.566,-19.895l3.559,-0l-0,22.433l-3.559,-0l0,-22.433Zm16.2,11.991c-0.624,-0.829 -1.804,-1.546 -3.108,-1.546c-1.125,0 -2.279,0.421 -2.279,1.546c-0,1.129 1.096,1.4 3.079,1.875c2.104,0.5 4.604,1.454 4.604,4.25c0,3.475 -2.812,4.754 -5.933,4.754c-2.2,0 -4.483,-0.829 -5.837,-2.35l2.345,-2.2c0.775,1.005 2.109,1.78 3.654,1.78c1.046,-0 2.284,-0.421 2.284,-1.7c-0,-1.192 -1.1,-1.546 -3.263,-2.05c-2.104,-0.5 -4.208,-1.371 -4.208,-4.034c-0,-3.175 2.85,-4.533 5.662,-4.533c2.05,-0 4.184,0.721 5.338,2.171l-2.308,2.05l-0.03,-0.013Zm4.375,-0.95l0,-2.85l2.496,0l0,-4.129l3.504,0l0,4.129l3.559,0l-0,2.85l-3.559,0l0,6.613c0,1.275 0.301,2.2 1.875,2.2c0.475,-0 1.101,-0.096 1.521,-0.3l0.121,2.783c-0.625,0.233 -1.575,0.383 -2.375,0.383c-3.775,0 -4.629,-2.308 -4.629,-5.054l-0,-6.637l-2.5,-0l-0.013,0.012Zm25.963,5.404l-10.838,0c0.15,2.025 1.984,3.505 4.063,3.505c1.779,-0 2.971,-0.721 3.775,-1.834l2.375,1.9c-1.4,1.9 -3.408,2.854 -6.113,2.854c-4.4,0 -7.658,-2.825 -7.658,-7.458c0,-4.629 3.233,-7.629 7.538,-7.629c3.979,-0 6.883,2.579 6.883,7.712c-0,0.325 -0,0.625 -0.025,0.95Zm-3.533,-2.554c-0,-1.833 -1.03,-3.433 -3.35,-3.433c-2.109,-0 -3.805,1.454 -3.955,3.433l7.305,0Zm7.362,-5.687l3.558,-0l0,14.246l-3.558,-0l0,-14.246Zm1.75,-6.979c1.304,-0 2.309,0.92 2.309,2.129c-0,1.208 -1.005,2.133 -2.309,2.133c-1.304,0 -2.254,-1.004 -2.254,-2.133c0,-1.125 0.95,-2.129 2.254,-2.129Zm6.408,6.966l3.384,0l-0,2.279l0.054,0c0.625,-1.425 2.308,-2.7 4.425,-2.7c3.708,0 5.258,2.85 5.258,5.755l0,8.908l-3.558,-0l-0,-7.9c-0,-1.688 -0.383,-3.804 -2.675,-3.804c-2.296,-0 -3.329,1.954 -3.329,3.858l-0,7.833l-3.559,0l0,-14.229Zm-240.075,32.209c-0.895,-1.28 -2.345,-2.105 -4.329,-2.105c-1.983,0 -4.483,1.25 -4.483,3.95c-0,2.705 2.229,3.355 4.579,4.13c2.958,0.975 6.229,1.929 6.229,6.137c0,4.208 -3.529,6.054 -6.854,6.054c-2.554,0 -5.108,-1.029 -6.612,-3.108l1.833,-1.358c0.921,1.479 2.604,2.65 4.804,2.65c2.2,-0 4.658,-1.375 4.658,-4.063c0,-2.933 -2.458,-3.679 -5.133,-4.508c-2.783,-0.854 -5.633,-2.075 -5.633,-5.879c-0,-4.059 3.625,-5.784 6.708,-5.784c2.821,0 4.929,1.179 5.933,2.55l-1.7,1.359l0,-0.025Zm12.684,5.429l-3.925,-0l-0,8.096c-0,2.075 0.858,2.55 2.079,2.55c0.558,-0 1.221,-0.175 1.75,-0.446l0.096,1.75c-0.704,0.271 -1.45,0.421 -2.375,0.421c-1.479,-0 -3.559,-0.65 -3.559,-3.705l0,-8.666l-2.879,-0l0,-1.696l2.879,-0l0,-3.913l2.025,0l0,3.913l3.909,-0l-0,1.696Zm12.671,3.233c-0,-2.404 -1.305,-3.583 -3.709,-3.583c-1.629,-0 -3.15,0.65 -4.129,1.629l-1.125,-1.333c1.125,-1.125 3.083,-1.98 5.458,-1.98c3,0 5.405,1.655 5.405,5.038l-0,6.083c-0,1.071 0.095,2.346 0.233,3.109l-1.808,-0c-0.121,-0.68 -0.204,-1.509 -0.204,-2.255l-0.055,0c-1.275,1.834 -2.825,2.609 -5.037,2.609c-2.104,-0 -4.809,-1.129 -4.809,-4.213c0,-4.275 4.713,-4.654 9.792,-4.654l0,-0.45l-0.012,0Zm-0.6,2.025c-3.296,0 -7.113,0.35 -7.113,3c0,1.983 1.696,2.646 3.258,2.646c2.85,-0 4.455,-2.129 4.455,-4.6l-0,-1.033l-0.6,-0l-0,-0.013Zm16.554,-2.025c-0,-2.404 -1.304,-3.583 -3.709,-3.583c-1.629,-0 -3.15,0.65 -4.125,1.629l-1.129,-1.333c1.129,-1.125 3.084,-1.98 5.459,-1.98c3.004,0 5.404,1.655 5.404,5.038l-0,6.083c-0,1.071 0.096,2.346 0.233,3.109l-1.808,-0c-0.121,-0.68 -0.204,-1.509 -0.204,-2.255l-0.055,0c-1.275,1.834 -2.82,2.609 -5.037,2.609c-2.104,-0 -4.804,-1.129 -4.804,-4.213c-0,-4.275 4.712,-4.654 9.787,-4.654l0,-0.45l-0.012,0Zm-0.596,2.025c-3.3,0 -7.117,0.35 -7.117,3c0,1.983 1.696,2.646 3.259,2.646c2.854,-0 4.454,-2.129 4.454,-4.6l-0,-1.033l-0.596,-0l-0,-0.013Zm14.337,-5.258l-3.925,-0l0,8.096c0,2.075 0.859,2.55 2.08,2.55c0.57,-0 1.22,-0.175 1.75,-0.446l0.095,1.75c-0.704,0.271 -1.454,0.421 -2.374,0.421c-1.48,-0 -3.559,-0.65 -3.559,-3.705l0,-8.666l-2.879,-0l-0,-1.696l2.879,-0l0,-3.913l2.025,0l0,3.913l3.908,-0l0,1.696Zm11.667,1.604c-0.604,-1.154 -1.879,-1.954 -3.408,-1.954c-1.454,-0 -2.934,0.625 -2.934,2.171c0,1.304 1.03,1.9 3.325,2.375c3.255,0.679 4.809,1.904 4.809,4.062c-0,3.175 -2.675,4.304 -5.233,4.304c-2.101,0 -4.205,-0.829 -5.484,-2.704l1.604,-1.179c0.704,1.221 2.225,2.171 3.859,2.171c1.72,-0 3.254,-0.625 3.254,-2.429c-0,-1.455 -1.454,-2.05 -4.1,-2.675c-1.629,-0.38 -3.975,-1.1 -3.975,-3.734c-0,-2.825 2.429,-4.033 4.95,-4.033c1.933,-0 3.983,0.921 4.867,2.496l-1.551,1.154l0.017,-0.025Zm8.188,2.975l0.096,-0l6.408,-6.263l2.904,0l-7.004,6.355l7.712,7.537l-2.979,0l-7.058,-7.304l-0.096,-0l-0,7.304l-2.025,0l0,-22.446l2.025,0l-0,14.8l0.017,0.017Zm22.12,-1.346c0,-2.404 -1.304,-3.583 -3.708,-3.583c-1.629,-0 -3.15,0.65 -4.129,1.629l-1.125,-1.333c1.125,-1.125 3.079,-1.98 5.458,-1.98c3,0 5.405,1.655 5.405,5.038l-0,6.083c-0,1.071 0.095,2.346 0.229,3.109l-1.805,-0c-0.125,-0.68 -0.204,-1.509 -0.204,-2.255l-0.054,0c-1.279,1.834 -2.825,2.609 -5.037,2.609c-2.105,-0 -4.809,-1.129 -4.809,-4.213c0,-4.275 4.713,-4.654 9.792,-4.654l0,-0.45l-0.013,0Zm-0.599,2.025c-3.3,0 -7.117,0.35 -7.117,3c-0,1.983 1.7,2.646 3.262,2.646c2.85,-0 4.454,-2.129 4.454,-4.6l0,-1.033l-0.599,-0l-0,-0.013Zm9.654,-6.942c0.054,0.75 0.125,1.78 0.125,2.38l0.054,-0c0.771,-1.605 2.783,-2.73 4.75,-2.73c3.533,0 5.283,2.28 5.283,5.73l0,8.512l-2.025,0l0,-7.683c0,-2.909 -0.854,-4.863 -3.775,-4.863c-2.129,0 -4.208,1.725 -4.208,5.434l-0,7.112l-2.021,0l-0,-10.833c-0,-0.75 -0.029,-2.109 -0.125,-3.059l1.942,0Zm24.916,1.425l-8.308,10.717l8.608,0l0,1.75l-11.27,0l-0,-1.425l8.283,-10.767l-7.863,0l0,-1.7l10.567,0l-0,1.425l-0.017,0Zm6.125,12.455l-2.021,-0l0,-22.434l2.021,0l0,22.434Zm18.225,-6.409l-11.516,0c0.054,2.784 2.229,5.038 5.079,5.038c2.079,-0 3.679,-1.154 4.454,-2.404l1.508,1.179c-1.629,2.079 -3.683,2.933 -5.962,2.933c-4.129,0 -7.184,-3.108 -7.184,-7.304c0,-4.196 3.055,-7.304 7.009,-7.304c4.358,-0 6.637,3.083 6.637,6.883c0,0.271 0,0.596 -0.025,0.95l0,0.029Zm-2.025,-1.604c-0.12,-2.608 -1.725,-4.533 -4.604,-4.533c-2.7,-0 -4.683,2.171 -4.858,4.533l9.462,0Zm8.596,8.013l-2.025,-0l0,-13.892l2.025,-0l0,13.892Zm-1.004,-17.805c-0.708,0 -1.425,-0.595 -1.425,-1.425c-0,-0.829 0.704,-1.425 1.425,-1.425c0.721,0 1.425,0.596 1.425,1.425c0,0.83 -0.704,1.425 -1.425,1.425Zm-434.309,-193.987l0,240.45l-1.903,-0l0,-240.45l1.903,-0Z" style="fill:#023367;"/>
    <path d="M1094.86,36.216l0.046,11.496l-17.163,7.008l16.971,7.45l-17.417,5.987l16.334,8.434l-17.642,4.346l15.138,9.95l-17.388,1.883l12.692,11.817l-16.842,0.008l8.771,12.112l-13.383,10.409l-13.388,-10.409l8.771,-12.112l-16.846,-0.008l12.696,-11.817l-17.383,-1.883l15.133,-9.95l-17.646,-4.346l16.342,-8.434l-17.417,-5.987l16.971,-7.45l-17.171,-7.008l0.046,-11.496l14.079,-0l7.508,13.821l3.021,-13.821l5.284,13.821l5.283,-13.821l3.017,13.821l7.508,-13.821l14.075,-0Zm-694.917,87.671l-7.587,-0l-0,-4.767l-0.121,-0c-2.188,3.658 -6.504,5.696 -10.942,5.696c-9.687,-0 -15.625,-7.675 -15.625,-16.971c0,-9.296 6.359,-16.704 15.446,-16.704c5.817,-0 8.996,2.908 10.671,4.979l0.212,-0l0,-22.338l7.946,0l0,50.105Zm-17.062,-5.696c5.816,-0 9.354,-5.25 9.354,-10.196c-0,-4.95 -3.508,-10.346 -9.354,-10.346c-6.146,0 -9.146,5.246 -9.146,10.196c-0,4.946 2.971,10.346 9.146,10.346Zm26.208,-26.121l7.946,-0l-0,31.817l-7.946,-0l0,-31.817Zm3.896,-15.558c2.908,-0 5.158,2.066 5.158,4.766c0,2.696 -2.25,4.767 -5.158,4.767c-2.908,-0 -5.038,-2.25 -5.038,-4.767c0,-2.521 2.13,-4.766 5.038,-4.766Zm45.608,15.558l0,28.937c0,11.455 -5.575,18.742 -17.962,18.742c-5.154,0 -11.663,-1.858 -15.771,-5.25l4.558,-6.146c3.059,2.909 7.167,4.5 11.125,4.5c7.671,0 10.075,-4.65 10.075,-10.946l0,-2.308l-0.121,0c-2.308,3.117 -6.025,4.767 -10.404,4.767c-9.533,-0 -15.712,-7.554 -15.712,-16.55c-0,-8.996 5.966,-16.704 15.562,-16.704c4.438,-0 8.604,1.858 10.946,5.695l0.117,0l-0,-4.766l7.558,-0l0.029,0.029Zm-26.116,15.712c-0,5.038 3.387,10.075 9.087,10.075c5.696,0 9.471,-4.766 9.471,-10.075c-0,-5.304 -3.629,-10.133 -9.413,-10.133c-5.787,0 -9.145,4.496 -9.145,10.133Zm35.141,-15.712l7.946,-0l0,31.817l-7.946,-0l0,-31.817Zm3.9,-15.558c2.909,-0 5.159,2.066 5.159,4.766c-0,2.696 -2.25,4.767 -5.159,4.767c-2.908,-0 -5.037,-2.25 -5.037,-4.767c-0,-2.521 2.129,-4.766 5.037,-4.766Zm9.204,21.916l0,-6.358l5.58,-0l-0,-9.204l7.825,-0l-0,9.204l7.945,-0l0,6.358l-7.945,0l-0,14.784c-0,2.85 0.658,4.887 4.166,4.887c1.05,0 2.459,-0.208 3.388,-0.658l0.271,6.233c-1.38,0.542 -3.509,0.871 -5.309,0.871c-8.425,-0 -10.341,-5.158 -10.341,-11.275l-0,-14.842l-5.58,0Zm47.496,21.409l-0.237,-0c-1.592,2.791 -5.367,4.829 -9.867,4.829c-5.096,-0 -11.933,-2.459 -11.933,-9.867c-0,-9.475 11.933,-10.792 21.858,-10.792l0,-0.812c0,-3.896 -3.3,-5.817 -7.287,-5.817c-3.388,0 -6.625,1.592 -8.663,3.659l-4.108,-4.825c3.566,-3.3 8.604,-5.038 13.462,-5.038c11.396,0 14.184,7.017 14.184,13.371l-0,19.342l-7.409,-0l0,-4.05Zm-0.15,-10.463l-1.8,0c-5.037,0 -12.112,0.6 -12.112,5.308c-0,3.059 2.85,3.988 5.579,3.988c5.425,-0 8.333,-3.121 8.333,-8.158l0,-1.138Zm16.284,-35.592l7.945,0l0,50.105l-7.945,-0l-0,-50.105Zm-386.305,-0.029c27.663,0.242 50.017,22.717 50.017,50.438c0,27.866 -22.592,50.458 -50.458,50.458c-0.067,0 -0.129,-0.012 -0.196,-0.012c-27.775,-0.105 -50.263,-22.646 -50.263,-50.446c0,-27.871 22.592,-50.459 50.459,-50.459c0.15,0 0.291,0.021 0.441,0.021Z" style="fill:#d71353;"/>
    <path d="M124.287,138.42c-0.771,-0.55 -1.321,-1.488 -1.321,-2.588c0,-1.758 1.434,-3.133 3.192,-3.133c0.933,0 1.537,0.275 1.979,0.604c3.192,2.529 6.6,3.959 10.783,3.959c4.18,-0 6.821,-1.98 6.821,-4.838l0,-0.108c0,-2.754 -1.541,-4.238 -8.691,-5.888c-8.196,-1.979 -12.817,-4.4 -12.817,-11.496l-0,-0.112c-0,-6.6 5.5,-11.163 13.146,-11.163c4.841,0 8.746,1.263 12.212,3.575c0.767,0.438 1.484,1.375 1.484,2.696c-0,1.759 -1.43,3.134 -3.192,3.134c-0.658,-0 -1.208,-0.167 -1.758,-0.496c-2.971,-1.925 -5.83,-2.913 -8.859,-2.913c-3.958,0 -6.266,2.034 -6.266,4.563l-0,0.112c-0,2.967 1.758,4.288 9.183,6.05c8.142,1.979 12.321,4.896 12.321,11.275l-0,0.109c-0,7.208 -5.667,11.5 -13.75,11.5c-5.225,-0 -10.175,-1.655 -14.467,-4.842Zm33.167,-31.133c-0,-1.871 1.483,-3.359 3.408,-3.359c1.871,0 3.354,1.488 3.354,3.359l0,12.925l18.375,-0l0,-12.925c0,-1.871 1.484,-3.359 3.354,-3.359c1.925,0 3.409,1.488 3.409,3.359l-0,32.341c-0,1.871 -1.484,3.359 -3.409,3.359c-1.87,-0 -3.354,-1.488 -3.354,-3.359l0,-13.146l-18.375,0l0,13.146c0,1.871 -1.483,3.359 -3.354,3.359c-1.925,-0 -3.408,-1.488 -3.408,-3.359l-0,-32.341Z" style="fill:#fff;"/>
</svg>
