<svg width="100%" height="100%" viewBox="0 0 1850 1850" version="1.1" xmlns="http://www.w3.org/2000/svg" xmlns:xlink="http://www.w3.org/1999/xlink" xml:space="preserve" style="fill-rule:evenodd;clip-rule:evenodd;stroke-linejoin:round;stroke-miterlimit:2;">
    <path id="path3029" d="M1438.37,1074.95l-0,320c-0,79.334 -28.167,147.167 -84.5,203.5c-56.333,56.334 -124.167,84.5 -203.5,84.5l-832,0c-79.333,0 -147.167,-28.166 -203.5,-84.5c-56.333,-56.333 -84.5,-124.166 -84.5,-203.5l-0,-832c-0,-79.333 28.167,-147.166 84.5,-203.5c56.333,-56.333 124.167,-84.5 203.5,-84.5l704,0c9.333,0 17,3 23,9c6,6 9,13.667 9,23l-0,64c-0,9.334 -3,17 -9,23c-6,6 -13.667,9 -23,9l-704,0c-44,0 -81.667,15.667 -113,47c-31.333,31.334 -47,69 -47,113l-0,832c-0,44 15.667,81.667 47,113c31.333,31.334 69,47 113,47l832,0c44,0 81.667,-15.666 113,-47c31.333,-31.333 47,-69 47,-113l-0,-320c-0,-9.333 3,-17 9,-23c6,-6 13.667,-9 23,-9l64,0c9.333,0 17,3 23,9c6,6 9,13.667 9,23Zm384,-864l-0,512c-0,17.334 -6.333,32.334 -19,45c-12.667,12.667 -27.667,19 -45,19c-17.333,0 -32.333,-6.333 -45,-19l-176,-176l-652,652c-6.667,6.667 -14.333,10 -23,10c-8.667,0 -16.333,-3.333 -23,-10l-114,-114c-6.667,-6.666 -10,-14.333 -10,-23c-0,-8.666 3.333,-16.333 10,-23l652,-652l-176,-176c-12.667,-12.666 -19,-27.666 -19,-45c-0,-17.333 6.333,-32.333 19,-45c12.667,-12.666 27.667,-19 45,-19l512,0c17.333,0 32.333,6.334 45,19c12.667,12.667 19,27.667 19,45Z" style="fill-rule:nonzero;"/>
</svg>
