<svg width="100%" height="100%" viewBox="0 0 438 295" version="1.1" xmlns="http://www.w3.org/2000/svg" xmlns:xlink="http://www.w3.org/1999/xlink" xml:space="preserve" style="fill-rule:evenodd;clip-rule:evenodd;stroke-linejoin:round;stroke-miterlimit:2;">
    <path d="M205.21,172.27l0,-3.04l1.58,-0l0,-7c0,-0.56 -0.15,-0.86 -0.65,-0.86c-0.28,-0 -0.66,-0 -0.93,0.06l-0.2,-3c0.61,-0.11 2,-0.22 2.6,-0.22c2.28,-0 2.69,0.76 2.74,1.88c0.53,-1.39 2.6,-2.04 4.43,-2.04c2.65,-0 3.51,0.65 3.93,1.74c0.27,0.74 0.27,1.75 0.27,2.79l0,5.94c0,0.55 0.22,0.77 0.66,0.77c0.36,-0 0.81,-0.03 1.09,-0.08l0.18,3.04c-0.47,0.11 -1.58,0.25 -2.38,0.25c-1.13,-0 -2.11,-0.2 -2.6,-0.67c-0.47,-0.47 -0.66,-1.23 -0.66,-2.3l0,-6.19c0,-0.49 -0.03,-1.06 -0.15,-1.4c-0.22,-0.57 -0.82,-0.78 -1.82,-0.78c-1,-0 -1.75,0.34 -2.06,0.49c-0.18,0.11 -0.46,0.29 -0.6,0.57c-0.11,0.19 -0.16,0.39 -0.16,0.91l0,6.09l1.6,-0l0,3.05l-6.87,-0Zm-0,-0l-0,0.01l-0.02,-0.01l0.02,-0Zm-38.33,-33.21l-0,-3.09l1.7,0l-0,-13.39l-1.7,0l-0,-3.09l7.25,0l-0,3.09l-1.69,0l-0,4.78l7.32,0l-0,-4.78l-1.69,0l-0,-3.09l7.25,0l-0,3.09l-1.71,0l-0,13.39l1.71,0l-0,3.09l-7.25,0l-0,-3.09l1.69,0l-0,-5.46l-7.32,0l-0,5.46l1.69,0l-0,3.09l-7.25,0Zm27.07,0.29c-4.36,0 -6.66,-1.36 -6.66,-7.26c-0,-5.9 2.99,-7.25 6.86,-7.25c4.21,0 6.67,1.1 6.67,7.15c-0,6.05 -2.3,7.36 -6.87,7.36Zm0.15,-11.5c-2.08,-0 -3.08,0.92 -3.08,4.19c-0,3.53 0.89,4.37 3.02,4.37c2.13,-0 3.08,-0.73 3.08,-4.27c-0,-3.54 -0.77,-4.3 -3.02,-4.3l-0,0.01Zm16.03,8.4c1.98,-0 3.32,-0.5 4.1,-0.84l0.85,2.86c-1.18,0.64 -3.04,1.09 -5.26,1.09c-4.3,-0 -6.71,-1.52 -6.71,-7.04c-0,-5.52 1.8,-7.48 6.82,-7.48c2.49,-0 4.12,0.51 4.7,2.3c0.31,0.9 0.37,1.81 0.37,2.76l-3.38,-0c-0.03,-0.47 -0.03,-1.06 -0.28,-1.46c-0.2,-0.37 -0.7,-0.59 -1.72,-0.59c-2.26,-0 -2.76,1.32 -2.76,4.31c-0,2.62 0.63,4.09 3.27,4.09Zm6.64,2.81l-0,-3.04l1.61,-0l-0,-14.62l-1.61,-0l-0,-3.04l5.32,-0l-0,8.27c0.61,-1.18 2.43,-1.8 4.29,-1.8c2.65,-0 3.52,0.67 3.93,1.74c0.27,0.73 0.27,1.74 0.27,2.8l-0,5.92c-0,0.56 0.19,0.78 0.67,0.78c0.35,-0 0.8,-0.05 1.08,-0.1l0.17,3.04c-0.47,0.11 -1.58,0.27 -2.36,0.27c-1.16,-0 -2.09,-0.21 -2.63,-0.67c-0.47,-0.46 -0.64,-1.23 -0.64,-2.3l-0,-6.19c-0,-0.48 -0.03,-1.06 -0.14,-1.4c-0.22,-0.57 -0.82,-0.77 -1.82,-0.77c-1,-0 -1.75,0.33 -2.04,0.48c-0.2,0.11 -0.5,0.29 -0.64,0.57c-0.08,0.21 -0.13,0.39 -0.13,0.95l-0,6.07l1.6,-0l-0,3.04l-6.93,0Zm21.13,-5.71c-2.38,-0.32 -3.57,-1.43 -3.57,-4.08c-0,-2.65 1.74,-4.44 5.83,-4.44c2.28,0 4.6,0.34 5.38,2.02c0.28,0.55 0.47,1.52 0.47,2.68l-3.31,0.11c-0,-0.42 -0.03,-0.87 -0.31,-1.27c-0.22,-0.39 -0.83,-0.64 -2.22,-0.64c-1.76,0 -2.24,0.53 -2.24,1.38c-0,0.8 0.25,1.07 1.72,1.3l2.91,0.45c2.76,0.43 3.65,1.58 3.65,4.16c-0,2.58 -1.6,4.34 -6.18,4.34c-2.54,0 -5.15,-0.39 -5.87,-2.73c-0.16,-0.54 -0.27,-1.33 -0.31,-2.01l3.27,-0.11c0.04,0.46 0.17,0.97 0.37,1.2c0.36,0.5 0.99,0.77 2.67,0.77c1.95,0 2.39,-0.61 2.39,-1.45c-0,-0.61 -0.22,-1.01 -1.58,-1.23l-3.07,-0.44l-0,-0.01Zm17.47,2.9c1.98,-0 3.32,-0.5 4.09,-0.84l0.86,2.86c-1.2,0.64 -3.05,1.09 -5.26,1.09c-4.29,-0 -6.7,-1.52 -6.7,-7.04c-0,-5.52 1.8,-7.48 6.82,-7.48c2.48,-0 4.12,0.51 4.71,2.3c0.29,0.9 0.36,1.81 0.36,2.76l-3.38,-0c-0.02,-0.47 -0.02,-1.06 -0.29,-1.46c-0.18,-0.37 -0.69,-0.59 -1.71,-0.59c-2.27,-0 -2.77,1.32 -2.77,4.31c-0,2.62 0.64,4.09 3.27,4.09Zm6.34,2.81l-0,-3.04l1.6,-0l-0,-14.62l-1.6,-0l-0,-3.04l5.31,-0l-0,8.27c0.62,-1.18 2.44,-1.8 4.29,-1.8c2.66,-0 3.53,0.67 3.93,1.74c0.28,0.73 0.28,1.74 0.28,2.8l-0,5.92c-0,0.56 0.19,0.78 0.67,0.78c0.36,-0 0.8,-0.05 1.07,-0.1l0.17,3.04c-0.47,0.11 -1.58,0.27 -2.35,0.27c-1.17,-0 -2.11,-0.21 -2.64,-0.67c-0.47,-0.46 -0.63,-1.23 -0.63,-2.3l-0,-6.19c-0,-0.48 -0.03,-1.06 -0.14,-1.4c-0.22,-0.57 -0.83,-0.77 -1.83,-0.77c-1,-0 -1.74,0.33 -2.04,0.48c-0.2,0.11 -0.49,0.29 -0.64,0.57c-0.07,0.21 -0.14,0.39 -0.14,0.95l-0,6.07l1.61,-0l-0,3.04l-6.92,0Zm22.51,0.29c-2.572,-0.002 -3.391,-0.711 -3.86,-1.75c-0.31,-0.67 -0.33,-1.85 -0.33,-2.86l-0,-6.53l-1.64,0l-0,-3.04l5.35,0l-0,8.94c-0,0.46 0.02,1.07 0.13,1.36c0.22,0.61 0.86,0.83 1.85,0.83c0.99,0 1.72,-0.33 1.99,-0.5c0.2,-0.1 0.51,-0.28 0.64,-0.56c0.11,-0.2 0.15,-0.39 0.15,-0.91l-0,-6.12l-1.65,0l-0,-3.04l5.36,0l-0,9.92c-0,0.71 0.29,0.98 0.8,0.98c0.26,0 0.73,-0.05 1,-0.05l0.2,2.93c-0.6,0.17 -1.64,0.29 -2.77,0.29c-2.13,0 -2.43,-1.08 -2.57,-1.97c-0.549,1.428 -2.424,2.078 -4.64,2.08l-0.01,-0Zm12.01,-0.29l-0,-3.04l1.6,0l-0,-14.62l-1.6,0l-0,-3.04l5.31,0l-0,17.66l1.6,0l-0,3.04l-6.91,0Zm15.94,-2.69c2.2,0 3.68,-0.46 4.48,-0.84l0.83,2.68c-1.38,0.75 -3.62,1.14 -5.95,1.14c-5.12,0 -6.59,-2.29 -6.59,-7.2c-0,-5.35 2,-7.32 6.64,-7.32c5.23,0 5.88,2.37 5.88,6.53c-0,0.41 -0.04,1.29 -0.09,1.83l-8.66,0c0.14,2.51 1.13,3.18 3.46,3.18Zm1.82,-5.9c0.02,-0.12 0.02,-0.39 0.02,-0.51c-0,-1.69 -0.42,-2.48 -2.49,-2.48c-2.07,-0 -2.71,0.92 -2.77,2.99l5.24,-0Zm-147.11,41.81l-0,-3.07l1.7,-0l-0,-13.39l-1.7,-0l-0,-3.08l13.68,-0l-0,5.27l-2.89,-0l-0.11,-2.19l-5.12,-0l-0,5.18l5.52,-0l-0,3.12l-5.52,-0l-0,5.1l2.18,-0l-0,3.07l-7.75,-0l0.01,-0.01Zm14.85,-0l-0,-3.05l1.62,-0l-0,-14.61l-1.62,-0l-0,-3.05l5.32,-0l-0,17.67l1.59,-0l-0,3.05l-6.92,-0l0.01,-0.01Zm15.97,-2.69c2.194,-0.001 3.661,-0.471 4.46,-0.83l0.83,2.65c-1.38,0.78 -3.62,1.17 -5.95,1.17c-5.12,-0 -6.59,-2.31 -6.59,-7.2c-0,-5.37 2,-7.33 6.64,-7.33c5.24,-0 5.89,2.37 5.89,6.53c-0,0.4 -0.04,1.27 -0.09,1.82l-8.66,-0c0.14,2.516 1.127,3.188 3.46,3.19l0.01,-0Zm1.8,-5.89c0.03,-0.13 0.03,-0.39 0.03,-0.52c-0,-1.69 -0.43,-2.5 -2.5,-2.5c-2.07,-0 -2.71,0.94 -2.76,3.02l5.23,-0Zm26.83,2.87c-2.38,-0.33 -3.56,-1.42 -3.56,-4.09c-0,-2.67 1.74,-4.42 5.84,-4.42c2.27,-0 4.58,0.33 5.36,2.02c0.28,0.54 0.47,1.52 0.47,2.67l-3.32,0.11c-0,-0.4 -0.02,-0.85 -0.3,-1.26c-0.22,-0.39 -0.83,-0.65 -2.21,-0.65c-1.77,-0 -2.24,0.54 -2.24,1.4c-0,0.79 0.24,1.07 1.71,1.29l2.91,0.44c2.76,0.41 3.65,1.58 3.65,4.16c-0,2.58 -1.61,4.35 -6.17,4.35c-2.54,-0 -5.15,-0.4 -5.86,-2.75c-0.17,-0.51 -0.27,-1.31 -0.31,-2.02l3.26,-0.11c0.04,0.48 0.17,0.98 0.37,1.22c0.35,0.51 0.99,0.75 2.68,0.75c1.94,-0 2.38,-0.58 2.38,-1.43c-0,-0.61 -0.22,-1 -1.58,-1.22l-3.08,-0.45l-0,-0.01Zm14.47,5.73l-3.15,-0l-0,-17.68l-1.58,-0l-0,-3.05l5.29,-0l-0,8.31c0.71,-1.22 2.22,-1.82 4.37,-1.82c3.57,-0 5.11,1.87 5.11,6.98c-0,6.27 -1.96,7.55 -6.25,7.55c-1.82,-0 -3.33,-0.73 -3.71,-1.67l-0.08,1.38Zm0.56,-4.73c-0,0.68 0.14,1.08 0.38,1.35c0.25,0.31 0.95,0.73 2.13,0.73c2.75,-0 3.24,-1.23 3.24,-4.44c-0,-2.85 -0.36,-4.16 -2.82,-4.16c-1.6,-0 -2.62,0.43 -2.85,1.36c-0.06,0.22 -0.09,0.66 -0.09,0.87l-0,4.28l0.01,0.01Zm17.3,5.02c-2.58,-0 -3.4,-0.73 -3.88,-1.77c-0.29,-0.66 -0.33,-1.83 -0.33,-2.85l-0,-6.53l-1.63,-0l-0,-3.05l5.34,-0l-0,8.94c-0,0.46 0.03,1.08 0.15,1.37c0.22,0.59 0.85,0.8 1.85,0.8c1,-0 1.71,-0.32 1.99,-0.49c0.2,-0.09 0.49,-0.27 0.64,-0.55c0.11,-0.21 0.16,-0.39 0.16,-0.92l-0,-6.11l-1.66,-0l-0,-3.05l5.37,-0l-0,9.93c-0,0.72 0.28,0.98 0.8,0.98c0.25,-0 0.73,-0.03 1,-0.06l0.2,2.93c-0.62,0.17 -1.64,0.31 -2.77,0.31c-2.13,-0 -2.44,-1.11 -2.58,-1.97c-0.55,1.42 -2.43,2.09 -4.65,2.09Zm11.77,-0.31l-0,-3.05l1.58,-0l-0,-7.06c-0,-0.5 -0.14,-0.8 -0.7,-0.8c-0.22,-0 -0.6,-0 -0.88,0.06l-0.19,-3c0.58,-0.11 2.07,-0.22 2.65,-0.22c2.24,-0 2.64,0.81 2.69,2.02c0.31,-1.44 1.77,-2.22 3.35,-2.22c0.89,-0 1.53,0.15 1.86,0.28l-0.59,3.3c-0.55,-0.15 -1.36,-0.27 -2.13,-0.27c-0.88,-0 -1.49,0.24 -1.83,0.51c-0.16,0.11 -0.3,0.31 -0.41,0.53c-0.05,0.14 -0.11,0.53 -0.11,0.81l-0,6.06l2.16,-0l-0,3.05l-7.45,-0Zm11.33,-9.21c-0,-3.6 2.2,-5.01 5.98,-5.01c1.08,-0 2.3,0.13 3.13,0.63c0.19,-0.79 0.86,-1.52 2.33,-1.52c0.58,-0 1.16,0.05 1.67,0.12l-0.28,3.16c-0.38,-0.06 -0.78,-0.08 -1.11,-0.08c-0.55,-0 -0.69,0.19 -0.69,0.46c-0,0.15 0.08,0.33 0.17,0.6c0.18,0.46 0.27,0.98 0.27,1.52c-0,2.93 -1.47,4.9 -5.67,4.9c-1.13,-0 -1.47,-0.15 -1.91,-0.15c-0.25,-0 -0.44,0.06 -0.55,0.17c-0.2,0.22 -0.24,0.49 -0.24,0.89c-0,0.58 0.36,0.67 0.74,0.74c0.35,0.06 1.35,0.09 3.24,0.09c4.73,0.02 5.84,0.86 5.84,4.6c-0,3.04 -1.55,4.95 -7.09,4.95c-5.54,-0 -6.42,-1.94 -6.42,-4.26c-0,-0.47 0.14,-1.11 0.25,-1.5l3.51,0.14c-0.07,0.33 -0.13,0.75 -0.13,1.13c-0,0.97 0.61,1.61 2.93,1.61c2.86,-0 3.24,-0.75 3.24,-1.88c-0,-1.13 -0.38,-1.39 -2,-1.46c-1.69,-0.11 -4.29,-0.11 -5.47,-0.33c-1.28,-0.25 -1.86,-1.19 -1.86,-2.82c-0,-1.47 0.5,-2.55 1.67,-3.03c-1.09,-0.67 -1.53,-1.86 -1.53,-3.67l-0.02,-0Zm5.81,-2.36c-1.44,-0 -2.4,0.52 -2.4,2.25c-0,1.97 0.94,2.32 2.35,2.32c1.41,-0 2.39,-0.52 2.39,-2.31c-0,-1.79 -0.84,-2.26 -2.33,-2.26l-0.01,-0Zm-105.9,27.32l-0,9.68c-0,2.8 -0.1,4.29 -0.78,5.51c-1.01,1.78 -3.26,2.58 -6.53,2.58c-2.92,0 -5.4,-0.49 -6.46,-2.76c-0.56,-1.22 -0.62,-3.11 -0.62,-5.26l-0,-9.75l-1.81,0l-0,-2.07l6.19,0l-0,2.07l-1.87,0l-0,10.53c-0,1.58 0.11,2.86 0.57,3.62c0.67,1.03 2.02,1.47 4.1,1.47c1.43,0 3.43,-0.16 4.17,-1.42c0.5,-0.76 0.64,-1.91 0.64,-3.65l-0,-10.55l-1.93,0l-0,-2.07l6.02,0l-0,2.07l-1.69,0Zm3.04,17.46l-0,-2.05l1.77,-0l-0,-8.66c-0,-0.67 -0.1,-1.16 -0.8,-1.16c-0.3,-0 -0.68,-0 -0.99,0.05l-0.14,-1.98c0.51,-0.09 1.45,-0.18 1.91,-0.18c1.91,-0 2.26,0.73 2.3,2.02c0.52,-1.61 2.93,-2.18 4.78,-2.18c2.58,-0 3.41,0.68 3.79,1.76c0.26,0.71 0.26,1.73 0.26,2.8l-0,6.69c-0,0.66 0.22,0.95 0.83,0.95c0.44,-0 0.91,-0.02 1.14,-0.07l0.13,2.01c-0.35,0.08 -1.24,0.19 -1.82,0.19c-1.02,-0 -1.74,-0.19 -2.13,-0.63c-0.36,-0.43 -0.5,-1.08 -0.5,-1.97l-0,-6.86c-0,-0.69 -0.06,-1.44 -0.19,-1.8c-0.27,-0.66 -0.98,-0.93 -2.39,-0.93c-1.63,-0 -2.76,0.58 -3.12,0.82c-0.2,0.17 -0.48,0.42 -0.55,0.71c-0.1,0.22 -0.15,0.45 -0.15,0.98l-0,7.44l1.84,-0l-0,2.05l-5.97,0Zm17.33,0l-0,-2.05l1.78,0l-0,-9.71l-1.78,0l-0,-2.04l4.13,0l-0,11.75l1.85,0l-0,2.05l-5.98,0Zm2.77,-16.69c-0.85,0 -1.53,-0.36 -1.53,-1.58c-0,-1.13 0.62,-1.6 1.53,-1.6c0.91,0 1.52,0.35 1.52,1.58c-0,1.16 -0.58,1.6 -1.52,1.6Zm7.8,4.93c2.28,5.84 2.86,7.42 3.43,9.15c0.69,-1.76 1.36,-3.44 3.65,-9.15l-1.98,-0l-0,-2.04l5.84,-0l-0,2.04l-1.5,-0l-4.93,11.82l-2.27,-0l-4.78,-11.82l-1.5,-0l-0,-2.04l5.93,-0l-0,2.04l-1.89,-0Zm18.83,10.05c2.35,-0 3.68,-0.55 4.51,-1l0.67,1.78c-1.44,0.87 -3.19,1.24 -5.57,1.24c-4.92,-0 -6.29,-2.36 -6.29,-7.17c-0,-5.4 2.02,-7.27 6.37,-7.27c4.62,-0 5.48,2.09 5.48,5.73c-0,0.58 -0.03,1.49 -0.08,2.13l-9.35,-0c0.09,3.42 1.13,4.55 4.26,4.55l-0,0.01Zm2.91,-6.53c0.03,-0.16 0.03,-0.58 0.03,-0.78c-0,-2.07 -0.53,-3.29 -3.35,-3.29c-2.82,-0 -3.74,1.35 -3.82,4.07l7.14,-0Zm5.03,8.24l-0,-2.05l1.78,-0l-0,-8.74c-0,-0.61 -0.11,-1.08 -0.89,-1.08c-0.22,-0 -0.6,-0 -0.91,0.05l-0.14,-1.98c0.44,-0.09 1.6,-0.18 2,-0.18c1.82,-0 2.18,0.78 2.2,2.11c0.33,-1.6 1.91,-2.33 3.6,-2.33c0.86,-0 1.44,0.18 1.72,0.29l-0.44,2.29c-0.51,-0.16 -1.25,-0.27 -1.95,-0.27c-1.1,-0 -1.87,0.4 -2.26,0.8c-0.16,0.13 -0.34,0.38 -0.45,0.62c-0.08,0.2 -0.13,0.64 -0.13,0.98l-0,7.44l2.44,-0l-0,2.05l-6.57,0Zm14.6,-6.13c-2.13,-0.35 -3.2,-1.53 -3.2,-3.8c-0,-2.85 1.76,-4.2 5.53,-4.2c2.16,0 4.02,0.38 4.67,1.91c0.28,0.58 0.37,1.38 0.37,2.26l-2.19,0.09c-0,-0.44 -0.05,-0.89 -0.3,-1.36c-0.25,-0.55 -0.97,-0.95 -2.61,-0.95c-2.57,0 -3.15,0.8 -3.15,2.11c-0,1.31 0.44,1.6 2.39,1.94l2.66,0.44c2.52,0.42 3.49,1.47 3.49,3.84c-0,2.66 -1.52,4.16 -5.73,4.16c-2.76,0 -4.71,-0.58 -5.33,-2.51c-0.18,-0.53 -0.26,-1.2 -0.29,-1.78l2.2,-0.11c0.02,0.47 0.13,1 0.35,1.36c0.36,0.64 1.22,1.05 3.2,1.05c2.69,0 3.24,-0.92 3.24,-2.09c-0,-0.86 -0.22,-1.42 -2.21,-1.83l-3.08,-0.52l-0.01,-0.01Zm10.4,6.13l-0,-2.05l1.76,0l-0,-9.71l-1.76,0l-0,-2.04l4.11,0l-0,11.75l1.86,0l-0,2.05l-5.97,0Zm2.76,-16.69c-0.85,0 -1.51,-0.36 -1.51,-1.58c-0,-1.13 0.6,-1.6 1.51,-1.6c0.91,0 1.53,0.35 1.53,1.58c-0,1.16 -0.58,1.6 -1.53,1.6Zm10.68,16.96c-1.38,-0 -2.38,-0.44 -2.82,-1.07c-0.47,-0.69 -0.66,-1.6 -0.66,-3.08l-0,-7.87l-1.96,-0l-0,-2.04l2.02,-0l0.11,-3.8l2.21,-0l-0,3.8l3.19,-0l-0,2.04l-3.19,-0l-0,7.4c-0,0.92 0.11,1.65 0.33,1.98c0.22,0.31 0.66,0.51 1.42,0.51c0.71,-0 1.44,-0.09 1.91,-0.25l0.31,1.96c-0.67,0.25 -1.62,0.43 -2.86,0.43l-0.01,-0.01Zm16.94,-12.03l-5.6,13.6c-0.36,0.91 -0.71,1.76 -1.24,2.73c-0.78,1.53 -1.91,2.35 -3.84,2.35c-1,-0 -2.02,-0.16 -2.42,-0.33l0.42,-2c0.5,0.15 1.13,0.26 1.78,0.26c0.89,-0 1.51,-0.33 1.96,-1.1c0.4,-0.65 0.75,-1.45 1.4,-3.09l0.29,-0.72l-4.75,-11.71l-1.49,-0l-0,-2.04l5.91,-0l-0,2.04l-1.87,-0c2.2,5.78 2.89,7.44 3.48,9.2c0.62,-1.73 1.29,-3.6 3.54,-9.2l-1.94,-0l-0,-2.04l5.84,-0l-0,2.04l-1.47,-0l-0,0.01Zm15.39,12.07c-4.22,0 -6.29,-1.36 -6.29,-7.24c-0,-5.88 2.85,-7.2 6.47,-7.2c3.97,0 6.26,1.06 6.26,7.1c-0,6.04 -2.11,7.34 -6.44,7.34Zm0.13,-12.42c-2.66,0 -4.04,1.04 -4.04,5.11c-0,4.35 1.22,5.28 3.98,5.28c2.76,0 4,-0.78 4,-5.17c-0,-4.16 -1.14,-5.22 -3.93,-5.22l-0.01,0Zm9.2,12.11l-0,-2.05l1.76,0l-0,-9.71l-1.98,0l-0,-2.04l1.98,0l-0,-2.22c-0,-2.07 0.4,-3.22 1.17,-3.91c0.82,-0.78 1.93,-1.02 3.45,-1.02c1.17,0 2.13,0.13 2.88,0.42l-0.49,2.02c-0.65,-0.19 -1.47,-0.35 -2.33,-0.35c-0.94,0 -1.58,0.27 -1.92,0.77c-0.3,0.44 -0.41,1.1 -0.41,2.32l-0,1.97l3.13,0l-0,2.04l-3.13,0l-0,9.71l2.42,0l-0,2.05l-6.53,0Zm-153.74,33.23l-0,-2.09l1.43,-0l6.53,-17.5l2.52,-0l6.36,17.5l1.48,-0l-0,2.09l-6.21,-0l-0,-2.09l2.15,-0l-1.6,-4.44l-7.03,-0l-1.6,4.44l2.25,-0l-0,2.09l-6.28,-0Zm12,-8.53c-1.7,-4.84 -2.36,-6.86 -2.82,-8.39c-0.41,1.43 -1.13,3.49 -2.92,8.39l5.74,0Zm7.58,15.28l-0,-2.04l1.76,0l-0,-15.39c-0,-0.69 -0.11,-1.21 -0.8,-1.21c-0.28,0 -0.69,0 -1,0.07l-0.13,-2c0.52,-0.09 1.43,-0.15 1.91,-0.15c1.91,0 2.27,0.71 2.29,2.02c0.6,-1.53 2.55,-2.19 4.7,-2.19c3.69,0 5.27,1.89 5.27,6.95c-0,6.14 -1.96,7.46 -6.21,7.46c-1.65,0 -3.12,-0.57 -3.67,-1.47l-0,5.91l2.43,0l-0,2.04l-6.55,0Zm4.12,-11.28c0.001,0.823 0.111,1.252 0.35,1.64c0.28,0.44 1.31,1.18 3.03,1.18c3.54,0 4.1,-1.57 4.1,-5.33c-0,-3.22 -0.42,-5.06 -3.66,-5.06c-1.91,0 -3.41,0.53 -3.71,1.87c-0.05,0.19 -0.11,0.62 -0.11,0.89l-0,4.8c0,0.002 0,0.008 0,0.01Zm12.4,11.28l-0,-2.04l1.77,0l-0,-15.39c-0,-0.69 -0.11,-1.21 -0.8,-1.21c-0.28,0 -0.7,0 -1,0.07l-0.14,-2c0.53,-0.09 1.43,-0.15 1.91,-0.15c1.91,0 2.27,0.71 2.29,2.02c0.61,-1.53 2.56,-2.19 4.71,-2.19c3.68,0 5.26,1.89 5.26,6.95c-0,6.14 -1.96,7.46 -6.2,7.46c-1.65,0 -3.12,-0.57 -3.68,-1.47l-0,5.91l2.43,0l-0,2.04l-6.55,0Zm4.12,-11.28c0.001,0.823 0.111,1.252 0.35,1.64c0.28,0.44 1.3,1.18 3.03,1.18c3.54,0 4.1,-1.57 4.1,-5.33c-0,-3.22 -0.43,-5.06 -3.66,-5.06c-1.91,0 -3.41,0.53 -3.71,1.87c-0.05,0.19 -0.11,0.62 -0.11,0.89l-0,4.8c0,0.002 0,0.008 0,0.01Zm12.43,4.53l-0,-2.04l1.76,0l-0,-16.61l-1.8,0l-0,-2.04l4.19,0l-0,18.66l1.82,0l-0,2.04l-5.98,0l0.01,-0.01Zm8.95,0.01l-0,-2.05l1.78,0l-0,-9.73l-1.78,0l-0,-2.04l4.13,0l-0,11.78l1.85,0l-0,2.04l-5.98,0Zm2.77,-16.7c-0.86,0 -1.53,-0.36 -1.53,-1.58c-0,-1.14 0.61,-1.6 1.53,-1.6c0.92,0 1.52,0.35 1.52,1.58c-0,1.23 -0.58,1.6 -1.52,1.6Zm12.2,14.98c2.34,0 3.68,-0.55 4.52,-1l0.66,1.76c-1.44,0.86 -3.19,1.26 -5.56,1.26c-4.93,0 -6.29,-2.35 -6.29,-7.17c-0,-5.4 2.02,-7.29 6.37,-7.29c4.62,0 5.48,2.11 5.48,5.73c-0,0.58 -0.03,1.49 -0.08,2.13l-9.35,0c0.07,3.43 1.13,4.58 4.25,4.58Zm2.9,-6.54c0.04,-0.17 0.04,-0.59 0.04,-0.77c-0,-2.09 -0.53,-3.31 -3.35,-3.31c-2.82,0 -3.74,1.35 -3.82,4.08l7.13,0Zm10.64,8.56c-3.88,0 -5.75,-1.77 -5.75,-6.91c-0,-5.88 2.13,-7.55 6.39,-7.55c1.8,0 2.99,0.5 3.45,1.42l-0,-5.93l-1.82,0l-0,-2.04l4.21,0l-0,17.37c-0,0.89 0.15,1.4 0.95,1.4c0.3,0 0.71,-0.05 1,-0.07l0.18,1.98c-0.47,0.11 -1.18,0.17 -1.76,0.17c-1.89,0 -2.38,-0.69 -2.49,-1.87c-0.75,1.51 -2.43,2.02 -4.34,2.02l-0.02,0.01Zm4.09,-9.61c-0,-0.38 -0.03,-0.89 -0.11,-1.18c-0.3,-1.07 -1.22,-1.62 -3.15,-1.62c-3.27,0 -4.21,1.54 -4.21,5.37c-0,3.51 1.18,5.02 3.9,5.02c2.29,0 3.21,-0.89 3.45,-1.86c0.11,-0.38 0.11,-0.82 0.11,-1.47l-0,-4.26l0.01,0Zm15.04,3.83c0.02,0.96 0.2,1.74 0.45,2.18c0.42,0.73 1.6,1.46 4.09,1.46c4.13,0 4.68,-1.51 4.68,-3.38c-0,-1.66 -0.42,-2.53 -3.55,-3.16l-3.34,-0.71c-2.83,-0.58 -4.08,-2.13 -4.08,-5.11c-0,-3.55 1.86,-5.68 6.95,-5.68c3.46,0 5.26,0.73 5.9,2.44c0.27,0.76 0.33,1.93 0.33,2.67l-2.35,0c-0.04,-0.51 -0.11,-1.36 -0.33,-1.73c-0.36,-0.62 -1.08,-1.25 -3.6,-1.25c-3.33,0 -4.37,1.29 -4.37,3.31c-0,1.75 0.58,2.6 3.15,3.15l3.32,0.69c3.49,0.71 4.55,2 4.55,5.11c-0,3.75 -1.49,5.77 -7.39,5.77c-3.58,0 -5.53,-0.95 -6.29,-2.55c-0.41,-0.91 -0.49,-2.11 -0.49,-3.22l2.37,0l0,0.01Zm20.95,3.67c2.08,0 3.33,-0.53 4.18,-0.98l0.7,1.89c-1.11,0.71 -2.91,1.2 -4.96,1.2c-4.19,0 -6.35,-1.53 -6.35,-7.06c0,-5.53 1.87,-7.39 6.53,-7.39c2.55,0 3.93,0.57 4.4,2.22c0.22,0.73 0.26,1.51 0.26,2.21l-2.24,0c0,-0.48 -0.04,-1.1 -0.29,-1.58c-0.25,-0.5 -0.85,-0.82 -2.35,-0.82c-3.43,0 -3.93,2 -3.93,5.26c0,2.73 0.41,5.06 4.04,5.06l0.01,-0.01Zm7.41,1.81l0,-2.05l1.77,0l0,-9.73l-1.77,0l0,-2.04l4.13,0l0,11.78l1.85,0l0,2.04l-5.98,0Zm2.77,-16.7c-0.86,0 -1.53,-0.36 -1.53,-1.58c0,-1.14 0.62,-1.6 1.53,-1.6c0.91,0 1.52,0.35 1.52,1.58c0,1.23 -0.58,1.6 -1.52,1.6Zm12.2,14.98c2.36,0 3.68,-0.55 4.51,-1l0.66,1.76c-1.43,0.86 -3.18,1.26 -5.55,1.26c-4.94,0 -6.29,-2.35 -6.29,-7.17c0,-5.4 2.02,-7.29 6.37,-7.29c4.62,0 5.47,2.11 5.47,5.73c0,0.58 -0.02,1.49 -0.07,2.13l-9.36,0c0.09,3.43 1.13,4.58 4.26,4.58Zm2.91,-6.54c0.03,-0.17 0.03,-0.59 0.03,-0.77c0,-2.09 -0.52,-3.31 -3.34,-3.31c-2.82,0 -3.75,1.35 -3.82,4.08l7.13,0Zm5.04,8.25l0,-2.04l1.78,0l0,-8.66c0,-0.67 -0.11,-1.18 -0.8,-1.18c-0.3,0 -0.7,0 -1,0.07l-0.15,-2c0.53,-0.09 1.44,-0.15 1.91,-0.15c1.91,0 2.28,0.71 2.31,2.02c0.53,-1.62 2.93,-2.19 4.78,-2.19c2.58,0 3.41,0.68 3.8,1.78c0.25,0.68 0.25,1.71 0.25,2.8l0,6.66c0,0.67 0.22,0.98 0.84,0.98c0.45,0 0.91,-0.05 1.13,-0.09l0.14,2.02c-0.36,0.09 -1.25,0.2 -1.83,0.2c-1.02,0 -1.75,-0.2 -2.13,-0.65c-0.35,-0.44 -0.5,-1.09 -0.5,-1.97l0,-6.87c0,-0.69 -0.05,-1.42 -0.18,-1.8c-0.29,-0.66 -0.97,-0.93 -2.38,-0.93c-1.64,0 -2.77,0.58 -3.13,0.82c-0.2,0.18 -0.47,0.42 -0.55,0.73c-0.08,0.22 -0.14,0.44 -0.14,0.96l0,7.46l1.83,0l0,2.04l-5.96,0l-0.02,-0.01Zm23.64,-1.8c2.08,0 3.33,-0.53 4.18,-0.98l0.69,1.89c-1.1,0.71 -2.9,1.2 -4.95,1.2c-4.17,0 -6.33,-1.53 -6.33,-7.06c0,-5.53 1.85,-7.39 6.53,-7.39c2.55,0 3.93,0.57 4.4,2.22c0.22,0.73 0.25,1.51 0.25,2.21l-2.24,0c0,-0.48 -0.03,-1.1 -0.28,-1.58c-0.25,-0.5 -0.86,-0.82 -2.35,-0.82c-3.43,0 -3.93,2 -3.93,5.26c0,2.73 0.42,5.06 4.04,5.06l-0.01,-0.01Zm13.34,0.09c2.35,0 3.68,-0.55 4.51,-1l0.66,1.76c-1.44,0.86 -3.19,1.26 -5.57,1.26c-4.92,0 -6.28,-2.35 -6.28,-7.17c0,-5.4 2.02,-7.29 6.37,-7.29c4.62,0 5.48,2.11 5.48,5.73c0,0.58 -0.02,1.49 -0.08,2.13l-9.36,0c0.09,3.43 1.14,4.58 4.26,4.58l0.01,0Zm2.91,-6.54c0.03,-0.17 0.03,-0.59 0.03,-0.77c0,-2.09 -0.52,-3.31 -3.35,-3.31c-2.83,0 -3.74,1.35 -3.82,4.08l7.14,0Zm8.27,2.09c-2.13,-0.36 -3.21,-1.51 -3.21,-3.79c0,-2.85 1.77,-4.21 5.53,-4.21c2.16,0 4.01,0.39 4.68,1.91c0.28,0.57 0.36,1.37 0.36,2.26l-2.19,0.09c0,-0.44 -0.05,-0.88 -0.3,-1.35c-0.25,-0.56 -0.97,-0.93 -2.6,-0.93c-2.57,0 -3.16,0.8 -3.16,2.08c0,1.28 0.44,1.62 2.38,1.95l2.65,0.44c2.52,0.42 3.49,1.47 3.49,3.86c0,2.64 -1.52,4.15 -5.73,4.15c-2.77,0 -4.71,-0.6 -5.34,-2.53c-0.17,-0.53 -0.25,-1.18 -0.28,-1.78l2.19,-0.11c0.03,0.49 0.14,1 0.36,1.36c0.36,0.64 1.22,1.06 3.21,1.06c2.68,0 3.24,-0.91 3.24,-2.11c0,-0.86 -0.22,-1.4 -2.21,-1.83l-3.08,-0.53l0.01,0.01Z" style="fill:#3a3a39;"/>
    <path d="M83.44,125.15l0,55.63l-27.8,0l0,-55.63l27.8,0Zm34.76,-13.91l0,27.83l-27.78,-0l0,-27.83l27.78,-0Zm34.77,-0l0,41.72l-27.8,-0l0,-41.72l27.8,-0Z" style="fill:#282c87;"/>
    <path d="M83.44,111.24l0,13.91l-27.8,-0l0,-13.91l27.8,-0Zm0,69.54l0,13.89l-27.8,0l0,-13.89l27.8,-0Zm69.53,-83.43l0,13.89l-27.8,-0l0,-13.89l27.8,-0Zm0,55.61l0,13.9l-27.8,-0l0,-13.9l27.8,-0Z" style="fill:#6a3c90;"/>
    <path d="M83.44,97.35l0,13.89l-27.8,-0l0,-13.89l27.8,-0Zm34.76,-0l0,13.89l-27.78,-0l0,-13.89l27.78,-0Z" style="fill:#a25294;"/>
    <path d="M83.44,194.67l0,13.91l-27.8,-0l0,-13.91l27.8,-0Zm34.76,-111.22l0,13.89l-27.78,-0l0,-13.89l27.78,-0Zm34.77,-55.63l0,13.92l-27.8,-0l0,-13.92l27.8,-0Z" style="fill:#a9ddf8;"/>
    <path d="M83.44,69.52l0,27.83l-27.8,0l0,-27.83l27.8,0Zm69.53,0l0,13.94l-27.8,0l0,-13.94l27.8,0Z" style="fill:#ec6500;"/>
    <path d="M83.44,55.62l0,13.89l-27.8,-0l0,-13.89l27.8,-0Zm69.53,27.83l0,13.89l-27.8,0l0,-13.89l27.8,0Zm0,-41.71l0,13.89l-27.8,0l0,-13.89l27.8,0Z" style="fill:#d35177;"/>
    <rect x="125.17" y="55.62" width="27.8" height="13.89" style="fill:#e3000b;"/>
</svg>
