<svg width="100%" height="100%" viewBox="0 0 263 134" version="1.1" xmlns="http://www.w3.org/2000/svg" xmlns:xlink="http://www.w3.org/1999/xlink" xml:space="preserve" style="fill-rule:evenodd;clip-rule:evenodd;stroke-linejoin:round;stroke-miterlimit:2;">
    <path d="M220.837,28.536c6.956,-0 13.477,1.858 19.106,5.092c0.738,-2.41 1.14,-4.967 1.14,-7.618c-0,-14.346 -11.63,-25.98 -25.979,-25.98c-14.348,0 -25.985,11.634 -25.985,25.98c0,5.22 1.546,10.076 4.196,14.148c6.98,-7.166 16.729,-11.622 27.522,-11.622" style="fill:#fedd01;fill-rule:nonzero;"/>
    <path d="M182.412,66.961c-0,-19.849 15.05,-36.18 34.361,-38.21c-6.218,-10.114 -17.369,-16.871 -30.115,-16.871c-19.52,-0 -35.351,15.823 -35.351,35.346c0,19.204 15.326,34.821 34.41,35.321c-2.119,-4.765 -3.305,-10.035 -3.305,-15.586" style="fill:#c92026;fill-rule:nonzero;"/>
    <path d="M22.084,108.664c-9.731,-0 -15.94,-2.647 -21.964,-8.576l3.521,-3.467c5.931,5.838 10.843,7.662 18.72,7.662c10.472,-0 16.96,-4.925 16.96,-13.409c-0,-3.924 -1.112,-7.025 -3.613,-9.122c-2.504,-1.916 -4.079,-2.738 -9.547,-3.467l-7.692,-1.185c-5.004,-0.73 -8.897,-2.281 -11.769,-4.743c-3.43,-2.828 -5.189,-6.844 -5.189,-11.952c-0,-10.947 7.784,-17.788 20.479,-17.788c8.155,0 13.346,2.189 18.999,7.024l-3.243,3.192c-3.894,-3.648 -8.249,-6.021 -16.033,-6.021c-9.639,0 -15.292,5.109 -15.292,13.411c0,3.739 1.113,6.568 3.43,8.483c2.316,1.916 6.117,3.375 9.822,4.014l7.138,1.096c6.208,0.82 9.081,2.006 11.769,4.285c3.613,2.921 5.745,7.391 5.745,12.59c0,11.038 -8.433,17.973 -22.241,17.973Zm57.703,-6.205c-3.984,5.109 -8.154,6.204 -13.25,6.204c-4.726,0 -8.619,-1.552 -10.937,-3.831c-4.541,-4.47 -5.745,-11.768 -5.745,-18.701c-0,-6.933 1.204,-14.232 5.745,-18.701c2.318,-2.281 6.211,-3.832 10.937,-3.832c5.096,-0 9.266,1.095 13.25,6.205l0,-26.639l4.727,0l-0,64.951l-4.727,0l0,-5.656Zm-12.602,-34.756c-10.937,-0 -12.604,9.305 -12.604,18.428c0,9.121 1.667,18.427 12.604,18.427c10.935,0 12.602,-9.306 12.602,-18.427c0,-9.123 -1.667,-18.428 -12.602,-18.428Zm48.927,40.961c-13.252,-0 -22.612,-8.941 -22.612,-21.622l0,-43.879l5.005,0l-0,43.241c-0,10.765 6.949,17.879 17.607,17.879c10.658,-0 17.608,-7.114 17.608,-17.879l-0,-43.241l5.004,0l0,43.879c0,12.681 -9.36,21.622 -22.612,21.622Zm-112.477,21.313c-1.681,-0 -2.781,-0.425 -3.833,-1.476l0.817,-0.819c0.927,0.928 1.791,1.226 3.048,1.226c1.633,-0 2.64,-0.771 2.64,-2.075c-0,-0.579 -0.173,-1.083 -0.535,-1.397c-0.362,-0.314 -0.644,-0.408 -1.461,-0.534l-1.304,-0.205c-0.88,-0.141 -1.572,-0.424 -2.058,-0.848c-0.567,-0.503 -0.849,-1.194 -0.849,-2.09c0,-1.901 1.366,-3.159 3.582,-3.159c1.43,0 2.373,0.362 3.331,1.226l-0.769,0.771c-0.692,-0.63 -1.431,-0.959 -2.609,-0.959c-1.492,0 -2.357,0.832 -2.357,2.076c-0,0.548 0.157,0.987 0.503,1.286c0.346,0.298 0.928,0.518 1.508,0.614l1.225,0.189c1.055,0.157 1.572,0.377 2.043,0.784c0.613,0.52 0.943,1.289 0.943,2.216c0,1.964 -1.54,3.174 -3.865,3.174Zm7.684,1.776c-0.157,0.425 -0.329,0.706 -0.549,0.911c-0.41,0.393 -0.959,0.535 -1.51,0.535l-0.487,0l0,-1.006l0.346,-0c0.786,-0 1.022,-0.253 1.274,-0.96l0.549,-1.506l-2.781,-7.576l1.225,-0l2.121,6.208l2.106,-6.208l1.226,-0l-3.52,9.602Zm9.334,-1.87l-0,-0.927c-0.628,0.817 -1.351,1.021 -2.2,1.021c-0.785,0 -1.477,-0.268 -1.885,-0.677c-0.785,-0.784 -0.942,-2.072 -0.942,-3.282c0,-1.211 0.157,-2.5 0.942,-3.284c0.408,-0.409 1.1,-0.676 1.885,-0.676c0.849,-0 1.557,0.189 2.185,0.989l0,-4.351l1.131,-0l0,11.187l-1.116,0Zm-1.947,-6.82c-1.682,0 -1.949,1.446 -1.949,2.955c-0,1.508 0.267,2.953 1.949,2.953c1.681,0 1.932,-1.445 1.932,-2.953c0,-1.509 -0.251,-2.955 -1.932,-2.955Zm7.935,6.914c-1.305,-0 -2.325,-0.299 -3.174,-1.115l0.753,-0.755c0.614,0.644 1.447,0.895 2.405,0.895c1.273,-0 2.058,-0.455 2.058,-1.366c-0,-0.676 -0.392,-1.053 -1.288,-1.131l-1.273,-0.111c-1.508,-0.124 -2.31,-0.802 -2.31,-2.073c-0,-1.415 1.194,-2.264 2.845,-2.264c1.1,0 2.088,0.268 2.78,0.834l-0.738,0.738c-0.55,-0.425 -1.258,-0.612 -2.058,-0.612c-1.131,0 -1.729,0.486 -1.729,1.271c-0,0.662 0.377,1.055 1.351,1.133l1.242,0.109c1.352,0.126 2.278,0.644 2.278,2.09c0,1.492 -1.273,2.357 -3.142,2.357Zm6.899,-0.094c-1.352,0 -1.964,-0.881 -1.964,-2.06l-0,-9.127l1.13,-0l0,9.081c0,0.754 0.252,1.131 1.038,1.131l0.613,0l-0,0.975l-0.817,0Zm2.653,-3.567c-0,1.697 0.802,2.67 2.279,2.67c0.896,0 1.413,-0.265 2.027,-0.879l0.769,0.675c-0.785,0.788 -1.508,1.195 -2.828,1.195c-2.044,0 -3.378,-1.226 -3.378,-3.96c0,-2.499 1.209,-3.96 3.174,-3.96c1.995,0 3.174,1.446 3.174,3.74l-0,0.519l-5.217,-0Zm3.849,-2.136c-0.298,-0.708 -0.99,-1.163 -1.806,-1.163c-0.817,-0 -1.51,0.455 -1.807,1.163c-0.172,0.423 -0.204,0.659 -0.236,1.286l4.086,-0c-0.031,-0.627 -0.064,-0.863 -0.237,-1.286Zm5.816,5.797c-1.305,-0 -2.326,-0.299 -3.174,-1.115l0.753,-0.755c0.613,0.644 1.446,0.895 2.405,0.895c1.273,-0 2.058,-0.455 2.058,-1.366c-0,-0.676 -0.392,-1.053 -1.288,-1.131l-1.273,-0.111c-1.508,-0.124 -2.311,-0.802 -2.311,-2.073c0,-1.415 1.195,-2.264 2.845,-2.264c1.1,0 2.089,0.268 2.78,0.834l-0.737,0.738c-0.55,-0.425 -1.258,-0.612 -2.058,-0.612c-1.132,0 -1.729,0.486 -1.729,1.271c-0,0.662 0.377,1.055 1.351,1.133l1.242,0.109c1.351,0.126 2.278,0.644 2.278,2.09c-0,1.492 -1.273,2.357 -3.142,2.357Zm7.401,-0.094l-1.005,0l-2.829,-7.732l1.226,0l2.105,6.208l2.12,-6.208l1.226,0l-2.843,7.732Zm4.038,-7.732l1.131,-0l-0,7.732l-1.131,-0l-0,-7.732Zm-0.063,-3.472l1.273,-0l-0,1.273l-1.273,0l0,-1.273Zm6.129,14.755c-1.163,0 -1.807,-0.298 -2.624,-1.039l0.737,-0.72c0.567,0.503 0.96,0.768 1.856,0.768c1.491,0 2.121,-1.051 2.121,-2.373l-0,-1.208c-0.63,0.801 -1.335,1.006 -2.168,1.006c-0.788,-0 -1.462,-0.283 -1.871,-0.692c-0.769,-0.771 -0.943,-1.964 -0.943,-3.222c0,-1.256 0.174,-2.451 0.943,-3.22c0.409,-0.409 1.1,-0.676 1.886,-0.676c0.849,-0 1.539,0.189 2.169,1.005l-0,-0.912l1.115,-0l-0,7.967c-0,1.918 -1.194,3.316 -3.221,3.316Zm0.172,-10.371c-1.681,0 -1.933,1.446 -1.933,2.891c-0,1.446 0.252,2.891 1.933,2.891c1.682,-0 1.918,-1.445 1.918,-2.891c-0,-1.445 -0.236,-2.891 -1.918,-2.891Zm7.92,6.914c-1.304,-0 -2.325,-0.299 -3.174,-1.115l0.754,-0.755c0.613,0.644 1.446,0.895 2.404,0.895c1.273,-0 2.059,-0.455 2.059,-1.366c-0,-0.676 -0.393,-1.053 -1.288,-1.131l-1.273,-0.111c-1.509,-0.124 -2.311,-0.802 -2.311,-2.073c-0,-1.415 1.195,-2.264 2.845,-2.264c1.1,0 2.09,0.268 2.78,0.834l-0.736,0.738c-0.552,-0.425 -1.258,-0.612 -2.06,-0.612c-1.131,0 -1.728,0.486 -1.728,1.271c-0,0.662 0.377,1.055 1.351,1.133l1.242,0.109c1.351,0.126 2.278,0.644 2.278,2.09c0,1.492 -1.272,2.357 -3.143,2.357Zm13.106,-0.094l-0,-0.927c-0.629,0.817 -1.352,1.021 -2.2,1.021c-0.786,0 -1.478,-0.268 -1.887,-0.677c-0.785,-0.784 -0.941,-2.072 -0.941,-3.282c-0,-1.211 0.156,-2.5 0.941,-3.284c0.409,-0.409 1.101,-0.676 1.887,-0.676c0.848,-0 1.555,0.189 2.185,0.989l-0,-4.351l1.13,-0l-0,11.187l-1.115,0Zm-1.949,-6.82c-1.681,0 -1.949,1.446 -1.949,2.955c0,1.508 0.268,2.953 1.949,2.953c1.681,0 1.934,-1.445 1.934,-2.953c-0,-1.509 -0.253,-2.955 -1.934,-2.955Zm9.886,6.821l-0,-0.74c-0.63,0.628 -1.196,0.833 -2.231,0.833c-1.069,-0 -1.699,-0.205 -2.185,-0.707c-0.377,-0.377 -0.581,-0.959 -0.581,-1.572c0,-1.35 0.942,-2.231 2.67,-2.231l2.327,-0l-0,-0.739c-0,-1.131 -0.567,-1.696 -1.98,-1.696c-0.991,-0 -1.495,0.236 -1.95,0.88l-0.769,-0.708c0.691,-0.895 1.477,-1.147 2.734,-1.147c2.074,-0 3.094,0.897 3.094,2.577l0,5.25l-1.129,-0Zm-0,-3.569l-2.17,0c-1.162,0 -1.728,0.472 -1.728,1.367c0,0.898 0.551,1.32 1.776,1.32c0.659,-0 1.242,-0.046 1.728,-0.518c0.266,-0.251 0.394,-0.69 0.394,-1.335l-0,-0.834Zm8.436,3.568l0,-4.76c0,-1.368 -0.739,-2.06 -1.901,-2.06c-1.163,-0 -1.916,0.708 -1.916,2.06l-0,4.76l-1.132,0l-0,-7.732l1.132,0l-0,0.849c0.549,-0.629 1.304,-0.943 2.168,-0.943c0.832,0 1.508,0.253 1.979,0.723c0.55,0.535 0.801,1.258 0.801,2.153l0,4.95l-1.131,0Zm5.924,0.094c-1.304,-0 -2.325,-0.299 -3.174,-1.115l0.754,-0.755c0.614,0.644 1.446,0.895 2.404,0.895c1.273,-0 2.059,-0.455 2.059,-1.366c-0,-0.676 -0.392,-1.053 -1.288,-1.131l-1.273,-0.111c-1.509,-0.124 -2.31,-0.802 -2.31,-2.073c-0,-1.415 1.194,-2.264 2.844,-2.264c1.1,0 2.09,0.268 2.781,0.834l-0.737,0.738c-0.551,-0.425 -1.258,-0.612 -2.06,-0.612c-1.131,0 -1.728,0.486 -1.728,1.271c-0,0.662 0.377,1.055 1.351,1.133l1.242,0.109c1.351,0.126 2.278,0.644 2.278,2.09c0,1.492 -1.272,2.357 -3.143,2.357Zm10.058,-0.094l-2.451,-3.96l-1.509,1.729l0,2.231l-1.13,0l-0,-11.187l1.13,-0l0,7.478l3.489,-4.023l1.414,0l-2.624,2.956l3.079,4.776l-1.398,0Zm3.33,-3.567c0,1.697 0.802,2.67 2.279,2.67c0.896,0 1.414,-0.265 2.028,-0.879l0.768,0.675c-0.785,0.788 -1.507,1.195 -2.828,1.195c-2.043,0 -3.377,-1.226 -3.377,-3.96c-0,-2.499 1.209,-3.96 3.174,-3.96c1.995,0 3.173,1.446 3.173,3.74l0,0.519l-5.217,-0Zm3.85,-2.136c-0.299,-0.708 -0.99,-1.163 -1.806,-1.163c-0.818,-0 -1.51,0.455 -1.808,1.163c-0.172,0.423 -0.203,0.659 -0.236,1.286l4.087,-0c-0.033,-0.627 -0.063,-0.863 -0.237,-1.286Zm10.843,5.797c-2.264,-0 -3.897,-1.555 -3.897,-3.786l-0,-7.495l1.193,0l-0,7.399c-0,1.699 1.069,2.813 2.704,2.813c1.634,-0 2.717,-1.114 2.717,-2.813l0,-7.399l1.195,0l-0,7.495c-0,2.231 -1.649,3.786 -3.912,3.786Zm11.346,-0.094l-0,-4.76c-0,-1.368 -0.739,-2.06 -1.901,-2.06c-1.163,-0 -1.917,0.708 -1.917,2.06l-0,4.76l-1.133,0l0,-7.732l1.133,0l-0,0.849c0.549,-0.629 1.304,-0.943 2.167,-0.943c0.833,0 1.509,0.253 1.981,0.723c0.549,0.535 0.801,1.258 0.801,2.153l-0,4.95l-1.131,0Zm5.971,3.551c-1.163,0 -1.806,-0.298 -2.624,-1.039l0.737,-0.72c0.567,0.503 0.96,0.768 1.855,0.768c1.492,0 2.122,-1.051 2.122,-2.373l-0,-1.208c-0.63,0.801 -1.335,1.006 -2.168,1.006c-0.788,-0 -1.462,-0.283 -1.871,-0.692c-0.769,-0.771 -0.942,-1.964 -0.942,-3.222c-0,-1.256 0.173,-2.451 0.942,-3.22c0.409,-0.409 1.1,-0.676 1.886,-0.676c0.849,-0 1.539,0.189 2.169,1.005l-0,-0.912l1.115,-0l-0,7.967c-0,1.918 -1.194,3.316 -3.221,3.316Zm0.172,-10.371c-1.681,0 -1.932,1.446 -1.932,2.891c-0,1.446 0.251,2.891 1.932,2.891c1.682,-0 1.918,-1.445 1.918,-2.891c-0,-1.445 -0.236,-2.891 -1.918,-2.891Zm10.104,6.82l0,-0.927c-0.627,0.817 -1.351,1.021 -2.2,1.021c-0.786,0 -1.477,-0.268 -1.885,-0.677c-0.785,-0.784 -0.943,-2.072 -0.943,-3.282c0,-1.211 0.158,-2.5 0.943,-3.284c0.408,-0.409 1.099,-0.676 1.885,-0.676c0.849,-0 1.557,0.189 2.185,0.989l0,-4.351l1.131,-0l0,11.187l-1.116,0Zm-1.948,-6.82c-1.681,0 -1.948,1.446 -1.948,2.955c-0,1.508 0.267,2.953 1.948,2.953c1.682,0 1.933,-1.445 1.933,-2.953c0,-1.509 -0.251,-2.955 -1.933,-2.955Zm10.466,6.034c-0.535,0.534 -1.272,0.88 -2.214,0.88c-0.944,-0 -1.682,-0.346 -2.217,-0.88c-0.786,-0.8 -0.943,-1.885 -0.943,-3.08c0,-1.195 0.157,-2.277 0.943,-3.078c0.535,-0.536 1.273,-0.881 2.217,-0.881c0.942,-0 1.679,0.345 2.214,0.881c0.785,0.801 0.944,1.883 0.944,3.078c-0,1.195 -0.159,2.28 -0.944,3.08Zm-0.801,-5.468c-0.361,-0.361 -0.864,-0.566 -1.413,-0.566c-0.552,0 -1.038,0.205 -1.4,0.566c-0.565,0.566 -0.629,1.524 -0.629,2.388c0,0.864 0.064,1.822 0.629,2.388c0.362,0.362 0.848,0.566 1.4,0.566c0.549,0 1.052,-0.204 1.413,-0.566c0.565,-0.566 0.613,-1.524 0.613,-2.388c-0,-0.864 -0.048,-1.822 -0.613,-2.388Zm13.702,6.254l-0,-4.76c-0,-1.368 -0.739,-2.06 -1.901,-2.06c-1.133,-0 -1.933,0.708 -1.933,1.933l0,4.887l-1.132,0l0,-4.76c0,-1.368 -0.739,-2.06 -1.902,-2.06c-1.162,-0 -1.932,0.708 -1.932,2.06l-0,4.76l-1.132,0l0,-7.732l1.132,0l-0,0.849c0.55,-0.629 1.32,-0.943 2.184,-0.943c1.069,0 1.902,0.44 2.373,1.289c0.597,-0.849 1.462,-1.289 2.546,-1.289c0.831,0 1.523,0.268 1.995,0.723c0.55,0.535 0.832,1.258 0.832,2.153l0,4.95l-1.13,0Zm5.924,0.094c-1.304,-0 -2.325,-0.299 -3.174,-1.115l0.754,-0.755c0.614,0.644 1.446,0.895 2.405,0.895c1.272,-0 2.058,-0.455 2.058,-1.366c0,-0.676 -0.391,-1.053 -1.288,-1.131l-1.273,-0.111c-1.508,-0.124 -2.31,-0.802 -2.31,-2.073c-0,-1.415 1.194,-2.264 2.845,-2.264c1.099,0 2.089,0.268 2.78,0.834l-0.737,0.738c-0.55,-0.425 -1.258,-0.612 -2.06,-0.612c-1.13,0 -1.728,0.486 -1.728,1.271c0,0.662 0.377,1.055 1.351,1.133l1.243,0.109c1.351,0.126 2.278,0.644 2.278,2.09c-0,1.492 -1.273,2.357 -3.144,2.357Zm6.349,-6.914l0,6.82l-1.131,0l0,-6.82l-0.99,0l-0,-0.864l0.99,-0l0,-1.461c0,-1.147 0.644,-2.074 1.964,-2.074l0.817,-0l-0,0.975l-0.612,-0c-0.724,-0 -1.038,0.423 -1.038,1.129l0,1.431l1.65,-0l-0,0.864l-1.65,0Zm7.825,6.034c-0.535,0.534 -1.272,0.88 -2.215,0.88c-0.943,-0 -1.682,-0.346 -2.216,-0.88c-0.786,-0.8 -0.943,-1.885 -0.943,-3.08c0,-1.195 0.157,-2.277 0.943,-3.078c0.534,-0.536 1.273,-0.881 2.216,-0.881c0.943,-0 1.68,0.345 2.215,0.881c0.785,0.801 0.942,1.883 0.942,3.078c0,1.195 -0.157,2.28 -0.942,3.08Zm-0.801,-5.468c-0.361,-0.361 -0.864,-0.566 -1.414,-0.566c-0.551,0 -1.037,0.205 -1.399,0.566c-0.565,0.566 -0.629,1.524 -0.629,2.388c-0,0.864 0.064,1.822 0.629,2.388c0.362,0.362 0.848,0.566 1.399,0.566c0.55,0 1.053,-0.204 1.414,-0.566c0.566,-0.566 0.612,-1.524 0.612,-2.388c-0,-0.864 -0.046,-1.822 -0.612,-2.388Zm8.092,-0c-0.424,-0.425 -0.739,-0.566 -1.336,-0.566c-1.131,0 -1.855,0.897 -1.855,2.075l0,4.746l-1.13,-0l-0,-7.733l1.13,-0l0,0.944c0.426,-0.646 1.274,-1.037 2.17,-1.037c0.738,-0 1.304,0.173 1.854,0.722l-0.833,0.849Zm2.071,2.687c-0,1.697 0.802,2.67 2.279,2.67c0.896,0 1.414,-0.265 2.027,-0.879l0.769,0.675c-0.785,0.788 -1.508,1.195 -2.828,1.195c-2.043,0 -3.378,-1.226 -3.378,-3.96c0,-2.499 1.209,-3.96 3.174,-3.96c1.994,0 3.174,1.446 3.174,3.74l-0,0.519l-5.217,-0Zm3.849,-2.136c-0.298,-0.708 -0.99,-1.163 -1.806,-1.163c-0.817,-0 -1.51,0.455 -1.807,1.163c-0.172,0.423 -0.204,0.659 -0.236,1.286l4.085,-0c-0.03,-0.627 -0.063,-0.863 -0.236,-1.286Zm8.33,5.703l-0,-4.76c-0,-1.368 -0.739,-2.06 -1.901,-2.06c-1.163,-0 -1.918,0.708 -1.918,2.06l0,4.76l-1.132,0l0,-7.732l1.132,0l0,0.849c0.55,-0.629 1.304,-0.943 2.168,-0.943c0.833,0 1.509,0.253 1.981,0.723c0.548,0.535 0.801,1.258 0.801,2.153l-0,4.95l-1.131,0Zm3.489,-7.732l1.13,-0l0,7.732l-1.13,-0l-0,-7.732Zm-0.064,-3.472l1.273,-0l-0,1.273l-1.273,0l-0,-1.273Zm8.596,11.204l-0,-4.76c-0,-1.368 -0.738,-2.06 -1.9,-2.06c-1.163,-0 -1.918,0.708 -1.918,2.06l-0,4.76l-1.132,0l0,-7.732l1.132,0l-0,0.849c0.549,-0.629 1.304,-0.943 2.168,-0.943c0.833,0 1.508,0.253 1.981,0.723c0.548,0.535 0.8,1.258 0.8,2.153l-0,4.95l-1.131,0Zm5.971,3.551c-1.163,0 -1.806,-0.298 -2.624,-1.039l0.738,-0.72c0.566,0.503 0.96,0.768 1.855,0.768c1.492,0 2.121,-1.051 2.121,-2.373l-0,-1.208c-0.629,0.801 -1.335,1.006 -2.168,1.006c-0.787,-0 -1.462,-0.283 -1.87,-0.692c-0.77,-0.771 -0.943,-1.964 -0.943,-3.222c0,-1.256 0.173,-2.451 0.943,-3.22c0.408,-0.409 1.1,-0.676 1.885,-0.676c0.849,-0 1.54,0.189 2.169,1.005l-0,-0.912l1.115,-0l-0,7.967c-0,1.918 -1.194,3.316 -3.221,3.316Zm0.173,-10.371c-1.682,0 -1.933,1.446 -1.933,2.891c-0,1.446 0.251,2.891 1.933,2.891c1.681,-0 1.917,-1.445 1.917,-2.891c-0,-1.445 -0.236,-2.891 -1.917,-2.891Zm6.192,3.253c-0,1.697 0.802,2.67 2.279,2.67c0.896,0 1.414,-0.265 2.027,-0.879l0.769,0.675c-0.785,0.788 -1.508,1.195 -2.828,1.195c-2.043,0 -3.378,-1.226 -3.378,-3.96c0,-2.499 1.209,-3.96 3.174,-3.96c1.995,0 3.174,1.446 3.174,3.74l-0,0.519l-5.217,-0Zm3.849,-2.136c-0.298,-0.708 -0.989,-1.163 -1.806,-1.163c-0.817,-0 -1.509,0.455 -1.807,1.163c-0.172,0.423 -0.204,0.659 -0.236,1.286l4.086,-0c-0.031,-0.627 -0.063,-0.863 -0.237,-1.286Zm7.7,-0.551c-0.424,-0.425 -0.738,-0.566 -1.335,-0.566c-1.132,0 -1.855,0.897 -1.855,2.075l-0,4.746l-1.131,-0l-0,-7.733l1.131,-0l-0,0.944c0.425,-0.646 1.274,-1.037 2.169,-1.037c0.738,-0 1.304,0.173 1.854,0.722l-0.833,0.849Z" style="fill:#1a1619;"/>
    <path d="M239.472,38.708c0.554,-0.123 1.707,-0.248 1.832,0.229c0.052,0.205 -0.392,0.813 -0.946,0.934c-0.557,0.121 -1.503,-0.236 -1.809,-0.572c-0.268,-0.293 0.365,-0.472 0.923,-0.591Zm2.609,64.118c-6.241,3.765 -13.302,5.826 -21.122,5.826c-22.882,-0 -41.446,-18.554 -41.446,-41.446c0,-22.888 18.564,-41.446 41.446,-41.446c16.29,-0 30.378,9.404 37.151,23.078c-3.147,-0.22 -6.227,-0.369 -8.502,-0.308c-0.149,-0.19 -0.268,-1.497 -0.348,-1.653c0.687,-0.045 1.352,-0.07 1.568,-0.015l-1.558,-3.069c0.248,-0.002 0.447,0.007 0.546,0.034l-1.952,-3.813c-0,0 -0.893,-1.776 -2.17,-2.041c-0.344,-1.054 -0.575,-2.141 -1.03,-2.118l-0.987,1.508l-3.948,0.337c-0.956,-0 -2.104,0.854 -2.104,0.854l-2.391,0.766c-0.883,0.345 -0.727,0.849 -0.659,1.056c0.071,0.205 0.175,0.294 0.381,0.669c0.091,0.169 0.227,0.51 0.348,0.832c0.407,-0.084 2.235,-0.41 3.098,0.569c-2.684,0.615 -4.273,-0.098 -4.837,-1.177c-0.097,0.201 -0.139,0.403 -0.108,0.602c0.175,1.113 2.624,1.927 5.259,1.439c0.167,0.828 0.167,0.908 0.167,0.908l-3.455,-0.129c-0.245,1.114 -0.636,2.18 -0.179,2.143c0.659,-0.056 5.175,-0.403 5.175,-0.403c-0.09,0.131 -0.322,2.19 -0.498,3.028c-0.843,-0.39 -1.771,-0.498 -1.771,-0.498l-4.7,-0.561c0.086,0.123 0.204,0.46 0.327,0.864c-1.879,-0.274 -3.612,-0.813 -4.811,-1.864l0.084,-0.683c0,0 0.467,-3.556 -2.078,-3.438c-1.535,0.067 -2.053,0.402 -2.053,0.402c-0,0 0.209,0.106 0.34,1.476c0.127,1.373 0.214,4.413 0.214,4.413c4.375,1.527 6.118,3.929 6.628,4.228c7.605,4.431 2.828,11.734 1.091,13.67l-0.78,-0.098c-0,0 -3.92,-0.519 -3.833,2.019c0.053,1.529 0.414,2.053 0.414,2.053c0,-0 0.119,-0.21 1.637,-0.318c1.518,-0.104 4.875,-0.142 4.875,-0.142c0,-0 0.482,-1.168 1.261,-2.256c0.336,0.502 0.599,0.939 0.657,1.138l3.49,-4.79c0,-0 0.036,-0.046 0.091,-0.131c2.034,-1.495 4.239,-2.959 5.418,-3.92c9.389,-0.297 10.506,-4.419 13.619,-4.419c0.317,-0 0.597,0.061 0.856,0.157c0.97,3.519 1.499,7.22 1.499,11.047c0,8.288 -2.441,16.003 -6.632,22.479c-0.178,-0.131 -0.357,-0.26 -0.527,-0.398c-2.125,-1.717 0.254,-4.063 0.775,-4.768c0.561,-0.779 2.517,-2.966 2.517,-5.788c-0,-3.197 -3.581,-4.826 -7.158,-4.554c-2.709,0.205 -8.095,1.621 -10.046,2.032c-5.041,1.066 -6.848,-0.3 -6.229,-2.365c0.433,3.644 10.058,1.437 8.769,-4.369c-0,-0 -0.254,2.124 -3.081,2.71c-2.384,0.433 -6.697,-0.33 -6.697,2.541c-0,1.843 1.948,3.416 6.858,2.645c3.803,-0.592 7.697,-1.281 9.949,-1.528c2.258,-0.248 4.625,0.4 4.625,2.822c0,1.775 -2.677,3.348 -4.774,3.44c-2.011,0.091 -15.481,-1.516 -22.113,-1.338c-0.146,-0.193 -0.264,-1.499 -0.346,-1.654c0.689,-0.047 1.35,-0.073 1.568,-0.017l-1.561,-3.069c0.251,0 0.448,0.006 0.547,0.03l-1.949,-3.807c-0,0 -0.898,-1.776 -2.173,-2.043c-0.342,-1.053 -0.573,-2.14 -1.032,-2.117l-0.985,1.508l-3.947,0.338c-0.958,0 -2.103,0.852 -2.103,0.852l-2.392,0.768c-0.885,0.346 -0.728,0.847 -0.662,1.054c0.073,0.206 0.177,0.293 0.383,0.669c0.092,0.171 0.228,0.512 0.35,0.832c0.405,-0.084 2.234,-0.41 3.096,0.57c-2.683,0.614 -4.272,-0.097 -4.835,-1.178c-0.097,0.201 -0.139,0.403 -0.11,0.601c0.176,1.116 2.623,1.929 5.262,1.44c0.163,0.828 0.163,0.908 0.163,0.908l-3.454,-0.128c-0.244,1.114 -0.636,2.179 -0.178,2.141c0.657,-0.055 5.174,-0.402 5.174,-0.402c-0.091,0.133 -0.323,2.189 -0.5,3.029c-0.84,-0.392 -1.768,-0.499 -1.768,-0.499l-4.701,-0.562c0.085,0.124 0.206,0.462 0.325,0.866c-1.877,-0.272 -3.61,-0.814 -4.808,-1.864l0.083,-0.683c-0,0 0.467,-3.555 -2.08,-3.439c-1.535,0.068 -2.052,0.402 -2.052,0.402c-0,0 0.211,0.106 0.342,1.477c0.127,1.373 0.213,4.411 0.213,4.411c4.377,1.53 6.116,3.933 6.627,4.229c7.604,4.431 2.828,11.733 1.091,13.669l-0.779,-0.097c-0,0 -3.919,-0.519 -3.834,2.021c0.056,1.53 0.417,2.05 0.417,2.05c0,-0 0.119,-0.207 1.635,-0.315c1.518,-0.106 4.874,-0.144 4.874,-0.144c0,-0 0.484,-1.168 1.262,-2.255c0.337,0.501 0.6,0.937 0.657,1.137l3.488,-4.79c-0,-0 0.036,-0.048 0.093,-0.131c2.034,-1.494 4.239,-2.957 5.416,-3.919c9.394,-0.296 10.509,-4.418 13.621,-4.418c2.869,-0 3.051,4.363 5.369,5.418c1.418,0.64 6.07,1.808 2.565,5.662l-1.516,-0.251c-0,-0 -3.709,-0.631 -3.726,1.789c-0.01,1.46 0.314,1.97 0.314,1.97Zm-23.582,-31.883c0.554,-0.123 1.709,-0.248 1.834,0.228c0.052,0.204 -0.392,0.815 -0.946,0.935c-0.557,0.119 -1.504,-0.235 -1.811,-0.572c-0.267,-0.293 0.367,-0.473 0.923,-0.591Z" style="fill:#005b96;"/>
</svg>
