<svg width="100%" height="100%" viewBox="0 0 806 149" version="1.1" xmlns="http://www.w3.org/2000/svg" xmlns:xlink="http://www.w3.org/1999/xlink" xml:space="preserve" style="fill-rule:evenodd;clip-rule:evenodd;stroke-linejoin:round;stroke-miterlimit:2;">
    <path d="M154.696,76.323l0.09,0.504l-0.09,0.504c-0.752,4.302 -4.041,6.469 -9.791,6.469c-1.364,0 -2.867,-0.122 -4.507,-0.365l-1.209,-0.174c-3.174,-0.457 -6.336,-0.912 -9.494,-1.356c-0.82,0.844 -1.928,1.381 -3.246,1.541l-0.58,0.071l-0.375,-0.095c-1.152,8.413 -4.501,16.315 -9.775,23.054l0.302,0.174l0.359,0.444c0.828,1.024 1.228,2.173 1.193,3.346c1.173,0.853 2.347,1.705 3.52,2.56c1.721,1.252 3.442,2.505 5.174,3.757c6.94,4.975 8.857,9.743 5.688,14.159l-0.311,0.428l-0.438,0.302c-1.413,0.967 -2.859,1.449 -4.337,1.449c-3.26,-0 -6.666,-2.345 -10.181,-7.012c-1.329,-1.748 -2.668,-3.501 -4.008,-5.255c-0.817,-1.073 -1.637,-2.143 -2.453,-3.216c-1.198,0.036 -2.38,-0.354 -3.431,-1.165l-0.455,-0.351l-0.177,-0.297c-7.207,5.372 -15.711,8.7 -24.753,9.677l1.062,-15.016c6.842,-1.275 13.121,-4.504 18.126,-9.405c6.632,-6.448 10.278,-15.049 10.278,-24.225c0,-9.154 -3.648,-17.756 -10.273,-24.223c-6.627,-6.466 -15.444,-10.028 -24.821,-10.028c-3.058,0 -6.056,0.39 -8.942,1.127l-0.098,-15.03c0.762,-0.136 1.53,-0.258 2.303,-0.359l-0.081,-0.31l0.057,-0.537c0.144,-1.329 0.691,-2.439 1.574,-3.256c-0.529,-3.483 -1.054,-6.965 -1.56,-10.445c-1.324,-8.28 0.762,-12.985 6.202,-13.947l0.542,-0.095l0.542,0.095c5.435,0.953 7.528,5.653 6.23,13.977c-0.529,3.469 -1.057,6.946 -1.569,10.426c0.863,0.803 1.413,1.889 1.58,3.185l0.07,0.567l-0.089,0.343c8.625,1.124 16.723,4.397 23.631,9.546l0.172,-0.283l0.449,-0.346c1.054,-0.811 2.233,-1.209 3.428,-1.179c0.937,-1.223 1.87,-2.448 2.804,-3.67c1.226,-1.604 2.451,-3.208 3.676,-4.806c5.1,-6.777 9.982,-8.659 14.502,-5.568l0.438,0.299l0.311,0.43c3.183,4.436 1.263,9.204 -5.71,14.173c-1.724,1.249 -3.461,2.513 -5.201,3.776c-1.157,0.842 -2.314,1.683 -3.471,2.527c0.035,1.174 -0.365,2.323 -1.193,3.346l-0.354,0.436l-0.316,0.183c5.283,6.76 8.635,14.667 9.786,23.078l0.343,-0.087l0.55,0.057c1.351,0.139 2.484,0.673 3.314,1.536c3.57,-0.517 7.139,-1.029 10.728,-1.522c8.509,-1.296 13.323,0.749 14.265,6.077Zm-93.104,-30.549c-15.468,5.217 -25.118,20.263 -23.155,36.096l-38.623,-4.092l22.779,-2.701c1.277,-21.993 17.369,-40.464 39.435,-45.259l-0.436,15.956Zm-21.506,43.105c5.353,15.076 20.789,24.478 37.036,22.569l-4.201,37.644l-2.769,-22.205c-22.564,-1.214 -41.521,-16.925 -46.435,-38.403l16.369,0.395Zm733.433,-1.808l0,-19.063c0,-2.137 0.422,-4.041 1.267,-5.707c0.841,-1.666 2.001,-3.052 3.477,-4.163c1.473,-1.111 3.18,-1.953 5.119,-2.53c1.938,-0.577 4.024,-0.866 6.259,-0.866c2.19,0 4.267,0.289 6.225,0.866c1.96,0.577 3.667,1.419 5.121,2.53c1.454,1.111 2.603,2.497 3.445,4.163c0.844,1.666 1.266,3.57 1.266,5.707l-0,19.063l-10.178,-0l-0,-16.781c-0,-2.178 -0.506,-3.793 -1.517,-4.841c-1.013,-1.051 -2.467,-1.574 -4.362,-1.574c-3.961,-0 -5.944,2.137 -5.944,6.415l0,16.781l-10.178,-0Zm-39.004,-9.13c-0.926,-2.015 -1.392,-4.218 -1.392,-6.603c0,-2.385 0.466,-4.585 1.392,-6.6c0.926,-2.015 2.203,-3.763 3.825,-5.244c1.623,-1.481 3.507,-2.641 5.658,-3.485c2.149,-0.842 4.466,-1.267 6.955,-1.267c2.442,0 4.751,0.425 6.921,1.267c2.17,0.844 4.068,2.004 5.691,3.485c1.62,1.481 2.897,3.229 3.823,5.244c0.928,2.015 1.391,4.215 1.391,6.6c-0,2.385 -0.463,4.588 -1.391,6.603c-0.926,2.015 -2.203,3.763 -3.823,5.244c-1.623,1.479 -3.521,2.641 -5.691,3.485c-2.17,0.842 -4.479,1.264 -6.921,1.264c-2.489,-0 -4.806,-0.422 -6.955,-1.264c-2.151,-0.844 -4.035,-2.006 -5.658,-3.485c-1.622,-1.481 -2.899,-3.229 -3.825,-5.244Zm13.467,0.523c0.882,0.392 1.873,0.588 2.971,0.588c1.053,-0 2.031,-0.196 2.937,-0.588c0.907,-0.39 1.697,-0.926 2.372,-1.604c0.675,-0.678 1.19,-1.489 1.549,-2.437c0.357,-0.945 0.537,-1.974 0.537,-3.085c-0,-1.108 -0.18,-2.137 -0.537,-3.085c-0.359,-0.945 -0.874,-1.756 -1.549,-2.437c-0.675,-0.678 -1.465,-1.211 -2.372,-1.601c-0.906,-0.392 -1.884,-0.588 -2.937,-0.588c-1.098,0 -2.089,0.196 -2.971,0.588c-0.885,0.39 -1.666,0.923 -2.339,1.601c-0.675,0.681 -1.193,1.492 -1.549,2.437c-0.36,0.948 -0.539,1.977 -0.539,3.085c-0,1.111 0.179,2.14 0.539,3.085c0.356,0.948 0.874,1.759 1.549,2.437c0.673,0.678 1.454,1.214 2.339,1.604Zm-29.998,-27.392c-1.075,-1.048 -1.611,-2.353 -1.611,-3.915c-0,-1.563 0.536,-2.878 1.611,-3.949c1.076,-1.07 2.413,-1.606 4.014,-1.606c1.601,-0 2.951,0.536 4.046,1.606c1.097,1.071 1.645,2.386 1.645,3.949c-0,1.562 -0.548,2.867 -1.645,3.915c-1.095,1.051 -2.445,1.574 -4.046,1.574c-1.601,-0 -2.938,-0.523 -4.014,-1.574Zm-1.042,35.999l-0,-27.084c-0,-1.604 0.484,-2.734 1.454,-3.393c0.969,-0.656 2.254,-0.986 3.855,-0.986c1.138,0 2.17,0.134 3.099,0.401c0.925,0.266 1.516,0.443 1.77,0.525l-0,30.537l-10.178,-0Zm-38.752,10.178l2.78,-7.093c0.128,0.081 0.463,0.226 1.013,0.43c0.547,0.207 1.253,0.422 2.118,0.651c0.864,0.223 1.874,0.43 3.034,0.615c1.16,0.185 2.412,0.278 3.763,0.278c1.347,-0 2.6,-0.145 3.76,-0.433c1.157,-0.289 2.148,-0.771 2.97,-1.449c0.823,-0.678 1.465,-1.541 1.928,-2.592c0.463,-1.048 0.697,-2.352 0.697,-3.915l0,-0.681c-0.212,0.207 -0.561,0.495 -1.043,0.863c-0.484,0.373 -1.119,0.741 -1.897,1.111c-0.779,0.37 -1.697,0.7 -2.75,0.988c-1.054,0.289 -2.233,0.431 -3.54,0.431c-2.276,-0 -4.373,-0.338 -6.29,-1.016c-1.919,-0.681 -3.572,-1.677 -4.964,-2.992c-1.391,-1.318 -2.464,-2.93 -3.223,-4.844c-0.76,-1.912 -1.139,-4.082 -1.139,-6.508c0,-2.426 0.444,-4.637 1.329,-6.633c0.885,-1.993 2.108,-3.711 3.665,-5.151c1.56,-1.441 3.425,-2.56 5.596,-3.363c2.17,-0.801 4.56,-1.204 7.174,-1.204c2.908,0 5.596,0.537 8.063,1.607c2.464,1.07 4.498,2.633 6.099,4.689c1.013,1.315 1.78,2.859 2.309,4.626c0.525,1.77 0.789,4.01 0.789,6.725l0,9.192c0,3.208 -0.465,5.974 -1.391,8.297c-0.929,2.322 -2.214,4.234 -3.856,5.737c-1.644,1.5 -3.594,2.611 -5.848,3.333c-2.255,0.718 -4.711,1.078 -7.366,1.078c-1.854,-0 -3.561,-0.114 -5.119,-0.34c-1.56,-0.226 -2.94,-0.493 -4.141,-0.801c-1.201,-0.308 -2.192,-0.618 -2.971,-0.926c-0.781,-0.307 -1.296,-0.544 -1.549,-0.71Zm8.185,-28.933c-0.357,0.863 -0.536,1.789 -0.536,2.777c-0,2.344 0.672,4.092 2.023,5.244c1.347,1.152 3.076,1.726 5.184,1.726c2.064,0 3.782,-0.637 5.152,-1.911c1.369,-1.274 2.055,-2.962 2.055,-5.059c0,-2.099 -0.686,-3.815 -2.055,-5.152c-1.37,-1.336 -3.088,-2.004 -5.152,-2.004c-1.054,0 -2.023,0.183 -2.908,0.553c-0.885,0.37 -1.645,0.888 -2.276,1.544c-0.632,0.659 -1.128,1.419 -1.487,2.282Zm-33.409,7.155l-2.211,0c0.082,0.496 0.305,0.978 0.661,1.452c0.36,0.473 0.864,0.915 1.517,1.326c0.654,0.411 1.487,0.74 2.5,0.985c1.01,0.248 2.232,0.373 3.665,0.373c1.094,0 2.129,-0.092 3.098,-0.277c0.97,-0.186 1.811,-0.382 2.53,-0.589c0.716,-0.204 1.304,-0.411 1.77,-0.615c0.462,-0.207 0.735,-0.348 0.819,-0.433l3.543,6.911c-0.338,0.204 -0.896,0.493 -1.675,0.863c-0.781,0.37 -1.762,0.741 -2.941,1.111c-1.181,0.37 -2.562,0.689 -4.141,0.956c-1.579,0.266 -3.319,0.4 -5.214,0.4c-2.364,-0 -4.575,-0.371 -6.639,-1.111c-2.066,-0.741 -3.866,-1.819 -5.404,-3.238c-1.539,-1.418 -2.751,-3.155 -3.635,-5.214c-0.888,-2.056 -1.329,-4.4 -1.329,-7.033c-0,-2.467 0.441,-4.727 1.329,-6.785c0.884,-2.056 2.107,-3.804 3.665,-5.244c1.56,-1.441 3.392,-2.56 5.5,-3.363c2.107,-0.801 4.383,-1.204 6.829,-1.204c2.273,0 4.318,0.3 6.131,0.896c1.811,0.597 3.339,1.411 4.583,2.437c1.241,1.029 2.192,2.2 2.845,3.515c0.654,1.318 0.98,2.674 0.98,4.074c0,1.522 -0.275,2.889 -0.822,4.103c-0.547,1.212 -1.527,2.241 -2.94,3.085c-1.414,0.841 -3.328,1.489 -5.754,1.941c-2.423,0.455 -5.508,0.678 -9.26,0.678Zm-2.211,-8.852c-0.297,0.804 -0.466,1.615 -0.507,2.437c2.821,0 5.013,-0.103 6.576,-0.307c1.558,-0.207 2.717,-0.474 3.474,-0.804c0.76,-0.326 1.223,-0.699 1.392,-1.11c0.169,-0.409 0.253,-0.823 0.253,-1.234c-0,-0.863 -0.4,-1.615 -1.201,-2.252c-0.8,-0.637 -2.004,-0.955 -3.602,-0.955c-1.141,-0 -2.129,0.196 -2.973,0.585c-0.842,0.392 -1.547,0.896 -2.116,1.511c-0.569,0.618 -1.002,1.326 -1.296,2.129Zm-36.603,20.452l-0,-19.741c-0,-2.015 0.346,-3.804 1.043,-5.369c0.694,-1.561 1.652,-2.878 2.875,-3.948c1.222,-1.068 2.698,-1.882 4.425,-2.435c1.729,-0.555 3.624,-0.836 5.69,-0.836c2.53,0 4.498,0.27 5.912,0.804c1.41,0.533 2.434,1.111 3.065,1.729c0.379,0.411 0.673,0.841 0.885,1.293c0.21,0.455 0.316,0.988 0.316,1.604c0,0.618 -0.095,1.195 -0.286,1.729c-0.188,0.533 -0.419,1.007 -0.694,1.418c-0.275,0.411 -0.536,0.763 -0.79,1.049c-0.253,0.288 -0.443,0.492 -0.569,0.618c-0.716,-0.33 -1.579,-0.637 -2.592,-0.926c-1.013,-0.289 -2.129,-0.433 -3.349,-0.433c-1.604,0 -2.962,0.455 -4.079,1.359c-1.116,0.904 -1.674,2.404 -1.674,4.503l-0,17.582l-10.178,-0Zm-36.982,-0l0,-7.711c1.264,-1.071 2.769,-2.356 4.52,-3.856c1.748,-1.5 3.466,-2.971 5.152,-4.411c1.685,-1.44 3.213,-2.755 4.582,-3.948c1.37,-1.193 2.306,-2.015 2.813,-2.47l-11.823,0c-1.895,0 -3.245,-0.337 -4.046,-1.015c-0.8,-0.681 -1.198,-1.759 -1.198,-3.24c0,-1.071 0.166,-2.067 0.504,-2.993c0.337,-0.926 0.591,-1.533 0.76,-1.819l25.033,0c1.476,0 2.688,0.401 3.635,1.204c0.948,0.8 1.424,1.982 1.424,3.545c0,1.029 -0.223,1.955 -0.664,2.777c-0.444,0.822 -1.193,1.707 -2.246,2.652c-0.254,0.248 -0.736,0.689 -1.454,1.326c-0.716,0.64 -1.55,1.381 -2.497,2.222c-0.948,0.844 -1.972,1.748 -3.066,2.715c-1.097,0.966 -2.148,1.881 -3.161,2.744c-1.011,0.864 -1.939,1.645 -2.78,2.345c-0.844,0.7 -1.476,1.214 -1.898,1.544l17.892,-0l-0,8.389l-31.482,-0Zm-36.856,-0l-0,-19.063c-0,-2.137 0.419,-4.041 1.263,-5.707c0.844,-1.666 2.001,-3.052 3.477,-4.163c1.476,-1.111 3.183,-1.953 5.122,-2.53c1.936,-0.577 4.024,-0.866 6.257,-0.866c2.192,0 4.267,0.289 6.227,0.866c1.961,0.577 3.668,1.419 5.122,2.53c1.454,1.111 2.6,2.497 3.444,4.163c0.844,1.666 1.266,3.57 1.266,5.707l0,19.063l-10.178,-0l0,-16.781c0,-2.178 -0.506,-3.793 -1.519,-4.841c-1.01,-1.051 -2.464,-1.574 -4.362,-1.574c-3.962,-0 -5.941,2.137 -5.941,6.415l-0,16.781l-10.178,-0Zm-22.758,-11.6l-2.213,0c0.084,0.496 0.305,0.978 0.664,1.452c0.357,0.473 0.863,0.915 1.517,1.326c0.653,0.411 1.486,0.74 2.496,0.985c1.013,0.248 2.233,0.373 3.668,0.373c1.095,0 2.127,-0.092 3.099,-0.277c0.966,-0.186 1.81,-0.382 2.527,-0.589c0.716,-0.204 1.307,-0.411 1.769,-0.615c0.463,-0.207 0.738,-0.348 0.823,-0.433l3.539,6.911c-0.337,0.204 -0.895,0.493 -1.674,0.863c-0.782,0.37 -1.759,0.741 -2.941,1.111c-1.179,0.37 -2.559,0.689 -4.139,0.956c-1.582,0.266 -3.319,0.4 -5.217,0.4c-2.36,-0 -4.571,-0.371 -6.638,-1.111c-2.064,-0.741 -3.866,-1.819 -5.405,-3.238c-1.538,-1.418 -2.75,-3.155 -3.635,-5.214c-0.885,-2.056 -1.326,-4.4 -1.326,-7.033c0,-2.467 0.441,-4.727 1.326,-6.785c0.885,-2.056 2.108,-3.804 3.668,-5.244c1.558,-1.441 3.393,-2.56 5.5,-3.363c2.108,-0.801 4.381,-1.204 6.826,-1.204c2.277,0 4.321,0.3 6.132,0.896c1.814,0.597 3.341,1.411 4.585,2.437c1.242,1.029 2.19,2.2 2.846,3.515c0.651,1.318 0.977,2.674 0.977,4.074c0,1.522 -0.272,2.889 -0.819,4.103c-0.55,1.212 -1.531,2.241 -2.941,3.085c-1.413,0.841 -3.33,1.489 -5.753,1.941c-2.424,0.455 -5.511,0.678 -9.261,0.678Zm-2.213,-8.852c-0.294,0.804 -0.463,1.615 -0.507,2.437c2.824,0 5.016,-0.103 6.576,-0.307c1.557,-0.207 2.717,-0.474 3.477,-0.804c0.76,-0.326 1.222,-0.699 1.391,-1.11c0.166,-0.409 0.254,-0.823 0.254,-1.234c-0,-0.863 -0.403,-1.615 -1.201,-2.252c-0.803,-0.637 -2.004,-0.955 -3.605,-0.955c-1.138,-0 -2.13,0.196 -2.971,0.585c-0.844,0.392 -1.549,0.896 -2.118,1.511c-0.569,0.618 -1.002,1.326 -1.296,2.129Zm-36.603,20.452l-0,-19.741c-0,-2.015 0.348,-3.804 1.042,-5.369c0.697,-1.561 1.656,-2.878 2.878,-3.948c1.22,-1.068 2.696,-1.882 4.425,-2.435c1.726,-0.555 3.624,-0.836 5.691,-0.836c2.527,0 4.498,0.27 5.908,0.804c1.413,0.533 2.435,1.111 3.066,1.729c0.381,0.411 0.676,0.841 0.888,1.293c0.21,0.455 0.316,0.988 0.316,1.604c-0,0.618 -0.096,1.195 -0.286,1.729c-0.191,0.533 -0.422,1.007 -0.694,1.418c-0.275,0.411 -0.54,0.763 -0.79,1.049c-0.253,0.288 -0.444,0.492 -0.569,0.618c-0.719,-0.33 -1.582,-0.637 -2.592,-0.926c-1.013,-0.289 -2.13,-0.433 -3.352,-0.433c-1.601,0 -2.963,0.455 -4.076,1.359c-1.119,0.904 -1.677,2.404 -1.677,4.503l-0,17.582l-10.178,-0Zm-17.32,-8.515l-0,-7.033l-3.856,0c-1.939,0 -3.319,-0.378 -4.141,-1.141c-0.823,-0.759 -1.234,-1.9 -1.234,-3.422c0,-1.111 0.169,-2.108 0.507,-2.993c0.337,-0.885 0.61,-1.492 0.822,-1.821l12.01,-0c4.172,-0 6.26,1.955 6.26,5.862l0,19.063c-0.212,0.04 -0.727,0.122 -1.549,0.247c-0.822,0.123 -1.865,0.245 -3.129,0.371c-1.266,0.122 -2.687,0.234 -4.269,0.337c-1.579,0.104 -3.235,0.156 -4.961,0.156c-3.793,-0 -7.262,-0.463 -10.401,-1.389c-3.14,-0.926 -5.838,-2.314 -8.09,-4.163c-2.254,-1.852 -4.005,-4.166 -5.25,-6.941c-1.241,-2.777 -1.862,-6.015 -1.862,-9.718c0,-3.455 0.599,-6.559 1.8,-9.314c1.201,-2.756 2.878,-5.1 5.026,-7.034c2.149,-1.933 4.7,-3.414 7.649,-4.44c2.951,-1.03 6.153,-1.544 9.611,-1.544c1.77,-0 3.338,0.103 4.708,0.31c1.37,0.204 2.57,0.452 3.605,0.738c1.032,0.289 1.906,0.607 2.622,0.958c0.716,0.349 1.307,0.667 1.77,0.956c1.77,1.07 2.655,2.448 2.655,4.133c-0,0.782 -0.158,1.512 -0.474,2.19c-0.316,0.678 -0.683,1.274 -1.105,1.788c-0.422,0.515 -0.864,0.967 -1.329,1.359c-0.463,0.392 -0.842,0.689 -1.138,0.893c-0.42,-0.411 -0.959,-0.852 -1.612,-1.326c-0.654,-0.471 -1.432,-0.915 -2.339,-1.326c-0.907,-0.411 -1.958,-0.74 -3.161,-0.985c-1.201,-0.248 -2.538,-0.374 -4.014,-0.374c-2.064,0 -3.918,0.311 -5.563,0.926c-1.644,0.618 -3.033,1.492 -4.171,2.622c-1.138,1.133 -2.015,2.5 -2.625,4.104c-0.61,1.603 -0.917,3.392 -0.917,5.366c-0,4.403 1.274,7.63 3.825,9.686c2.549,2.058 6.037,3.084 10.464,3.084c0.757,0 1.547,-0.019 2.369,-0.059c0.822,-0.041 1.318,-0.082 1.487,-0.126Zm-67.35,-3.085l-2.213,0c0.084,0.496 0.304,0.978 0.664,1.452c0.357,0.473 0.863,0.915 1.517,1.326c0.653,0.411 1.486,0.74 2.496,0.985c1.013,0.248 2.236,0.373 3.668,0.373c1.095,0 2.127,-0.092 3.099,-0.277c0.969,-0.186 1.81,-0.382 2.526,-0.589c0.717,-0.204 1.307,-0.411 1.77,-0.615c0.466,-0.207 0.738,-0.348 0.823,-0.433l3.539,6.911c-0.337,0.204 -0.896,0.493 -1.674,0.863c-0.779,0.37 -1.759,0.741 -2.938,1.111c-1.182,0.37 -2.562,0.689 -4.142,0.956c-1.582,0.266 -3.319,0.4 -5.217,0.4c-2.36,-0 -4.571,-0.371 -6.635,-1.111c-2.067,-0.741 -3.869,-1.819 -5.408,-3.238c-1.538,-1.418 -2.75,-3.155 -3.635,-5.214c-0.885,-2.056 -1.326,-4.4 -1.326,-7.033c0,-2.467 0.441,-4.727 1.326,-6.785c0.885,-2.056 2.108,-3.804 3.668,-5.244c1.557,-1.441 3.393,-2.56 5.5,-3.363c2.108,-0.801 4.384,-1.204 6.826,-1.204c2.276,0 4.321,0.3 6.135,0.896c1.81,0.597 3.338,1.411 4.582,2.437c1.242,1.029 2.192,2.2 2.846,3.515c0.65,1.318 0.98,2.674 0.98,4.074c-0,1.522 -0.275,2.889 -0.822,4.103c-0.55,1.212 -1.531,2.241 -2.941,3.085c-1.413,0.841 -3.33,1.489 -5.753,1.941c-2.424,0.455 -5.511,0.678 -9.261,0.678Zm-2.213,-8.852c-0.295,0.804 -0.463,1.615 -0.504,2.437c2.821,0 5.013,-0.103 6.573,-0.307c1.56,-0.207 2.72,-0.474 3.477,-0.804c0.759,-0.326 1.222,-0.699 1.391,-1.11c0.169,-0.409 0.253,-0.823 0.253,-1.234c0,-0.863 -0.4,-1.615 -1.2,-2.252c-0.804,-0.637 -2.004,-0.955 -3.605,-0.955c-1.139,-0 -2.13,0.196 -2.971,0.585c-0.844,0.392 -1.549,0.896 -2.118,1.511c-0.569,0.618 -1.002,1.326 -1.296,2.129Zm-36.35,10.086l-0,-25.971c-0,-1.603 0.484,-2.736 1.454,-3.392c0.969,-0.659 2.254,-0.989 3.858,-0.989c1.135,0 2.17,0.134 3.096,0.401c0.926,0.269 1.516,0.443 1.77,0.525l-0,8.329l7.27,0c1.897,0 3.245,0.371 4.046,1.111c0.8,0.738 1.2,1.849 1.2,3.33c0,1.07 -0.168,2.067 -0.506,2.993c-0.335,0.925 -0.588,1.533 -0.757,1.818l-11.253,0l-0,9.688c-0,0.945 0.147,1.697 0.443,2.252c0.294,0.556 0.665,0.997 1.106,1.326c0.441,0.33 0.947,0.545 1.517,0.648c0.569,0.101 1.149,0.153 1.739,0.153c1.179,-0 2.255,-0.175 3.224,-0.523c0.97,-0.349 1.664,-0.648 2.086,-0.896l3.983,6.788c-0.378,0.33 -0.928,0.697 -1.644,1.108c-0.716,0.411 -1.579,0.804 -2.592,1.174c-1.01,0.37 -2.149,0.689 -3.412,0.956c-1.266,0.266 -2.592,0.4 -3.984,0.4c-3.961,-0 -7.06,-1.019 -9.293,-3.053c-2.235,-2.036 -3.351,-4.762 -3.351,-8.176Zm-28.13,10.366l-0,-19.741c-0,-2.015 0.349,-3.804 1.043,-5.369c0.694,-1.561 1.653,-2.878 2.875,-3.948c1.223,-1.068 2.698,-1.882 4.427,-2.435c1.727,-0.555 3.625,-0.836 5.689,-0.836c2.529,0 4.498,0.27 5.911,0.804c1.41,0.533 2.434,1.111 3.066,1.729c0.378,0.411 0.675,0.841 0.885,1.293c0.209,0.455 0.315,0.988 0.315,1.604c0,0.618 -0.095,1.195 -0.283,1.729c-0.19,0.533 -0.422,1.007 -0.697,1.418c-0.272,0.411 -0.536,0.763 -0.789,1.049c-0.254,0.288 -0.441,0.492 -0.569,0.618c-0.717,-0.33 -1.58,-0.637 -2.593,-0.926c-1.01,-0.289 -2.126,-0.433 -3.349,-0.433c-1.603,0 -2.962,0.455 -4.078,1.359c-1.117,0.904 -1.675,2.404 -1.675,4.503l-0,17.582l-10.178,-0Zm-6.954,-18.818l-0,18.632c-0.253,0.085 -0.822,0.175 -1.707,0.278c-0.885,0.104 -1.991,0.215 -3.319,0.341c-1.327,0.122 -2.843,0.223 -4.55,0.307c-1.708,0.082 -3.51,0.123 -5.405,0.123c-3.205,-0 -5.86,-0.278 -7.967,-0.833c-2.108,-0.556 -3.793,-1.305 -5.057,-2.252c-1.266,-0.945 -2.151,-2.045 -2.654,-3.3c-0.507,-1.253 -0.76,-2.582 -0.76,-3.978c0,-3.785 1.242,-6.489 3.73,-8.114c2.486,-1.623 6.426,-2.437 11.823,-2.437c1.348,-0 2.475,0.021 3.382,0.062c0.904,0.041 1.652,0.104 2.243,0.185c0,-1.44 -0.601,-2.57 -1.802,-3.392c-1.201,-0.823 -3.191,-1.234 -5.974,-1.234c-1.307,0 -2.456,0.071 -3.445,0.215c-0.991,0.145 -1.832,0.319 -2.529,0.523c-0.694,0.207 -1.255,0.414 -1.675,0.618c-0.422,0.207 -0.716,0.371 -0.885,0.493c-0.084,-0.082 -0.253,-0.245 -0.506,-0.493c-0.253,-0.245 -0.506,-0.563 -0.757,-0.955c-0.253,-0.39 -0.487,-0.834 -0.697,-1.326c-0.212,-0.493 -0.316,-1.03 -0.316,-1.604c0,-3.578 3.75,-5.37 11.254,-5.37c2.442,0 4.74,0.218 6.891,0.648c2.148,0.433 4.014,1.174 5.593,2.222c1.582,1.049 2.823,2.437 3.73,4.166c0.907,1.726 1.359,3.886 1.359,6.475Zm-10.178,12.34l-0,-6.6c-0.379,-0.082 -0.937,-0.155 -1.675,-0.218c-0.738,-0.06 -1.843,-0.093 -3.319,-0.093c-1.263,0 -2.298,0.104 -3.098,0.311c-0.801,0.204 -1.422,0.482 -1.866,0.833c-0.441,0.349 -0.748,0.749 -0.914,1.201c-0.169,0.455 -0.254,0.926 -0.254,1.418c0,0.371 0.063,0.763 0.191,1.174c0.125,0.411 0.4,0.781 0.82,1.111c0.422,0.329 1.053,0.607 1.897,0.833c0.842,0.226 1.961,0.338 3.349,0.338c1.098,-0 2.108,-0.03 3.036,-0.093c0.926,-0.06 1.539,-0.133 1.833,-0.215Zm-78.388,6.478l0,-20.174c0,-2.015 0.368,-3.774 1.106,-5.274c0.737,-1.5 1.748,-2.766 3.036,-3.796c1.285,-1.026 2.801,-1.797 4.549,-2.311c1.748,-0.515 3.657,-0.774 5.721,-0.774c2.53,0 4.784,0.414 6.766,1.237c1.98,0.822 3.581,1.974 4.803,3.452c1.223,-1.478 2.802,-2.63 4.741,-3.452c1.939,-0.823 4.174,-1.237 6.704,-1.237c2.02,0 3.907,0.259 5.658,0.774c1.748,0.514 3.264,1.285 4.549,2.311c1.286,1.03 2.299,2.296 3.036,3.796c0.736,1.5 1.106,3.259 1.106,5.274l-0,20.174l-10.178,-0l-0,-17.337c-0,-2.096 -0.444,-3.597 -1.326,-4.503c-0.888,-0.904 -2.129,-1.356 -3.733,-1.356c-1.642,-0 -2.982,0.533 -4.014,1.604c-1.032,1.07 -1.549,2.774 -1.549,5.118l0,16.474l-10.178,-0l0,-16.474c0,-2.344 -0.504,-4.048 -1.516,-5.118c-1.011,-1.071 -2.339,-1.604 -3.984,-1.604c-1.601,-0 -2.854,0.452 -3.76,1.356c-0.907,0.906 -1.359,2.407 -1.359,4.503l0,17.337l-10.178,-0Zm-44.695,-3.948l4.362,-8.144c0.253,0.206 0.822,0.525 1.707,0.955c0.885,0.433 2.001,0.866 3.349,1.296c1.351,0.433 2.911,0.825 4.681,1.174c1.769,0.348 3.686,0.523 5.75,0.523c1.686,-0 3.036,-0.112 4.046,-0.338c1.013,-0.226 1.792,-0.526 2.339,-0.896c0.548,-0.37 0.907,-0.792 1.076,-1.263c0.169,-0.474 0.253,-0.959 0.253,-1.451c0,-0.986 -0.411,-1.8 -1.233,-2.437c-0.823,-0.638 -2.35,-1.141 -4.583,-1.512l-6.448,-1.111c-1.688,-0.285 -3.373,-0.697 -5.059,-1.233c-1.685,-0.534 -3.191,-1.274 -4.52,-2.219c-1.326,-0.948 -2.412,-2.162 -3.253,-3.641c-0.844,-1.481 -1.266,-3.31 -1.266,-5.491c-0,-1.89 0.359,-3.671 1.075,-5.337c0.716,-1.664 1.811,-3.115 3.286,-4.349c1.476,-1.233 3.341,-2.211 5.596,-2.929c2.254,-0.719 4.898,-1.081 7.934,-1.081c2.189,-0 4.109,0.114 5.754,0.34c1.642,0.226 3.055,0.504 4.234,0.833c1.179,0.33 2.14,0.656 2.878,0.986c0.735,0.329 1.274,0.596 1.612,0.803c0.716,0.411 1.399,0.978 2.053,1.696c0.653,0.719 0.98,1.574 0.98,2.56c-0,0.7 -0.125,1.367 -0.379,2.007c-0.253,0.637 -0.561,1.222 -0.917,1.756c-0.36,0.536 -0.749,0.996 -1.168,1.389c-0.422,0.392 -0.782,0.688 -1.076,0.893c-0.422,-0.409 -1.054,-0.872 -1.898,-1.386c-0.841,-0.515 -1.854,-0.978 -3.033,-1.389c-1.182,-0.411 -2.529,-0.76 -4.046,-1.048c-1.517,-0.289 -3.139,-0.433 -4.868,-0.433c-1.642,-0 -2.949,0.133 -3.919,0.4c-0.972,0.27 -1.699,0.596 -2.181,0.988c-0.484,0.393 -0.8,0.834 -0.95,1.326c-0.147,0.493 -0.22,0.948 -0.22,1.359c-0,0.37 0.051,0.719 0.157,1.048c0.107,0.33 0.36,0.648 0.76,0.956c0.4,0.308 0.969,0.596 1.707,0.863c0.736,0.27 1.738,0.526 3.004,0.771l6.701,1.296c2.358,0.455 4.435,1.018 6.227,1.696c1.789,0.678 3.297,1.511 4.52,2.5c1.219,0.986 2.137,2.181 2.75,3.578c0.61,1.399 0.915,3.063 0.915,4.996c-0,4.318 -1.653,7.692 -4.961,10.118c-3.311,2.429 -7.978,3.641 -14.004,3.641c-2.739,-0 -5.258,-0.226 -7.556,-0.678c-2.295,-0.455 -4.307,-0.978 -6.036,-1.574c-1.729,-0.597 -3.129,-1.163 -4.204,-1.697c-1.076,-0.533 -1.719,-0.904 -1.928,-1.11Z" style="fill:#005791;"/>
    <path d="M42.728,78.232c-0.078,0.032 -0.028,0.007 -0.019,-0.003c0.006,0.001 0.012,0.002 0.019,0.003Zm-0,0c0.467,-0.19 5.531,-2.422 51.47,-22.232c-10.755,29.096 -6.84,18.472 -19.125,51.682c-0.063,0.068 0.059,0.245 -6.241,-25.137c-14.774,-2.444 -8.87,-1.469 -26.104,-4.313Zm103.093,-22.54c-4.763,0 -8.621,-3.768 -8.621,-8.413c0,-4.648 3.858,-8.414 8.621,-8.414c4.762,0 8.62,3.766 8.62,8.414c0,4.645 -3.858,8.413 -8.62,8.413Zm6.916,-25.88c-2.946,0 -5.334,-2.33 -5.334,-5.206c-0,-2.872 2.388,-5.203 5.334,-5.203c2.946,-0 5.334,2.331 5.334,5.203c-0,2.876 -2.388,5.206 -5.334,5.206Zm-55.062,-10.091c-2.947,-0 -5.334,-2.331 -5.334,-5.206c-0,-2.873 2.387,-5.204 5.334,-5.204c2.946,0 5.334,2.331 5.334,5.204c-0,2.875 -2.388,5.206 -5.334,5.206Zm78.253,4.207c-2.947,0 -5.334,-2.33 -5.334,-5.206c-0,-2.872 2.387,-5.203 5.334,-5.203c2.946,-0 5.334,2.331 5.334,5.203c-0,2.876 -2.388,5.206 -5.334,5.206Zm425.126,104.87l-2.666,-0l0,-10.878c0,-2.181 -0.558,-3.877 -1.674,-5.084c-1.119,-1.209 -2.807,-1.813 -5.07,-1.813c-2.263,-0 -3.945,0.604 -5.048,1.813c-1.106,1.207 -1.656,2.903 -1.656,5.084l0,10.878l-2.665,-0l-0,-11.668c-0,-1.233 0.215,-2.363 0.645,-3.387c0.43,-1.026 1.051,-1.906 1.857,-2.641c0.809,-0.735 1.792,-1.307 2.949,-1.716c1.157,-0.408 2.464,-0.609 3.918,-0.609c1.454,-0 2.766,0.201 3.937,0.609c1.171,0.409 2.162,0.981 2.971,1.716c0.806,0.735 1.427,1.615 1.857,2.641c0.43,1.024 0.645,2.154 0.645,3.387l0,11.668Zm-37.137,-7.943c-0.713,-0.011 -1.459,-0.043 -2.241,-0.098c0.297,2.023 1.158,3.586 2.584,4.691c1.427,1.103 3.314,1.656 5.656,1.656c1.372,-0 2.537,-0.191 3.493,-0.572c0.956,-0.381 1.688,-0.716 2.2,-1.005l1.171,1.893c-0.215,0.131 -0.536,0.308 -0.967,0.531c-0.433,0.223 -0.958,0.441 -1.576,0.651c-0.618,0.209 -1.321,0.386 -2.099,0.53c-0.782,0.145 -1.642,0.218 -2.587,0.218c-1.481,0 -2.873,-0.218 -4.18,-0.65c-1.307,-0.433 -2.45,-1.071 -3.433,-1.912c-0.983,-0.841 -1.756,-1.879 -2.323,-3.115c-0.563,-1.233 -0.847,-2.665 -0.847,-4.296c0,-1.574 0.27,-3.015 0.809,-4.316c0.536,-1.299 1.291,-2.415 2.26,-3.349c0.969,-0.931 2.121,-1.656 3.453,-2.168c1.334,-0.511 2.793,-0.767 4.383,-0.767c1.345,-0 2.524,0.149 3.535,0.452c1.01,0.302 1.851,0.729 2.524,1.282c0.672,0.55 1.176,1.201 1.514,1.95c0.337,0.748 0.506,1.557 0.506,2.423c0,0.868 -0.182,1.664 -0.547,2.385c-0.362,0.724 -0.983,1.353 -1.857,1.892c-0.877,0.54 -2.048,0.959 -3.513,1.261c-1.47,0.302 -3.319,0.452 -5.554,0.452c-0.863,0 -1.65,-0.005 -2.364,-0.019Zm-1.737,-5.103c-0.362,0.945 -0.558,1.931 -0.585,2.955c0.727,0.054 1.435,0.087 2.121,0.1c0.686,0.014 1.407,0.02 2.162,0.02c1.829,-0 3.338,-0.112 4.522,-0.335c1.185,-0.224 2.121,-0.52 2.808,-0.888c0.686,-0.368 1.162,-0.801 1.435,-1.299c0.266,-0.501 0.403,-1.026 0.403,-1.579c-0,-0.735 -0.156,-1.351 -0.466,-1.852c-0.31,-0.498 -0.727,-0.898 -1.253,-1.2c-0.522,-0.303 -1.116,-0.52 -1.775,-0.651c-0.662,-0.131 -1.34,-0.196 -2.039,-0.196c-1.266,-0 -2.386,0.215 -3.352,0.648c-0.972,0.436 -1.786,1.018 -2.445,1.753c-0.659,0.738 -1.171,1.58 -1.536,2.524Zm-7.006,-6.504c0.97,0.315 1.454,0.816 1.454,1.497c0,0.264 -0.073,0.501 -0.223,0.711l-0.425,0.512c-0.457,-0.21 -1.034,-0.406 -1.734,-0.591c-0.703,-0.183 -1.522,-0.275 -2.464,-0.275c-1.106,-0 -2.026,0.131 -2.767,0.392c-0.74,0.264 -1.339,0.651 -1.797,1.165c-0.46,0.512 -0.781,1.149 -0.969,1.912c-0.191,0.762 -0.283,1.628 -0.283,2.6l-0,11.627l-2.666,-0l-0,-12.849c-0,-2.288 0.7,-4.052 2.099,-5.302c1.4,-1.247 3.447,-1.87 6.14,-1.87c1.454,-0 2.666,0.155 3.635,0.471Zm-30.231,11.607c-0.714,-0.011 -1.46,-0.043 -2.241,-0.098c0.296,2.023 1.157,3.586 2.586,4.691c1.427,1.103 3.311,1.656 5.653,1.656c1.375,-0 2.538,-0.191 3.493,-0.572c0.956,-0.381 1.691,-0.716 2.203,-1.005l1.171,1.893c-0.218,0.131 -0.539,0.308 -0.969,0.531c-0.431,0.223 -0.956,0.441 -1.577,0.651c-0.618,0.209 -1.318,0.386 -2.099,0.53c-0.782,0.145 -1.642,0.218 -2.584,0.218c-1.481,0 -2.875,-0.218 -4.182,-0.65c-1.305,-0.433 -2.451,-1.071 -3.434,-1.912c-0.98,-0.841 -1.756,-1.879 -2.32,-3.115c-0.566,-1.233 -0.849,-2.665 -0.849,-4.296c-0,-1.574 0.269,-3.015 0.808,-4.316c0.539,-1.299 1.294,-2.415 2.26,-3.349c0.972,-0.931 2.121,-1.656 3.456,-2.168c1.331,-0.511 2.791,-0.767 4.381,-0.767c1.345,-0 2.524,0.149 3.534,0.452c1.01,0.302 1.851,0.729 2.524,1.282c0.673,0.55 1.179,1.201 1.514,1.95c0.337,0.748 0.506,1.557 0.506,2.423c0,0.868 -0.182,1.664 -0.544,2.385c-0.365,0.724 -0.986,1.353 -1.86,1.892c-0.874,0.54 -2.048,0.959 -3.512,1.261c-1.471,0.302 -3.32,0.452 -5.555,0.452c-0.86,0 -1.65,-0.005 -2.363,-0.019Zm-1.735,-5.103c-0.365,0.945 -0.561,1.931 -0.585,2.955c0.727,0.054 1.432,0.087 2.118,0.1c0.686,0.014 1.408,0.02 2.162,0.02c1.83,-0 3.338,-0.112 4.523,-0.335c1.184,-0.224 2.121,-0.52 2.807,-0.888c0.686,-0.368 1.165,-0.801 1.435,-1.299c0.267,-0.501 0.403,-1.026 0.403,-1.579c-0,-0.735 -0.155,-1.351 -0.466,-1.852c-0.307,-0.498 -0.727,-0.898 -1.252,-1.2c-0.523,-0.303 -1.117,-0.52 -1.776,-0.651c-0.659,-0.131 -1.339,-0.196 -2.039,-0.196c-1.266,-0 -2.382,0.215 -3.352,0.648c-0.969,0.436 -1.786,1.018 -2.445,1.753c-0.659,0.738 -1.171,1.58 -1.533,2.524Zm-20.922,5.103c-0.714,-0.011 -1.46,-0.043 -2.241,-0.098c0.297,2.023 1.157,3.586 2.584,4.691c1.427,1.103 3.314,1.656 5.655,1.656c1.373,-0 2.538,-0.191 3.494,-0.572c0.955,-0.381 1.691,-0.716 2.2,-1.005l1.173,1.893c-0.218,0.131 -0.539,0.308 -0.969,0.531c-0.433,0.223 -0.959,0.441 -1.577,0.651c-0.618,0.209 -1.317,0.386 -2.099,0.53c-0.781,0.145 -1.645,0.218 -2.584,0.218c-1.481,0 -2.875,-0.218 -4.182,-0.65c-1.304,-0.433 -2.451,-1.071 -3.434,-1.912c-0.983,-0.841 -1.756,-1.879 -2.32,-3.115c-0.566,-1.233 -0.849,-2.665 -0.849,-4.296c-0,-1.574 0.27,-3.015 0.809,-4.316c0.536,-1.299 1.29,-2.415 2.26,-3.349c0.969,-0.931 2.121,-1.656 3.455,-2.168c1.331,-0.511 2.791,-0.767 4.381,-0.767c1.345,-0 2.524,0.149 3.534,0.452c1.01,0.302 1.852,0.729 2.524,1.282c0.673,0.55 1.179,1.201 1.514,1.95c0.338,0.748 0.507,1.557 0.507,2.423c-0,0.868 -0.183,1.664 -0.548,2.385c-0.362,0.724 -0.983,1.353 -1.857,1.892c-0.874,0.54 -2.047,0.959 -3.512,1.261c-1.47,0.302 -3.319,0.452 -5.555,0.452c-0.86,0 -1.65,-0.005 -2.363,-0.019Zm-1.735,-5.103c-0.364,0.945 -0.561,1.931 -0.588,2.955c0.727,0.054 1.435,0.087 2.121,0.1c0.687,0.014 1.408,0.02 2.162,0.02c1.83,-0 3.338,-0.112 4.523,-0.335c1.184,-0.224 2.121,-0.52 2.807,-0.888c0.686,-0.368 1.166,-0.801 1.432,-1.299c0.27,-0.501 0.406,-1.026 0.406,-1.579c0,-0.735 -0.155,-1.351 -0.466,-1.852c-0.31,-0.498 -0.727,-0.898 -1.252,-1.2c-0.526,-0.303 -1.116,-0.52 -1.775,-0.651c-0.662,-0.131 -1.34,-0.196 -2.04,-0.196c-1.266,-0 -2.385,0.215 -3.354,0.648c-0.967,0.436 -1.784,1.018 -2.443,1.753c-0.659,0.738 -1.17,1.58 -1.533,2.524Zm-25.082,2.326c0.552,1.078 0.991,1.917 1.312,2.521c0.297,-0.577 0.7,-1.359 1.212,-2.344c0.512,-0.986 1.064,-2.056 1.655,-3.213c0.594,-1.155 1.198,-2.345 1.819,-3.567c0.618,-1.223 1.204,-2.369 1.756,-3.447c0.553,-1.078 1.043,-2.018 1.473,-2.818c0.431,-0.804 0.741,-1.375 0.932,-1.716c0.242,-0.419 0.558,-0.814 0.947,-1.181c0.389,-0.368 1.005,-0.553 1.838,-0.553c0.539,-0 0.95,0.065 1.233,0.196c0.281,0.133 0.477,0.237 0.586,0.316c0.267,4.52 0.531,8.947 0.787,13.284c0.256,4.335 0.503,8.749 0.746,13.242l-2.666,-0c-0.054,-0.842 -0.114,-1.904 -0.18,-3.192c-0.068,-1.287 -0.141,-2.701 -0.223,-4.236c-0.082,-1.539 -0.169,-3.121 -0.261,-4.752c-0.096,-1.628 -0.191,-3.196 -0.283,-4.707c-0.096,-1.512 -0.177,-2.906 -0.243,-4.18c-0.068,-1.274 -0.128,-2.306 -0.182,-3.093c-0.161,0.313 -0.471,0.92 -0.929,1.813c-0.457,0.893 -0.996,1.936 -1.617,3.132c-0.618,1.198 -1.285,2.477 -1.999,3.844c-0.713,1.367 -1.399,2.679 -2.058,3.94c-0.662,1.261 -1.261,2.399 -1.797,3.409c-0.539,1.013 -0.929,1.77 -1.174,2.268l-2.867,0c-0.242,-0.474 -0.585,-1.138 -1.029,-1.99c-0.444,-0.855 -0.95,-1.827 -1.514,-2.916c-0.566,-1.092 -1.165,-2.255 -1.797,-3.491c-0.634,-1.233 -1.266,-2.448 -1.898,-3.643c-0.634,-1.195 -1.239,-2.334 -1.819,-3.409c-0.58,-1.078 -1.083,-2.012 -1.514,-2.799c-0.109,1.865 -0.215,3.814 -0.324,5.851c-0.106,2.037 -0.22,4.087 -0.343,6.148c-0.119,2.064 -0.237,4.115 -0.343,6.148c-0.106,2.04 -0.201,3.989 -0.283,5.855l-2.666,-0c0.216,-4.153 0.444,-8.362 0.687,-12.632c0.245,-4.269 0.484,-8.481 0.727,-12.634c0.054,-0.55 0.277,-0.983 0.667,-1.298c0.389,-0.316 0.827,-0.474 1.312,-0.474c0.621,-0 1.106,0.092 1.454,0.275c0.351,0.185 0.621,0.381 0.809,0.593c0.106,0.183 0.37,0.67 0.787,1.457c0.416,0.79 0.923,1.748 1.516,2.878c0.591,1.13 1.231,2.364 1.917,3.703c0.686,1.343 1.359,2.641 2.02,3.905c0.659,1.26 1.264,2.429 1.817,3.507Zm-31.079,10.72l-2.666,-0l0,-10.878c0,-2.181 -0.558,-3.877 -1.674,-5.084c-1.119,-1.209 -2.807,-1.813 -5.07,-1.813c-2.263,-0 -3.945,0.604 -5.048,1.813c-1.106,1.207 -1.656,2.903 -1.656,5.084l0,10.878l-2.665,-0l-0,-11.668c-0,-1.233 0.215,-2.363 0.645,-3.387c0.43,-1.026 1.051,-1.906 1.86,-2.641c0.806,-0.735 1.789,-1.307 2.946,-1.716c1.157,-0.408 2.464,-0.609 3.918,-0.609c1.454,-0 2.766,0.201 3.937,0.609c1.171,0.409 2.162,0.981 2.971,1.716c0.806,0.735 1.427,1.615 1.857,2.641c0.43,1.024 0.645,2.154 0.645,3.387l0,11.668Zm-37.137,-7.943c-0.713,-0.011 -1.459,-0.043 -2.241,-0.098c0.297,2.023 1.158,3.586 2.584,4.691c1.427,1.103 3.314,1.656 5.656,1.656c1.372,-0 2.537,-0.191 3.493,-0.572c0.956,-0.381 1.688,-0.716 2.203,-1.005l1.171,1.893c-0.218,0.131 -0.539,0.308 -0.97,0.531c-0.432,0.223 -0.955,0.441 -1.576,0.651c-0.618,0.209 -1.318,0.386 -2.099,0.53c-0.782,0.145 -1.642,0.218 -2.587,0.218c-1.479,0 -2.873,-0.218 -4.18,-0.65c-1.304,-0.433 -2.45,-1.071 -3.43,-1.912c-0.986,-0.841 -1.759,-1.879 -2.323,-3.115c-0.566,-1.233 -0.85,-2.665 -0.85,-4.296c0,-1.574 0.27,-3.015 0.809,-4.316c0.539,-1.299 1.291,-2.415 2.26,-3.349c0.969,-0.931 2.121,-1.656 3.455,-2.168c1.332,-0.511 2.794,-0.767 4.381,-0.767c1.346,-0 2.525,0.149 3.535,0.452c1.01,0.302 1.851,0.729 2.524,1.282c0.672,0.55 1.176,1.201 1.514,1.95c0.337,0.748 0.506,1.557 0.506,2.423c0,0.868 -0.182,1.664 -0.547,2.385c-0.362,0.724 -0.98,1.353 -1.857,1.892c-0.874,0.54 -2.045,0.959 -3.513,1.261c-1.467,0.302 -3.319,0.452 -5.554,0.452c-0.863,0 -1.65,-0.005 -2.364,-0.019Zm-1.737,-5.103c-0.362,0.945 -0.558,1.931 -0.583,2.955c0.727,0.054 1.433,0.087 2.119,0.1c0.686,0.014 1.408,0.02 2.162,0.02c1.83,-0 3.338,-0.112 4.522,-0.335c1.185,-0.224 2.122,-0.52 2.808,-0.888c0.686,-0.368 1.162,-0.801 1.435,-1.299c0.266,-0.501 0.403,-1.026 0.403,-1.579c-0,-0.735 -0.156,-1.351 -0.466,-1.852c-0.31,-0.498 -0.727,-0.898 -1.25,-1.2c-0.525,-0.303 -1.119,-0.52 -1.778,-0.651c-0.661,-0.131 -1.339,-0.196 -2.039,-0.196c-1.266,-0 -2.383,0.215 -3.352,0.648c-0.969,0.436 -1.786,1.018 -2.445,1.753c-0.659,0.738 -1.171,1.58 -1.536,2.524Zm-10.559,-3.153l0,-11.509c0,-0.395 0.114,-0.716 0.343,-0.967c0.229,-0.247 0.599,-0.373 1.111,-0.373l0.705,0.098l0.507,0.177l-0,18.091c-0,0.632 -0.019,1.19 -0.063,1.674c-0.038,0.488 -0.087,0.915 -0.139,1.283c-0.242,1.288 -0.661,2.445 -1.252,3.469c-0.594,1.024 -1.335,1.892 -2.222,2.6c-0.888,0.711 -1.912,1.255 -3.069,1.637c-1.16,0.381 -2.41,0.571 -3.757,0.571c-1.588,0 -3.036,-0.269 -4.341,-0.808c-1.306,-0.539 -2.431,-1.275 -3.373,-2.206c-0.942,-0.934 -1.675,-2.026 -2.2,-3.273c-0.526,-1.247 -0.79,-2.581 -0.79,-4c0,-1.445 0.264,-2.79 0.79,-4.04c0.525,-1.247 1.258,-2.339 2.2,-3.27c0.942,-0.934 2.067,-1.664 3.373,-2.19c1.305,-0.525 2.753,-0.786 4.341,-0.786c1.778,-0 3.324,0.34 4.645,1.023c1.318,0.684 2.382,1.615 3.191,2.799Zm-15.125,3.292c-0.365,0.983 -0.545,2.042 -0.545,3.172c0,1.103 0.18,2.149 0.545,3.132c0.362,0.985 0.887,1.84 1.573,2.562c0.689,0.724 1.509,1.296 2.465,1.715c0.955,0.422 2.039,0.632 3.251,0.632c1.157,-0 2.222,-0.199 3.191,-0.591c0.969,-0.395 1.791,-0.947 2.464,-1.658c0.673,-0.708 1.198,-1.549 1.574,-2.521c0.378,-0.972 0.566,-2.034 0.566,-3.192c0,-1.13 -0.196,-2.194 -0.585,-3.193c-0.39,-0.997 -0.929,-1.866 -1.618,-2.601c-0.683,-0.735 -1.505,-1.315 -2.461,-1.734c-0.956,-0.42 -2.001,-0.632 -3.131,-0.632c-1.212,0 -2.296,0.204 -3.251,0.613c-0.956,0.405 -1.776,0.977 -2.465,1.712c-0.686,0.736 -1.211,1.599 -1.573,2.584Zm-19.569,12.907l-2.666,-0l-0,-10.878c-0,-2.181 -0.558,-3.877 -1.675,-5.084c-1.119,-1.209 -2.807,-1.813 -5.07,-1.813c-2.259,-0 -3.945,0.604 -5.048,1.813c-1.105,1.207 -1.655,2.903 -1.655,5.084l-0,10.878l-2.666,-0l0,-11.668c0,-1.233 0.215,-2.363 0.646,-3.387c0.43,-1.026 1.051,-1.906 1.859,-2.641c0.806,-0.735 1.789,-1.307 2.946,-1.716c1.158,-0.408 2.464,-0.609 3.918,-0.609c1.454,-0 2.767,0.201 3.938,0.609c1.173,0.409 2.162,0.981 2.97,1.716c0.806,0.735 1.427,1.615 1.857,2.641c0.431,1.024 0.646,2.154 0.646,3.387l-0,11.668Zm-37.134,-7.943c-0.717,-0.011 -1.463,-0.043 -2.244,-0.098c0.297,2.023 1.157,3.586 2.587,4.691c1.424,1.103 3.311,1.656 5.652,1.656c1.375,-0 2.538,-0.191 3.494,-0.572c0.955,-0.381 1.691,-0.716 2.202,-1.005l1.171,1.893c-0.215,0.131 -0.539,0.308 -0.969,0.531c-0.43,0.223 -0.956,0.441 -1.577,0.651c-0.618,0.209 -1.317,0.386 -2.099,0.53c-0.781,0.145 -1.642,0.218 -2.584,0.218c-1.481,0 -2.875,-0.218 -4.182,-0.65c-1.304,-0.433 -2.448,-1.071 -3.431,-1.912c-0.983,-0.841 -1.759,-1.879 -2.323,-3.115c-0.566,-1.233 -0.849,-2.665 -0.849,-4.296c-0,-1.574 0.27,-3.015 0.809,-4.316c0.539,-1.299 1.29,-2.415 2.262,-3.349c0.97,-0.931 2.119,-1.656 3.453,-2.168c1.331,-0.511 2.793,-0.767 4.381,-0.767c1.348,-0 2.524,0.149 3.534,0.452c1.01,0.302 1.852,0.729 2.524,1.282c0.673,0.55 1.179,1.201 1.517,1.95c0.335,0.748 0.504,1.557 0.504,2.423c-0,0.868 -0.183,1.664 -0.545,2.385c-0.365,0.724 -0.983,1.353 -1.86,1.892c-0.874,0.54 -2.045,0.959 -3.512,1.261c-1.468,0.302 -3.319,0.452 -5.555,0.452c-0.86,0 -1.647,-0.005 -2.36,-0.019Zm-1.738,-5.103c-0.364,0.945 -0.561,1.931 -0.588,2.955c0.73,0.054 1.435,0.087 2.121,0.1c0.689,0.014 1.408,0.02 2.162,0.02c1.83,-0 3.338,-0.112 4.523,-0.335c1.184,-0.224 2.121,-0.52 2.807,-0.888c0.686,-0.368 1.166,-0.801 1.435,-1.299c0.267,-0.501 0.403,-1.026 0.403,-1.579c0,-0.735 -0.155,-1.351 -0.466,-1.852c-0.307,-0.498 -0.727,-0.898 -1.249,-1.2c-0.526,-0.303 -1.119,-0.52 -1.778,-0.651c-0.659,-0.131 -1.34,-0.196 -2.04,-0.196c-1.266,-0 -2.382,0.215 -3.352,0.648c-0.969,0.436 -1.783,1.018 -2.445,1.753c-0.659,0.738 -1.17,1.58 -1.533,2.524Zm-27.16,13.046l0,-27.708c0,-0.395 0.112,-0.716 0.343,-0.967c0.229,-0.247 0.599,-0.373 1.111,-0.373l0.705,0.098l0.504,0.177l0,12.139c0.297,-0.42 0.675,-0.833 1.133,-1.239c0.457,-0.409 1.002,-0.771 1.636,-1.084c0.632,-0.316 1.364,-0.572 2.2,-0.77c0.833,-0.196 1.762,-0.294 2.786,-0.294c2.611,-0 4.658,0.669 6.14,2.009c1.481,1.34 2.221,3.205 2.221,5.595l0,12.417l-2.665,-0l-0,-11.074c-0,-1.051 -0.101,-1.991 -0.302,-2.818c-0.202,-0.828 -0.548,-1.531 -1.032,-2.111c-0.482,-0.577 -1.125,-1.018 -1.917,-1.32c-0.795,-0.302 -1.797,-0.452 -3.009,-0.452c-1.212,-0 -2.268,0.185 -3.172,0.553c-0.901,0.367 -1.647,0.866 -2.241,1.497c-0.594,0.629 -1.037,1.367 -1.331,2.206c-0.297,0.841 -0.447,1.734 -0.447,2.679l0,10.84l-2.663,-0Zm-6.725,-17.146c-0.983,-0.419 -2.214,-0.629 -3.695,-0.629c-1.133,-0 -2.176,0.158 -3.131,0.471c-0.956,0.316 -1.784,0.803 -2.484,1.459c-0.699,0.657 -1.247,1.493 -1.636,2.503c-0.39,1.013 -0.586,2.2 -0.586,3.567c0,1.418 0.216,2.641 0.646,3.665c0.43,1.026 1.018,1.859 1.759,2.505c0.74,0.642 1.614,1.121 2.625,1.437c1.01,0.316 2.08,0.474 3.21,0.474c1.427,-0 2.537,-0.158 3.333,-0.474c0.792,-0.316 1.404,-0.591 1.837,-0.828l1.09,1.931c-0.782,0.422 -1.683,0.795 -2.707,1.124c-1.021,0.33 -2.369,0.493 -4.038,0.493c-1.508,0 -2.916,-0.223 -4.22,-0.669c-1.307,-0.447 -2.432,-1.106 -3.371,-1.972c-0.945,-0.868 -1.686,-1.93 -2.222,-3.191c-0.539,-1.263 -0.809,-2.696 -0.809,-4.297c0,-1.655 0.27,-3.134 0.809,-4.435c0.536,-1.302 1.277,-2.396 2.222,-3.292c0.939,-0.89 2.072,-1.568 3.39,-2.029c1.32,-0.46 2.761,-0.688 4.324,-0.688c1.775,-0 3.161,0.177 4.157,0.531c0.997,0.353 1.618,0.637 1.86,0.846l0.485,0.493c0.133,0.199 0.201,0.441 0.201,0.73c0,0.212 -0.073,0.46 -0.223,0.749c-0.147,0.288 -0.37,0.539 -0.667,0.748c-0.458,-0.394 -1.176,-0.8 -2.159,-1.222Zm-23.104,-2.404c1.253,0.315 2.176,0.631 2.77,0.947c0.751,0.419 1.129,0.907 1.129,1.457c0,0.37 -0.1,0.672 -0.302,0.907l-0.626,0.552c-0.109,-0.103 -0.343,-0.275 -0.708,-0.512c-0.362,-0.236 -0.86,-0.479 -1.492,-0.729c-0.634,-0.251 -1.394,-0.466 -2.285,-0.651c-0.887,-0.182 -1.911,-0.275 -3.068,-0.275c-1.884,-0 -3.379,0.256 -4.482,0.768c-1.105,0.512 -1.658,1.361 -1.658,2.543c-0,0.945 0.37,1.669 1.111,2.167c0.74,0.499 1.783,0.828 3.131,0.986l4.604,0.512c1.318,0.158 2.429,0.4 3.33,0.73c0.904,0.326 1.631,0.727 2.181,1.2c0.553,0.474 0.951,1.005 1.193,1.596c0.242,0.594 0.365,1.242 0.365,1.952c-0,0.869 -0.191,1.661 -0.567,2.385c-0.378,0.722 -0.942,1.345 -1.696,1.871c-0.754,0.528 -1.691,0.942 -2.807,1.242c-1.116,0.302 -2.418,0.454 -3.896,0.454c-1.348,0 -2.587,-0.106 -3.717,-0.316c-1.13,-0.209 -2.121,-0.438 -2.968,-0.688c-0.85,-0.251 -1.53,-0.499 -2.039,-0.749c-0.512,-0.251 -0.823,-0.414 -0.929,-0.493l1.13,-2.012c0.161,0.079 0.477,0.231 0.95,0.455c0.469,0.223 1.07,0.452 1.797,0.688c0.727,0.237 1.574,0.447 2.544,0.632c0.969,0.185 2.033,0.275 3.191,0.275c0.86,0 1.669,-0.057 2.423,-0.177c0.754,-0.117 1.413,-0.316 1.98,-0.591c0.563,-0.275 1.01,-0.623 1.331,-1.045c0.324,-0.42 0.485,-0.945 0.485,-1.577c-0,-0.972 -0.338,-1.74 -1.011,-2.306c-0.672,-0.564 -1.952,-0.95 -3.836,-1.16l-4.239,-0.474c-2.181,-0.237 -3.845,-0.814 -4.989,-1.734c-1.146,-0.921 -1.718,-2.154 -1.718,-3.706c0,-0.711 0.15,-1.4 0.444,-2.069c0.297,-0.67 0.79,-1.266 1.476,-1.792c0.686,-0.525 1.595,-0.948 2.725,-1.263c1.133,-0.316 2.533,-0.471 4.202,-0.471c1.778,-0 3.292,0.155 4.541,0.471Zm-18.213,-8.158c0.39,0.368 0.586,0.814 0.586,1.34c-0,0.525 -0.196,0.98 -0.586,1.361c-0.392,0.381 -0.855,0.572 -1.394,0.572c-0.539,-0 -0.996,-0.191 -1.372,-0.572c-0.379,-0.381 -0.566,-0.836 -0.566,-1.361c-0,-0.526 0.187,-0.972 0.566,-1.34c0.376,-0.368 0.833,-0.553 1.372,-0.553c0.539,0 1.002,0.185 1.394,0.553Zm-2.687,27.708l-0,-18.132c-0,-0.392 0.114,-0.713 0.346,-0.964c0.228,-0.25 0.599,-0.375 1.108,-0.375l0.708,0.1l0.504,0.177l-0,19.194l-2.666,-0Zm-28.41,-6.464c0.55,1.497 1.056,2.878 1.514,4.138c0.43,-1.181 0.852,-2.366 1.271,-3.548c0.417,-1.181 0.842,-2.396 1.272,-3.645c0.43,-1.248 0.874,-2.563 1.334,-3.94c0.457,-1.381 0.929,-2.87 1.413,-4.474c0.188,-0.604 0.444,-1.01 0.768,-1.223c0.321,-0.209 0.752,-0.315 1.291,-0.315c0.378,-0 0.694,0.046 0.95,0.138c0.256,0.093 0.425,0.164 0.504,0.216c0.351,1.184 0.762,2.483 1.233,3.904c0.471,1.419 0.969,2.87 1.495,4.354c0.523,1.484 1.048,2.962 1.574,4.435c0.525,1.471 1.029,2.838 1.514,4.098c1.023,-2.652 2.039,-5.334 3.049,-8.04c1.01,-2.707 1.879,-5.334 2.606,-7.883c0.133,-0.419 0.31,-0.73 0.525,-0.926c0.216,-0.196 0.55,-0.296 1.011,-0.296c0.375,-0 0.686,0.068 0.928,0.198l0.444,0.275c-0.242,0.972 -0.626,2.214 -1.152,3.725c-0.525,1.511 -1.116,3.14 -1.775,4.888c-0.662,1.748 -1.353,3.52 -2.08,5.32c-0.727,1.8 -1.416,3.488 -2.062,5.065l-3.229,-0c-0.297,-0.684 -0.675,-1.648 -1.133,-2.898c-0.457,-1.247 -0.955,-2.619 -1.494,-4.116c-0.539,-1.498 -1.084,-3.055 -1.634,-4.673c-0.553,-1.614 -1.059,-3.145 -1.517,-4.591c-0.457,1.471 -0.947,3.009 -1.473,4.61c-0.525,1.604 -1.043,3.148 -1.554,4.632c-0.512,1.486 -0.997,2.845 -1.454,4.079c-0.458,1.236 -0.823,2.221 -1.092,2.957l-3.23,-0c-0.648,-1.629 -1.32,-3.35 -2.02,-5.163c-0.7,-1.813 -1.348,-3.496 -1.939,-5.045c-0.593,-1.55 -1.089,-2.878 -1.494,-3.981c-0.403,-1.103 -0.646,-1.759 -0.727,-1.971c-0.107,-0.289 -0.221,-0.616 -0.344,-0.986c-0.119,-0.368 -0.182,-0.681 -0.182,-0.945c0,-0.368 0.123,-0.689 0.365,-0.967c0.242,-0.275 0.607,-0.413 1.089,-0.413c0.297,-0 0.539,0.027 0.727,0.079l0.365,0.119c0.297,1.155 0.681,2.451 1.152,3.883c0.468,1.432 0.983,2.903 1.533,4.414c0.552,1.511 1.105,3.014 1.658,4.512Zm-12.542,-10.641l-13.894,-0c-0.564,-0 -0.956,-0.126 -1.171,-0.376c-0.215,-0.248 -0.324,-0.558 -0.324,-0.926l0.082,-0.591l0.16,-0.473l16.925,-0c1.185,-0 1.776,0.435 1.776,1.301c-0,0.343 -0.101,0.678 -0.303,1.005c-0.201,0.329 -0.626,0.822 -1.271,1.478c-1.078,1.079 -2.249,2.228 -3.515,3.45c-1.266,1.22 -2.543,2.423 -3.837,3.605c-1.293,1.182 -2.543,2.32 -3.757,3.409c-1.209,1.092 -2.301,2.042 -3.27,2.859l15.953,0l-0,2.364l-18.943,-0l-0,-2.799c0.942,-0.839 2.061,-1.847 3.352,-3.015c1.293,-1.168 2.641,-2.396 4.04,-3.684c1.4,-1.288 2.794,-2.589 4.18,-3.904c1.386,-1.313 2.66,-2.546 3.817,-3.703Z" style="fill:#7daec8;"/>
</svg>
