<svg width="100%" height="100%" viewBox="0 0 2317 238" version="1.1" xmlns="http://www.w3.org/2000/svg" xmlns:xlink="http://www.w3.org/1999/xlink" xml:space="preserve" style="fill-rule:evenodd;clip-rule:evenodd;stroke-linejoin:round;stroke-miterlimit:2;">
    <path d="M1698.75,112.762c0,-11.749 9.521,-21.279 21.271,-21.279c11.758,0 21.283,9.53 21.283,21.279c0,11.75 -9.525,21.28 -21.283,21.28c-11.75,-0 -21.271,-9.53 -21.271,-21.28Z" style="fill:#ed1c24;fill-rule:nonzero;"/>
    <path d="M99.158,32.242l-74.875,-0l0,64.758l72.563,-0l-0,22.55l-72.563,-0l0,108.121l-24.283,-0l0,-217.979l99.158,-0l0,22.55Zm89.396,-22.55l0,195.429l60.134,-0l-0,22.55l-84.417,-0l-0,-217.979l24.283,-0Zm110.279,217.979l0,-217.979l113.038,-0l-0,22.55l-88.754,-0l-0,64.758l86.154,-0l-0,22.55l-86.154,-0l-0,85.571l88.754,-0l-0,22.55l-113.038,-0Zm181.875,-0l0,-227.229l169.988,178.083l-0,-168.833l24.283,-0l0,227.808l-169.987,-177.792l-0,167.963l-24.284,-0Zm384.079,-187.913l-19.37,12.434c-8.671,-15.038 -19.08,-23.709 -37.584,-23.709c-19.366,0 -36.133,13.875 -36.133,33.825c-0,18.792 19.367,27.463 34.113,34.113l14.454,6.362c28.333,12.429 52.325,26.596 52.325,61.288c-0,38.162 -30.642,67.358 -68.513,67.358c-34.979,0 -61,-22.55 -67.941,-56.371l23.708,-6.65c3.179,22.259 20.237,40.471 43.654,40.471c23.417,0 44.808,-17.925 44.808,-42.496c0,-25.437 -19.945,-34.112 -40.183,-43.366l-13.3,-5.78c-25.442,-11.566 -47.413,-24.575 -47.413,-55.795c0,-33.825 28.625,-55.509 61.005,-55.509c24.283,0 44.808,12.434 56.37,33.825Zm69.413,187.913l-0,-217.979l35.85,-0c39.604,-0 72.85,14.454 72.85,58.975c0,17.637 -6.646,32.67 -21.392,42.5c26.021,6.358 41.342,29.779 41.342,55.795c-0,43.367 -34.983,60.709 -78.054,60.709l-50.596,-0Zm24.288,-195.429l-0,73.429l9.25,-0c27.462,-0 50.879,-3.179 50.879,-37.004c-0,-32.955 -20.813,-36.425 -50.592,-36.425l-9.537,-0Zm-0,94.25l-0,78.629l24.283,-0c27.175,-0 55.796,-6.65 55.796,-39.892c-0,-33.829 -32.379,-38.737 -58.975,-38.737l-21.104,-0Zm189.674,-116.8l0,129.804c0,16.196 -0.583,34.692 9.538,48.567c9.537,13.299 28.046,20.816 43.946,20.816c15.608,0 32.666,-7.225 42.783,-19.367c11.563,-13.875 10.7,-32.958 10.7,-50.016l0,-129.804l24.283,-0l0,136.454c0,23.704 -1.733,42.496 -19.083,60.425c-15.029,16.183 -36.721,24.858 -58.683,24.858c-20.533,0 -41.633,-7.804 -56.375,-22.254c-19.079,-18.221 -21.396,-38.171 -21.396,-63.029l0,-136.454l24.287,-0Zm224.717,122.291l0,95.688l-24.283,-0l-0,-217.979l31.508,-0c41.342,-0 79.788,10.987 79.788,60.133c-0,33.537 -21.105,57.246 -54.642,60.133l69.387,97.713l-29.779,-0l-65.908,-95.688l-6.071,0Zm0,-99.741l0,78.346l7.508,-0c27.467,-0 55.217,-5.205 55.217,-39.03c0,-35.846 -26.3,-39.316 -55.5,-39.316l-7.225,-0Zm347.788,104.708c2.904,16.787 11.641,30.067 24.721,43.375c15.904,15.892 39.029,27.75 61.866,27.75c37.875,0 76.913,-29.233 80.225,-69.042l0.2,-2.066l1.55,-0.009c3.621,19.471 14.321,33.575 24.65,43.367c16.317,15.471 39.029,27.75 61.863,27.75c37.875,0 75.579,-27.587 79.908,-68.229l0.358,-2.879l1.505,-0c2.466,13.091 10.833,29.287 24.658,43.358c15.896,15.892 39.021,27.75 61.862,27.75c37.867,0 76.5,-28.604 79.813,-68.417l0.375,-2.7l2.05,0.038c3.225,13.575 10.183,29.15 24.104,43.329c15.904,15.892 39.025,27.75 61.867,27.75c1.116,0 3.116,-0.263 4.233,-0.308l0.054,22.791l-3.708,0.067c-33.863,0 -64.25,-15.533 -84.792,-39.771c-0.879,1.117 -1.8,2.229 -2.758,3.346c-19.946,23.129 -50.304,36.425 -80.654,36.425c-33.888,0 -64.292,-15.55 -84.834,-39.821c-0.896,1.133 -1.829,2.263 -2.8,3.396c-19.954,23.129 -50.308,36.425 -80.662,36.425c-33.946,0 -64.388,-15.608 -84.929,-39.942c-0.93,1.171 -1.896,2.346 -2.905,3.517c-19.945,23.129 -50.299,36.425 -80.658,36.425c-35.708,0 -67.546,-17.267 -88.05,-43.808c-20.625,26.612 -52.833,43.808 -89.087,43.808c-62.2,0 -112.625,-50.425 -112.625,-112.625c-0,-62.2 50.425,-112.625 112.625,-112.625c31.516,0 60.195,12.712 80.637,33.342l-16.633,16.087c-16.309,-16.521 -38.963,-26.754 -64.004,-26.754c-49.684,-0 -89.95,40.271 -89.95,89.95c-0,49.679 40.266,89.954 89.95,89.954c43.237,0 79.654,-30.325 88.304,-70.983l1.671,-0.021Z" style="fill:#005aaa;"/>
</svg>
