<svg width="100%" height="100%" viewBox="0 0 1288 355" version="1.1" xmlns="http://www.w3.org/2000/svg" xmlns:xlink="http://www.w3.org/1999/xlink" xml:space="preserve" style="fill-rule:evenodd;clip-rule:evenodd;stroke-linejoin:round;stroke-miterlimit:2;">
    <g transform="matrix(4.16667,0,0,4.16667,0,0)">
        <path d="M73.376,60.44L73.376,62.052L63.347,62.052L70.508,49.53L64.359,49.53L64.359,47.918L73.376,47.918L66.215,60.44L73.376,60.44ZM77.689,58.865L80.277,52.792L82.845,58.865L85.394,53.279L87.306,53.279L82.845,62.353L80.277,56.485L77.689,62.353L73.228,53.279L75.14,53.279L77.689,58.865ZM90.533,49.268C90.533,49.905 90.009,50.411 89.371,50.411C88.733,50.411 88.209,49.905 88.209,49.268C88.209,48.612 88.733,48.087 89.371,48.087C90.009,48.087 90.533,48.612 90.533,49.268ZM90.214,62.052L88.527,62.052L88.527,53.279L90.214,53.279L90.214,62.052ZM96.439,55.285C96.232,54.854 95.801,54.516 95.314,54.516C94.845,54.516 94.396,54.891 94.396,55.379C94.396,56.147 95.407,56.485 96.439,56.953C97.469,57.421 98.463,58.059 98.463,59.446C98.463,61.114 97.076,62.352 95.445,62.352C94.17,62.352 92.877,61.62 92.408,60.383L93.851,59.727C94.209,60.383 94.638,60.852 95.445,60.852C96.157,60.852 96.776,60.365 96.776,59.615C96.776,59.146 96.551,58.921 96.157,58.659L94.507,57.778C93.532,57.253 92.821,56.766 92.821,55.566C92.821,54.141 93.983,53.017 95.407,53.017C96.476,53.017 97.338,53.597 97.807,54.553L96.439,55.285ZM106.563,55.772C105.888,55.004 105.064,54.591 104.052,54.591C102.401,54.591 101.127,56.053 101.127,57.666C101.127,59.465 102.383,60.777 104.164,60.777C105.138,60.777 105.926,60.327 106.563,59.615L106.563,61.771C105.795,62.184 105.026,62.353 104.145,62.353C101.558,62.353 99.439,60.365 99.439,57.74C99.439,55.022 101.539,53.018 104.238,53.018C105.026,53.018 105.888,53.204 106.563,53.597L106.563,55.772ZM110.07,45.781L110.07,54.46L110.107,54.46C110.633,53.523 111.682,53.018 112.751,53.018C115.225,53.018 115.863,54.686 115.863,56.822L115.863,62.052L114.175,62.052L114.175,57.028C114.175,55.528 113.969,54.517 112.245,54.517C110.07,54.517 110.07,56.428 110.07,58.021L110.07,62.052L108.383,62.052L108.383,45.781L110.07,45.781ZM119.202,57.947C119.22,59.446 120.232,60.853 121.845,60.853C123.139,60.853 123.832,60.196 124.47,59.147L125.894,59.953C125.068,61.471 123.532,62.353 121.826,62.353C119.146,62.353 117.514,60.327 117.514,57.74C117.514,55.041 118.958,53.017 121.789,53.017C124.582,53.017 125.894,55.079 125.894,57.685L125.894,57.947L119.202,57.947ZM124.207,56.673C124,55.36 123.139,54.479 121.789,54.479C120.477,54.479 119.501,55.416 119.295,56.673L124.207,56.673ZM129.026,54.46L129.063,54.46C129.589,53.522 130.638,53.017 131.708,53.017C134.182,53.017 134.819,54.686 134.819,56.821L134.819,62.053L133.131,62.053L133.131,57.028C133.131,55.528 132.925,54.517 131.201,54.517C129.026,54.517 129.026,56.429 129.026,58.021L129.026,62.053L127.339,62.053L127.339,53.279L129.026,53.279L129.026,54.46ZM151.093,53.617L151.093,47.918L152.855,47.918L152.855,62.052L151.093,62.052L151.093,55.266L144.364,55.266L144.364,62.052L142.602,62.052L142.602,47.918L144.364,47.918L144.364,53.617L151.093,53.617ZM157.601,49.268C157.601,49.905 157.077,50.411 156.438,50.411C155.801,50.411 155.278,49.905 155.278,49.268C155.278,48.612 155.801,48.087 156.438,48.087C157.077,48.087 157.601,48.612 157.601,49.268ZM157.283,62.052L155.596,62.052L155.596,53.279L157.283,53.279L157.283,62.052ZM161.614,54.385L161.652,54.385C162.137,53.617 163.02,53.017 163.975,53.017C165.119,53.017 165.944,53.598 166.506,54.573C167.049,53.635 168.1,53.017 169.206,53.017C171.511,53.017 172.111,54.816 172.111,56.803L172.111,62.052L170.424,62.052L170.424,57.085C170.424,55.96 170.274,54.516 168.792,54.516C166.994,54.516 166.863,56.391 166.863,57.74L166.863,62.052L165.174,62.052L165.174,57.403C165.174,56.26 165.119,54.516 163.564,54.516C161.762,54.516 161.614,56.372 161.614,57.74L161.614,62.052L159.925,62.052L159.925,53.279L161.614,53.279L161.614,54.385ZM175.994,54.385L176.032,54.385C176.52,53.617 177.4,53.017 178.357,53.017C179.499,53.017 180.326,53.598 180.887,54.573C181.432,53.635 182.48,53.017 183.586,53.017C185.892,53.017 186.493,54.816 186.493,56.803L186.493,62.052L184.805,62.052L184.805,57.085C184.805,55.96 184.656,54.516 183.175,54.516C181.374,54.516 181.244,56.391 181.244,57.74L181.244,62.052L179.557,62.052L179.557,57.403C179.557,56.26 179.499,54.516 177.944,54.516C176.145,54.516 175.994,56.372 175.994,57.74L175.994,62.052L174.308,62.052L174.308,53.279L175.994,53.279L175.994,54.385ZM189.757,57.947C189.776,59.446 190.789,60.853 192.401,60.853C193.694,60.853 194.387,60.196 195.026,59.147L196.449,59.953C195.625,61.471 194.087,62.353 192.38,62.353C189.701,62.353 188.07,60.327 188.07,57.74C188.07,55.041 189.512,53.017 192.344,53.017C195.136,53.017 196.449,55.079 196.449,57.685L196.449,57.947L189.757,57.947ZM194.761,56.673C194.557,55.36 193.694,54.479 192.344,54.479C191.032,54.479 190.057,55.416 189.852,56.673L194.761,56.673ZM199.658,62.052L197.969,62.052L197.969,45.781L199.658,45.781L199.658,62.052ZM209.087,53.279L209.087,58.134C209.087,59.54 209.444,60.778 211.112,60.778C212.781,60.778 213.137,59.54 213.137,58.134L213.137,53.279L214.824,53.279L214.824,58.322C214.824,60.721 213.699,62.352 211.112,62.352C208.525,62.352 207.4,60.721 207.4,58.322L207.4,53.279L209.087,53.279ZM218.763,54.46L218.8,54.46C219.326,53.522 220.375,53.017 221.444,53.017C223.918,53.017 224.555,54.686 224.555,56.821L224.555,62.053L222.867,62.053L222.867,57.028C222.867,55.528 222.662,54.517 220.937,54.517C218.763,54.517 218.763,56.429 218.763,58.021L218.763,62.053L217.075,62.053L217.075,53.279L218.763,53.279L218.763,54.46ZM233.424,60.684L233.386,60.684C232.711,61.677 231.644,62.352 230.406,62.352C227.708,62.352 226.208,60.121 226.208,57.609C226.208,55.21 227.801,53.017 230.331,53.017C231.644,53.017 232.694,53.692 233.386,54.741L233.424,54.741L233.424,45.781L235.111,45.781L235.111,62.052L233.424,62.052L233.424,60.684ZM233.519,57.666C233.519,55.96 232.487,54.516 230.669,54.516C228.926,54.516 227.895,56.035 227.895,57.666C227.895,59.315 228.887,60.852 230.669,60.852C232.506,60.852 233.519,59.391 233.519,57.666ZM244.657,49.53L244.657,53.504L249.569,53.504L249.569,55.116L244.657,55.116L244.657,62.052L242.895,62.052L242.895,47.918L249.737,47.918L249.737,49.53L244.657,49.53ZM260.199,57.685C260.199,60.328 258.135,62.353 255.511,62.353C252.888,62.353 250.825,60.328 250.825,57.685C250.825,55.041 252.888,53.017 255.511,53.017C258.135,53.017 260.199,55.041 260.199,57.685ZM252.513,57.685C252.513,59.333 253.843,60.74 255.511,60.74C257.18,60.74 258.51,59.333 258.51,57.685C258.51,56.017 257.18,54.629 255.511,54.629C253.843,54.629 252.513,56.017 252.513,57.685ZM254.669,50.167C254.669,50.805 254.162,51.311 253.544,51.311C252.907,51.311 252.4,50.805 252.4,50.167C252.4,49.549 252.907,49.042 253.544,49.042C254.162,49.042 254.669,49.549 254.669,50.167ZM258.625,50.167C258.625,50.805 258.117,51.311 257.5,51.311C256.862,51.311 256.355,50.805 256.355,50.167C256.355,49.549 256.862,49.042 257.5,49.042C258.117,49.042 258.625,49.549 258.625,50.167ZM263.538,54.704L263.594,54.704C264.006,53.673 264.87,53.017 265.995,53.017C266.481,53.017 266.968,53.186 267.381,53.448L266.613,54.985C266.311,54.723 265.975,54.629 265.581,54.629C263.763,54.629 263.538,56.316 263.538,57.741L263.538,62.052L261.849,62.052L261.849,53.279L263.538,53.279L263.538,54.704ZM274.862,60.684L274.824,60.684C274.149,61.677 273.082,62.352 271.843,62.352C269.145,62.352 267.645,60.121 267.645,57.609C267.645,55.21 269.239,53.017 271.768,53.017C273.082,53.017 274.131,53.692 274.824,54.741L274.862,54.741L274.862,45.781L276.548,45.781L276.548,62.052L274.862,62.052L274.862,60.684ZM274.957,57.666C274.957,55.96 273.924,54.516 272.107,54.516C270.364,54.516 269.333,56.035 269.333,57.666C269.333,59.315 270.325,60.852 272.107,60.852C273.944,60.852 274.957,59.391 274.957,57.666ZM279.757,57.947C279.776,59.446 280.789,60.853 282.401,60.853C283.694,60.853 284.387,60.196 285.026,59.147L286.449,59.953C285.625,61.471 284.087,62.353 282.38,62.353C279.701,62.353 278.07,60.327 278.07,57.74C278.07,55.041 279.512,53.017 282.344,53.017C285.136,53.017 286.449,55.079 286.449,57.685L286.449,57.947L279.757,57.947ZM284.761,56.673C284.557,55.36 283.694,54.479 282.344,54.479C281.032,54.479 280.057,55.416 279.852,56.673L284.761,56.673ZM13.208,4.408L3.235,4.408L3.235,13.036L12.899,13.036L12.899,16.041L3.235,16.041L3.235,30.445L0,30.445L0,1.404L13.208,1.404L13.208,4.408ZM25.112,1.404L25.112,27.442L33.122,27.442L33.122,30.447L21.877,30.447L21.877,1.404L25.112,1.404ZM39.8,30.447L39.8,1.404L54.855,1.404L54.855,4.409L43.034,4.409L43.034,13.037L54.509,13.037L54.509,16.041L43.034,16.041L43.034,27.441L54.855,27.441L54.855,30.447L39.8,30.447ZM64.022,30.447L64.022,0.172L86.662,23.897L86.662,1.404L89.897,1.404L89.897,31.753L67.259,8.066L67.259,30.447L64.022,30.447ZM115.175,5.41L112.595,7.066C111.44,5.064 110.055,3.909 107.589,3.909C105.01,3.909 102.777,5.756 102.777,8.413C102.777,10.918 105.355,12.075 107.321,12.959L109.246,13.807C113.019,15.461 116.214,17.351 116.214,21.974C116.214,27.057 112.134,30.946 107.088,30.946C102.43,30.946 98.965,27.941 98.04,23.436L101.201,22.552C101.619,25.515 103.894,27.941 107.013,27.941C110.13,27.941 112.98,25.555 112.98,22.28C112.98,18.892 110.323,17.734 107.629,16.504L105.856,15.732C102.469,14.191 99.543,12.459 99.543,8.298C99.543,3.792 103.355,0.902 107.666,0.902C110.901,0.902 113.634,2.562 115.175,5.41ZM124.417,30.445L124.417,1.404L129.192,1.404C134.468,1.404 138.896,3.331 138.896,9.262C138.896,11.611 138.01,13.615 136.048,14.926C139.513,15.77 141.553,18.892 141.553,22.358C141.553,28.136 136.894,30.445 131.159,30.445L124.417,30.445ZM127.654,16.967L127.654,27.44L130.888,27.44C134.508,27.44 138.318,26.556 138.318,22.126C138.318,17.619 134.007,16.967 130.464,16.967L127.654,16.967ZM127.654,4.408L127.654,14.191L128.884,14.191C132.543,14.191 135.663,13.768 135.663,9.262C135.663,4.87 132.89,4.408 128.925,4.408L127.654,4.408ZM152.916,1.404L152.916,18.699C152.916,20.854 152.839,23.32 154.186,25.169C155.455,26.941 157.921,27.943 160.039,27.943C162.117,27.943 164.391,26.978 165.736,25.362C167.277,23.514 167.163,20.97 167.163,18.699L167.163,1.404L170.396,1.404L170.396,19.583C170.396,22.742 170.165,25.246 167.857,27.633C165.852,29.79 162.963,30.948 160.039,30.948C157.305,30.948 154.494,29.906 152.531,27.981C149.991,25.553 149.682,22.896 149.682,19.583L149.682,1.404L152.916,1.404ZM182.842,17.696L182.842,30.445L179.611,30.445L179.611,1.405L183.806,1.405C189.311,1.405 194.43,2.869 194.43,9.417C194.43,13.884 191.623,17.041 187.157,17.428L196.398,30.445L192.431,30.445L183.654,17.696L182.842,17.696ZM182.842,4.408L182.842,14.847L183.844,14.847C187.502,14.847 191.198,14.153 191.198,9.646C191.198,4.87 187.693,4.408 183.806,4.408L182.842,4.408ZM229.164,18.359C229.547,20.597 230.713,22.366 232.455,24.138C234.571,26.255 237.653,27.835 240.694,27.835C245.737,27.835 250.94,23.941 251.379,18.635L251.405,18.361L251.614,18.361C252.095,20.955 253.521,22.833 254.894,24.138C257.068,26.198 260.092,27.835 263.134,27.835C268.178,27.835 273.202,24.159 273.777,18.744L273.827,18.361L274.024,18.361C274.353,20.104 275.464,22.261 277.305,24.138C279.425,26.255 282.504,27.835 285.549,27.835C290.59,27.835 295.737,24.024 296.178,18.72L296.225,18.361L296.5,18.366C296.929,20.174 297.853,22.25 299.71,24.138C301.826,26.255 304.909,27.835 307.95,27.835C308.097,27.835 308.364,27.802 308.513,27.794L308.519,30.831L308.027,30.84C303.517,30.84 299.467,28.77 296.735,25.541C296.616,25.691 296.495,25.838 296.367,25.986C293.71,29.068 289.668,30.84 285.623,30.84C281.112,30.84 277.063,28.768 274.325,25.535C274.208,25.685 274.083,25.837 273.954,25.986C271.296,29.068 267.252,30.84 263.213,30.84C258.694,30.84 254.637,28.759 251.897,25.519C251.778,25.674 251.649,25.831 251.513,25.986C248.857,29.068 244.816,30.84 240.774,30.84C236.014,30.84 231.775,28.537 229.043,25.004C226.298,28.549 222.007,30.84 217.179,30.84C208.895,30.84 202.179,24.122 202.179,15.835C202.179,7.549 208.895,0.831 217.179,0.831C221.377,0.831 225.197,2.522 227.919,5.271L225.704,7.414C223.535,5.214 220.514,3.85 217.179,3.85C210.565,3.85 205.2,9.216 205.2,15.835C205.2,22.453 210.565,27.817 217.179,27.817C222.938,27.817 227.788,23.78 228.943,18.361L229.164,18.359Z" style="fill:rgb(0,90,170);"/>
    </g>
    <g transform="matrix(4.16667,0,0,4.16667,0,0)">
        <path d="M226.246,15.138C226.246,13.571 227.511,12.303 229.078,12.303C230.641,12.303 231.911,13.571 231.911,15.138C231.911,16.702 230.641,17.972 229.078,17.972C227.511,17.972 226.246,16.702 226.246,15.138ZM139.78,73.508L139.75,73.508L138.43,80.979L136.974,80.979L139.285,69.187L143.17,78.099L147.057,69.187L149.367,80.979L147.911,80.979L146.592,73.508L146.561,73.508L143.17,81.22L139.78,73.508ZM151.284,77.694C151.299,78.894 152.109,80.019 153.399,80.019C154.435,80.019 154.991,79.494 155.5,78.654L156.64,79.299C155.98,80.515 154.75,81.22 153.385,81.22C151.239,81.22 149.934,79.599 149.934,77.529C149.934,75.369 151.089,73.748 153.355,73.748C155.59,73.748 156.64,75.399 156.64,77.484L156.64,77.694L151.284,77.694ZM155.291,76.674C155.125,75.623 154.435,74.918 153.355,74.918C152.304,74.918 151.524,75.669 151.359,76.674L155.291,76.674ZM159.205,80.979L157.855,80.979L157.855,67.957L159.205,67.957L159.205,80.979ZM162.535,80.979L161.183,80.979L161.183,67.957L162.535,67.957L162.535,80.979ZM165.263,77.694C165.278,78.894 166.088,80.019 167.378,80.019C168.415,80.019 168.969,79.494 169.479,78.654L170.62,79.299C169.959,80.515 168.729,81.22 167.364,81.22C165.218,81.22 163.914,79.599 163.914,77.529C163.914,75.369 165.068,73.748 167.333,73.748C169.569,73.748 170.62,75.399 170.62,77.484L170.62,77.694L165.263,77.694ZM169.269,76.674C169.104,75.623 168.415,74.918 167.333,74.918C166.284,74.918 165.503,75.669 165.338,76.674L169.269,76.674ZM173.079,74.843L173.108,74.843C173.499,74.228 174.205,73.748 174.968,73.748C175.884,73.748 176.544,74.213 176.995,74.993C177.429,74.243 178.269,73.748 179.154,73.748C181,73.748 181.48,75.188 181.48,76.778L181.48,80.979L180.13,80.979L180.13,77.004C180.13,76.104 180.01,74.948 178.825,74.948C177.384,74.948 177.279,76.448 177.279,77.529L177.279,80.979L175.929,80.979L175.929,77.259C175.929,76.343 175.884,74.948 174.639,74.948C173.198,74.948 173.079,76.433 173.079,77.529L173.079,80.979L171.728,80.979L171.728,73.958L173.079,73.958L173.079,74.843ZM188.963,67.957L188.963,74.903L188.993,74.903C189.413,74.153 190.253,73.748 191.108,73.748C193.089,73.748 193.598,75.084 193.598,76.794L193.598,80.98L192.249,80.98L192.249,76.959C192.249,75.758 192.083,74.948 190.703,74.948C188.963,74.948 188.963,76.479 188.963,77.754L188.963,80.98L187.612,80.98L187.612,67.957L188.963,67.957ZM197.363,70.748C197.363,71.257 196.943,71.663 196.433,71.663C195.922,71.663 195.502,71.257 195.502,70.748C195.502,70.223 195.922,69.801 196.433,69.801C196.943,69.801 197.363,70.223 197.363,70.748ZM197.107,80.979L195.757,80.979L195.757,73.957L197.107,73.957L197.107,80.979ZM200.573,74.843L200.603,74.843C200.993,74.228 201.698,73.748 202.462,73.748C203.378,73.748 204.039,74.213 204.489,74.993C204.923,74.243 205.763,73.748 206.649,73.748C208.495,73.748 208.974,75.188 208.974,76.778L208.974,80.979L207.625,80.979L207.625,77.004C207.625,76.104 207.504,74.948 206.32,74.948C204.878,74.948 204.774,76.448 204.774,77.529L204.774,80.979L203.423,80.979L203.423,77.259C203.423,76.343 203.378,74.948 202.133,74.948C200.693,74.948 200.573,76.433 200.573,77.529L200.573,80.979L199.222,80.979L199.222,73.958L200.573,73.958L200.573,74.843ZM212.078,74.843L212.108,74.843C212.498,74.228 213.203,73.748 213.967,73.748C214.883,73.748 215.543,74.213 215.994,74.993C216.428,74.243 217.268,73.748 218.154,73.748C220,73.748 220.479,75.188 220.479,76.778L220.479,80.979L219.129,80.979L219.129,77.004C219.129,76.104 219.009,74.948 217.825,74.948C216.383,74.948 216.279,76.448 216.279,77.529L216.279,80.979L214.928,80.979L214.928,77.259C214.928,76.343 214.883,74.948 213.638,74.948C212.198,74.948 212.078,76.433 212.078,77.529L212.078,80.979L210.727,80.979L210.727,73.958L212.078,73.958L212.078,74.843ZM223.087,77.694C223.102,78.894 223.913,80.019 225.203,80.019C226.238,80.019 226.793,79.494 227.303,78.654L228.443,79.299C227.784,80.515 226.553,81.22 225.188,81.22C223.042,81.22 221.737,79.599 221.737,77.529C221.737,75.369 222.892,73.748 225.158,73.748C227.393,73.748 228.443,75.399 228.443,77.484L228.443,77.694L223.087,77.694ZM227.093,76.674C226.928,75.623 226.238,74.918 225.158,74.918C224.107,74.918 223.328,75.669 223.163,76.674L227.093,76.674ZM231.007,80.979L229.657,80.979L229.657,67.957L231.007,67.957L231.007,80.979ZM244.132,77.483C244.132,79.599 242.483,81.22 240.381,81.22C238.282,81.22 236.63,79.599 236.63,77.483C236.63,75.369 238.282,73.749 240.381,73.749C242.483,73.749 244.132,75.369 244.132,77.483ZM237.981,77.483C237.981,78.805 239.046,79.93 240.381,79.93C241.716,79.93 242.782,78.805 242.782,77.483C242.782,76.148 241.716,75.038 240.381,75.038C239.046,75.038 237.981,76.148 237.981,77.483ZM251.932,80.845C251.932,83.261 251.243,85 248.512,85C246.561,85 245.15,83.799 245.121,81.819L246.471,81.819C246.471,83.08 247.341,83.799 248.573,83.799C250.236,83.799 250.583,82.66 250.583,81.22L250.583,79.885L250.552,79.885C250.012,80.679 249.158,81.22 248.167,81.22C246.006,81.22 244.805,79.434 244.805,77.423C244.805,75.502 246.082,73.749 248.106,73.749C249.158,73.749 249.998,74.288 250.552,75.158L250.583,75.158L250.583,73.957L251.932,73.957L251.932,80.845ZM250.658,77.469C250.658,76.103 249.832,74.947 248.376,74.947C246.981,74.947 246.157,76.164 246.157,77.469C246.157,78.789 246.952,80.02 248.376,80.02C249.847,80.02 250.658,78.849 250.658,77.469ZM261.5,69.322C261.23,69.202 260.885,69.036 260.6,69.036C259.64,69.036 259.64,70.252 259.64,70.942L259.64,73.957L261.5,73.957L261.5,75.218L259.64,75.218L259.64,80.979L258.29,80.979L258.29,75.218L257.674,75.218L257.674,73.957L258.29,73.957L258.29,70.537C258.29,69.006 258.816,67.777 260.555,67.777C260.885,67.777 261.202,67.837 261.5,67.957L261.5,69.322ZM264.051,70.748C264.051,71.257 263.631,71.663 263.121,71.663C262.61,71.663 262.19,71.257 262.19,70.748C262.19,70.223 262.61,69.801 263.121,69.801C263.631,69.801 264.051,70.223 264.051,70.748ZM263.794,85L262.445,85L262.445,73.957L263.794,73.957L263.794,85ZM272.827,77.483C272.827,79.599 271.176,81.22 269.076,81.22C266.976,81.22 265.326,79.599 265.326,77.483C265.326,75.369 266.976,73.749 269.076,73.749C271.176,73.749 272.827,75.369 272.827,77.483ZM266.674,77.483C266.674,78.805 267.741,79.93 269.076,79.93C270.411,79.93 271.477,78.805 271.477,77.483C271.477,76.148 270.411,75.038 269.076,75.038C267.741,75.038 266.674,76.148 266.674,77.483ZM275.496,75.098L275.541,75.098C275.871,74.272 276.561,73.748 277.46,73.748C277.852,73.748 278.241,73.883 278.572,74.093L277.956,75.323C277.715,75.113 277.447,75.038 277.13,75.038C275.675,75.038 275.496,76.389 275.496,77.529L275.496,80.979L274.146,80.979L274.146,73.958L275.496,73.958L275.496,75.098ZM284.556,79.884L284.526,79.884C283.986,80.679 283.13,81.219 282.14,81.219C279.98,81.219 278.78,79.435 278.78,77.423C278.78,75.503 280.055,73.749 282.08,73.749C283.13,73.749 283.971,74.289 284.526,75.128L284.556,75.128L284.556,67.957L285.907,67.957L285.907,80.979L284.556,80.979L284.556,79.884ZM284.63,77.468C284.63,76.103 283.806,74.947 282.351,74.947C280.955,74.947 280.129,76.164 280.129,77.468C280.129,78.789 280.924,80.02 282.351,80.02C283.821,80.02 284.63,78.849 284.63,77.468Z" style="fill:rgb(210,34,41);"/>
    </g>
</svg>
