<svg width="100%" height="100%" viewBox="0 0 140 141" version="1.1" xmlns="http://www.w3.org/2000/svg" xmlns:xlink="http://www.w3.org/1999/xlink" xml:space="preserve" style="fill-rule:evenodd;clip-rule:evenodd;stroke-linejoin:round;stroke-miterlimit:2;">
    <path d="M63.819,112.348c-20.16,-2.853 -35.687,-20.198 -35.687,-41.141c0,-12.723 5.731,-24.119 14.749,-31.743l20.938,20.938l0,51.946Zm32.67,-72.884c9.018,7.624 14.749,19.02 14.749,31.743c0,20.943 -15.527,38.288 -35.687,41.141l-0,-51.946l20.938,-20.938Z" style="fill:#396;"/>
    <path d="M115.073,20.879c13.749,12.409 22.396,30.367 22.396,50.328c-0,37.411 -30.373,67.783 -67.784,67.783c-37.411,0 -67.784,-30.372 -67.784,-67.783c0,-19.961 8.647,-37.919 22.396,-50.328l11.841,11.841c-10.732,9.364 -17.517,23.139 -17.517,38.487c-0,28.183 22.881,51.064 51.064,51.064c28.183,-0 51.064,-22.881 51.064,-51.064c0,-15.348 -6.785,-29.123 -17.517,-38.487l11.841,-11.841Z" style="fill:#069;"/>
    <circle cx="69.685" cy="24.344" r="22.783" style="fill:#900;"/>
</svg>
